<?xml version="1.0" encoding="UTF-8" standalone="no"?><svg width="33" height="32" viewBox="0 0 33 32" fill="none" xmlns="http://www.w3.org/2000/svg">
<path d="M17.5789 14.5329C18.2584 13.838 20.4235 11.6353 22.3944 9.6347L25.9818 6L29.4088 6.01264C31.2996 6.02106 32.8527 6.03791 32.8696 6.05475C32.8823 6.0716 32.8232 6.17689 32.7345 6.2864C32.6459 6.40011 30.6581 8.4133 28.3115 10.7634C25.9692 13.1178 23.8674 15.2236 23.247 15.8554L23.4369 16.0786C23.5382 16.2007 23.9012 16.6135 24.2388 16.9967C24.5764 17.38 25.7159 18.6688 26.771 19.8607C27.8262 21.0526 29.4004 22.8342 30.274 23.8197C31.1434 24.8052 32.0213 25.7992 32.2196 26.0308C32.418 26.2625 32.6586 26.5573 32.7599 26.6837C32.8907 26.8563 32.9245 26.9237 32.8823 26.9448C32.8527 26.9616 32.1521 26.9785 31.3291 26.9743C30.5061 26.9743 29.0037 26.9574 26.1591 26.9027L26.0325 26.7595C25.9607 26.6794 24.5764 25.1295 22.9515 23.3101C21.3309 21.4948 19.3726 19.3048 18.6045 18.4498C17.8364 17.5906 17.0134 16.6682 16.777 16.3945C16.5407 16.1249 16.3466 15.8764 16.3466 15.847C16.3466 15.8217 16.8994 15.2278 17.5789 14.5329Z" fill="#336BAD"/>
<path d="M0.899414 10.2917C0.899414 12.6461 0.916294 17.3674 0.933177 20.7789L0.96272 26.9827C5.45749 26.9658 6.77427 26.9406 6.79538 26.9237C6.81648 26.9027 6.83336 25.1632 6.8418 23.0574L6.85024 19.2289L14.6792 26.9785C19.5875 26.9785 21.1111 26.9658 21.2335 26.949C21.3559 26.9321 21.4572 26.8985 21.4572 26.8732C21.4572 26.8521 21.2715 26.6331 21.0478 26.3888C20.8241 26.1446 20.2586 25.5507 19.7901 25.0664C19.4219 24.6789 18.5733 23.8013 17.722 22.9211C17.4999 22.6915 17.2777 22.4617 17.0637 22.2403C16.0339 21.1748 14.3204 19.4016 13.2653 18.3024C12.206 17.2031 11.2479 16.2007 11.134 16.0786L10.923 15.8554C11.2044 15.573 11.6643 15.1108 12.2461 14.526L12.257 14.515C13.2446 13.5224 14.5808 12.1793 15.9917 10.7634C18.2412 8.50175 20.1953 6.52646 20.3346 6.37063C20.4738 6.2148 20.5709 6.0716 20.554 6.05475C20.5329 6.03791 18.9714 6.02106 17.0848 6.01685L13.6452 6.00421L6.99795 12.6713C6.95997 11.6016 6.94731 10.1022 6.94309 8.64916L6.93465 6.00421H0.899414V10.2917Z" fill="white"/>
</svg>
