<?xml version="1.0" encoding="UTF-8" standalone="no"?><svg width="1899" height="1032" viewBox="0 0 1899 1032" fill="none" xmlns="http://www.w3.org/2000/svg">
<path d="M634.78 452.123C646.431 466.445 658.703 480.249 671.562 493.497C632.327 505.37 606.474 527.269 590.368 546.745C564.818 577.458 551.437 617.924 554.494 652.605H487.015C500.698 623.103 554.827 537.901 634.81 452.092L634.78 452.123ZM1417.77 670.869H1335.67C1147.13 572.309 981.411 502.917 805.673 487.712C805.976 463.36 810.517 435.373 818.752 404.66L802.646 400.419C794.17 432.071 789.568 460.997 788.962 486.531C770.541 485.312 752.084 484.706 733.623 484.713C719.141 484.7 704.689 486.028 690.453 488.681C674.883 473.167 660.168 456.818 646.374 439.704C727.265 355.44 861.316 279.082 977.203 250.156C1010.05 359.075 1080.28 433.616 1165.41 483.805C1171.71 480.228 1177.89 476.471 1183.97 472.537L1332.67 632.856L1338.73 632.251C1379.48 628.616 1402.3 650.818 1408.36 657.814C1413.2 662.661 1415.62 666.901 1417.44 670.899L1417.77 670.869Z" fill="#D3D3D3"/>
<path d="M1345.42 134.816C1348.45 282.686 1272.76 400.45 1167.53 460.967C988.434 371.524 954.71 145.175 985.074 23.7768C993.551 70.3308 1009.11 99.4991 1042.53 113.523C1115.19 92.8355 1215.55 91.0182 1289.14 111.403C1319.84 88.898 1331.71 54.8229 1338.4 24.9884C1346.27 59.6692 1345.06 134.816 1345.36 134.816H1345.42Z" fill="#E8E8E8"/>
<path d="M894.466 274.781L921.833 356.016L838.823 300.042L894.466 274.781ZM814.483 310.37L843.667 360.862L781.909 329.513L814.483 310.37ZM747.881 349.928L761.868 400.419L719.303 371.221L747.881 349.928ZM1200.65 485.622L1174.19 526.088L1220.72 504.795L1200.65 485.622ZM1242.01 532.176L1199.74 564.737L1258.47 549.532L1242.01 532.176ZM1138.65 92.5326L1169.98 161.288L1190.36 91.6239L1138.65 92.5326ZM979.625 192.637L1029.18 219.11L984.469 222.139L979.625 192.637ZM991.795 246.491L1022.19 258.667L996.639 265.634L991.795 246.491ZM1346.36 212.113L1305.61 229.136L1339.06 234.285L1346.36 212.113ZM1329.95 261.696L1298.62 270.783L1323.86 279.869L1329.95 261.696ZM963.186 337.418H1061.09V349.595H963.186V337.418ZM963.186 308.523H1061.09V320.699H963.186V308.523ZM1261.8 337.418H1359.71V349.595H1261.8V337.418ZM1261.8 308.523H1359.71V320.699H1261.8V308.523ZM1227.14 236.738H1067.81V225.774H1117.37C1123.42 199.604 1124.63 174.676 1117.37 162.167C1114.34 156.715 1109.8 154.292 1103.69 154.292C1075.41 154.292 1063.54 184.399 1063.24 185.641L1053.25 181.703C1053.86 180.189 1068.14 143.357 1104.02 143.357C1108.73 143.228 1113.39 144.411 1117.46 146.775C1121.54 149.139 1124.89 152.591 1127.12 156.745C1136.2 172.253 1134.99 198.726 1128.93 226.41H1215.91C1227.47 192.335 1251.48 176.524 1291.59 176.524V187.488C1247.82 187.488 1235.65 206.055 1226.81 226.743H1274.25V237.707L1227.14 236.738Z" fill="#C6C6C6"/>
<path d="M1234.44 290.895C1221.66 271.722 1217.42 255.608 1222.87 237.041H1211.91C1207.98 249.217 1209.49 267.754 1219.18 283.898H1108.5C1115.89 268.89 1121.8 253.197 1126.15 237.041H1114.89C1109.74 255.002 1102.72 272.63 1094.82 286.624L1092.39 291.167L1154.45 330.119L1119.49 353.229L1125.54 362.316L1164.47 336.449L1206.74 363.83L1212.79 354.744L1173.86 330.694C1194 317.209 1214.28 303.922 1234.68 290.834L1234.44 290.895ZM1164.2 323.758L1118.28 294.862H1207.98L1164.2 323.758ZM1363.64 121.731C1363.64 102.861 1357.59 22.8681 1346.93 0.93896C1317.75 12.2064 1264.23 48.0988 1252.06 85.2027C1192.19 76.818 1131.4 77.5328 1071.75 87.3229C1062.67 47.4627 1014.29 17.0527 978.081 0C962.884 25.8667 956.193 85.4753 957.707 127.819H957.404C964.064 305.494 1051.37 416.23 1165.38 483.471C1282.75 416.836 1366.67 285.685 1363.64 121.731ZM1266.04 87.3532C1266.34 87.3532 1266.95 87.6561 1267.25 87.6561C1266.65 87.6561 1266.34 87.3532 1266.04 87.3532ZM1258.78 86.1417C1259.68 86.4445 1260.9 86.4445 1261.8 86.7474C1260.59 86.4445 1259.68 86.1417 1258.78 86.1417ZM1345.48 134.513C1348.51 282.383 1272.82 400.147 1167.59 460.664C988.495 371.221 954.468 144.872 985.135 23.4739C993.611 70.028 1009.17 99.1962 1042.59 113.22C1115.25 92.5326 1215.61 90.7153 1289.2 111.1C1319.9 88.5951 1331.77 54.52 1338.46 24.6855C1346.33 59.3663 1345.12 134.513 1345.42 134.513H1345.48Z" fill="#C6C6C6"/>
<path d="M1421.77 646.577C1403.21 625.89 1367.34 616.167 1337.25 617.076C1315.96 591.512 1191.93 460.997 1191.93 460.997L1183.46 471.962L1333.37 632.947L1339.43 632.342C1380.17 629.313 1403 650.909 1409.05 657.905C1412.71 661.675 1415.6 666.119 1417.56 670.99H1335.49C1146.95 572.43 981.229 503.038 805.492 487.833C805.795 463.178 810.336 435.494 818.57 404.781L802.464 400.541C793.988 432.192 789.386 461.118 788.781 486.652C770.359 485.433 751.903 484.827 733.441 484.834C718.959 484.821 704.508 486.15 690.271 488.802C674.695 473.275 659.97 456.915 646.162 439.795C727.961 354.623 862.678 277.628 979.776 249.338L976.143 232.922C850.266 263.332 712.522 346.111 635.567 425.801C599.995 377.733 585.706 338.176 581.74 308.371C576.594 270.631 585.373 235.678 607.897 207.964C642.863 164.469 692.723 161.41 744.127 169.921C743.219 178.099 744.127 185.732 747.155 190.608C760.536 210.69 833.525 217.686 876.725 198.18C844.787 153.141 779.729 131.545 761.777 140.086C755.722 143.115 751.423 148.264 748.396 154.685C730.747 151.657 713.127 149.233 700.352 149.233C655.335 149.536 620.672 165.347 594.849 197.302C569.601 228.954 559.278 267.875 565.363 310.492C571.417 350.655 590.913 393.544 624.396 437.705L608.29 455.363C526.885 546.442 467.549 644.154 467.549 660.51V668.991H574.899L573.082 658.996C567.028 627.041 579.137 586.908 603.78 557.074C619.28 538.204 645.133 516.911 685.579 506.885C721.453 542.171 767.378 579.578 818.782 615.501H898.462V607.02C898.462 597.933 893.921 589.362 885.384 583.607C872.911 575.429 853.445 574.52 835.523 580.578C818.509 561.708 809.064 536.174 806.945 504.855C979.958 520.06 1146.01 590.028 1332.4 687.71H1435.18L1436.39 681.046C1437.9 671.959 1432.76 658.541 1422.1 646.668L1421.77 646.577ZM590.459 546.17C565.211 576.882 551.528 617.348 554.585 652.029H487.015C500.698 622.528 554.827 537.628 634.81 451.517C645.769 465.207 658.211 478.898 671.592 492.891C639.857 502.211 611.6 520.742 590.399 546.139L590.459 546.17Z" fill="#C6C6C6"/>
<path d="M47.3117 909.871L26.7232 972.761H0L67.8538 772.397H98.9922L167.427 972.761H139.635L118.721 909.871H47.3117ZM112.958 889.83L93.4848 831.706C89.0232 818.919 86.5136 806.666 82.9117 794.972H82.354L72.3618 831.148L52.8888 889.272H112.981L112.958 889.83ZM194.754 876.461L193.639 829.962H216.993L218.108 854.444H218.666C229.239 837.193 246.481 826.614 269.835 826.614C304.32 826.614 330.253 856.141 330.253 899.525C330.253 951.278 298.533 976.899 265.187 976.899C246.272 976.899 229.587 968.529 220.687 954.068H220.13V1032H194.568L194.754 876.461ZM220.897 914.311C220.897 918.217 221.454 921.286 222.012 924.89C227.008 943.489 242.601 955.509 260.958 955.509C288.774 955.509 304.343 932.679 304.343 899.85C304.343 870.905 289.331 846.423 261.516 846.423C243.716 846.423 227.031 859.21 222.012 878.972C220.913 882.391 220.349 885.959 220.339 889.551V914.59L220.897 914.311ZM443.42 973.319L441.189 954.719H440.074C432.289 965.879 416.72 975.643 395.922 975.643C366.991 975.643 351.771 955.044 351.771 934.445C351.771 899.943 382.909 880.46 437.75 881.018V878.228C437.75 866.534 434.404 844.842 404.938 844.842C391.577 844.842 377.681 848.748 367.665 855.421L361.554 838.17C373.242 830.381 390.485 825.382 408.842 825.382C452.994 825.382 463.358 855.444 463.358 884.389V938.375C463.358 950.627 463.915 962.856 465.589 972.877L443.42 973.319ZM439.516 899.85C411.166 899.292 379.098 904.314 379.098 932.399C379.098 949.093 390.252 957.439 403.567 957.439C422.483 957.439 434.171 945.745 438.052 933.492C439.14 930.843 439.708 928.01 439.725 925.146L439.516 899.85ZM609.755 967.739C603.085 971.087 587.493 976.108 568.578 976.108C525.193 976.108 496.82 946.582 496.82 902.64C496.82 858.118 526.866 826.382 574.155 826.382C589.724 826.382 603.085 830.288 610.312 833.357L604.201 853.398C598.089 850.05 588.074 846.725 574.155 846.725C541.343 846.725 523.497 871.207 523.497 901.269C523.497 934.655 544.41 955.254 573.574 955.254C588.585 955.254 598.043 951.348 606.106 948.279L609.755 967.739ZM640.359 762.353H666.501V851.956H667.058C671.574 844.165 678.109 837.739 685.974 833.357C694.081 828.634 703.292 826.14 712.674 826.126C732.147 826.126 762.751 837.821 762.751 887.9V973.621H736.609V891.736C736.609 868.371 728.243 848.888 703.239 848.888C686.555 848.888 673.193 860.582 668.197 875.043C666.524 878.391 666.524 882.018 666.524 887.296V974.132H640.405L640.359 762.353ZM819.288 905.965C819.846 941.583 842.642 956.067 868.784 956.067C882.487 956.395 896.115 953.943 908.846 948.86L913.307 967.785C903.85 971.691 888.28 976.69 865.438 976.69C820.938 976.69 794.796 947.744 794.796 904.337C794.796 860.931 820.357 826.963 862.115 826.963C908.59 826.963 921.65 868.161 921.65 894.852C921.65 900.432 921.092 904.314 920.534 907.104H819.288V905.965ZM896.065 887.04C896.623 870.347 889.396 844.726 859.907 844.726C833.184 844.726 822.076 869.208 819.846 887.04H896.065ZM1056.78 798.692H996.359V776.419H1144.34V798.692H1083.15V976.783H1057.01L1056.78 798.692ZM1274.86 903.896C1274.86 957.323 1238.15 980.154 1203.1 980.154C1164.16 980.154 1134.09 951.79 1134.09 906.128C1134.09 858.234 1165.81 829.869 1205.29 829.869C1246.46 829.869 1274.86 859.931 1274.86 903.896ZM1160.81 905.57C1160.81 937.305 1179.4 960.671 1204.2 960.671C1228.99 960.671 1247.58 937.305 1247.58 905.012C1247.58 880.53 1235.33 849.911 1204.75 849.911C1174.15 849.353 1160.6 877.74 1160.6 905.57H1160.81ZM1307.67 872.183L1306.56 833.217H1329.38L1330.49 856.583H1331.61C1339.39 842.633 1352.52 829.846 1376.69 829.846C1385.66 829.706 1394.44 832.439 1401.75 837.646C1409.06 842.854 1414.51 850.263 1417.31 858.792H1417.87C1422.33 851.003 1427.86 844.331 1433.99 839.867C1442.36 833.194 1452.58 829.869 1465.71 829.869C1484.63 829.869 1513 842.122 1513 892.178V976.806H1487.44V895.549C1487.44 867.72 1477.45 851.026 1456.3 851.026C1441.29 851.026 1429.58 862.186 1425.16 874.973C1423.79 879.102 1423.04 883.411 1422.93 887.761V976.806H1397.37V890.783C1397.37 867.952 1387.38 851.259 1367.32 851.259C1351.2 851.259 1338.97 864.046 1334.79 877.415C1333.12 881.32 1332.56 885.784 1332.56 890.202V977.038H1307.79L1307.67 872.183ZM1657.58 971.807C1650.92 975.155 1635.32 980.177 1616.41 980.177C1573.02 980.177 1544.65 950.65 1544.65 906.709C1544.65 862.186 1574.7 830.451 1621.98 830.451C1637.55 830.451 1650.92 834.357 1658.14 837.426L1652.03 857.467C1645.92 854.119 1635.9 850.794 1621.98 850.794C1589.17 850.794 1571.33 875.276 1571.33 905.337C1571.33 938.723 1592.24 959.322 1621.4 959.322C1636.42 959.322 1645.87 955.416 1653.94 952.348L1657.58 971.807ZM1767.73 976.806L1765.5 958.206H1764.38C1756.6 969.366 1741.03 979.131 1720.23 979.131C1691.3 979.131 1676.08 958.532 1676.08 937.933C1676.08 903.431 1707.22 883.948 1762.06 884.506V881.716C1762.06 870.021 1758.71 848.33 1729.25 848.33C1715.89 848.33 1701.99 852.235 1691.98 858.908L1685.86 841.657C1697.55 833.868 1714.8 828.87 1733.15 828.87C1777.3 828.87 1787.67 858.931 1787.67 887.877V941.862C1787.67 954.114 1788.23 966.344 1789.9 976.364L1767.73 976.806ZM1763.83 903.338C1735.48 902.78 1703.41 907.802 1703.41 935.887C1703.41 952.58 1714.56 960.927 1727.88 960.927C1746.79 960.927 1758.48 949.232 1762.36 936.98C1763.45 934.331 1764.02 931.497 1764.04 928.633L1763.83 903.338ZM1861.73 792.019V833.217H1899V853.258H1862.01V930.633C1862.01 948.442 1867 958.462 1881.48 958.462C1888.15 958.462 1893.17 957.346 1896.49 956.788L1897.61 976.271C1892.61 978.503 1884.82 979.619 1874.25 979.619C1862.01 979.619 1851.99 975.713 1845.9 968.459C1838.93 960.671 1835.91 947.86 1835.91 931.167V852.91H1813.65V832.869H1835.91V798.366L1861.73 792.019Z" fill="#C6C6C6"/>
</svg>
