<?xml version="1.0" encoding="UTF-8" standalone="no"?><svg width="602" height="502" viewBox="0 0 602 502" fill="none" xmlns="http://www.w3.org/2000/svg">
<g opacity="0.3">
<path d="M389.135 397.764L370.819 501M15.355 458.627L97.4603 383.126L141.671 301.847L211.719 220.568L176.695 116.946M176.695 116.946L81.9579 215.175L15.6421 150.267L176.695 116.946ZM176.695 116.946L237.556 25.6518L301.288 140.829L389.135 89.5965L474.973 150.267L556.791 74.9586" stroke="url(#paint0_linear_190_14377)"/>
<path d="M389.133 89.5977L370.76 192.834L301.286 251.771L237.554 333.82L212.003 220.376L301.573 140.638M0.998443 244.066L81.9555 215.176" stroke="#A4A4A4"/>
<path d="M141.667 301.851L37.1697 324.193L97.4569 383.13L176.691 425.118L237.553 333.823L141.667 301.851ZM141.667 301.851L81.9544 215.179L211.715 220.572L301.285 251.774L366.165 309.17L389.132 397.768L496.787 324.001L460.328 244.07L541.285 215.179L474.969 150.271L370.759 192.837L301.285 140.834L176.691 116.951L97.4569 74.9629L15.3515 150.464" stroke="url(#paint1_linear_190_14377)"/>
<path d="M601 301.849L496.215 324.384L556.789 383.128M237.555 333.821L366.167 309.168M366.167 309.168L370.76 192.835L460.33 244.068M366.167 309.168L301.287 448.999M301.287 251.772L301.287 140.832" stroke="url(#paint2_linear_190_14377)"/>
<path d="M496.5 16.0232L474.969 150.269L460.328 244.067L366.165 309.167L496.787 323.998M496.787 323.998L474.682 458.628L389.132 397.765L301.285 448.998L237.553 333.821L97.4568 383.127M496.787 323.998L541.285 215.176M37.1697 324.19L81.9544 215.176M534.494 135.167L474.682 150.461M301.285 140.831L366.165 0.999992" stroke="url(#paint3_linear_190_14377)"/>
<path d="M387.582 397.954C387.582 399.334 388.701 400.454 390.082 400.454C391.463 400.454 392.582 399.334 392.582 397.954C392.582 396.573 391.463 395.454 390.082 395.454C388.701 395.454 387.582 396.573 387.582 397.954Z" fill="#264471"/>
<path d="M364.615 309.352C364.615 310.733 365.735 311.852 367.115 311.852C368.496 311.852 369.615 310.733 369.615 309.352C369.615 307.971 368.496 306.852 367.115 306.852C365.735 306.852 364.615 307.971 364.615 309.352Z" fill="#264471"/>
<path d="M236.004 334.01C236.004 335.391 237.123 336.51 238.504 336.51C239.885 336.51 241.004 335.391 241.004 334.01C241.004 332.63 239.885 331.51 238.504 331.51C237.123 331.51 236.004 332.63 236.004 334.01Z" fill="#264471"/>
<path d="M95.9043 383.31C95.9043 384.691 97.0236 385.81 98.4043 385.81C99.785 385.81 100.904 384.691 100.904 383.31C100.904 381.929 99.785 380.81 98.4043 380.81C97.0236 380.81 95.9043 381.929 95.9043 383.31Z" fill="#264471"/>
<path d="M140.115 302.034C140.115 303.415 141.235 304.534 142.615 304.534C143.996 304.534 145.115 303.415 145.115 302.034C145.115 300.653 143.996 299.534 142.615 299.534C141.235 299.534 140.115 300.653 140.115 302.034Z" fill="#264471"/>
<path d="M210.164 220.757C210.164 222.137 211.283 223.257 212.664 223.257C214.045 223.257 215.164 222.137 215.164 220.757C215.164 219.376 214.045 218.257 212.664 218.257C211.283 218.257 210.164 219.376 210.164 220.757Z" fill="#264471"/>
<path d="M80.4043 215.362C80.4043 216.743 81.5236 217.862 82.9043 217.862C84.285 217.862 85.4043 216.743 85.4043 215.362C85.4043 213.982 84.285 212.862 82.9043 212.862C81.5236 212.862 80.4043 213.982 80.4043 215.362Z" fill="#264471"/>
<path d="M175.141 117.135C175.141 118.515 176.26 119.635 177.641 119.635C179.021 119.635 180.141 118.515 180.141 117.135C180.141 115.754 179.021 114.635 177.641 114.635C176.26 114.635 175.141 115.754 175.141 117.135Z" fill="#264471"/>
<path d="M299.734 141.015C299.734 142.395 300.854 143.515 302.234 143.515C303.615 143.515 304.734 142.395 304.734 141.015C304.734 139.634 303.615 138.515 302.234 138.515C300.854 138.515 299.734 139.634 299.734 141.015Z" fill="#264471"/>
<path d="M473.131 150.647C473.131 152.028 474.25 153.147 475.631 153.147C477.012 153.147 478.131 152.028 478.131 150.647C478.131 149.267 477.012 148.147 475.631 148.147C474.25 148.147 473.131 149.267 473.131 150.647Z" fill="#264471"/>
<path d="M458.777 244.256C458.777 245.636 459.897 246.756 461.277 246.756C462.658 246.756 463.777 245.636 463.777 244.256C463.777 242.875 462.658 241.756 461.277 241.756C459.897 241.756 458.777 242.875 458.777 244.256Z" fill="#264471"/>
<path d="M494.949 324.376C494.949 325.757 496.069 326.876 497.449 326.876C498.83 326.876 499.949 325.757 499.949 324.376C499.949 322.996 498.83 321.876 497.449 321.876C496.069 321.876 494.949 322.996 494.949 324.376Z" fill="#264471"/>
<path d="M369.207 193.022C369.207 194.403 370.326 195.522 371.707 195.522C373.088 195.522 374.207 194.403 374.207 193.022C374.207 191.641 373.088 190.522 371.707 190.522C370.326 190.522 369.207 191.641 369.207 193.022Z" fill="#264471"/>
<path d="M299.734 251.956C299.734 253.337 300.854 254.456 302.234 254.456C303.615 254.456 304.734 253.337 304.734 251.956C304.734 250.575 303.615 249.456 302.234 249.456C300.854 249.456 299.734 250.575 299.734 251.956Z" fill="#264471"/>
</g>
<defs>
<linearGradient id="paint0_linear_190_14377" x1="286.366" y1="431.562" x2="290.687" y2="-3.51704" gradientUnits="userSpaceOnUse">
<stop stop-color="#A4A4A4"/>
<stop offset="1" stop-color="#A4A4A4" stop-opacity="0"/>
</linearGradient>
<linearGradient id="paint1_linear_190_14377" x1="297.445" y1="414.939" x2="295.925" y2="27.9793" gradientUnits="userSpaceOnUse">
<stop stop-color="#A0B5D6"/>
<stop offset="1" stop-color="#A0B5D6" stop-opacity="0"/>
</linearGradient>
<linearGradient id="paint2_linear_190_14377" x1="299.006" y1="418.248" x2="297.485" y2="24.4912" gradientUnits="userSpaceOnUse">
<stop/>
<stop offset="1" stop-color="#A0B5D6" stop-opacity="0.39"/>
</linearGradient>
<linearGradient id="paint3_linear_190_14377" x1="314.072" y1="409.184" x2="315.592" y2="1.1344" gradientUnits="userSpaceOnUse">
<stop stop-color="#A0B5D6"/>
<stop offset="1" stop-color="#A0B5D6" stop-opacity="0.25"/>
</linearGradient>
</defs>
</svg>
