<?xml version="1.0" encoding="UTF-8" standalone="no"?><svg width="599" height="502" viewBox="0 0 599 502" fill="none" xmlns="http://www.w3.org/2000/svg">
<g opacity="0.5">
<path d="M474.735 177.555L597.999 192.819M547.406 489.039L457.258 420.618L360.21 383.776L263.163 325.402L139.439 354.589M139.439 354.589L256.724 433.537L179.224 488.8L139.439 354.589ZM139.439 354.589L30.4336 303.871L167.956 250.761L106.784 177.555L179.224 106.024L89.3059 37.8423" stroke="url(#paint0_linear_190_14376)"/>
<path d="M106.785 177.555L230.049 192.866L300.42 250.761L398.387 303.871L262.935 325.163L167.727 250.522M291.221 501L256.726 433.536" stroke="#A4A4A4"/>
<path d="M360.215 383.776L386.892 470.857L457.262 420.618L507.396 354.589L398.39 303.871L360.215 383.776ZM360.215 383.776L256.729 433.536L263.168 325.402L300.423 250.761L368.954 196.694L474.74 177.555L386.662 87.8421L291.224 118.225L256.729 50.7607L179.229 106.024L230.052 192.866L167.96 250.761L139.444 354.589L89.3105 420.618L179.459 489.039" stroke="url(#paint1_linear_190_14376)"/>
<path d="M360.214 1L387.12 88.3207L457.261 37.8422M398.389 303.871L368.953 196.694M368.953 196.694L230.051 192.866L291.223 118.225M368.953 196.694L535.911 250.761M300.422 250.761H167.959" stroke="url(#paint2_linear_190_14376)"/>
<path d="M18.9377 88.0814L179.227 106.024L291.222 118.225L368.952 196.694L386.66 87.8421M386.66 87.8421L547.408 106.263L474.738 177.555L535.91 250.761L398.388 303.871L457.26 420.618M386.66 87.8421L256.727 50.7607M386.889 470.857L256.727 433.536M161.195 56.4202L179.457 106.263M167.958 250.761L1 196.694" stroke="url(#paint3_linear_190_14376)"/>
<path d="M474.477 179.684C475.857 179.684 476.977 178.564 476.977 177.184C476.977 175.803 475.857 174.684 474.477 174.684C473.096 174.684 471.977 175.803 471.977 177.184C471.977 178.564 473.096 179.684 474.477 179.684Z" fill="#264471"/>
<path d="M368.686 198.822C370.066 198.822 371.186 197.703 371.186 196.322C371.186 194.942 370.066 193.822 368.686 193.822C367.305 193.822 366.186 194.942 366.186 196.322C366.186 197.703 367.305 198.822 368.686 198.822Z" fill="#264471"/>
<path d="M398.129 306C399.51 306 400.629 304.88 400.629 303.5C400.629 302.119 399.51 301 398.129 301C396.748 301 395.629 302.119 395.629 303.5C395.629 304.88 396.748 306 398.129 306Z" fill="#264471"/>
<path d="M456.992 422.747C458.373 422.747 459.492 421.627 459.492 420.247C459.492 418.866 458.373 417.747 456.992 417.747C455.611 417.747 454.492 418.866 454.492 420.247C454.492 421.627 455.611 422.747 456.992 422.747Z" fill="#264471"/>
<path d="M359.949 385.904C361.33 385.904 362.449 384.785 362.449 383.404C362.449 382.024 361.33 380.904 359.949 380.904C358.569 380.904 357.449 382.024 357.449 383.404C357.449 384.785 358.569 385.904 359.949 385.904Z" fill="#264471"/>
<path d="M262.902 327.531C264.283 327.531 265.402 326.411 265.402 325.031C265.402 323.65 264.283 322.531 262.902 322.531C261.522 322.531 260.402 323.65 260.402 325.031C260.402 326.411 261.522 327.531 262.902 327.531Z" fill="#264471"/>
<path d="M256.463 435.665C257.844 435.665 258.963 434.546 258.963 433.165C258.963 431.784 257.844 430.665 256.463 430.665C255.082 430.665 253.963 431.784 253.963 433.165C253.963 434.546 255.082 435.665 256.463 435.665Z" fill="#264471"/>
<path d="M139.18 356.718C140.56 356.718 141.68 355.598 141.68 354.218C141.68 352.837 140.56 351.718 139.18 351.718C137.799 351.718 136.68 352.837 136.68 354.218C136.68 355.598 137.799 356.718 139.18 356.718Z" fill="#264471"/>
<path d="M167.693 252.89C169.074 252.89 170.193 251.77 170.193 250.39C170.193 249.009 169.074 247.89 167.693 247.89C166.313 247.89 165.193 249.009 165.193 250.39C165.193 251.77 166.313 252.89 167.693 252.89Z" fill="#264471"/>
<path d="M179.193 108.392C180.574 108.392 181.693 107.273 181.693 105.892C181.693 104.511 180.574 103.392 179.193 103.392C177.813 103.392 176.693 104.511 176.693 105.892C176.693 107.273 177.813 108.392 179.193 108.392Z" fill="#264471"/>
<path d="M290.963 120.354C292.344 120.354 293.463 119.235 293.463 117.854C293.463 116.474 292.344 115.354 290.963 115.354C289.582 115.354 288.463 116.474 288.463 117.854C288.463 119.235 289.582 120.354 290.963 120.354Z" fill="#264471"/>
<path d="M386.625 90.2104C388.006 90.2104 389.125 89.0912 389.125 87.7104C389.125 86.3297 388.006 85.2104 386.625 85.2104C385.244 85.2104 384.125 86.3297 384.125 87.7104C384.125 89.0912 385.244 90.2104 386.625 90.2104Z" fill="#264471"/>
<path d="M229.789 194.995C231.17 194.995 232.289 193.875 232.289 192.495C232.289 191.114 231.17 189.995 229.789 189.995C228.408 189.995 227.289 191.114 227.289 192.495C227.289 193.875 228.408 194.995 229.789 194.995Z" fill="#264471"/>
<path d="M300.156 252.89C301.537 252.89 302.656 251.771 302.656 250.39C302.656 249.009 301.537 247.89 300.156 247.89C298.776 247.89 297.656 249.009 297.656 250.39C297.656 251.771 298.776 252.89 300.156 252.89Z" fill="#264471"/>
</g>
<defs>
<linearGradient id="paint0_linear_190_14376" x1="515.09" y1="263.196" x2="-4.34013" y2="255.805" gradientUnits="userSpaceOnUse">
<stop stop-color="#A4A4A4"/>
<stop offset="1" stop-color="#A4A4A4" stop-opacity="0"/>
</linearGradient>
<linearGradient id="paint1_linear_190_14376" x1="495.242" y1="253.961" x2="33.2196" y2="256.562" gradientUnits="userSpaceOnUse">
<stop stop-color="#A0B5D6"/>
<stop offset="1" stop-color="#A0B5D6" stop-opacity="0"/>
</linearGradient>
<linearGradient id="paint2_linear_190_14376" x1="499.195" y1="252.662" x2="29.056" y2="255.263" gradientUnits="userSpaceOnUse">
<stop/>
<stop offset="1" stop-color="#A0B5D6" stop-opacity="0.39"/>
</linearGradient>
<linearGradient id="paint3_linear_190_14376" x1="488.372" y1="240.105" x2="1.16761" y2="237.504" gradientUnits="userSpaceOnUse">
<stop stop-color="#A0B5D6"/>
<stop offset="1" stop-color="#A0B5D6" stop-opacity="0.25"/>
</linearGradient>
</defs>
</svg>
