<?xml version="1.0" encoding="UTF-8" standalone="no"?><svg width="471" height="351" viewBox="0 0 471 351" fill="none" xmlns="http://www.w3.org/2000/svg">
<g clip-path="url(#clip0_46_6919)">
<path fill-rule="evenodd" clip-rule="evenodd" d="M194.778 1.71103C133.012 5.58203 85.8032 21.885 57.3532 49.167L49.7782 56.432L49.9672 66.349C50.4062 89.432 59.0032 109.807 76.3812 128.949L80.7782 133.791L87.2052 125.626C120.204 83.702 159.762 66.887 224.278 67.358C247.387 67.527 267.198 67.082 284.278 66.01C351.925 61.765 379.423 74.323 412.175 124.415L417.572 132.669L421.404 127.388C432.593 111.969 439.182 92.725 440.002 73.067L440.546 60.028L433.662 53.717C391.884 15.412 298.959 -4.81797 194.778 1.71103ZM36.6412 74.808C20.3782 102.272 16.6962 142.293 26.7892 181.895C32.9352 206.01 47.6782 220.694 83.9762 238.85L98.1742 245.952L109.976 239.175C129.673 227.865 174.278 197.301 174.278 195.115C174.278 194.947 169.216 193.127 163.028 191.071C95.9802 168.786 51.0762 128.798 42.7122 83.929C39.7262 67.909 40.2552 68.704 36.6412 74.808ZM449.278 77.648C449.278 121.47 403.648 172.53 340.778 199.058C334.728 201.611 328.244 204.381 326.369 205.213L322.959 206.726L328.869 212.744C344.591 228.755 375.342 246.069 384.488 244.06C402.819 240.034 433.369 222.721 445.989 209.209C471.189 182.225 475.459 116.712 454.42 79.856C450.248 72.549 449.278 72.132 449.278 77.648ZM254.655 176.103C236.877 178.364 193.28 188.367 187.53 191.503C186.476 192.077 281.809 253.386 286.368 255.065C289 256.035 290.221 254.038 302.871 228.062C325.166 182.281 312.592 168.732 254.655 176.103ZM173.953 207.578C131.965 241.267 70.8002 273.632 18.3642 289.907C-5.65077 297.361 -5.66278 297.019 19.5992 326.035C42.3042 352.113 41.5352 351.511 49.0982 349.167C99.1602 333.655 158.886 298.721 198.778 261.62C208.657 252.432 228.269 231.713 228.275 230.459C228.277 230.103 217.952 223.286 205.332 215.312L182.386 200.812L173.953 207.578ZM309.601 235.878L300.424 255.106L299.909 265.819L299.394 276.532L308.74 283.526C366.088 326.442 426.327 355.608 441.189 347.654C444.391 345.94 470.278 305.253 470.278 301.934C470.278 292.584 432.089 271.938 383.42 254.975C353.635 244.593 342.285 238.319 327.167 223.877C322.981 219.878 319.381 216.616 319.167 216.628C318.953 216.639 314.648 225.302 309.601 235.878ZM228.418 245.004C219.432 255.37 202.71 271.664 192.116 280.379C183.689 287.312 183.551 286.52 194.028 291.347C245.403 315.018 282.091 309.136 289.083 276.106C291.537 264.513 291.543 264.606 288.318 264.606C283.67 264.606 281.158 263.29 258.67 249.072C233.411 233.103 238.181 233.744 228.418 245.004Z" fill="#336BAD"/>
</g>
<defs>
<clipPath id="clip0_46_6919">
<rect width="470" height="350" fill="white" transform="translate(0.5 0.5)"/>
</clipPath>
</defs>
</svg>
