<?xml version="1.0" encoding="UTF-8" standalone="no"?><svg width="1390" height="486" viewBox="0 0 1390 486" fill="none" xmlns="http://www.w3.org/2000/svg">
<path fill-rule="evenodd" clip-rule="evenodd" d="M503.664 2.66678C502.377 4.72978 498.26 11.5918 494.514 17.9168C484.204 35.3258 468.361 55.9648 458.819 64.4168C439.133 81.8548 418.075 94.5828 395.975 102.401C368.797 112.015 365.865 111.734 372.779 100.172C393.906 64.8468 404.53 13.2378 387.221 30.0188C361.616 54.8408 335.857 69.2828 301.975 77.8108C285.698 81.9088 282.302 82.1418 227.475 82.9388C197.775 83.3698 172.125 84.0258 170.475 84.3958C168.825 84.7668 164.1 85.7558 159.975 86.5948C112.316 96.2838 71.4374 121.875 41.7864 160.581C35.1034 169.306 25.9754 183.088 25.9754 184.454C25.9754 184.731 24.9444 186.635 23.6834 188.687C19.1404 196.082 12.5344 211.796 8.87343 223.917C7.79343 227.492 6.49943 231.767 5.99743 233.417C5.07643 236.444 3.07142 246.855 1.06542 259.032C-0.523578 268.676 -0.289576 300.62 1.46342 313.493C2.83742 323.579 3.58542 327.447 5.99042 336.917C18.4154 385.822 46.1644 425.715 86.8534 453.172C100.248 462.211 114.664 469.052 136.975 476.957C172.377 489.501 243.875 488.566 289.475 474.964C293.325 473.816 298.275 472.35 300.475 471.707C336.162 461.274 374.147 438.283 406.37 407.612C418.044 396.5 418.361 393.921 407.204 400.822C364.896 426.992 323.113 441.582 266.475 449.963C151.271 467.01 58.3774 413.712 38.9794 319.437C8.04642 169.099 177.777 60.0398 300.863 151.167C378.79 208.861 392.708 335.208 323.689 358.377C301.225 365.918 270.879 356.344 258.838 337.917L257.204 335.417L250.81 341.538C201.728 388.527 121.74 358.931 113.997 290.917C109.756 253.67 133.966 216.296 169.988 204.479C186.551 199.046 242.066 197.933 254.272 202.789C273.038 210.256 275.314 216.598 276.023 263.417C276.761 312.104 278.443 317.513 294.946 324.271C321.718 335.234 340.014 309.946 334.406 269.734C316.189 139.126 145.177 108.763 84.0594 225.286C40.1464 309.008 99.2494 408.005 198.975 417.769C258.073 423.555 334.706 406.257 381.87 376.483C384.106 375.072 386.141 373.917 386.393 373.917C387.135 373.917 408.796 359.165 415.402 354.161C465.896 315.911 506.569 258.176 524.064 199.917C533.545 168.344 536.295 148.975 536.345 113.417C536.394 79.1548 533.774 60.9548 524.9 33.9168C515.214 4.39978 508.628 -5.29122 503.664 2.66678ZM722.974 148.419C721.812 149.819 721.785 155.331 722.804 183.747C724.323 226.087 724.321 248.988 722.795 289.737C721.916 313.205 721.886 322.244 722.684 322.737C725.494 324.474 817.426 323.26 823.037 321.412C860.51 309.069 869.281 252.409 836.725 232.991C832.018 230.183 831.839 230.838 839.312 223.575C868.489 195.22 851.669 155.457 807.475 148.31C797.006 146.617 724.392 146.71 722.974 148.419ZM879.218 148.727C878.935 149.462 879.043 159.143 879.457 170.24C879.871 181.338 880.494 220.342 880.842 256.917L881.475 323.417H894.475H907.475L908.269 247.417C908.706 205.617 909.156 166.03 909.269 159.446L909.475 147.476L894.603 147.433C883.082 147.4 879.615 147.692 879.218 148.727ZM794.653 169.984C827.818 174.506 833.358 209.54 802.161 217.462C793.755 219.597 757.271 219.243 754.573 217.001C752.803 215.529 752.432 173.119 754.174 171.382C756.607 168.957 780.953 168.116 794.653 169.984ZM976.475 199.858C921.506 208.936 910.784 292.799 961.026 320.688C969.231 325.243 987.495 327.77 995.067 325.398C1001.44 323.402 1010.16 318.63 1016.74 313.538C1026.75 305.792 1026.72 305.78 1028.49 317.575C1029.59 324.873 1030.06 325.104 1042.17 324.321C1048.02 323.943 1053.4 323.275 1054.1 322.837C1055.76 321.812 1055.63 316.433 1052.93 273.917C1051.99 259.164 1052.11 255.352 1054.05 237.917C1055.25 227.192 1056.44 216.329 1056.69 213.777L1057.15 209.137L1052.31 207.592C1042.88 204.579 1035.87 203.587 1034.49 205.071C1032.89 206.796 1030.98 212.522 1030.98 215.598C1030.98 220.006 1028.04 219.56 1023.1 214.401C1011.2 201.983 994.725 196.844 976.475 199.858ZM1230.48 199.506C1194.13 204.658 1169.94 246.877 1182.4 283.407C1197.55 327.847 1249.5 341.026 1281.48 308.544C1324.31 265.035 1289.73 191.105 1230.48 199.506ZM1325.98 203.98C1319.65 204.982 1314.31 205.828 1314.12 205.86C1313.67 205.93 1314.2 209.232 1316.98 223.917C1319.02 234.687 1319.15 238.175 1319.05 278.85C1318.97 312.844 1319.22 322.457 1320.21 323.084C1322.39 324.469 1344.59 324.087 1345.79 322.644C1346.47 321.815 1346.95 308.133 1347.16 283.394C1347.58 232.795 1347.78 232.417 1374.35 232.417C1389.65 232.417 1388.6 233.481 1389.61 216.902C1390.67 199.379 1377.9 197.011 1354.75 210.437C1344.2 216.552 1342.98 216.302 1342.98 208.035C1342.98 204.048 1341.52 201.843 1339.03 202.037C1338.17 202.103 1332.3 202.977 1325.98 203.98ZM1080.55 206.484C1079.68 207.351 1078.98 209.348 1078.98 210.923C1078.98 212.498 1078.29 217.025 1077.46 220.983C1075.25 231.51 1073.63 230.917 1104.54 230.917C1137.44 230.917 1136.55 228.138 1112.42 255.454C1108.03 260.421 1086.07 283.796 1078.18 291.899L1069.89 300.417L1070.2 311.146C1070.62 325.866 1069.83 325.32 1088.56 323.869C1097.16 323.204 1116.79 322.864 1134.88 323.066L1166.28 323.417L1168.72 311.531C1171.6 297.469 1172.04 298.101 1159.63 298.412C1136.16 299 1105.82 299.094 1105.31 298.58C1104.99 298.267 1111.43 290.672 1119.61 281.704C1127.78 272.735 1138.3 261.133 1142.98 255.922C1147.65 250.711 1152.9 244.865 1154.65 242.932C1166.18 230.162 1165.84 230.834 1166.59 219.355C1167.5 205.501 1169.71 206.466 1136.58 206.256C1121.67 206.162 1103.32 205.82 1095.8 205.497C1084.15 204.995 1081.89 205.142 1080.55 206.484ZM1001.92 226.056C1030.51 235.44 1034.42 279.915 1008.1 296.308C986.451 309.789 958.774 292.856 957.241 265.194C955.745 238.203 978.415 218.343 1001.92 226.056ZM1252.21 226.896C1280.54 237.532 1281.26 285.728 1253.27 298.11C1228.04 309.273 1201 285.195 1205.85 255.87C1209.82 231.83 1230.66 218.807 1252.21 226.896ZM185.475 234.386C147.293 242.076 133.058 288.778 160.475 316.406C186.405 342.535 230.532 331.868 241.497 296.82C257.392 246.015 237.548 223.899 185.475 234.386ZM802.541 244.96C819.238 247.895 825.379 254.585 825.251 269.697C825.062 291.938 814.757 298.269 779.045 298.086C750.55 297.94 752.975 300.473 752.975 270.854C752.975 244.716 752.667 245.95 759.475 244.827C766.041 243.744 796.152 243.837 802.541 244.96Z" fill="#CCCCCC"/>
</svg>
