<?xml version="1.0" encoding="UTF-8" standalone="no"?><svg width="657" height="210" viewBox="0 0 657 210" fill="none" xmlns="http://www.w3.org/2000/svg">
<path fill-rule="evenodd" clip-rule="evenodd" d="M98.7391 2.79118C94.2911 6.69718 87.6861 7.22718 83.2081 4.03918C78.0331 0.354178 73.7991 2.30418 72.6091 8.92118C71.7091 13.9302 64.9301 19.1482 60.4211 18.3022C55.2391 17.3302 52.0591 22.4992 54.5041 27.9222C56.9531 33.3532 55.2751 39.4572 50.4171 42.7862C45.4861 46.1652 45.4811 51.1952 50.4071 53.5442C55.3821 55.9172 58.3041 63.6592 56.2231 68.9562C53.9701 74.6932 56.6651 78.3052 62.5421 77.4242C68.3571 76.5522 75.3631 81.0902 76.6591 86.5682C77.9671 92.0992 82.2461 92.9892 86.7141 88.6582C93.9931 81.6032 80.6371 117.485 72.6001 126.576C72.5051 126.683 68.8401 127.504 64.4561 128.4C44.4061 132.495 -0.0699175 147.927 8.25325e-05 150.764C0.0800825 153.955 1.92208 153.995 12.5981 151.036C28.0531 146.753 63.8231 138.875 67.7861 138.881C68.1701 138.882 68.4881 143.494 68.4911 149.131C68.4981 160.849 70.5681 168.366 76.4911 178.187C79.2451 182.753 79.7791 184.396 78.9891 185.872C71.2301 200.37 90.7101 215.14 106.985 207.098L112.485 204.38L112.333 197.673C111.976 181.86 97.9241 172.805 84.7241 179.88C82.6711 180.98 80.8171 181.88 80.6021 181.88C77.7481 181.88 76.7381 151.416 79.3051 142.748L80.9721 137.116L88.3061 136.429C103.54 135.001 140.179 140.934 175.376 150.528C188.033 153.978 189.889 154.008 189.97 150.767C190.011 149.125 162.916 138.634 145.257 133.454C126.711 128.013 107.776 124.88 93.4411 124.88C90.3491 124.88 87.9921 124.542 88.2041 124.13C95.2331 110.445 98.9851 98.5432 98.9851 89.9332C98.9851 85.3282 99.6371 85.0322 103.345 87.9492C107.534 91.2432 112.985 88.3812 112.985 82.8862C112.985 78.5232 120.015 72.8802 125.449 72.8802C131.339 72.8802 133.512 69.2152 131.045 63.4452C128.678 57.9112 130.169 52.6942 135.272 48.6522C140.396 44.5942 140.258 40.3302 134.912 37.4672C129.828 34.7452 127.304 27.7552 129.503 22.4902C131.869 16.8302 129.315 13.4702 123.174 14.1622C117.235 14.8322 110.346 10.3202 109.371 5.12318C108.931 2.78118 107.982 1.44918 106.295 0.808178C102.784 -0.526822 102.405 -0.427822 98.7391 2.79118ZM99.2621 24.9402C102.978 25.9722 109.985 31.2282 109.985 32.9842C109.985 34.2162 106.25 34.1182 105.476 32.8662C102.853 28.6212 91.7571 26.6952 85.3501 29.3722C81.1681 31.1192 77.7701 30.1342 80.4121 27.9402C84.6831 24.3962 92.7051 23.1192 99.2621 24.9402ZM97.9851 40.8802C102.158 45.0532 98.7831 52.8802 92.8111 52.8802C87.0651 52.8802 84.0361 46.1082 87.5421 41.1032C89.5771 38.1972 95.1831 38.0782 97.9851 40.8802ZM74.9851 45.0192C74.9851 52.3372 79.2731 59.5142 85.0841 61.9212C87.5171 62.9292 89.3991 66.8802 87.4451 66.8802C79.0391 66.8802 68.3741 49.8482 71.5681 41.5252C72.6841 38.6152 74.9851 40.9672 74.9851 45.0192ZM114.985 45.7212C114.985 54.0722 102.692 69.7722 100.542 64.1682C100.14 63.1202 100.566 62.1382 101.694 61.5132C105.207 59.5682 108.974 54.6332 110.072 50.5392C111.477 45.3022 114.985 41.8612 114.985 45.7212ZM106.31 92.2932C102.812 93.8662 100.382 97.0102 99.0341 101.709C97.0911 108.485 112.345 111.504 119.351 105.73C121.453 103.997 124.612 102.085 126.372 101.48C131.28 99.7932 130.83 98.6542 123.884 95.1752C116.061 91.2562 110.606 90.3612 106.31 92.2932ZM124.485 98.3772C122.236 99.1392 105.627 99.5812 107.485 98.8302C108.585 98.3852 113.085 98.0242 117.485 98.0292C121.885 98.0342 125.035 98.1902 124.485 98.3772ZM96.9851 198.83C98.0111 199.515 97.6321 199.536 95.7841 198.898C92.5861 197.795 85.4111 193.378 84.5471 191.98C84.0311 191.145 92.2421 195.667 96.9851 198.83Z" fill="#BEBEBE"/>
<path fill-rule="evenodd" clip-rule="evenodd" d="M372.984 124.88H384.957L385.22 92.1302C385.434 65.5322 385.713 59.8502 386.703 61.8801C387.374 63.2551 391.346 72.2552 395.53 81.8802C399.714 91.5052 405.658 105.118 408.739 112.13L414.339 124.88L428.484 124.829L434.705 110.605C453.267 68.1612 456.333 61.2992 457.122 60.4302C457.607 59.8962 457.984 73.7892 457.984 92.1802V124.88H471.003L470.484 27.3802H457.618L452.919 37.8802C450.335 43.6552 444.291 57.3801 439.487 68.3801C422.977 106.188 421.681 108.977 420.988 108.18C420.605 107.74 418.241 102.655 415.733 96.8802C408.108 79.3172 397.065 54.1022 390.989 40.3802L385.234 27.3802L372.984 26.7852V124.88ZM478.651 27.5472C478.284 27.9132 477.984 49.9632 477.984 76.5472V124.88H539.984V112.88H490.984V80.8802H527.984V68.8801H490.984V39.9162L539.484 39.3802L540.079 26.8802H509.698C492.989 26.8802 479.017 27.1802 478.651 27.5472ZM583.49 27.8702C583.154 28.4142 580.246 36.1772 577.027 45.1202C571.858 59.4852 567.662 71.0381 551.944 114.175L548.011 124.971L561.435 124.38L567.769 107.38H616.428L622.761 124.38L629.373 124.676C633.009 124.838 635.984 124.818 635.984 124.63C635.984 124.313 633.121 116.376 615.334 67.3801C611.74 57.4802 606.977 44.3182 604.749 38.1302L600.699 26.8802H592.401C587.836 26.8802 583.827 27.3252 583.49 27.8702ZM644.984 124.88H656.984V26.8802H644.984V124.88ZM596.433 52.1301C607.399 82.2631 610.984 92.4862 610.984 93.6222C610.984 94.5892 606.581 94.8802 591.984 94.8802C576.649 94.8802 572.984 94.6182 572.984 93.5232C572.984 92.7762 575.837 84.5632 579.324 75.2732C582.812 65.9822 586.94 54.6681 588.498 50.1301C592.04 39.8122 591.942 39.7871 596.433 52.1301Z" fill="#C5C5C5"/>
<path fill-rule="evenodd" clip-rule="evenodd" d="M221.982 28.1654C171.998 45.3364 178.233 118.671 230.315 126.174C254.206 129.616 289.143 108.967 274.896 99.8254L269.811 96.5624L266.146 100.615C242.441 126.836 200.482 111.35 200.482 76.3804C200.482 41.7034 242.381 25.3974 265.477 51.0854L269.846 55.9454L274.914 52.8274C281.106 49.0174 281.106 49.0054 275.232 42.6794C261.351 27.7294 240.106 21.9384 221.982 28.1654ZM319.103 50.9974C283.119 57.0444 276.737 106.834 309.856 123.139C332.196 134.136 361.793 118.258 363.788 94.2054L364.238 88.7784L351.53 89.3804L350.816 93.5834C348.047 109.888 328.606 118.979 314.029 110.786C308.409 107.628 307.754 108.258 335.23 90.3804C364.418 71.3884 361.555 73.9244 359.146 69.2024C352.474 56.1244 335.234 48.2864 319.103 50.9974ZM336.4 65.3304C344.829 68.9854 345.241 68.4214 323.93 82.4034C301.335 97.2294 301.593 97.1384 301.167 90.3834C299.951 71.0824 318.783 57.6914 336.4 65.3304Z" fill="#B7B7B7"/>
</svg>
