<?xml version="1.0" encoding="UTF-8" standalone="no"?><svg width="856" height="259" viewBox="0 0 856 259" fill="none" xmlns="http://www.w3.org/2000/svg">
<path fill-rule="evenodd" clip-rule="evenodd" d="M416.864 0.60243C415.951 0.894063 413.653 1.1625 411.757 1.19895C409.861 1.23541 408.125 1.56349 407.9 1.92804C407.674 2.29258 406.186 2.59084 404.594 2.59084C401.797 2.59084 394.691 4.06027 391.962 5.20228C391.232 5.5085 388.752 6.29061 386.452 6.94015C384.151 7.59036 382.117 8.36916 381.93 8.67073C381.743 8.97231 381.158 9.21887 380.63 9.21887C380.102 9.21887 378.122 9.96453 376.229 10.8759C374.336 11.7872 372.395 12.5329 371.916 12.5329C371.436 12.5329 371.044 12.7987 371.044 13.1241C371.044 13.4489 370.272 13.9082 369.329 14.1442C368.385 14.3808 366.449 15.308 365.026 16.2048C363.602 17.1016 362.133 17.8353 361.76 17.8353C361.388 17.8353 361.083 18.1336 361.083 18.4981C361.083 18.8627 360.811 19.1609 360.479 19.1609C359.622 19.1609 354.442 22.6128 354.442 23.1835C354.442 23.444 353.695 23.8443 352.782 24.073C351.869 24.3016 351.122 24.7815 351.122 25.1387C351.122 25.4967 350.74 25.789 350.273 25.789C349.805 25.789 348.992 26.3855 348.466 27.1146C347.939 27.8436 347.197 28.4402 346.818 28.4402C346.438 28.4402 345.387 29.335 344.481 30.4286C343.576 31.5222 342.578 32.417 342.262 32.417C341.18 32.417 326.854 47.6243 323.986 51.8192C323.431 52.6312 322.81 53.4444 322.606 53.6267C321.978 54.1881 317.5 61.1164 316.18 63.5687C315.492 64.8446 314.775 66.0377 314.585 66.22C313.628 67.1379 307.897 79.7312 306.29 84.447C305.669 86.2698 304.926 88.3576 304.638 89.0867C302.897 93.4936 301.981 96.6459 301.981 98.2314C301.981 99.2269 301.709 100.559 301.376 101.192C297.719 108.148 297.65 149.743 301.281 158.681C301.754 159.846 302.349 162.365 303.747 169.12C303.954 170.122 304.314 170.943 304.547 170.943C304.78 170.943 305.556 172.882 306.272 175.251C306.989 177.621 307.811 179.559 308.099 179.559C308.386 179.559 308.631 180.082 308.643 180.719C308.654 181.357 309.103 182.458 309.639 183.166C310.175 183.874 310.614 184.992 310.614 185.651C310.614 186.311 310.854 186.85 311.147 186.85C311.44 186.85 312.217 188.341 312.874 190.164C313.531 191.987 314.337 193.478 314.665 193.478C314.994 193.478 315.263 193.926 315.263 194.472C315.263 195.019 315.529 195.467 315.855 195.467C316.18 195.467 316.635 196.212 316.864 197.124C317.093 198.035 317.574 198.781 317.931 198.781C318.29 198.781 318.583 199.228 318.583 199.775C318.583 200.322 318.814 200.769 319.096 200.769C320.179 200.769 322.064 205.342 321.654 206.976C321.197 208.79 311.965 218.665 310.725 218.665C310.299 218.665 309.95 218.895 309.95 219.177C309.95 220.019 304.444 222.534 298.868 224.239C295.764 225.189 280.988 225.293 149.651 225.293C-16.5804 225.293 0.496048 224.496 0.496048 232.254V237.677L2.65426 238.807C5.48583 240.291 301.258 240.199 302.745 238.715C303.202 238.259 304.412 237.886 305.434 237.886C306.457 237.886 307.294 237.588 307.294 237.223C307.294 236.859 307.881 236.56 308.599 236.56C310.122 236.56 314.599 234.544 314.599 233.858C314.599 233.601 315.271 233.217 316.093 233.004C316.915 232.792 318.395 231.939 319.383 231.11C320.371 230.28 322.65 228.408 324.447 226.95C326.243 225.492 328.423 223.276 329.291 222.026C332.337 217.639 332.282 217.643 336.151 221.476C339.815 225.107 345.226 229.932 345.632 229.932C345.762 229.932 346.674 230.678 347.658 231.589C348.642 232.501 349.69 233.246 349.985 233.246C350.28 233.246 351.18 233.922 351.984 234.747C352.788 235.572 354.343 236.691 355.438 237.232C356.534 237.774 357.826 238.591 358.308 239.046C358.791 239.502 359.476 239.874 359.83 239.874C360.185 239.874 361.039 240.397 361.73 241.034C363.107 242.307 364.759 243.18 372.704 246.836C375.626 248.18 378.863 249.699 379.897 250.211C380.931 250.723 382.301 251.142 382.94 251.142C383.58 251.142 384.302 251.34 384.544 251.582C385.297 252.333 391.832 254.456 393.392 254.456C394.206 254.456 395.057 254.754 395.282 255.119C395.508 255.483 396.741 255.782 398.022 255.782C399.302 255.782 400.892 256.071 401.555 256.425C404.98 258.255 434.005 259.82 440.439 258.523C442.265 258.155 446 257.529 448.74 257.132C456.621 255.992 458.324 255.659 459.033 255.116C459.398 254.835 460.965 254.397 462.516 254.142C464.065 253.887 465.503 253.406 465.709 253.073C465.915 252.74 466.795 252.468 467.665 252.468C468.535 252.468 469.432 252.169 469.658 251.805C469.883 251.44 470.737 251.142 471.556 251.142C472.375 251.142 473.329 250.895 473.675 250.593C474.022 250.291 476.697 249.033 479.619 247.798C482.54 246.561 485.031 245.317 485.152 245.032C485.274 244.747 485.748 244.514 486.205 244.514C486.662 244.514 489.531 243.002 492.58 241.153C497.685 238.058 498.254 237.861 499.763 238.667C502.588 240.177 853.181 239.942 854.696 238.43C856.719 236.412 856.282 227.045 854.12 226.062C852.85 225.485 810.326 225.293 683.686 225.293H514.944L518.534 221.482C523.125 216.608 528.584 210.227 529.367 208.82C529.701 208.22 530.166 207.579 530.4 207.397C531.477 206.561 536.396 199.131 536.396 198.341C536.396 197.854 536.648 197.455 536.956 197.455C537.263 197.455 538.085 196.337 538.782 194.969C539.479 193.603 540.198 192.335 540.38 192.153C541.074 191.46 544.365 184.472 544.365 183.691C544.365 183.241 544.64 182.873 544.976 182.873C545.312 182.873 545.797 181.924 546.052 180.764C546.307 179.604 547.093 177.629 547.799 176.374C548.505 175.119 549.531 172.266 550.078 170.032C550.625 167.799 551.346 165.375 551.68 164.646C552.841 162.114 554.326 155.159 554.326 152.256C554.326 150.65 554.584 149.052 554.9 148.706C555.552 147.991 556.961 128.752 556.621 125.209C556.499 123.934 556.186 120.131 555.927 116.759C555.667 113.387 555.201 110.628 554.89 110.628C554.58 110.628 554.326 109.254 554.326 107.575C554.326 104.609 552.886 97.7343 551.703 95.0519C551.073 93.6236 549.78 88.8905 549.212 85.9383C549.02 84.9362 548.598 84.1156 548.274 84.1156C547.95 84.1156 547.685 83.6643 547.685 83.1122C547.685 82.5607 547.425 81.591 547.107 80.9581C546.789 80.3251 544.839 76.3774 542.774 72.1852C538.97 64.4642 537.723 62.1795 536.984 61.5803C536.759 61.3981 536.366 60.5775 536.109 59.7576C535.852 58.9371 535.364 58.2663 535.023 58.2663C534.683 58.2663 534.404 57.9548 534.404 57.5744C534.404 57.1939 533.657 56.0784 532.744 55.0961C531.831 54.1132 531.084 52.9327 531.084 52.4734C531.084 52.0141 530.835 51.6383 530.532 51.6383C530.228 51.6383 529.58 50.8926 529.091 49.9813C528.603 49.0699 527.805 48.3243 527.319 48.3243C526.833 48.3243 526.435 47.9299 526.435 47.4474C526.435 46.9649 524.941 44.9738 523.115 43.0218C521.289 41.0699 519.794 39.228 519.794 38.9277C519.794 38.6275 519.548 38.3822 519.247 38.3822C518.946 38.3822 516.545 36.2944 513.911 33.7426C511.277 31.1908 508.908 29.097 508.647 29.0904C508.386 29.0831 506.978 28.0359 505.517 26.7633C504.056 25.49 502.338 24.2831 501.699 24.0802C501.06 23.8774 500.537 23.4334 500.537 23.0933C500.537 22.7533 500.113 22.4749 499.596 22.4749C499.078 22.4749 498.556 22.2456 498.433 21.9659C498.116 21.2355 491.594 17.1725 490.739 17.1725C490.344 17.1725 489.923 16.9491 489.801 16.6754C489.506 16.0126 482.479 12.5329 481.435 12.5329C480.984 12.5329 480.615 12.2585 480.615 11.9231C480.615 11.5884 479.046 10.8268 477.128 10.231C475.21 9.63511 473.194 8.92658 472.646 8.65549C472.098 8.3844 469.857 7.6129 467.665 6.94082C465.474 6.26873 463.083 5.46674 462.353 5.15788C459.361 3.89259 452.891 2.59084 449.596 2.59084C447.664 2.59084 446.083 2.29258 446.083 1.92804C446.083 1.56349 445.043 1.26523 443.772 1.26523C442.5 1.26523 439.347 0.903342 436.764 0.461915C433.497 -0.0974906 431.739 -0.133282 430.981 0.343274C429.691 1.15587 429.089 2.59084 430.04 2.59084C430.407 2.59084 431.552 3.41073 432.585 4.41355C433.617 5.41571 435.317 6.83278 436.362 7.56186C437.407 8.29095 438.656 9.26063 439.137 9.71597C439.618 10.172 440.223 10.5445 440.481 10.5445C440.74 10.5445 441.643 11.2901 442.489 12.2015C443.335 13.1128 444.192 13.8585 444.393 13.8585C444.865 13.8585 455.502 22.3676 459.284 25.7704C460.883 27.2093 462.411 28.4733 462.678 28.5794C463.361 28.8491 467.755 32.3666 470.37 34.7368C471.577 35.8304 473.799 37.7691 475.307 39.045C478.94 42.1184 497.216 60.0426 497.216 60.5331C497.216 60.7439 498.337 62.1059 499.706 63.5608C502.735 66.7767 503.13 67.2572 505.171 70.1968C506.057 71.4727 507.006 72.6743 507.28 72.8679C508.242 73.5446 513.818 82.4056 513.818 83.256C513.818 83.7286 514.083 84.1156 514.408 84.1156C514.732 84.1156 516.56 87.3223 518.468 91.2408C520.377 95.1593 522.307 99.1116 522.758 100.023C523.209 100.934 523.968 103.171 524.446 104.994C524.922 106.817 525.531 108.606 525.798 108.971C526.297 109.654 527.608 114.744 528.189 118.25C528.369 119.344 528.785 120.835 529.11 121.564C531.75 127.474 531.712 166.409 529.065 168.292C528.808 168.474 528.447 169.667 528.262 170.943C527.757 174.419 524.996 183.262 522.778 188.507C518.476 198.68 512.721 208.323 507.022 214.909C506.023 216.063 505.202 217.195 505.196 217.425C505.088 221.648 498.036 223.457 494.95 220.054C494.256 219.29 493.49 218.665 493.246 218.665C493.002 218.665 491.203 217.173 489.247 215.351C487.292 213.528 485.482 212.037 485.226 212.037C484.969 212.037 483.566 210.919 482.109 209.551C480.65 208.184 477.749 205.723 475.66 204.083C473.571 202.443 470.32 199.686 468.436 197.957C466.551 196.229 464.827 194.812 464.604 194.809C464.381 194.806 463.136 193.835 461.837 192.65C457.503 188.697 452.529 184.534 451.817 184.263C451.43 184.115 450.206 183.068 449.096 181.934C447.987 180.801 445.668 178.745 443.942 177.366C442.216 175.986 440.423 174.487 439.957 174.033C439.492 173.579 438.432 172.74 437.603 172.169C436.773 171.598 434.918 170.043 433.481 168.717C432.044 167.389 430.695 166.303 430.484 166.303C430.273 166.303 429.251 165.483 428.212 164.481C426.005 162.351 422.826 159.675 422.504 159.675C422.007 159.675 418.193 155.557 418.193 155.021C418.193 154.705 430.347 154.423 445.202 154.395C460.057 154.367 472.533 154.094 472.927 153.788C473.32 153.482 474.755 153.06 476.116 152.852C478.876 152.429 488.583 147.858 488.583 146.981C488.583 146.672 488.895 146.419 489.275 146.419C491.304 146.419 501.865 134.813 501.865 132.584C501.865 132.234 502.088 131.849 502.363 131.727C503.177 131.366 505.185 127.189 505.185 125.858C505.185 125.18 505.484 124.441 505.849 124.215C506.214 123.99 506.513 122.797 506.513 121.564C506.513 120.331 506.812 119.138 507.177 118.913C508.858 117.876 507.785 101.863 505.767 97.8781C505.447 97.2451 505.185 96.2854 505.185 95.7458C505.185 94.7848 503.196 90.0716 502.515 89.4181C502.325 89.2358 501.839 88.341 501.435 87.4297C499.932 84.0414 491.044 74.8364 489.275 74.8364C488.895 74.8364 488.583 74.5739 488.583 74.2525C488.583 73.4346 479.385 68.9852 476.604 68.4576C475.34 68.2183 473.887 67.6907 473.374 67.2864C471.955 66.1669 417.406 66.2571 417.03 67.3799C416.878 67.8352 416.218 68.2084 415.562 68.2084C413.611 68.2084 406.625 71.1757 405.03 72.6823C404.547 73.1383 403.927 73.5108 403.652 73.5108C402.952 73.5108 393.622 82.6204 393.622 83.305C393.622 83.6132 393.097 84.4437 392.455 85.1503C391.813 85.8575 390.923 87.1811 390.478 88.0925C390.032 89.0038 388.933 90.9425 388.035 92.4007C387.138 93.8588 385.444 96.8415 384.273 99.0287C383.101 101.216 381.439 104.044 380.578 105.313C379.717 106.583 379.013 108 379.013 108.462C379.013 108.924 378.714 109.302 378.349 109.302C377.983 109.302 377.685 109.713 377.685 110.216C377.685 110.717 377.236 111.499 376.689 111.953C376.141 112.407 375.692 113.339 375.692 114.023C375.692 114.707 375.394 115.267 375.028 115.267C374.663 115.267 374.364 115.715 374.364 116.262C374.364 116.808 374.128 117.256 373.838 117.256C373.55 117.256 372.85 118.225 372.284 119.41C371.718 120.595 369.246 125.103 366.79 129.43C364.334 133.756 361.971 137.931 361.538 138.709C361.105 139.486 360.595 140.272 360.404 140.454C359.589 141.231 357.763 144.443 357.763 145.098C357.763 145.491 357.154 146.464 356.409 147.262C355.664 148.06 354.885 149.39 354.677 150.217C354.469 151.045 354.032 151.722 353.707 151.722C353.381 151.722 353.114 152.133 353.114 152.635C353.114 153.137 352.666 153.919 352.118 154.373C351.57 154.827 351.122 155.758 351.122 156.442C351.122 157.127 350.823 157.687 350.458 157.687C350.093 157.687 349.794 158.134 349.794 158.681C349.794 159.228 349.495 159.675 349.13 159.675C348.765 159.675 348.466 160.101 348.466 160.622C348.466 161.143 348.093 161.968 347.636 162.455C347.18 162.942 346.213 164.53 345.487 165.982C344.762 167.435 343.258 170.114 342.143 171.937C341.029 173.76 339.531 176.444 338.813 177.902C338.096 179.36 337.285 180.653 337.011 180.774C336.736 180.896 336.513 181.418 336.513 181.934C336.513 182.451 336.262 182.873 335.955 182.873C335.649 182.873 334.834 184.031 334.145 185.446C332.785 188.235 331.2 188.417 331.2 185.785C331.2 184.913 330.952 184.199 330.648 184.199C330.107 184.199 328.783 179.856 328.123 175.914C327.94 174.82 327.538 173.329 327.232 172.6C324.318 165.677 324.333 135.714 327.253 130.355C327.598 129.722 327.88 128.674 327.88 128.026C327.88 124.49 335.938 106.945 339.335 103.082C339.974 102.356 340.497 101.565 340.497 101.325C340.497 101.085 341.12 100.172 341.882 99.2958C342.643 98.4196 343.914 96.8574 344.704 95.8234C345.495 94.7894 346.515 93.5427 346.972 93.0535C347.429 92.5644 347.802 91.8446 347.802 91.4535C347.802 91.0631 348.25 90.7437 348.798 90.7437C349.346 90.7437 349.794 90.458 349.794 90.1094C349.794 88.9402 374.419 65.019 380.868 59.9233C383.301 58.0005 404.911 36.5456 404.911 36.0525C404.911 35.8238 405.3 35.2478 405.776 34.7733C406.252 34.2987 407.671 32.6443 408.93 31.0973C410.19 29.5504 411.535 27.9464 411.921 27.5341C412.307 27.1212 413.193 25.8141 413.891 24.629C414.588 23.444 415.393 22.4749 415.68 22.4749C415.966 22.4749 416.2 22.0275 416.2 21.4807C416.2 20.9339 416.493 20.4865 416.852 20.4865C417.21 20.4865 417.691 19.7409 417.92 18.8295C418.149 17.9182 418.556 17.1725 418.824 17.1725C419.092 17.1725 419.881 16.0544 420.579 14.687C421.275 13.3203 422.028 12.0524 422.25 11.8701C423.012 11.247 424.833 7.29807 424.833 6.2694C424.833 5.70403 425.084 5.24205 425.39 5.24205C426.517 5.24205 427.581 1.8432 426.764 0.859597C425.923 -0.151841 419.727 -0.312902 416.864 0.60243ZM67.2345 66.7012C65.0431 66.841 62.9666 67.2374 62.6193 67.582C62.2726 67.9267 61.2666 68.2084 60.384 68.2084C57.4993 68.2084 40.3399 74.4659 40.3399 75.5184C40.3399 75.7935 39.5357 76.2197 38.5529 76.4662C37.5701 76.7121 36.2958 77.4154 35.7213 78.0291C34.6469 79.1764 32.7961 80.459 31.0437 81.2716C28.0932 82.6389 15.138 96.1389 15.1161 97.8688C15.1101 98.3248 14.8066 98.6973 14.4414 98.6973C14.0762 98.6973 13.7773 99.1447 13.7773 99.6915C13.7773 100.238 13.4845 100.686 13.1259 100.686C12.768 100.686 12.2872 101.431 12.0581 102.343C11.829 103.254 11.3748 104 11.0494 104C10.7233 104 10.457 104.411 10.457 104.913C10.457 105.415 10.0088 106.197 9.46092 106.651C8.91306 107.105 8.46482 108.185 8.46482 109.052C8.46482 109.919 8.21447 110.628 7.90834 110.628C7.60287 110.628 6.78208 112.343 6.08548 114.439C5.38821 116.535 4.63915 118.399 4.42 118.581C4.02489 118.91 3.53547 121.161 2.47363 127.529C1.70597 132.134 1.76508 148.046 2.56461 152.053C2.92852 153.876 3.39137 156.337 3.59391 157.521C3.79645 158.706 4.22809 159.675 4.55282 159.675C4.87821 159.675 5.1445 160.45 5.1445 161.398C5.1445 162.345 5.61997 164.209 6.20036 165.54C8.5983 171.034 12.7892 179.011 13.9075 180.209C14.5662 180.915 15.1055 181.731 15.1055 182.024C15.1055 182.317 15.8525 183.36 16.7656 184.343C17.6787 185.325 18.4258 186.311 18.4258 186.532C18.4258 187.494 27.4245 196.472 29.8809 197.96C30.8856 198.569 31.7071 199.3 31.7071 199.587C31.7071 199.872 32.0272 200.106 32.4183 200.106C32.8101 200.106 33.5465 200.479 34.0559 200.935C35.9777 202.655 36.8204 203.163 41.767 205.582C44.5607 206.948 47.7734 208.251 48.9057 208.477C50.0386 208.703 50.9649 209.116 50.9649 209.393C50.9649 209.958 52.9379 210.415 60.3767 211.574C63.1791 212.011 65.6946 212.591 65.9662 212.865C66.6568 213.56 103.268 213.491 103.7 212.793C103.894 212.48 105.726 212.027 107.77 211.787C112.068 211.283 116.707 209.953 116.707 209.224C116.707 208.948 117.132 208.723 117.65 208.723C118.758 208.723 122.916 206.626 123.237 205.906C123.359 205.632 123.861 205.409 124.352 205.409C124.843 205.409 125.64 205.036 126.123 204.58C126.605 204.125 128.088 202.941 129.418 201.951C131.995 200.031 135.965 196.242 135.965 195.703C135.965 195.524 136.654 194.429 137.497 193.268C138.339 192.108 139.61 189.973 140.319 188.525C141.029 187.077 142.058 185.384 142.606 184.763C143.154 184.141 144.648 181.601 145.926 179.117C147.204 176.632 148.665 174.161 149.173 173.626C149.68 173.09 150.502 171.746 150.998 170.638C151.495 169.53 152.654 167.43 153.573 165.972C154.492 164.514 155.424 162.799 155.643 162.161C155.863 161.522 156.246 161.001 156.495 161.001C156.744 161.001 157.325 159.96 157.786 158.688C158.247 157.416 158.986 155.999 159.427 155.539C160.191 154.744 162.44 150.797 165.001 145.756C165.65 144.48 166.57 143.026 167.046 142.525C167.522 142.024 168.555 140.235 169.343 138.548C170.13 136.862 171.16 135.089 171.631 134.607C172.103 134.125 172.489 133.305 172.489 132.785C172.489 132.264 172.788 131.837 173.153 131.837C173.518 131.837 173.817 131.39 173.817 130.843C173.817 130.296 174.083 129.849 174.409 129.849C174.735 129.849 175.189 129.103 175.418 128.192C175.647 127.281 176.128 126.535 176.486 126.535C176.844 126.535 177.137 126.082 177.137 125.529C177.137 124.976 178.631 122.119 180.457 119.18C182.284 116.241 183.778 113.549 183.778 113.199C183.778 112.848 184.387 111.908 185.132 111.11C185.876 110.313 186.656 108.983 186.864 108.156C187.072 107.328 187.509 106.651 187.834 106.651C188.16 106.651 188.426 106.054 188.426 105.325C188.426 104.596 188.705 104 189.046 104C189.387 104 189.875 103.329 190.131 102.508C190.388 101.688 190.781 100.868 191.006 100.686C191.231 100.503 191.997 99.3104 192.709 98.0345C194.253 95.2693 194.328 95.1672 197.435 91.5722C198.774 90.0225 200.146 88.7553 200.484 88.7553C200.822 88.7553 201.753 88.1475 202.552 87.4038C203.351 86.6608 204.684 85.8827 205.513 85.6752C206.342 85.4678 207.02 85.0316 207.02 84.7069C207.02 84.3814 207.767 84.1156 208.68 84.1156C209.593 84.1156 210.34 83.8359 210.34 83.4933C210.34 83.1513 211.76 82.6886 213.495 82.4653C215.23 82.2419 217.168 81.7766 217.802 81.4306C218.493 81.0535 234.886 80.8016 258.696 80.8016H298.436L299.325 79.1446C299.814 78.2333 300.462 77.4876 300.765 77.4876C302.33 77.4876 301.279 70.8377 299.379 68.7161L297.441 66.5514H255.651C225.524 66.5514 213.416 66.7641 212.266 67.3136C211.39 67.7325 208.879 68.6007 206.688 69.243C204.497 69.8853 202.255 70.6276 201.708 70.8927C196.732 73.3033 195.467 74.0265 193.949 75.3289C192.989 76.1514 191.998 76.8248 191.747 76.8248C190.257 76.8248 181.711 86.5044 180.877 89.1357C180.638 89.8913 179.922 91.0844 179.286 91.7869C178.65 92.4888 177.533 94.3274 176.803 95.8731C176.074 97.4181 175.253 98.6854 174.979 98.69C174.705 98.694 174.481 98.9903 174.481 99.3482C174.481 99.7068 173.286 101.949 171.825 104.331C170.364 106.713 169.168 109.105 169.168 109.646C169.168 110.186 168.912 110.628 168.599 110.628C168.285 110.628 167.28 112.044 166.366 113.776C163.349 119.489 162.2 121.559 161.858 121.895C161.673 122.078 160.658 123.867 159.604 125.872C158.549 127.877 157.281 129.988 156.786 130.564C156.292 131.14 155.887 131.96 155.887 132.387C155.887 132.814 155.663 133.168 155.389 133.174C155.115 133.18 153.995 135.04 152.899 137.308C151.803 139.576 150.372 142.025 149.719 142.752C149.066 143.478 148.361 144.75 148.153 145.577C147.945 146.405 147.575 147.082 147.331 147.082C147.088 147.082 146.298 148.421 145.577 150.059C144.856 151.695 144.042 153.037 143.768 153.041C143.494 153.045 143.27 153.473 143.27 153.994C143.27 154.515 142.897 155.335 142.44 155.817C141.984 156.298 141.162 157.587 140.615 158.681C140.067 159.775 139.469 160.819 139.287 161.001C139.104 161.184 138.431 162.303 137.791 163.487C137.152 164.671 136.107 166.61 135.467 167.795C134.828 168.98 134.081 170.048 133.807 170.169C133.533 170.291 133.309 170.678 133.309 171.03C133.309 171.382 132.263 173.301 130.985 175.295C129.706 177.291 128.66 179.327 128.66 179.822C128.66 180.318 128.212 181.094 127.664 181.548C127.117 182.002 126.668 182.631 126.668 182.947C126.668 187.538 113.359 195.767 102.231 198.057C94.7102 199.604 64.3266 198.643 60.7692 196.744C60.135 196.406 58.8826 196.129 57.9861 196.129C57.0896 196.129 56.1918 195.865 55.9919 195.541C55.792 195.219 54.5788 194.757 53.2965 194.517C52.0142 194.278 50.9649 193.796 50.9649 193.448C50.9649 193.1 50.5406 192.815 50.0226 192.815C48.8506 192.815 45.177 190.883 43.4079 189.336C42.6787 188.698 41.8493 188.176 41.5658 188.176C41.2822 188.176 40.1327 187.281 39.0118 186.187C37.8908 185.094 36.8078 184.199 36.6052 184.199C35.5992 184.199 27.6032 174.873 25.8135 171.612C22.3863 165.366 19.7539 159.887 19.7539 158.998C19.7539 158.423 19.4704 157.669 19.1244 157.322C16.1812 154.379 16.2012 124.661 19.1483 121.597C19.481 121.251 19.7539 120.431 19.7539 119.774C19.7539 119.118 20.0527 118.581 20.418 118.581C20.7832 118.581 21.082 118.141 21.082 117.604C21.082 113.553 35.9378 94.0577 39.0244 94.0577C39.3823 94.0577 39.6758 93.7793 39.6758 93.4393C39.6758 93.0993 40.3485 92.6095 41.17 92.3503C41.9921 92.0918 43.1124 91.4005 43.6602 90.8146C45.08 89.2968 52.7021 85.4412 54.2839 85.4412C55.0151 85.4412 55.6134 85.143 55.6134 84.7784C55.6134 84.4139 56.215 84.1156 56.9508 84.1156C57.6859 84.1156 58.8069 83.834 59.4411 83.4893C62.7375 81.6991 71.5934 81.1894 103.032 80.9806C138.299 80.7466 137.957 80.7844 137.957 77.0548C137.957 76.5637 138.256 76.162 138.621 76.162C140.488 76.162 138.548 70.21 135.901 67.8186C134.545 66.5925 82.2543 65.7421 67.2345 66.7012ZM625.617 66.6587C623.364 67.13 619.081 71.5224 616.998 75.4992C615.947 77.5042 614.714 79.539 614.258 80.0202C613.801 80.502 613.428 81.3226 613.428 81.8429C613.428 82.3639 613.129 82.79 612.763 82.79C612.398 82.79 612.099 83.2374 612.099 83.7842C612.099 84.3311 611.858 84.7784 611.563 84.7784C611.268 84.7784 610.472 86.0457 609.793 87.5954C609.114 89.145 607.812 91.604 606.897 93.0608C604.835 96.3477 599.493 105.674 598.154 108.325C597.606 109.409 596.785 110.691 596.328 111.172C595.872 111.654 595.498 112.474 595.498 112.995C595.498 113.516 595.233 113.942 594.911 113.942C594.589 113.942 594.141 114.463 593.917 115.102C593.387 116.608 588.833 124.778 588.283 125.209C588.051 125.392 587.266 126.734 586.54 128.192C585.812 129.65 585.063 130.992 584.873 131.175C584.683 131.357 583.933 132.699 583.206 134.157C582.479 135.615 581.735 136.958 581.552 137.14C581.258 137.434 580.579 138.615 577.949 143.411C577.557 144.126 576.863 145.117 576.406 145.613C575.95 146.108 575.576 146.915 575.576 147.405C575.576 147.896 575.352 148.396 575.078 148.518C574.804 148.64 573.706 150.379 572.64 152.384C571.573 154.389 570.512 156.179 570.282 156.361C570.051 156.543 569.09 158.184 568.144 160.007C564.94 166.182 563.956 167.958 563.557 168.291C563.172 168.613 561.111 172.167 558.561 176.907C557.875 178.183 557.165 179.376 556.982 179.559C556.408 180.133 555.026 182.453 553.824 184.862C553.187 186.138 552.516 187.331 552.334 187.514C552.151 187.696 551.525 188.74 550.942 189.833C550.359 190.926 548.341 194.474 546.459 197.715C541.962 205.462 542.385 212.037 547.38 212.037C547.913 212.037 548.349 212.335 548.349 212.699C548.349 215.22 556.653 211.255 557.374 208.391C557.603 207.48 558.056 206.734 558.382 206.734C558.708 206.734 558.974 206.323 558.974 205.821C558.974 205.319 559.422 204.537 559.97 204.083C560.518 203.629 560.966 202.698 560.966 202.014C560.966 201.329 561.265 200.769 561.63 200.769C561.996 200.769 562.295 200.322 562.295 199.775C562.295 199.228 562.587 198.781 562.946 198.781C563.304 198.781 563.785 198.035 564.014 197.124C564.243 196.212 564.697 195.467 565.023 195.467C565.349 195.467 565.615 195.195 565.615 194.863C565.615 194.313 567.913 190.103 573.064 181.216C574.12 179.394 575.153 177.38 575.358 176.742C575.563 176.105 575.932 175.582 576.177 175.582C576.423 175.582 577.508 173.868 578.59 171.771C579.671 169.675 580.93 167.566 581.386 167.085C581.843 166.603 582.216 165.782 582.216 165.262C582.216 164.741 582.445 164.315 582.724 164.315C583.003 164.315 583.756 163.197 584.397 161.829C585.745 158.959 588.868 153.534 589.454 153.047C589.674 152.865 590.467 151.523 591.217 150.065C593.397 145.823 595.801 141.48 596.168 141.119C596.354 140.935 597.101 139.592 597.829 138.134C598.555 136.676 599.374 135.383 599.648 135.262C599.922 135.14 600.146 134.619 600.146 134.102C600.146 133.585 600.4 133.163 600.709 133.163C601.019 133.163 601.833 131.896 602.518 130.346C603.202 128.797 603.919 127.38 604.112 127.198C604.305 127.016 605.038 125.823 605.741 124.547C606.444 123.271 607.199 122.078 607.419 121.895C607.64 121.713 608.401 120.222 609.11 118.581C609.82 116.941 610.912 115.134 611.538 114.565C612.163 113.997 612.876 112.73 613.123 111.749C613.37 110.768 613.808 109.965 614.098 109.965C614.387 109.965 615.177 108.624 615.852 106.985C616.527 105.346 617.304 104.004 617.578 104.002C617.852 104.001 618.076 103.552 618.076 103.006C618.076 102.459 618.32 102.011 618.617 102.011C618.915 102.011 620.465 99.4761 622.06 96.3775C623.656 93.2789 625.184 90.7437 625.455 90.7437C625.726 90.7437 626.054 90.222 626.184 89.5838C626.315 88.9455 626.951 90.6608 627.597 93.3949C628.243 96.1289 629.032 98.9624 629.35 99.6915C629.669 100.421 630.115 101.912 630.341 103.006C630.568 104.099 631.062 106.485 631.439 108.308C631.815 110.131 632.399 111.905 632.737 112.252C633.074 112.598 633.349 113.699 633.349 114.698C633.349 115.698 633.613 116.678 633.936 116.877C634.259 117.076 634.727 118.878 634.978 120.882C635.229 122.886 635.712 124.697 636.052 124.907C636.392 125.116 636.67 125.966 636.67 126.795C636.67 127.624 636.894 128.525 637.168 128.798C637.603 129.231 638.36 132.319 639.778 139.46C639.996 140.553 640.373 141.597 640.616 141.78C640.86 141.962 641.589 144.613 642.237 147.672C642.885 150.73 643.672 153.713 643.984 154.3C644.298 154.886 645.07 157.753 645.699 160.669C646.329 163.586 647.054 166.27 647.309 166.635C647.565 166.999 647.938 168.36 648.137 169.658C648.951 174.965 652.761 180.813 655.439 180.863C656.083 180.875 657.141 181.216 657.79 181.621C660.378 183.233 669.209 178.252 669.209 175.181C669.209 174.672 669.461 174.257 669.769 174.257C670.076 174.257 670.898 173.139 671.595 171.771C672.292 170.405 673.011 169.137 673.193 168.954C673.817 168.332 676.598 163.323 676.966 162.161C677.168 161.523 677.552 161.001 677.819 161.001C678.087 161.001 678.86 159.659 679.538 158.018C680.216 156.378 681.008 155.036 681.298 155.036C681.588 155.036 681.826 154.588 681.826 154.041C681.826 153.495 682.125 153.047 682.49 153.047C682.855 153.047 683.154 152.621 683.154 152.1C683.154 151.58 683.528 150.759 683.984 150.277C684.441 149.796 685.587 147.91 686.53 146.088C689.024 141.27 690.742 138.182 691.138 137.803C692.11 136.875 693.779 133.748 693.779 132.855C693.779 132.295 694.078 131.837 694.443 131.837C694.809 131.837 695.107 131.39 695.107 130.843C695.107 130.296 695.4 129.849 695.759 129.849C696.117 129.849 696.598 129.103 696.827 128.192C697.056 127.281 697.437 126.535 697.673 126.535C697.91 126.535 698.516 125.565 699.02 124.381C699.524 123.197 701.091 120.37 702.502 118.101C703.914 115.831 705.068 113.824 705.068 113.64C705.068 113.455 706.051 111.733 707.25 109.812C708.45 107.891 710.019 105.131 710.737 103.678C711.454 102.226 712.386 100.667 712.809 100.213C713.231 99.7605 713.977 98.4879 714.465 97.3863C714.954 96.2847 715.579 95.3833 715.855 95.3833C716.132 95.3833 716.357 94.922 716.357 94.3573C716.357 93.7932 717.105 92.6406 718.018 91.7962C718.931 90.9511 719.678 89.9218 719.678 89.5075C719.678 89.094 719.902 88.7546 720.176 88.7539C720.449 88.7526 721.72 87.8505 722.998 86.749C724.276 85.6474 725.995 84.5717 726.816 84.3589C727.638 84.1461 728.311 83.7458 728.311 83.4688C728.311 81.7315 736.408 81.257 770.13 81.0157C799.407 80.8069 805.061 80.616 805.506 79.8227C805.797 79.3037 806.477 78.4381 807.017 77.8992C808.753 76.166 808.266 71.4607 806.079 68.846L804.159 66.5514H768.061C731.743 66.5514 727.91 66.7701 725.356 68.9865C725.008 69.2874 724.261 69.536 723.695 69.5379C723.129 69.5406 721.77 70.0284 720.674 70.623C719.578 71.2168 717.86 72.1315 716.856 72.6558C715.851 73.1794 715.029 73.8846 715.029 74.222C715.029 74.56 714.673 74.8364 714.237 74.8364C713.072 74.8364 707.094 81.2484 704.345 85.4465C700.668 91.0605 697.938 95.781 697.413 97.4294C697.151 98.2532 696.364 99.5404 695.665 100.29C694.965 101.04 694.222 102.331 694.014 103.158C693.806 103.986 693.399 104.663 693.109 104.663C692.82 104.663 692.03 106.003 691.355 107.643C690.679 109.282 689.902 110.624 689.629 110.625C689.355 110.626 689.131 111.075 689.131 111.622C689.131 112.169 688.862 112.616 688.532 112.616C688.204 112.616 687.382 113.957 686.706 115.596C686.031 117.235 685.254 118.577 684.98 118.579C684.707 118.58 684.482 119.008 684.482 119.529C684.482 120.049 684.1 120.869 683.632 121.351C683.165 121.832 681.898 124.016 680.817 126.204C679.736 128.391 678.634 130.341 678.368 130.537C678.103 130.734 677.168 132.225 676.29 133.851C675.412 135.478 674.132 137.852 673.446 139.128C672.759 140.404 672.026 141.597 671.817 141.779C671.608 141.962 671.232 142.558 670.981 143.105C670.73 143.652 669.881 145.143 669.093 146.419C667.649 148.757 665.502 152.603 663.08 157.193C661.339 160.491 660.576 160.856 660.576 158.389C660.576 157.274 660.342 156.361 660.055 156.361C659.59 156.361 658.556 152.431 657.526 146.751C657.327 145.657 656.934 144.166 656.65 143.437C655.209 139.728 653.935 135.118 653.935 133.61C653.935 132.679 653.637 131.731 653.271 131.506C652.906 131.281 652.607 130.483 652.607 129.733C652.607 128.983 652.174 126.988 651.644 125.298C651.114 123.609 650.391 121.034 650.036 119.576C649.681 118.117 648.919 115.324 648.343 113.368C647.766 111.413 647.295 109.25 647.295 108.563C647.295 107.876 646.996 107.314 646.631 107.314C646.265 107.314 645.967 106.54 645.967 105.593C645.967 103.637 644.237 96.9575 643.281 95.2269C642.932 94.5939 642.646 93.1947 642.646 92.1177C642.646 91.0406 642.387 89.9993 642.07 89.8032C641.753 89.6076 641.294 87.95 641.051 86.1186C640.808 84.288 640.32 82.79 639.968 82.79C639.615 82.79 639.326 81.597 639.326 80.1388C639.326 78.6807 639.027 77.4876 638.662 77.4876C638.297 77.4876 637.998 76.736 637.998 75.8174C637.998 70.5467 631.173 65.4975 625.617 66.6587ZM845.509 67.236C843.513 68.2196 839.873 73.3597 839.873 75.195C839.873 75.7265 839.642 76.162 839.36 76.162C839.078 76.162 838.259 77.2808 837.541 78.6475C836.822 80.0149 836.077 81.2822 835.885 81.4644C835.694 81.6467 834.944 83.0598 834.219 84.6055C833.494 86.1505 832.676 87.4177 832.403 87.4224C832.129 87.4263 831.905 87.7226 831.905 88.0805C831.905 88.4391 830.709 90.6814 829.248 93.0635C827.787 95.4456 826.592 97.7005 826.592 98.0736C826.592 98.4474 825.983 99.4052 825.238 100.203C824.494 101.001 823.714 102.331 823.506 103.158C823.298 103.986 822.861 104.663 822.536 104.663C822.21 104.663 821.944 105.259 821.944 105.988C821.944 106.717 821.651 107.314 821.292 107.314C820.934 107.314 820.454 108.059 820.224 108.971C819.995 109.882 819.541 110.628 819.216 110.628C818.89 110.628 818.623 111.075 818.623 111.622C818.623 112.169 818.37 112.616 818.06 112.616C817.749 112.616 816.941 113.958 816.263 115.599C815.585 117.239 814.793 118.581 814.503 118.581C814.213 118.581 813.975 119.008 813.975 119.529C813.975 120.049 813.594 120.869 813.128 121.351C812.662 121.832 811.392 124.016 810.305 126.204C809.219 128.391 808.144 130.33 807.915 130.512C807.688 130.694 806.933 131.887 806.239 133.163C805.545 134.439 804.387 136.364 803.665 137.442C802.018 139.902 799.532 144.395 798.972 145.922C798.738 146.56 798.282 147.082 797.96 147.082C797.638 147.082 797.373 147.678 797.373 148.408C797.373 149.137 797.08 149.733 796.722 149.733C796.364 149.733 795.883 150.479 795.654 151.39C795.425 152.302 794.971 153.047 794.645 153.047C794.319 153.047 794.053 153.332 794.053 153.679C794.053 154.027 792.522 156.936 790.65 160.142C788.778 163.348 786.461 167.463 785.503 169.286C784.544 171.109 783.581 172.749 783.361 172.931C782.393 173.736 779.444 178.965 779.444 179.877C779.444 180.432 779.151 180.885 778.792 180.885C778.434 180.885 777.953 181.631 777.724 182.542C777.495 183.453 777.074 184.199 776.787 184.199C776.501 184.199 776.093 184.87 775.88 185.69C775.668 186.511 774.739 188.048 773.816 189.108L772.139 191.033V188.601C772.139 187.264 771.875 185.651 771.553 185.018C771.23 184.385 770.619 182.525 770.194 180.885C769.769 179.244 769.114 176.858 768.738 175.582C768.362 174.307 767.831 172.07 767.557 170.611C767.01 167.685 765.656 163.291 764.752 161.507C764.432 160.874 764.17 159.7 764.17 158.899C764.17 157.016 762.15 149.591 761.415 148.772C761.104 148.426 760.85 147.428 760.85 146.554C760.85 144.936 759.231 138.546 758.213 136.146C757.904 135.417 757.1 132.36 756.428 129.353C755.756 126.347 754.981 123.886 754.707 123.885C754.434 123.884 754.209 123.134 754.209 122.218C754.209 121.302 753.578 118.395 752.808 115.756C752.037 113.118 751.256 110.139 751.072 109.136C750.888 108.134 750.512 107.314 750.236 107.314C749.96 107.314 749.566 106.276 749.359 105.008C748.994 102.761 746.335 99.3601 744.942 99.3601C744.56 99.3601 744.248 99.0884 744.248 98.7556C744.248 97.4466 739.181 97.2696 736.38 98.4806C734.864 99.1368 733.623 99.901 733.623 100.179C733.623 100.458 733.175 100.686 732.627 100.686C732.079 100.686 731.631 100.997 731.631 101.376C731.631 101.756 731.087 102.65 730.422 103.362C729.757 104.075 728.558 105.927 727.759 107.477C726.96 109.028 725.409 111.788 724.314 113.61C723.218 115.433 722.14 117.446 721.918 118.084C721.697 118.723 721.251 119.244 720.928 119.244C720.606 119.244 720.342 119.841 720.342 120.57C720.342 121.299 720.043 121.895 719.678 121.895C719.313 121.895 719.014 122.322 719.014 122.843C719.014 123.363 718.641 124.197 718.184 124.695C717.727 125.194 716.883 126.483 716.31 127.56C714.704 130.57 713.404 132.797 713.037 133.164C712.651 133.55 710.874 136.754 708.444 141.448C707.501 143.271 706.355 145.157 705.898 145.638C705.442 146.12 705.068 146.94 705.068 147.46C705.068 147.981 704.825 148.408 704.528 148.408C704.231 148.408 703.578 149.451 703.076 150.727C702.575 152.003 701.921 153.047 701.624 153.047C701.327 153.047 701.084 153.473 701.084 153.994C701.084 154.515 700.711 155.348 700.254 155.847C699.412 156.766 698.296 158.696 695.178 164.625C694.226 166.436 692.904 168.524 692.239 169.265C691.575 170.006 690.865 171.432 690.662 172.434C690.459 173.436 690.078 174.257 689.816 174.257C689.554 174.257 688.77 175.376 688.073 176.742C687.376 178.11 686.657 179.377 686.475 179.559C686.105 179.928 684.784 182.193 683.202 185.171C681.972 187.486 675.656 194.141 674.689 194.141C674.321 194.141 673.648 194.588 673.193 195.135C672.738 195.682 671.656 196.129 670.788 196.129C669.919 196.129 669.209 196.4 669.209 196.73C669.209 197.895 662.566 198.16 629.697 198.304C593.141 198.464 593.659 198.405 591.672 202.608C589.973 206.201 592.361 212.037 595.532 212.037C596.244 212.037 596.826 212.335 596.826 212.699C596.826 213.133 608.779 213.362 631.357 213.362C650.349 213.362 665.889 213.106 665.889 212.794C665.889 212.481 667.743 212.032 670.01 211.795C672.277 211.559 674.428 211.069 674.791 210.707C675.154 210.345 675.964 210.048 676.591 210.048C677.218 210.048 677.83 209.824 677.953 209.551C678.074 209.277 679.367 208.458 680.825 207.728C686.793 204.745 697.1 193.732 697.1 190.338C697.1 189.878 697.364 189.501 697.686 189.501C698.009 189.501 698.44 188.979 698.645 188.341C698.849 187.704 700.085 185.392 701.39 183.205C702.696 181.017 704.125 178.482 704.568 177.571C705.011 176.66 705.536 175.765 705.734 175.582C706.691 174.704 708.389 171.539 708.389 170.635C708.389 170.075 708.688 169.617 709.053 169.617C709.418 169.617 709.717 169.17 709.717 168.623C709.717 168.076 709.996 167.629 710.336 167.629C710.677 167.629 711.165 166.957 711.421 166.138C711.678 165.317 712.088 164.497 712.331 164.315C712.575 164.133 713.295 162.94 713.93 161.664C715.511 158.491 718.456 153.451 718.965 153.047C719.194 152.865 719.963 151.374 720.674 149.733C721.384 148.093 722.153 146.601 722.383 146.419C723.34 145.658 726.318 140.402 726.318 139.473C726.318 138.919 726.611 138.466 726.97 138.466C727.328 138.466 727.809 137.72 728.038 136.809C728.267 135.897 728.721 135.151 729.046 135.151C729.372 135.151 729.639 134.729 729.639 134.212C729.639 133.696 729.863 133.174 730.137 133.052C730.41 132.931 731.196 131.788 731.882 130.512C734.973 124.763 736.522 122.21 737.044 122.006C737.354 121.884 737.609 121.139 737.611 120.349C737.618 117.977 739.43 121.968 739.966 125.538C740.213 127.18 740.679 128.523 741.004 128.523C741.327 128.523 741.592 129.518 741.592 130.733C741.592 131.948 741.811 133.161 742.079 133.429C742.51 133.858 743.502 137.614 744.682 143.271C744.892 144.273 745.328 145.094 745.651 145.094C745.975 145.094 746.24 146.296 746.24 147.766C746.24 149.236 746.689 151.509 747.236 152.818C747.784 154.127 748.233 155.757 748.233 156.442C748.233 157.127 748.531 157.687 748.897 157.687C749.262 157.687 749.561 158.63 749.561 159.783C749.561 161.907 751.206 168.329 752.289 170.436C752.615 171.069 752.881 172.284 752.881 173.135C752.881 174.602 754.312 179.654 755.545 182.542C755.856 183.271 756.263 184.762 756.449 185.856C757.165 190.067 758.429 195.15 758.838 195.467C759.073 195.649 759.814 198.23 760.485 201.204C761.789 206.991 765.072 212.037 767.534 212.037C768.198 212.037 768.925 212.335 769.151 212.699C769.655 213.514 772.803 213.586 772.803 212.782C772.803 212.464 773.717 212.02 774.834 211.797C775.951 211.574 777.22 211.015 777.656 210.554C779.376 208.734 782.1 204.796 782.1 204.127C782.1 203.738 782.366 203.42 782.692 203.42C783.018 203.42 783.472 202.675 783.701 201.763C783.93 200.852 784.411 200.106 784.769 200.106C785.127 200.106 785.42 199.51 785.42 198.781C785.42 198.052 785.684 197.455 786.007 197.455C786.329 197.455 786.769 196.933 786.983 196.295C787.363 195.168 788.734 192.822 789.405 192.153C789.587 191.97 790.332 190.628 791.058 189.17C791.785 187.712 792.532 186.37 792.718 186.187C793.245 185.672 795.948 180.869 797.569 177.571C798.374 175.93 799.568 173.998 800.221 173.276C800.874 172.554 801.579 171.286 801.787 170.459C801.995 169.631 802.358 168.951 802.592 168.947C802.826 168.943 803.614 167.675 804.341 166.13C805.069 164.585 806.056 162.91 806.535 162.409C807.014 161.908 808.046 160.119 808.827 158.432C809.609 156.746 810.415 155.218 810.617 155.035C810.821 154.853 811.553 153.66 812.246 152.384C812.939 151.108 814.556 148.275 815.84 146.088C817.125 143.9 818.663 141.2 819.258 140.087C819.853 138.974 820.999 137.138 821.806 136.008C822.612 134.878 823.272 133.477 823.272 132.895C823.272 132.313 823.571 131.837 823.936 131.837C824.301 131.837 824.6 131.39 824.6 130.843C824.6 130.296 824.893 129.849 825.251 129.849C825.609 129.849 826.09 129.103 826.319 128.192C826.548 127.281 827.003 126.535 827.328 126.535C827.654 126.535 827.92 125.939 827.92 125.209C827.92 124.48 828.213 123.884 828.572 123.884C828.93 123.884 829.41 123.138 829.64 122.227C829.869 121.315 830.288 120.57 830.571 120.57C830.854 120.57 831.269 120.048 831.493 119.41C831.717 118.772 833.101 116.162 834.568 113.61C836.034 111.059 837.433 108.523 837.675 107.977C837.918 107.43 838.294 106.833 838.512 106.651C839.444 105.87 841.202 102.638 841.202 101.703C841.202 101.144 841.5 100.686 841.866 100.686C842.231 100.686 842.53 100.238 842.53 99.6915C842.53 99.1447 842.823 98.6973 843.181 98.6973C843.539 98.6973 844.02 97.9517 844.249 97.0403C844.478 96.1289 844.932 95.3833 845.258 95.3833C845.584 95.3833 845.85 94.8232 845.85 94.1385C845.85 93.4545 846.298 92.5233 846.846 92.0693C847.394 91.6153 847.842 90.8332 847.842 90.3314C847.842 89.829 848.067 89.4154 848.34 89.4128C848.614 89.4101 849.154 88.7387 849.542 87.9215C851.161 84.4974 854.723 78.4652 855.247 78.2611C856.928 77.6029 855.326 68.2084 853.532 68.2084C853.272 68.2084 852.612 67.761 852.064 67.2142C850.803 65.9562 848.089 65.9648 845.509 67.236ZM459.697 81.6381L471.65 81.8177L476.044 84.0301C480.792 86.4202 483.935 88.7944 483.935 89.9921C483.935 90.4056 484.255 90.7437 484.646 90.7437C485.566 90.7437 487.255 92.4298 487.255 93.3478C487.255 93.7382 487.486 94.0577 487.769 94.0577C489.014 94.0577 492.084 102.324 492.814 107.645C493.328 111.389 491.286 122.848 489.92 123.884C489.679 124.066 489.282 124.663 489.037 125.209C487.542 128.547 482.358 133.735 478.241 136.014C472.034 139.451 472.299 139.43 431.197 139.788C401.259 140.048 392.675 140.306 392.459 140.951C392.308 141.407 391.868 141.78 391.482 141.78C390.105 141.78 389.016 144.148 388.995 147.191C388.972 150.544 390.136 152.136 396.108 156.92C397.629 158.138 399.599 159.779 400.486 160.565C402.276 162.153 405.397 164.734 408.843 167.478C410.091 168.472 411.739 169.882 412.505 170.611C413.271 171.341 415.375 173.127 417.181 174.581C418.987 176.035 421.308 178.049 422.34 179.055C423.371 180.062 424.376 180.885 424.572 180.885C424.767 180.885 425.306 181.258 425.768 181.713C426.229 182.169 427.905 183.586 429.491 184.862C431.077 186.138 432.995 187.779 433.751 188.509C434.507 189.239 436.47 190.879 438.114 192.155C439.757 193.429 441.864 195.218 442.798 196.129C443.731 197.041 445.652 198.681 447.067 199.775C448.481 200.868 450.013 202.136 450.469 202.592C450.927 203.048 451.422 203.42 451.57 203.42C451.718 203.42 453.134 204.613 454.716 206.071C456.299 207.53 457.819 208.723 458.094 208.723C458.37 208.723 459.94 210.065 461.584 211.705C463.227 213.346 464.767 214.688 465.004 214.688C465.242 214.688 465.81 215.061 466.267 215.516C466.724 215.972 468.544 217.538 470.312 218.996C472.079 220.454 474.154 222.244 474.922 222.973C475.691 223.702 477.659 225.384 479.297 226.71C480.935 228.036 483.022 229.777 483.935 230.579C484.848 231.381 486.023 232.277 486.545 232.569C487.75 233.244 486.858 234.219 482.592 236.887C480.957 237.91 479.469 238.935 479.286 239.163C479.104 239.393 477.61 240.159 475.966 240.869C474.323 241.578 472.828 242.33 472.646 242.542C472.463 242.752 470.82 243.455 468.994 244.102C467.167 244.75 465.076 245.529 464.345 245.835C462.646 246.545 457.145 248.21 453.72 249.052C452.259 249.411 449.868 250.064 448.408 250.504C444.833 251.58 418.526 252.103 412.548 251.218C405.324 250.148 403.356 249.769 401.923 249.176C401.193 248.873 398.503 248.098 395.946 247.455C393.39 246.811 390.85 246.062 390.302 245.792C389.754 245.522 385.258 243.32 380.31 240.901C375.362 238.482 370.46 235.77 369.416 234.875C368.371 233.979 367.325 233.246 367.089 233.246C365.11 233.246 346.018 213.845 344.214 210.001C343.884 209.297 343.361 208.723 343.052 208.723C342.742 208.723 342.489 208.403 342.489 208.013C342.489 207.622 342.031 206.845 341.471 206.286C340.52 205.337 340.678 202.964 341.749 202.095C342.405 201.562 343.823 199.211 344.246 197.952C344.461 197.314 344.833 196.792 345.074 196.792C345.315 196.792 346.102 195.453 346.823 193.816C347.544 192.179 348.358 190.837 348.632 190.833C348.906 190.83 349.13 190.507 349.13 190.117C349.13 189.726 349.578 188.959 350.126 188.412C350.674 187.866 351.122 186.694 351.122 185.809C351.122 184.923 351.378 184.199 351.691 184.199C352.268 184.199 357.921 175.029 358.847 172.595C359.123 171.868 359.739 170.88 360.216 170.399C360.693 169.917 361.083 169.096 361.083 168.576C361.083 168.055 361.311 167.629 361.59 167.629C362.108 167.629 362.424 167.123 364.735 162.604C365.466 161.175 366.287 159.907 366.562 159.786C366.836 159.664 367.06 159.211 367.06 158.78C367.06 158.348 367.761 156.956 368.618 155.686C369.475 154.417 370.931 152.036 371.855 150.396C372.779 148.756 374.767 145.26 376.274 142.629C377.78 139.997 379.013 137.536 379.013 137.16C379.013 136.785 379.249 136.477 379.537 136.477C379.825 136.477 380.944 134.762 382.023 132.666C383.103 130.57 384.167 128.706 384.388 128.523C384.821 128.167 388.773 121.199 389.931 118.752C390.318 117.935 390.858 117.264 391.132 117.261C391.406 117.258 391.63 116.995 391.63 116.677C391.63 116.358 393.498 112.849 395.78 108.878C398.063 104.907 400.379 100.768 400.927 99.6803C401.475 98.5933 402.297 97.3087 402.753 96.8275C403.21 96.3457 403.583 95.5251 403.583 95.0048C403.583 94.4839 403.835 94.0577 404.143 94.0577C404.45 94.0577 405.265 93.0138 405.954 91.7379C406.643 90.462 407.415 89.4181 407.671 89.4181C407.927 89.4181 408.628 88.9276 409.228 88.3284C410.701 86.859 414.791 84.1156 415.51 84.1156C415.829 84.1156 416.189 83.8797 416.311 83.592C416.939 82.106 425.534 81.1218 436.435 81.2868C442.655 81.3816 453.122 81.5393 459.697 81.6381ZM191.385 133.288C185.828 135.08 186.375 143.858 192.239 146.99C194.668 148.288 247.42 148.028 250.077 146.705C255.563 143.973 255.733 136.127 250.366 133.261C248.553 132.291 194.397 132.316 191.385 133.288ZM144.512 199.132C142.97 199.507 141.566 200.253 141.393 200.789C141.22 201.324 140.75 201.977 140.348 202.237C138.155 203.659 140.495 212.037 143.085 212.037C143.552 212.037 143.934 212.335 143.934 212.699C143.934 213.134 157.547 213.362 183.446 213.362C209.344 213.362 222.958 213.134 222.958 212.699C222.958 212.335 223.393 212.037 223.924 212.037C230.136 212.037 229.063 200.211 222.752 199.124C218.654 198.418 147.416 198.425 144.512 199.132Z" fill="#BEBEBE"/>
</svg>
