<?xml version="1.0" encoding="UTF-8" standalone="no"?><svg width="645" height="321" viewBox="0 0 645 321" fill="none" xmlns="http://www.w3.org/2000/svg">
<path fill-rule="evenodd" clip-rule="evenodd" d="M63.1031 0.651563C28.1635 7.14341 9.78797 35.6929 0.859713 97.3573C-0.499045 106.742 -0.645153 106.446 3.40946 102.513L6.66393 99.3564L4.57878 105.262C2.07651 112.349 2.09633 111.3 4.40686 114.36C9.78659 121.488 12.6696 133.877 9.38514 135.755C6.21501 137.567 6.21501 142.067 9.38514 143.88C11.3836 145.022 11.2951 146.565 9.20815 146.958C7.1465 147.347 -0.64377 154.91 0.172499 155.73C0.555053 156.115 1.05237 156.041 2.0802 155.449L3.4703 154.647L3.16011 156.725C2.59826 160.489 4.47831 159.636 5.46695 155.677C6.68882 150.788 7.38802 149.625 9.43998 149.07C11.6201 148.48 24.6546 147.195 25.1754 147.518C26.0825 148.081 27.4818 151.727 27.7081 154.116L27.9551 156.719L22.4537 151.332L19.6666 152.058C18.1336 152.457 15.7286 152.783 14.3228 152.783C11.8459 152.783 10.7181 153.359 11.5528 154.198C11.7763 154.422 14.3404 154.747 17.251 154.919C25.7741 155.423 31.2216 160.631 28.0238 165.218L27.2822 166.281L25.7423 163.984C23.5147 160.661 21.0549 159.573 15.671 159.531C9.58056 159.482 9.25332 160.828 15.2373 161.316C21.9776 161.865 26.5037 165.659 26.4461 170.709C26.4332 171.872 25.2883 174.075 24.9505 173.588C24.8753 173.479 24.2273 172.511 23.5106 171.436C22.7934 170.362 21.8679 169.378 21.4536 169.251C19.4726 168.641 10.0645 167.682 9.69579 168.053C8.5873 169.166 9.91334 169.755 14.7745 170.309C23.087 171.256 26.4116 176.583 21.8407 181.63L20.4963 183.115L20.4755 180.799C20.4428 177.102 19.3809 176.4 13.8264 176.4C11.1315 176.4 10.2604 176.218 9.40726 175.474C8.11718 174.349 6.64181 174.261 6.64181 175.307C6.64181 176.201 7.67747 177.115 9.75294 178.052L11.2509 178.728V183.071C11.2509 186.406 11.4035 187.473 11.9086 187.668C13.0775 188.119 13.514 186.856 13.6513 182.627L13.7859 178.484L15.7991 178.577C18.5438 178.704 18.377 178.013 18.5494 189.98C18.7052 200.811 18.914 202.047 20.382 200.823C20.8622 200.423 20.9429 199.594 20.712 197.428L20.4068 194.563L22.2814 194.383C23.3129 194.285 24.1563 194.235 24.1563 194.274C24.1563 194.312 23.8452 195.23 23.465 196.312C22.0062 200.466 23.0852 203.706 26.3857 205.079C27.615 205.591 27.7118 205.814 27.7118 208.13C27.7118 212.908 31.1437 215.528 35.7362 214.256C36.8737 213.941 36.9641 214.036 37.254 215.858C38.1832 221.695 44.652 223.54 53.9545 220.619C54.7846 220.359 54.9953 220.535 55.2515 221.708C56.8204 228.885 68.9216 231.153 74.3677 225.291L75.4928 224.081L77.1331 225.627C83.4656 231.594 92.3293 231.664 99.0627 225.801C100.944 224.162 101.566 223.861 102.511 224.134C110.982 226.583 121.188 219.569 123.271 209.867L123.745 207.658L126.609 207.63C133.92 207.561 138.826 199.842 135.938 192.955C135.682 192.346 135.817 192.145 136.485 192.145C142.088 192.145 147.219 187.326 147.219 182.065V179.828L148.806 180.014C154.43 180.673 153.951 172.66 147.988 166.324C138.715 156.474 123.034 150.795 104.931 150.731C98.6258 150.709 96.0599 150.547 96.059 150.172C96.0571 149.246 98.3594 141.63 99.0429 140.302C100.135 138.18 101.907 137.742 106.896 138.358C117.639 139.684 119.83 138.542 119.449 131.817C119.215 127.711 119.237 127.601 120.77 125.047C122.357 122.403 122.641 121.117 121.9 119.94C121.614 119.485 121.842 118.808 122.634 117.764C123.663 116.41 123.751 115.977 123.465 113.678L123.146 111.106H124.596C130.021 111.106 130.864 108.865 128.111 101.751C125.701 95.5221 124.298 89.9416 124.088 85.7489L123.943 82.8501L130.359 79.3645C151.393 67.9368 154.974 63.4565 146.84 58.7392C130.636 49.3429 90.1151 25.1589 89.2597 24.3749C87.8248 23.0593 87.6856 23.5117 93.0045 12.2113C96.1355 5.55969 97.6076 1.95095 97.2679 1.75831C94.4121 0.139402 70.0992 -0.648288 63.1031 0.651563ZM91.8094 2.74744C94.3863 3.25173 94.6726 3.41612 94.4117 4.24085C94.178 4.98085 89.2394 15.5834 88.9001 16.0733C88.8513 16.1442 87.7723 15.6779 86.502 15.037C85.2322 14.3965 83.1296 13.6255 81.8293 13.3236L79.4653 12.7758V10.0622C79.4653 7.05866 78.5196 5.98063 77.3244 7.62269C76.7312 8.4377 76.6999 8.42798 76.6999 7.43237C76.6999 6.68126 76.4708 6.42935 75.8933 6.54419C75.2208 6.67802 75.0867 7.22259 75.0867 9.81952V12.9346L73.704 12.942C72.9435 12.9457 71.0787 13.2426 69.5595 13.6019C68.0408 13.9608 66.7793 14.2178 66.7563 14.1733C66.7332 14.1289 66.3152 12.949 65.8271 11.551C64.7015 8.32749 63.039 7.5611 63.4525 10.4562L63.7073 12.24L63.0584 10.735C62.3965 9.20038 61.312 8.74703 60.8976 9.83156C60.7714 10.1627 61.1447 11.5662 61.7273 12.9508L62.7865 15.4681L58.4046 17.6561C55.9945 18.8597 53.7609 20.0627 53.4415 20.3295C53.0064 20.692 52.552 20.3471 51.6375 18.9583C50.8927 17.8279 50.0571 17.1023 49.4998 17.1023C48.2715 17.1023 48.3471 17.9882 49.7367 19.8807C50.3705 20.7439 50.889 21.6478 50.889 21.8896C50.889 22.1313 50.1534 21.3617 49.2546 20.179C46.6865 16.7994 45.0816 17.8895 47.5866 21.3121L48.9855 23.2232L40.5186 30.3805L38.7717 28.8195C36.0017 26.3443 35.0656 27.7123 37.6379 30.4764L39.1359 32.086L37.3024 30.6143C36.2939 29.8044 35.2052 29.1422 34.8826 29.1422C33.7193 29.1422 34.3309 30.9112 35.9146 32.1244L37.5324 33.3645L32.2974 39.7582L30.462 38.4023C27.4726 36.1935 26.666 37.824 29.5619 40.2222C31.6415 41.9449 31.2373 42.0541 28.5778 40.4885C25.6405 38.7589 24.7449 40.357 27.6076 42.2199C29.602 43.5179 29.6282 43.2183 27.1674 47.2276C26.0355 49.073 25.0316 50.8118 24.9376 51.092C24.8233 51.4314 24.1983 51.3309 23.0626 50.791C19.6924 49.1874 18.6517 50.5641 21.8481 52.3979C22.8603 52.9785 23.6899 53.6102 23.6917 53.801C23.6977 54.3539 23.3355 54.2242 21.3388 52.9577C19.4509 51.7602 18.1645 51.7329 18.1645 52.8906C18.1645 53.2337 18.9882 53.9797 19.9943 54.5479C22.492 55.958 22.51 56.0321 21.2383 59.5834C20.6212 61.306 19.8759 63.8839 19.5823 65.3121L19.0481 67.909L17.1086 67.5469C16.0416 67.3473 14.9856 67.363 14.7616 67.5811C14.0846 68.2419 14.8405 69.4274 15.9609 69.4622C16.5389 69.4802 17.4271 69.6909 17.9341 69.9308C18.5655 70.2299 17.9493 70.285 15.9752 70.1068C13.3024 69.8655 13.0945 69.9146 13.0945 70.787C13.0945 71.7414 13.3854 71.8683 16.8357 72.4226L18.5033 72.6902L18.8006 77.1955C18.9647 79.6739 19.1476 82.306 19.2076 83.0451C19.4435 85.949 18.3277 84.475 17.0468 80.1907C16.3052 77.7104 15.6023 75.4983 15.4848 75.2747C15.135 74.6069 14.6275 75.8577 11.4431 85.2433L8.40248 94.2042L2.43464 100.224L2.69136 98.6034C12.7346 35.2159 29.8656 8.13948 63.3335 2.75624C65.2348 2.45061 67.1015 2.12738 67.4817 2.03755C69.1341 1.64856 89.1836 2.23343 91.8094 2.74744ZM77.4659 12.1242C77.3383 12.4428 77.2336 12.1821 77.2336 11.5454C77.2336 10.9087 77.3383 10.6484 77.4659 10.9666C77.5941 11.2851 77.5941 11.8061 77.4659 12.1242ZM83.6928 15.984C87.3805 17.4024 87.9995 18.0757 87.1441 19.7377L86.4246 21.1347L83.7518 19.8057C61.6982 8.84197 22.3251 45.7726 23.2935 76.5134C23.523 83.7999 21.124 83.9888 20.6202 76.7241C18.5512 46.8859 60.074 6.89844 83.6928 15.984ZM82.0003 21.2056C87.9686 23.8896 91.066 29.7169 90.8954 37.9407C90.83 41.0984 90.7806 41.348 90.647 39.2025C90.4663 36.2995 87.1326 32.7459 83.9592 32.0735C82.9346 31.8563 82.6917 31.5516 82.6917 30.4814C82.6917 29.3691 82.3423 28.9783 80.5024 28.0322C79.298 27.4131 77.4931 26.0554 76.4911 25.0144C75.3992 23.8808 74.2446 23.1223 73.6104 23.1223C72.7942 23.1223 72.5517 22.8625 72.5517 21.9877C72.5517 21.3635 72.189 20.6249 71.7451 20.3466C70.0462 19.2806 79.4759 20.0701 82.0003 21.2056ZM70.2601 21.2454C69.996 21.7414 68.9465 23.1149 67.9274 24.2975C64.7504 27.9859 63.4958 31.6239 62.6044 39.7332C62.1605 43.7712 61.6471 42.4394 61.3779 36.5514C61.1313 31.1552 60.5423 29.3918 58.6576 28.4129C55.6272 26.8384 53.0696 28.9288 48.3821 36.8107C44.1865 43.8657 42.1792 46.2755 38.8593 48.2441C35.9892 49.9459 32.9449 50.6233 33.658 49.4018C40.8431 37.0942 53.9259 25.8035 66.0096 21.4816C69.9531 20.0715 70.9141 20.0183 70.2601 21.2454ZM73.8192 25.2316C74.5018 25.4413 74.6018 26.8269 73.9344 26.8269C73.6809 26.8269 73.4735 27.271 73.4735 27.8137C73.4735 28.6819 73.6662 28.769 75.0821 28.5379C76.286 28.3416 77.2129 28.5694 78.7694 29.4432C81.1076 30.7561 81.5726 31.7693 79.5806 31.2094C78.8837 31.0135 77.0493 30.8329 75.5048 30.8084C73.8653 30.782 72.3784 30.4986 71.9327 30.1277C70.7505 29.1436 69.4475 30.3138 70.4661 31.4446C70.8528 31.8739 71.169 33.0006 71.169 33.948C71.169 39.6174 79.0173 40.6094 82.4331 35.3715C83.4554 33.8045 85.8088 34.6556 88.1074 37.4239C88.7904 38.2463 88.8886 43.0345 88.2226 43.0345C87.9691 43.0345 87.7617 42.0287 87.7617 40.7997C87.7617 36.5033 82.9088 34.4852 81.2002 38.0712C80.3286 39.9008 79.617 40.3565 76.3252 41.1919C73.798 41.8337 73.7026 43.3443 76.2021 43.1401L77.7429 43.0146L77.4309 44.9729C76.6506 49.8755 73.7607 53.7306 69.0949 56.0923C67.5739 56.8619 65.6289 58.021 64.773 58.667C63.3783 59.72 63.1718 59.7626 62.7911 59.0791C61.6683 57.0638 61.0276 58.158 59.1734 65.2542C58.2594 68.7523 56.4273 71.8275 53.3466 75.0334L50.4018 78.098L49.7358 82.557C49.0251 87.3132 47.4857 91.2017 46.6468 90.3589C46.3136 90.0241 46.4505 89.4753 47.093 88.5672C48.7504 86.2254 49.2408 83.7086 48.6393 80.6361C48.1213 77.9901 48.1503 77.8086 49.4962 75.2376C51.0416 72.2855 51.1835 70.7097 50.3456 65.8002C49.6404 61.6686 50.312 60.4586 57.5146 52.879C63.5668 46.5099 64.0876 45.6675 64.4794 41.6147C65.7611 28.3434 68.4718 23.5895 73.8192 25.2316ZM97.9962 32.2346C99.6836 33.2826 99.7006 33.3233 99.4577 35.7336C97.7362 52.8123 92.1795 64.366 79.3105 77.6243L73.8284 83.272L76.3915 88.6274C79.4653 95.0493 79.1455 94.8905 85.3336 93.0604C98.9867 89.022 117.202 80.7927 129.578 73.0723C131.156 72.0878 132.546 71.282 132.667 71.282C133.334 71.282 142.175 64.736 144.809 62.2928L146.316 60.8943L147.92 61.7617C153.156 64.5948 132.798 77.521 104.913 89.0697C86.0208 96.8938 80.5913 97.9787 76.4312 94.7608C65.5657 86.356 61.0834 88.9673 60.1284 104.259C58.8549 124.645 46.1951 134.788 33.7059 125.429C29.6739 122.408 31.0607 120.864 35.6638 123.249C46.7436 128.99 56.5517 118.707 57.1823 100.687C57.4238 93.781 57.2767 93.3267 55.0137 93.9815C51.8864 94.8863 45.5406 95.8213 42.8231 95.7778L40.0577 95.7333L43.7449 95.1545C71.6506 90.7719 97.568 55.9181 92.1021 30.1235L91.7707 28.5583L94.0296 29.8665C95.2717 30.5856 97.0568 31.6516 97.9962 32.2346ZM58.5065 31.1807C59.0019 31.9397 59.3121 33.886 59.4845 37.3164C59.6878 41.3535 59.9219 42.6034 60.6783 43.6828C62.7809 46.6821 59.0752 48.5219 55.3064 46.3496C49.5404 43.0261 50.6655 30.0684 56.72 30.0684C57.3321 30.0684 58.0884 30.5393 58.5065 31.1807ZM77.4765 32.8978C78.19 33.1807 79.3962 33.403 80.1567 33.3923L81.5394 33.3724L80.0618 34.7056C77.6747 36.8594 74.9567 37.4716 73.8547 36.1046C72.0065 33.8114 74.4106 31.6831 77.4765 32.8978ZM103.794 35.6299C105.273 36.5362 105.301 36.6112 105.008 38.9853C103.154 54.0496 95.6423 68.0424 83.8891 78.3254C81.8363 80.1212 79.8756 81.8531 79.5322 82.174C79.0137 82.6584 79.3049 83.3484 81.2523 86.2477L83.5969 89.7383L86.9468 88.6946C101.663 84.1087 126.698 71.1635 139.47 61.5366C142.516 59.2402 143.124 58.9476 143.806 59.4486C148.153 62.642 91.3107 92.1204 80.8061 92.1204C80.5586 92.1204 79.4386 90.226 78.3172 87.9106L76.2777 83.7008L80.8117 79.1455C92.9981 66.9023 99.4752 53.7241 101.35 37.3618C101.694 34.3643 101.71 34.3532 103.794 35.6299ZM115.542 42.6172C125.063 48.2251 125.15 48.2959 121.869 47.8097C106.222 45.4897 98.5138 59.6487 111.884 66.1516C119.14 69.6807 125.921 62.6989 120.775 56.9985C116.553 52.321 109.325 56.3849 113.159 61.281C114.605 63.1287 115.676 62.1368 114.625 59.9228C113.268 57.0638 116.762 55.5801 119.061 58.039C121.912 61.0879 120.161 65.0305 115.955 65.0305C108.283 65.0305 104.619 53.2244 111.345 50.1769C116.043 48.0487 128.73 50.3626 135.836 54.6438C141.811 58.2432 141.861 57.4903 135.35 61.9201C120.872 71.7715 99.4798 82.6704 87.3824 86.3593C84.3989 87.2688 84.3473 87.2553 82.9775 85.1752L81.7579 83.3238L87.6562 77.4187C98.5525 66.5091 104.766 54.8475 106.676 41.717C106.978 39.6401 107.311 37.9407 107.414 37.9407C107.518 37.9407 111.175 40.0449 115.542 42.6172ZM85.3484 40.7191C85.5802 44.6946 85.7024 44.8868 88.0009 44.8868C90.5129 44.8868 90.5133 44.8886 88.6734 50.5539C83.1061 67.6988 68.1616 84.2333 52.2842 90.815C48.7333 92.2871 48.7112 92.2783 49.9382 89.8624C50.4645 88.8261 51.2292 85.9407 51.6371 83.4502C52.3589 79.0492 52.4349 78.8746 54.3514 77.1918C57.0726 74.8028 59.3932 71.1278 60.7442 67.0681C62.061 63.1102 64.1558 61.0249 69.8167 58.0362C75.6071 54.979 78.9293 50.4455 79.3801 44.984C79.5538 42.8835 79.7622 42.4408 80.8416 41.88C81.5344 41.5202 82.3672 40.5802 82.6926 39.7911C83.6435 37.485 85.1912 38.0254 85.3484 40.7191ZM49.0122 41.5012C46.9114 47.0535 40.2812 52.7947 36.0478 52.7276C34.2336 52.6988 34.1631 52.6558 35.2181 52.2154C40.0061 50.2163 41.2473 49.4615 43.573 47.1336C45.0101 45.6948 46.7454 43.5591 47.429 42.3871C48.7859 40.0606 49.7644 39.5133 49.0122 41.5012ZM49.1952 46.376C46.0292 52.3029 39.5567 57.2282 36.4856 56.0478C34.713 55.3662 34.907 54.7753 36.9963 54.4937C40.8514 53.9742 46.9893 49.1063 49.2717 44.759C49.7768 43.7972 50.259 43.2192 50.3438 43.4744C50.4281 43.7295 49.9114 45.0354 49.1952 46.376ZM51.556 47.574C49.9603 51.4342 46.5509 55.6065 43.8689 56.9814C41.227 58.3354 40.1411 57.9177 42.3959 56.415C45.0562 54.6414 48.3231 51.091 50.0571 48.0885C51.7306 45.1905 52.675 44.8664 51.556 47.574ZM52.5133 51.6203C51.4241 53.8561 49.2072 56.3173 48.7214 55.8292C48.6204 55.7283 49.3514 54.4784 50.3456 53.0526C51.3398 51.6268 52.4349 49.7796 52.7797 48.947C53.2503 47.8106 53.4471 47.643 53.5701 48.2742C53.66 48.7363 53.1843 50.2418 52.5133 51.6203ZM55.0506 51.5601C54.7639 52.4335 54.1988 53.4236 53.795 53.7602C53.2516 54.2131 53.3175 53.8667 54.049 52.4261C54.5924 51.3559 55.0538 50.1075 55.0736 49.6518C55.0948 49.1735 55.2077 49.066 55.3409 49.3976C55.4681 49.7139 55.3377 50.6868 55.0506 51.5601ZM58.2636 49.2587C58.2636 49.3712 58.0561 49.5916 57.8026 49.7491C57.5491 49.9065 57.3417 49.8144 57.3417 49.5448C57.3417 49.2753 57.5491 49.0545 57.8026 49.0545C58.0561 49.0545 58.2636 49.1461 58.2636 49.2587ZM33.3745 55.306C33.3745 56.7387 34.8314 57.889 37.0194 58.1835C38.049 58.3224 39.1276 58.7216 39.4161 59.0708C40.1973 60.0163 42.8356 59.8381 45.0309 58.691C46.0979 58.1335 47.7217 57.6649 48.6389 57.6491L50.3069 57.6213L49.0998 60.0279C48.0401 62.1414 47.7175 62.4378 46.4532 62.4591C41.8649 62.5369 39.1584 64.7754 36.8313 70.417C35.1084 74.5935 34.2622 75.5738 31.8724 76.1642C27.9593 77.1307 31.9655 81.0066 36.8774 81.0066C39.9756 81.0066 41.5999 79.1395 43.5085 73.3844C45.0618 68.6999 45.884 67.3779 47.5474 66.8921C49.0514 66.4526 48.8684 67.3459 46.7754 70.6601C45.1369 73.2552 45.012 73.671 45.3858 75.2909C46.1776 78.7186 45.9204 80.2911 44.1436 82.8867L42.4682 85.3336L43.337 86.9585C43.815 87.8518 44.1459 88.8529 44.0731 89.1826C43.9998 89.5128 44.2593 90.4024 44.6492 91.16C45.0392 91.9176 45.3581 92.652 45.3581 92.7918C45.3581 92.9322 43.603 93.0465 41.4579 93.0465C25.5828 93.0465 20.523 76.8181 30.0145 56.3437C31.7267 52.6498 33.3745 52.1408 33.3745 55.306ZM46.4712 64.9939C44.3616 65.9168 43.2739 67.6052 41.6672 72.4513C39.6806 78.4412 37.4826 80.2536 34.3318 78.5C33.2671 77.9072 33.2579 77.8646 34.1355 77.5849C35.7233 77.0783 37.354 74.8741 38.627 71.5136C40.2923 67.1167 41.1519 66.1322 44.3169 64.9977C46.6717 64.1535 48.3997 64.1507 46.4712 64.9939ZM47.9475 73.904C47.5576 74.6268 47.2303 74.944 47.2202 74.6088C47.1958 73.809 48.1328 72.0632 48.4273 72.3591C48.5536 72.4856 48.3374 73.1806 47.9475 73.904ZM24.8274 84.563C25.8585 88.6909 31.0663 93.3387 36.1399 94.6594L38.214 95.1989L38.1924 100.49C38.1587 108.769 35.344 116.441 30.6519 121.041L28.3123 123.335L29.5757 124.679C30.2707 125.418 31.9996 126.82 33.4174 127.794L35.9952 129.565L34.984 132.7C34.4281 134.424 33.6828 135.921 33.3284 136.027C31.4401 136.589 30.8317 140.504 32.3886 142.068C33.2247 142.908 33.2086 142.96 31.7355 144.141C30.0278 145.51 26.6263 146.481 26.165 145.731C25.9903 145.447 24.614 145.349 22.7109 145.486C19.0969 145.746 18.7466 145.34 21.4066 143.977C25.3376 141.962 25.3731 137.537 21.4738 135.683L19.9432 134.955L20.1363 129.398C20.3497 123.24 21.383 119.993 24.4827 115.737C27.3361 111.82 27.4269 112.896 23.1078 99.4587L19.1864 87.2581L21.4775 85.0539C23.9392 82.6866 24.3439 82.6274 24.8274 84.563ZM46.6311 84.7293C46.1988 86.4408 45.4148 86.9659 45.029 85.8027C44.8931 85.3933 46.5519 82.8589 46.9556 82.8589C47.0372 82.8589 46.8911 83.7008 46.6311 84.7293ZM123.755 95.5935C124.289 97.3763 125.432 100.595 126.294 102.745C128.579 108.448 128.46 108.791 124.193 108.791C120.368 108.791 119.173 108.378 119.014 107.002C118.817 105.293 117.615 105.466 117.098 107.277C116.546 109.209 117.17 109.973 119.617 110.366C120.932 110.578 121.425 110.857 121.258 111.294C121.126 111.639 121.2 112.725 121.42 113.708C122.056 116.537 120.781 117.59 116.719 117.59C113.88 117.59 113.573 117.68 113.573 118.516C113.573 119.345 113.88 119.442 116.519 119.442C120.585 119.442 121.061 120.657 118.582 124.706C117.186 126.986 117.147 127.191 117.408 130.915C117.809 136.617 117.535 136.817 109.934 136.363C100.923 135.826 99.4001 136.097 97.686 138.541C95.0228 142.339 91.2319 162.971 93.1972 162.971C93.813 162.971 94.2195 162.553 94.4338 161.697L94.7532 160.424L95.6359 161.517C100.757 167.858 88.3987 173.33 77.1608 169.698C65.6261 165.97 45.3899 153.198 47.4294 150.934C47.8323 150.487 49.3542 147.855 50.8116 145.085C53.277 140.4 53.6761 139.9 56.5384 137.918C64.0166 132.742 68.0768 127.97 68.6451 123.689C69.4129 117.909 72.9214 113.081 74.0308 116.279C77.7531 127.007 86.3011 135.231 94.9703 136.425C97.4283 136.763 98.1137 134.971 95.7124 134.484C86.8463 132.686 81.0075 127.371 76.6828 117.16C74.9392 113.044 74.8383 113.498 78.2264 110.229C81.5385 107.033 83.1365 104.195 83.5545 100.761C83.7854 98.8655 84.0306 98.3539 84.7658 98.2335C86.7071 97.9158 95.1104 95.2003 99.6785 93.4147C105.089 91.2998 106.383 91.3313 112.337 93.7249C113.944 94.3705 115.397 94.8988 115.567 94.8988C116.191 94.8988 115.855 93.009 115.186 92.7511C114.683 92.5571 114.494 91.7648 114.494 89.8532V87.2215L121.638 83.9731L122.211 88.1625C122.526 90.4668 123.221 93.8106 123.755 95.5935ZM14.0163 109.486C14.0163 131.199 13.9311 134.26 13.325 134.26C12.7848 134.26 12.6322 133.627 12.6267 131.366C12.6138 125.757 10.0576 118.432 6.4851 113.765C5.55729 112.553 4.79818 111.424 4.79818 111.257C4.79818 110.838 13.7573 84.7135 13.9011 84.7121C13.9643 84.7117 14.0163 95.8597 14.0163 109.486ZM19.7837 95.5935C21.4817 100.942 23.2949 106.723 23.8139 108.439L24.7574 111.56L22.8967 114.228C19.3288 119.343 17.451 125.659 17.7764 131.454C17.9124 133.88 17.8244 134.262 17.1275 134.261C16.3697 134.26 16.3209 132.79 16.3209 109.871C16.3209 96.458 16.4057 85.5697 16.5089 85.6758C16.6126 85.7823 18.0862 90.2449 19.7837 95.5935ZM112.651 89.805C112.651 91.404 112.79 91.3596 109.988 90.6506L107.839 90.1069L109.669 89.2956C112.263 88.1458 112.651 88.212 112.651 89.805ZM68.4035 92.514C68.4035 93.1373 65.9109 96.3682 64.0821 98.1154C62.2011 99.9126 62.1191 99.7611 63.1284 96.3464C64.0871 93.103 68.4035 89.9666 68.4035 92.514ZM71.4073 94.8011C70.9072 96.803 68.4851 99.8843 65.5123 102.301C60.3552 106.493 60.5354 104.572 65.8146 99.0702C67.9399 96.8553 69.8172 94.6048 69.9863 94.0686C70.4491 92.6034 71.7843 93.292 71.4073 94.8011ZM74.3954 96.1024C74.3954 98.5798 70.8551 102.948 65.5745 106.987C62.1412 109.613 61.9508 109.698 61.9508 108.604C61.9508 107.714 62.6238 106.966 64.884 105.346C68.398 102.826 71.2146 99.8473 72.5282 97.2601C73.5127 95.3216 74.3954 94.7743 74.3954 96.1024ZM55.3446 101.035C54.3532 117.078 46.0725 126.181 36.7262 121.502L34.3664 120.32L35.1379 118.963C35.7265 117.927 36.1284 117.676 36.8313 117.906C44.0888 120.282 52.5335 112.113 53.1069 102.162L53.3194 98.4715L52.2197 98.7377C45.4093 100.389 40.2881 100.667 40.2881 99.386C40.2881 98.2978 40.4485 98.2362 44.0906 97.9269C46.1818 97.7495 49.1376 97.3295 50.6586 96.9938C52.1796 96.6576 53.9223 96.3617 54.5311 96.3353L55.6382 96.2881L55.3446 101.035ZM77.1608 98.4502C77.1608 100.189 74.122 104.73 71.0045 107.651C69.1935 109.348 66.9807 111.428 66.0866 112.275C64.5033 113.773 62.267 117.76 59.8694 123.358C58.211 127.231 56.8237 128.879 53.2129 131.269C49.4173 133.782 46.7501 136.601 45.1309 139.811C44.1768 141.702 43.7947 142.095 43.3062 141.688C41.7298 140.373 45.8753 132.069 49.1698 129.942C53.5107 127.139 56.5471 123.307 59.2946 117.163C60.9032 113.565 62.0117 112.286 66.3295 109.043C71.2321 105.362 76.2307 99.6718 76.2371 97.7657C76.2381 97.4323 76.4464 97.2883 76.6999 97.4458C76.9534 97.6032 77.1608 98.0552 77.1608 98.4502ZM81.7699 99.6787C81.7699 103.287 79.1653 107.145 73.8565 111.401C69.8642 114.601 67.6352 117.888 66.9733 121.551C66.022 126.82 63.1464 130.677 56.8808 135.089C52.192 138.39 51.4435 139.26 48.7587 144.525C45.937 150.059 44.4999 151.223 42.2857 149.765C40.5587 148.628 41.1371 146.3 43.1458 146.3C44.2621 146.3 44.198 147.327 43.0356 148.056C41.9285 148.751 42.2396 149.542 43.6205 149.542C45.7559 149.542 46.8008 147.493 45.7955 145.276C44.6833 142.823 48.9311 136.566 53.9762 133.227C57.9782 130.577 59.8873 128.399 61.5743 124.557C65.1196 116.481 66.1981 114.807 70.0167 111.451C75.2301 106.869 79.0044 101.772 79.0044 99.3133C79.0044 98.8331 79.452 98.6034 80.3872 98.6034C81.5265 98.6034 81.7699 98.7928 81.7699 99.6787ZM50.9199 103.776C49.4104 111.074 44.6898 116.2 39.4783 116.2C36.9705 116.2 36.8719 115.904 38.2477 112.502C38.8902 110.912 39.6548 107.969 39.9461 105.96L40.4757 102.308L42.341 102.279C43.3665 102.263 45.7614 101.991 47.6627 101.675C51.8394 100.981 51.5384 100.787 50.9199 103.776ZM39.0607 130.822C39.6475 131.048 39.5839 131.453 38.6422 133.485C38.0315 134.803 37.5264 136.402 37.5199 137.039C37.5112 137.957 37.4162 138.053 37.0618 137.502C36.4077 136.485 36.5041 134 37.2687 132.162C37.985 130.439 38.0131 130.419 39.0607 130.822ZM43.2324 133.899C42.5618 135.229 41.7805 136.985 41.4962 137.801C41.0233 139.159 40.9048 139.229 40.0973 138.634C38.4477 137.417 41.0933 131.482 43.285 131.482H44.452L43.2324 133.899ZM20.3603 137.293C24.2863 138.936 22.25 142.465 16.8781 143.329C15.1133 143.612 14.9225 143.541 14.5086 142.446C14.1168 141.411 13.7403 141.234 11.6173 141.085C9.66076 140.948 9.89167 140.897 12.7825 140.829C17.9774 140.705 17.8649 139.259 12.6295 138.859C9.2653 138.602 9.24456 138.593 11.827 138.511C14.356 138.432 14.4773 138.373 14.4773 137.217C14.4773 135.863 17.0215 135.896 20.3603 137.293ZM34.7623 138.653C34.4493 139.032 34.3134 139.657 34.4609 140.043C34.6079 140.428 34.5208 140.743 34.2673 140.743C33.6432 140.743 33.2146 139.514 33.5413 138.659C33.687 138.277 34.1493 137.965 34.5687 137.965C35.1909 137.965 35.2264 138.091 34.7623 138.653ZM39.3663 140.743C39.3663 140.998 39.0653 141.206 38.698 141.206C38.3302 141.206 37.8181 141.571 37.5595 142.017C37.1323 142.754 37.0885 142.74 37.0756 141.862C37.0682 141.332 37.2 140.759 37.3692 140.589C37.8472 140.108 39.3663 140.226 39.3663 140.743ZM42.0262 143.435C42.1354 143.765 41.7322 143.985 41.0177 143.985C40.048 143.985 39.8272 144.204 39.8272 145.17C39.8272 145.821 39.629 146.232 39.3866 146.081C38.8612 145.755 39.2349 144.534 40.2093 143.395C40.9592 142.518 41.7275 142.535 42.0262 143.435ZM37.0618 145.876C37.0618 146.388 37.613 147.32 38.2864 147.948C40.6186 150.119 39.1248 149.452 36.6009 147.195C34.5812 145.389 34.2014 144.839 34.7323 144.489C35.6583 143.878 37.0618 144.714 37.0618 145.876ZM16.7818 145.837C15.1115 146.375 13.0945 146.375 13.0945 145.837C13.0945 145.581 14.1777 145.395 15.5143 145.42C17.4183 145.456 17.6884 145.545 16.7818 145.837ZM35.679 149.558C35.679 149.998 33.4708 150.931 32.431 150.931C31.3917 150.931 31.2751 149.953 32.0489 147.723L32.567 146.23L34.123 147.745C34.9789 148.578 35.679 149.394 35.679 149.558ZM29.6508 149.657C29.631 150.74 29.4987 151.313 29.3572 150.931C29.2157 150.549 28.812 149.663 28.4598 148.963C27.8662 147.781 27.8874 147.689 28.7534 147.689C29.5503 147.689 29.6817 147.978 29.6508 149.657ZM40.3531 153.11C42.9006 155.061 42.989 155.289 41.5556 156.197C38.7565 157.971 36.275 156.957 36.8673 154.281C37.6393 150.792 37.4236 150.865 40.3531 153.11ZM34.889 154.13C34.7323 155.303 34.9098 156.468 35.3937 157.442C36.3478 159.364 36.4013 159.204 34.5489 159.981C31.1442 161.411 29.4706 159.239 30.8234 155.147C31.5345 152.996 31.7051 152.823 33.2878 152.656C34.2226 152.557 35.0199 152.441 35.0591 152.398C35.0983 152.355 35.0218 153.134 34.889 154.13ZM47.8986 155.411C68.4731 172.685 91.6476 178.243 97.7662 167.37C99.0235 165.135 99.1471 166.147 97.9418 168.813C95.4252 174.381 85.8402 176.49 76.9304 173.436C68.6188 170.588 45.4936 156.375 43.2582 152.741C42.4521 151.431 44.6939 152.721 47.8986 155.411ZM108.713 153.237C112.012 154.841 113.028 157.611 110.926 159.272L109.661 160.271L109.393 158.958C108.979 156.938 108.224 155.791 106.121 153.982L104.188 152.32H105.509C106.235 152.32 107.677 152.732 108.713 153.237ZM116.453 153.504C120.126 153.937 119.766 156.038 116.023 156.018C114.463 156.009 114.036 155.731 112.947 154.013C112.139 152.739 112.139 152.704 112.957 152.943C113.422 153.08 114.996 153.332 116.453 153.504ZM99.6301 155.339C101.335 157.158 101.59 159.086 100.321 160.571C99.5232 161.506 99.4923 161.49 97.2758 158.994C93.2673 154.48 95.5308 150.967 99.6301 155.339ZM104.73 155.444C108.174 158.005 108.29 161.407 104.979 162.797C102.652 163.774 100.686 163.303 101.822 162.041C102.98 160.756 103.247 157.369 102.336 155.533C101.925 154.707 101.589 153.964 101.589 153.884C101.589 153.538 103.323 154.399 104.73 155.444ZM123.071 158.209C124.324 161.119 123.756 163.569 121.554 164.748C119.937 165.613 119.694 165.413 119.466 163.03C119.345 161.765 118.814 160.159 118.259 159.375L117.267 157.976L118.397 157.69C119.019 157.534 119.899 156.897 120.353 156.276C121.298 154.981 121.848 155.372 123.071 158.209ZM127.121 156.043C128.795 156.563 130.165 157.148 130.165 157.344C130.165 158.676 127.295 160.163 126.222 159.387C125.771 159.061 123.674 155.099 123.952 155.099C124.02 155.099 125.446 155.524 127.121 156.043ZM47.9434 159.124C51.2923 161.595 51.2614 161.532 49.8105 162.901C46.4804 166.044 43.2578 164.862 43.6389 160.637C44.0353 156.242 44.0362 156.242 47.9434 159.124ZM116.141 159.964C118.187 162.658 118.213 165.348 116.212 167.358C114.028 169.552 112.848 169.52 112.441 167.254C112.269 166.299 111.634 164.757 111.031 163.828L109.933 162.137L111.314 161.563C112.073 161.247 113.001 160.392 113.376 159.664C114.256 157.953 114.647 157.996 116.141 159.964ZM41.4971 160.255C41.1399 162.05 41.9479 165.245 42.8471 165.591C44.6737 166.295 42.483 168.528 39.966 168.528C36.5672 168.528 36.1413 159.783 39.5078 159.126C41.7234 158.694 41.799 158.737 41.4971 160.255ZM132.942 159.991C133.647 161.854 133.47 163.994 132.475 165.633C131.406 167.394 130.165 167.634 130.165 166.079C130.165 165.496 129.767 164.234 129.28 163.275L128.395 161.531L129.496 161.11C130.102 160.879 130.861 160.265 131.183 159.746C131.961 158.496 132.399 158.557 132.942 159.991ZM138.31 161.961C136.751 162.267 135.351 161.625 135.138 160.505L134.932 159.419L137.042 160.608C138.595 161.482 138.93 161.84 138.31 161.961ZM35.3804 165.163C35.3135 168.229 35.2831 168.301 33.6045 169.368C29.4222 172.027 26.9301 170.604 29.3909 166.961C30.0242 166.023 30.675 164.649 30.8372 163.908C31.087 162.765 31.3898 162.533 32.8292 162.38C33.763 162.281 34.7342 162.165 34.9877 162.122C35.2624 162.076 35.4209 163.303 35.3804 165.163ZM127.924 165.317C128.812 168.292 127.19 172.232 125.077 172.232C124.714 172.232 121.691 167.12 121.954 166.951C122.034 166.9 122.654 166.51 123.333 166.084C124.011 165.658 124.829 164.579 125.151 163.687C125.865 161.699 127.054 162.398 127.924 165.317ZM144.375 165.762C146.357 167.641 144.597 170.997 141.76 170.75C140.298 170.623 140.129 170.446 139.642 168.528C139.35 167.382 138.884 166.041 138.607 165.55C138.174 164.784 138.308 164.549 139.549 163.906C141.135 163.085 141.838 163.355 144.375 165.762ZM57.0357 165.489L59.6532 167.171L58.9503 168.537C56.3554 173.578 51.573 171.593 52.7377 165.957C53.3411 163.035 53.2355 163.047 57.0357 165.489ZM109.498 165.304C111.468 168.994 109.955 172.695 106.478 172.695C105.07 172.695 105.042 172.653 105.182 170.727C105.276 169.443 105.014 168.156 104.429 167.023C103.627 165.469 103.612 165.286 104.289 165.284C104.705 165.282 105.668 164.882 106.428 164.393C108.175 163.272 108.459 163.357 109.498 165.304ZM137.818 169.842C138.226 172.577 137.152 174.834 135.015 175.731C132.571 176.757 132.087 176.6 131.736 174.663C131.562 173.709 131.064 172.406 130.628 171.769C129.763 170.505 129.877 169.454 130.879 169.454C131.921 169.454 134.653 166.763 134.993 165.402L135.309 164.137L136.411 165.973C137.018 166.983 137.651 168.724 137.818 169.842ZM50.5148 167.64C50.3428 170.027 50.4696 170.672 51.3449 171.861L52.3782 173.265L51.0347 174.615C47.8728 177.792 44.681 176.674 44.6838 172.391C44.6866 168.622 45.5033 166.838 47.3898 166.482C48.2121 166.327 49.2841 165.897 49.7718 165.527C50.2594 165.156 50.6719 164.846 50.6881 164.838C50.7042 164.83 50.6263 166.091 50.5148 167.64ZM102.972 170.117C102.972 172.823 102.226 173.354 98.6281 173.212L97.2799 173.158L98.2285 172.117C99.5997 170.61 100.665 168.308 100.682 166.814L100.696 165.518L101.834 166.817C102.669 167.77 102.972 168.65 102.972 170.117ZM121.914 171.403C124.463 176.399 121.838 181.491 116.711 181.493C114.548 181.494 114.392 181.2 114.275 176.923C114.222 174.98 114.026 172.948 113.838 172.408C113.546 171.57 113.807 171.275 115.616 170.395C116.782 169.828 117.958 168.948 118.229 168.439C118.848 167.276 120.475 168.585 121.914 171.403ZM67.4739 172.369C67.4965 174.803 63.264 176.755 61.8278 174.973C60.9926 173.936 60.9525 170.239 61.7628 168.922C62.1596 168.277 67.4661 171.479 67.4739 172.369ZM149.143 170.96C152.051 175.599 151.253 178.775 147.449 177.702C145.512 177.156 142.204 172.695 143.736 172.695C144.102 172.695 145.087 171.866 145.926 170.851C147.8 168.584 147.651 168.579 149.143 170.96ZM41.0463 170.63L42.506 170.355L42.695 172.798C42.7992 174.142 43.0421 175.591 43.2356 176.018C44.1224 177.977 37.6826 179.439 36.3335 177.585C34.6397 175.258 36.2095 169.615 38.3256 170.423C39.0197 170.688 40.2439 170.781 41.0463 170.63ZM33.5934 175.127C33.5174 176.973 33.4372 178.602 33.4146 178.746C33.1975 180.158 28.599 181.357 26.713 180.493C23.7733 179.147 26.5558 172.733 30.1099 172.663C31.4336 172.637 32.5785 172.36 33.6686 171.802C33.7036 171.784 33.6699 173.28 33.5934 175.127ZM60.2386 176.544C61.1594 177.957 59.7274 180.214 57.5639 180.76C53.2526 181.847 52.3326 174.576 56.5734 172.927L58.9549 172.001L59.2084 173.677C59.3476 174.599 59.8113 175.89 60.2386 176.544ZM112.377 176.972C112.381 181.455 110.583 183.761 107.541 183.173C105.073 182.696 104.618 182.265 105.278 181.027C105.585 180.451 105.866 178.813 105.902 177.387C105.968 174.801 105.971 174.794 107.581 174.525C109.384 174.223 111.261 173.18 111.282 172.468C111.346 170.34 112.374 174.571 112.377 176.972ZM129.279 173.689C130.22 175.454 129.522 178.748 127.899 180.206C125.368 182.478 123.423 181.687 124.448 178.803C124.781 177.863 125.069 176.469 125.085 175.705C125.109 174.618 125.438 174.154 126.603 173.568C128.622 172.554 128.676 172.556 129.279 173.689ZM73.845 174.452L77.1972 175.746L76.1404 177.321C73.563 181.164 70.6366 181.187 70.1269 177.369C69.9356 175.935 70.131 173.158 70.4237 173.158C70.4615 173.158 72.0009 173.741 73.845 174.452ZM142.27 175.912C147.508 181.766 145.403 188.237 137.744 189.835C134.727 190.464 134.581 190.392 135.264 188.62C136.129 186.375 135.95 182.403 134.891 180.336L133.943 178.484L135.857 177.558C136.909 177.048 138.185 175.962 138.692 175.145C139.882 173.226 139.861 173.221 142.27 175.912ZM103.887 177.709C103.9 181.489 101.164 183.168 97.4339 181.669C95.6253 180.941 95.5875 180.883 96.2618 179.849C96.6452 179.261 97.0854 177.985 97.2403 177.011C97.5214 175.245 97.5247 175.242 99.5185 175.402C100.617 175.49 101.893 175.349 102.354 175.09C103.469 174.462 103.877 175.16 103.887 177.709ZM95.369 176.516C94.697 179.872 92.1537 180.683 89.8561 178.274L88.631 176.989L91.3075 176.065C95.3478 174.671 95.7299 174.713 95.369 176.516ZM69.4567 181.175C70.7413 183.145 66.8867 186.828 64.7453 185.677C62.8547 184.66 62.3352 177.792 64.1489 177.787C64.5877 177.786 65.5685 177.405 66.3281 176.941L67.7094 176.099L68.2044 178.056C68.4764 179.133 69.0401 180.536 69.4567 181.175ZM85.7701 177.107C87.1542 177.528 84.4114 181.957 82.7664 181.957C81.7349 181.957 80.6121 180.753 80.1747 179.178C79.9977 178.542 79.7525 177.658 79.6294 177.215C79.4188 176.455 83.3983 176.385 85.7701 177.107ZM52.404 182.243C51.6292 187.039 44.4363 187.649 44.4363 182.919C44.4363 179.411 45.1562 178.33 47.4907 178.33C48.6287 178.33 50.0147 178.026 50.5701 177.655C51.8025 176.833 52.8534 179.462 52.404 182.243ZM79.5663 182.541C82.0976 186.173 76.4713 191.091 73.8778 187.514C72.2609 185.284 72.2397 182.662 73.8335 181.999C74.5899 181.684 75.8002 180.806 76.5229 180.049L77.8374 178.67L78.2559 179.966C78.4864 180.679 79.0763 181.838 79.5663 182.541ZM132.922 181.012C135.459 186.009 132.369 192.145 127.315 192.145C125.631 192.145 125.555 192.086 126.048 191.159C126.655 190.02 126.83 186.437 126.363 184.708C126.081 183.66 126.231 183.454 127.663 182.934C128.599 182.594 129.714 181.679 130.301 180.768C131.591 178.765 131.79 178.783 132.922 181.012ZM42.365 182.944C42.2885 186.754 41.6985 187.514 38.8174 187.514C36.4953 187.514 35.2158 186.236 35.2246 183.925C35.237 180.492 35.5131 180.13 37.9149 180.403C39.5557 180.59 41.7298 180.235 42.3968 179.671C42.4161 179.655 42.4018 181.128 42.365 182.944ZM91.967 181.957C93.8342 181.957 93.0907 186.846 91.0572 187.94C88.5821 189.271 85.8356 188.172 84.3312 185.249C83.6896 184.002 83.7122 183.912 84.8004 183.415C85.43 183.127 86.3711 182.164 86.8929 181.276L87.8405 179.662L89.5214 180.809C90.4456 181.441 91.5462 181.957 91.967 181.957ZM33.1777 183.769C33.1533 185.425 33.4201 186.42 34.1576 187.423C36.5018 190.611 28.9226 192.637 26.4535 189.483C24.3693 186.821 25.6875 182.889 28.6719 182.867C29.8642 182.858 31.358 182.552 31.9918 182.188C32.6255 181.824 33.1593 181.519 33.1777 181.51C33.1961 181.501 33.1961 182.518 33.1777 183.769ZM61.4991 184.08C62.2214 187.104 61.7268 188.393 59.1637 190.176C55.8599 192.475 54.0112 190.916 54.2108 185.997L54.3458 182.667L56.1895 182.783C57.2035 182.847 58.5516 182.603 59.1854 182.242C60.858 181.288 60.8267 181.263 61.4991 184.08ZM24.1485 183.837C23.4977 186.117 23.5903 188.745 24.3753 190.27C25.1694 191.813 24.7569 192.145 22.0444 192.145H20.4691V188.85C20.4691 185.558 20.4704 185.555 22.4279 183.803C24.714 181.756 24.7421 181.757 24.1485 183.837ZM123.786 183.827C126.617 189.13 123.161 194.091 117.134 193.374C114.26 193.032 114.253 193.023 115.244 191.146C115.759 190.17 116.07 188.546 116.084 186.752L116.108 183.906L118.412 183.383C119.68 183.096 121.028 182.66 121.408 182.416C122.4 181.779 122.829 182.034 123.786 183.827ZM100.777 184.157C103.263 183.917 103.832 184.699 103.26 187.57C102.325 192.269 97.2924 193.892 93.2986 190.784L92.1523 189.891L93.1525 188.818C94.3204 187.566 95.1362 185.598 95.1362 184.034C95.1362 182.94 95.151 182.936 96.8513 183.65C97.9404 184.107 99.3743 184.293 100.777 184.157ZM114.027 186.518C114.044 192.708 108.768 196.402 104.203 193.397L102.939 192.565L103.961 191.123C104.586 190.241 105.058 188.758 105.179 187.299L105.375 184.915L108.008 185.106C110.309 185.273 110.811 185.151 111.99 184.132C113.649 182.699 114.017 183.13 114.027 186.518ZM73.2509 189.753C74.4212 190.678 74.4696 190.847 73.9312 192.153C72.1424 196.491 66.5111 196.674 65.2371 192.436C64.1494 188.816 64.1881 187.977 65.4422 187.977C66.8102 187.977 68.8962 186.97 69.8029 185.873C70.3827 185.171 70.5182 185.272 71.2178 186.927C71.6433 187.934 72.5582 189.205 73.2509 189.753ZM83.4545 187.677C84.4883 189.282 86.9699 190.755 88.6379 190.755C89.7431 190.755 89.7648 190.855 89.1449 193.097C87.5607 198.826 81.5408 198.92 78.4518 193.264L77.2078 190.987L78.8145 190.157C79.7336 189.682 80.7458 188.642 81.1808 187.725C82.1137 185.76 82.2174 185.757 83.4545 187.677ZM52.2883 188.965C53.5941 193.838 46.8044 197.143 44.5054 192.754C43.1416 190.151 43.9957 187.897 46.2131 188.245C47.5253 188.45 50.2912 187.873 51.6776 187.105C51.7316 187.075 52.0063 187.912 52.2883 188.965ZM43.2283 194.861C44.8092 196.616 38.7883 198.87 36.8461 197.25C34.3069 195.134 35.909 190.284 39.3663 189.621L41.9013 189.135L42.1875 191.579C42.3447 192.923 42.8134 194.4 43.2283 194.861ZM62.8745 192.151C63.1483 193.173 63.9857 194.711 64.7356 195.569C66.4871 197.573 66.4604 197.787 64.266 199.315C60.1657 202.17 56.5937 201.117 55.2778 196.666C54.2601 193.223 54.3094 193.071 56.443 193.071C58.4092 193.071 60.4621 192.232 61.4646 191.017C62.2845 190.025 62.3099 190.045 62.8745 192.151ZM35.1836 198.359C38.7505 202.174 29.6361 206.057 25.9078 202.311C22.9626 199.352 25.6022 193.457 30.0661 193.025C31.6401 192.872 33.0804 192.593 33.2666 192.404C33.4529 192.216 33.734 193.237 33.8921 194.673C34.0852 196.428 34.5093 197.638 35.1836 198.359ZM98.0174 194.376L100.207 194.228V196.337C100.205 204.227 93.4664 207.518 88.1258 202.236L85.7319 199.869L86.862 199.138C88.8384 197.861 90.499 195.819 91.042 193.999L91.5683 192.234L93.6977 193.379C95.2989 194.239 96.371 194.487 98.0174 194.376ZM134.295 194.84C135.805 200.334 131.999 205.574 126.497 205.574H124.107L125.07 204.343C126.367 202.686 127.501 198.595 127.329 196.196C127.191 194.271 127.214 194.237 128.875 193.966C129.802 193.814 131.042 193.365 131.63 192.967C132.964 192.067 133.67 192.562 134.295 194.84ZM78.4832 196.946C79.1501 197.676 80.4766 198.614 81.4307 199.03L83.166 199.785L82.0238 201.472C78.9404 206.027 73.598 205.937 70.7934 201.283C69.0617 198.408 69.1055 197.914 71.1478 197.299C72.2987 196.953 73.5496 196.07 74.4967 194.936L76.0085 193.125L76.6395 194.371C76.9866 195.057 77.8162 196.215 78.4832 196.946ZM125.095 196.909C125.095 203.313 121.758 206.555 114.838 206.874L110.577 207.071L111.591 205.97C113.121 204.308 114.466 200.887 114.78 197.86L115.06 195.155L117.92 195.306C119.752 195.403 121.347 195.209 122.361 194.765C124.978 193.619 125.095 193.712 125.095 196.909ZM104.053 195.618C106.183 196.512 109.558 196.506 111.291 195.606L112.651 194.899L112.646 197.342C112.634 204.153 107.852 208.237 101.383 206.96C97.65 206.223 97.6592 206.237 99.4522 204.133C101.086 202.215 102.04 199.613 102.191 196.661C102.24 195.707 102.307 194.926 102.339 194.925C102.372 194.924 103.143 195.236 104.053 195.618ZM53.188 197.218C53.4577 198.225 54.2057 199.678 54.8496 200.447L56.0208 201.845L54.4919 202.789C49.2943 205.998 46.3025 204.607 46.2864 198.975C46.2799 196.805 46.3002 196.775 47.7779 196.754C48.6015 196.743 49.8981 196.447 50.6586 196.097C52.6308 195.19 52.6465 195.197 53.188 197.218ZM45.2964 204.069C45.5964 204.632 46.3993 205.387 47.0801 205.745L48.3181 206.397L46.0652 207.832C40.9246 211.107 37.0618 210.118 37.0618 205.526C37.0618 202.398 38.0864 200.027 39.458 199.982C40.0415 199.962 41.2445 199.68 42.1318 199.355L43.7449 198.762L44.2478 200.903C44.5243 202.081 44.9963 203.505 45.2964 204.069ZM68.5718 201.39C69.0152 202.4 70.3085 204.049 71.446 205.055L73.5141 206.884L72.0396 208.572C66.9627 214.381 60.3874 212.526 59.3601 204.994L59.078 202.928L61.2581 202.681C62.674 202.521 64.1056 201.943 65.3445 201.031C67.7693 199.248 67.6237 199.231 68.5718 201.39ZM91.1798 206.755C93.3401 207.162 93.2797 207.447 90.4119 210.402C86.0448 214.9 81.8575 214.701 78.2011 209.821C76.2915 207.272 76.2782 207.331 78.9819 206.366C80.4959 205.826 81.8289 204.893 82.9434 203.595L84.6234 201.638L87.0754 204.04C88.7379 205.67 90.0593 206.543 91.1798 206.755ZM57.3348 205.83C57.3454 207.288 59.5831 211.477 60.9115 212.526L62.096 213.463L61.0253 214.608C58.5705 217.233 54.3933 218.313 52.3257 216.858C49.1196 214.602 49.0334 207.075 52.2021 206.103C53.1277 205.819 54.5072 205.199 55.2677 204.724C56.7545 203.797 57.3219 204.101 57.3348 205.83ZM34.9231 206.893C35.0794 207.874 35.6509 209.243 36.1934 209.936C37.4268 211.511 36.9539 212.079 34.141 212.397C31.2889 212.72 29.6872 211.207 29.6872 208.192V206.137L31.8765 205.678C33.0804 205.426 34.1949 205.195 34.3525 205.165C34.5102 205.135 34.7669 205.913 34.9231 206.893ZM99.4144 208.62C101.112 209.063 103.361 209.291 104.931 209.178C108.061 208.953 108.224 209.369 106.655 213.581C103.345 222.472 95.7276 224.157 88.6379 217.567L86.6094 215.682L87.9921 214.957C90.5216 213.629 92.3653 211.963 93.8462 209.667C94.7408 208.279 95.5524 207.488 95.9304 207.633C96.2705 207.764 97.8381 208.208 99.4144 208.62ZM121.408 208.931C121.405 215.615 111.714 223.422 104.707 222.383L102.985 222.128L105.25 219.638C107.469 217.199 109.019 214.004 109.667 210.536L109.98 208.859L112.813 209.094C114.578 209.24 116.515 209.079 117.951 208.666C121.177 207.739 121.408 207.757 121.408 208.931ZM75.3172 209.228C75.3172 210.146 79.6179 214.367 81.102 214.907C84.9778 216.315 77.8992 221.995 73.3399 221.135C70.326 220.568 64.9513 214.714 66.8775 214.098C69.4931 213.261 71.2732 212.22 72.8306 210.618C74.5562 208.842 75.3172 208.417 75.3172 209.228ZM48.1236 211.844C48.1236 214.605 49.3496 217.684 50.7669 218.48C52.7506 219.596 45.8748 220.478 42.8955 219.49C38.7206 218.105 37.8333 211.594 41.8197 211.594C42.6443 211.594 44.2446 211.101 45.3756 210.498C48.1918 208.998 48.1236 208.965 48.1236 211.844ZM65.6381 217.454C67.2974 220.103 70.0794 222.415 72.2719 222.968C74.9521 223.644 69.1276 226.888 65.2749 226.865C59.5306 226.831 54.7312 220.61 58.8535 218.541C59.9795 217.976 61.4996 216.923 62.2324 216.201C63.9383 214.519 63.7571 214.452 65.6381 217.454ZM91.9827 222.426C93.5014 223.186 95.1731 223.637 96.4941 223.644L98.593 223.654L97.4408 224.587C92.0154 228.977 85.2926 229.218 79.811 225.221C77.2576 223.359 77.1576 223.013 78.9551 222.265C80.3517 221.684 84.5353 217.751 84.5353 217.019C84.5353 216.786 85.6683 217.635 87.0528 218.906C88.4374 220.178 90.6557 221.761 91.9827 222.426Z" fill="#CCCCCC"/>
<path fill-rule="evenodd" clip-rule="evenodd" d="M417.431 264.965C417.613 299.35 417.632 299.586 420.802 306.319C429.896 325.634 460.157 325.972 469.19 306.861C472.669 299.502 472.759 298.489 472.962 264.27L473.143 233.823H462.943L462.936 263.344C462.927 295.303 462.853 296.428 460.398 301.819C455.229 313.17 436.818 313.93 430.474 303.053C427.389 297.764 427.316 296.915 427.104 263.807L426.912 233.823H417.266L417.431 264.965ZM491.059 319.029H501.199V278.278H532.541V267.627H501.199V244.011H537.611V233.823H491.059V319.029ZM548.212 319.029H558.352V285.224H571.496L595.781 319.029H602.209C607.307 319.029 608.56 318.906 608.268 318.437C608.065 318.112 606.77 316.309 605.391 314.431C604.012 312.552 598.058 304.44 592.161 296.405L581.439 281.794L583.838 280.479C599.799 271.724 600.406 244.455 584.813 236.631C580.262 234.347 578.823 234.169 563.076 233.947L548.212 233.736V319.029ZM619.191 243.084H634.44L634.286 272.374C634.12 304.034 634.137 303.825 631.589 306.74C628.655 310.097 620.611 311.102 614.177 308.915C609.737 307.405 609.973 307.164 609.973 313.209C609.973 319.218 609.591 318.701 614.582 319.437C629.051 321.57 637.49 318.389 642.015 309.096C644.383 304.233 644.508 302.119 644.525 266.585L644.541 233.823H619.191V243.084ZM576.855 244.761C584.302 246.86 587.613 255.528 584.678 265.237C582.367 272.881 578.39 275.08 566.302 275.396L558.352 275.605V244.011H566.272C572.172 244.011 574.871 244.202 576.855 244.761Z" fill="#CCCCCC"/>
<path fill-rule="evenodd" clip-rule="evenodd" d="M217.399 112.972C190.854 116.344 175.379 134.915 174.549 164.397C173.23 211.216 211.352 234.483 255.565 213.844L259.682 211.923V186.588L258.414 186.588C257.521 186.589 255.99 187.556 253.229 189.862C227.664 211.218 201.439 199.594 201.439 166.907C201.439 133.251 227.871 122.1 254.175 144.658C256.015 146.236 257.013 146.764 258.156 146.764H259.682V121.237L254.958 118.977C244.418 113.932 229.109 111.485 217.399 112.972ZM308.464 113.211C278.705 117.868 262.092 146.817 269.169 181.683C280.132 235.694 359.393 234.361 368.662 180.01C376.053 136.673 349.169 106.84 308.464 113.211ZM384.127 219.003H409.938V185.199L417.197 185.188C426.91 185.174 435.179 184.486 439.309 183.348C469.334 175.071 476.109 132.406 449.488 119.239C441.009 115.046 441.555 115.107 410.975 114.921L384.127 114.757V219.003ZM479.074 219.003H504.885V185.199L512.144 185.191C530.949 185.172 538.523 183.301 547.273 176.512C565.934 162.034 565.017 129.954 545.652 119.832C536.585 115.092 534.251 114.811 503.903 114.811H479.074V219.003ZM573.791 218.772L645.001 219.009V198.165H599.371V173.159H642.236V152.783H599.371V135.187H645.001V114.811H573.556L573.791 218.772ZM323.38 132.92C349.478 138.388 350.106 193.329 324.149 200.27C305.021 205.386 291.149 184.998 295.206 157.735C297.888 139.719 309.022 129.912 323.38 132.92ZM423.996 134.691C435.301 135.648 440.571 141.725 438.988 151.978C437.42 162.134 431.454 165.164 412.819 165.27L409.938 165.286V134.26L414.662 134.281C417.261 134.292 421.461 134.476 423.996 134.691ZM518.943 134.694C530.931 135.874 536.245 143.268 533.211 154.548C531.072 162.5 524.758 165.136 507.535 165.267L504.885 165.286V134.26L509.84 134.273C512.565 134.28 516.661 134.469 518.943 134.694Z" fill="#C6C6C6"/>
</svg>
