<?xml version="1.0" encoding="UTF-8" standalone="no"?><svg width="1921" height="670" viewBox="0 0 1921 670" fill="none" xmlns="http://www.w3.org/2000/svg">
<path fill-rule="evenodd" clip-rule="evenodd" d="M227.157 0.667007C226.79 1.03301 226.49 36.857 226.49 80.275V159.217L223.936 158.576C126.99 134.244 29.3362 186.912 7.14319 275.5C-17.9188 375.541 24.5552 463.752 109.643 488.375C157.12 502.114 258.855 500.299 328.24 484.475L330.49 483.962V241.981V0H279.157C250.923 0 227.523 0.300007 227.157 0.667007ZM394.49 53.5V107H445.49H496.49V53.5V0H445.49H394.49V53.5ZM683.49 153.669C642.29 157.78 600.571 167.77 569.99 180.849L562.99 183.843L562.729 223.797L562.468 263.751L575.729 258.31C630.212 235.957 677.394 228.921 711.619 238.045C719.111 240.042 724.486 265.673 720.456 280.182C719.299 284.347 722.395 283.572 694.99 286.556C576.907 299.414 529.802 339.314 539.72 418.075C549.321 494.319 601.626 510.987 773.49 492.572C780.915 491.776 793.852 490.581 802.24 489.915L817.49 488.705L817.74 395.602C818.229 213.363 818.555 219.32 806.898 197C789.935 164.519 742.318 147.8 683.49 153.669ZM1731.82 154.093C1643.25 161.993 1591.64 209.658 1577.6 296.5C1554.61 438.787 1674.25 538.918 1812.99 493.5C1898.49 465.509 1943.48 350.923 1907.87 251.829C1883.64 184.402 1815.59 146.621 1731.82 154.093ZM992.49 155.536C958.315 158.361 923.65 164.1 886.24 173.128L869.49 177.17V335.085V493H920.486H971.482L971.736 369.25L971.99 245.5L981.99 243.259C1037.66 230.782 1062.63 238.145 1071.23 269.567L1073.95 279.5L1073.6 386.25L1073.25 493H1124.62L1175.99 493.001L1175.64 457.381C1175.45 437.79 1175.8 405.952 1176.41 386.631C1180.7 251.633 1178.3 229.106 1156.59 200.291C1129.72 164.637 1072.2 148.948 992.49 155.536ZM1408.36 156.041C1278.39 166.788 1210.42 231.386 1210.07 344.5C1209.78 436.897 1268.44 497.318 1358.49 497.366C1375.89 497.376 1375.02 497.506 1413.99 488.999C1427.33 486.087 1430.8 486.249 1430.1 489.75C1429.8 491.263 1428.63 499.025 1427.49 507C1421.53 548.869 1407.73 566.114 1372.74 575.4C1333.83 585.728 1270.86 577.569 1228.17 556.669L1219.49 552.421V600.139V647.856L1224.74 649.82C1316.97 684.325 1423.35 672.027 1477.17 620.638C1525.09 574.889 1537.49 509.764 1529.09 348C1528.17 330.125 1527.13 299.2 1526.8 279.277C1526.09 237.189 1524.78 241.119 1538.89 242.987C1545.29 243.834 1548.8 243.902 1550.1 243.206C1553.23 241.526 1586.67 169.924 1585.09 168.276C1584.05 167.19 1531.74 159.859 1507.49 157.399C1489.39 155.564 1424.83 154.679 1408.36 156.041ZM394.462 281.25C394.447 347.388 394.235 404.65 393.991 408.5C393.746 412.35 393.31 423.15 393.022 432.5C390.518 513.686 373.374 545.506 311.827 583.199C289.728 596.733 291.098 595.225 298.462 597.91C301.877 599.155 318.242 607.086 334.83 615.534C391.352 644.322 390.596 644.284 422.99 619.974C490.248 569.499 496.447 540.42 496.477 275.25L496.49 161H445.49H394.49L394.462 281.25ZM202.49 238.517C206.065 238.842 212.928 240.021 217.74 241.137L226.49 243.167V327.016C226.49 406.016 226.389 410.894 224.74 411.364C210.74 415.352 179.177 415.803 165.99 412.203C72.0592 386.564 94.3472 230.881 190.99 237.58C193.74 237.77 198.915 238.192 202.49 238.517ZM1760.7 238.612C1832.76 249.294 1829.98 406.595 1757.49 420.191C1715.05 428.152 1683.29 389.456 1683.06 329.5C1682.82 266.896 1713.02 231.544 1760.7 238.612ZM1420.75 239.382C1424.47 240.102 1427.68 240.873 1427.88 241.096C1428.08 241.318 1428.52 272.775 1428.86 311C1429.2 349.225 1429.77 385.936 1430.12 392.579L1430.75 404.659L1424.87 406.796C1383.62 421.787 1340.23 408.869 1324.8 377C1290.38 305.916 1346.76 225.061 1420.75 239.382ZM726.49 387.525V422.05L724.029 422.985C704.749 430.315 665.801 428.694 647.754 419.809C617.893 405.109 630.059 368.931 667.99 359.632C676.467 357.554 710.525 353.395 721.24 353.13L726.49 353V387.525Z" fill="#D6D6D6"/>
</svg>
