<?xml version="1.0" encoding="UTF-8" standalone="no"?><svg width="884" height="773" viewBox="0 0 884 773" fill="none" xmlns="http://www.w3.org/2000/svg">
<path d="M138.489 558.314C69.8342 485.751 29.8308 385.407 29.9372 265.899C29.8405 160.127 63.1041 69.2012 120.31 0.0193177L120.213 0.0579579H0V558.314H138.489ZM771.618 558.459C801.149 526.872 827.702 489.653 851.586 447.103L718.532 380.645C671.798 456.54 603.463 526.389 508.962 526.862C371.43 526.399 317.503 409.015 317.696 257.698H831.638C832.314 240.63 832.314 232.583 831.638 224.469C834.993 134.51 811.138 58.8848 767.818 0L767.596 0.164215H883.312V558.314H771.357L771.608 558.343L771.618 558.459ZM325.993 128.096C331.678 59.6285 385.712 13.591 449.068 13.4558C512.859 13.591 558.944 59.6285 560.501 128.096H325.993Z" fill="#CCCCCC"/>
<path d="M71.5167 707.96V684.7H28.274V653.132H73.2766V629.872H1.75987V767.772H73.2766V744.512H28.3707V707.96H71.5167ZM194.611 709.621C212.442 706.975 222.228 689.336 222.885 671.408C222.228 642.091 203.208 629.872 176.316 629.872H139.707V767.772H166.318V712.944L199.581 767.772H232.845L194.592 709.621H194.611ZM166.337 651.471H169.664C184.168 652.012 195.075 655.335 194.611 673.07C195.075 689.327 184.555 693.741 169.664 693.007H166.337V651.471ZM316.023 629.872H289.393V767.772H354.257V744.512H316.004L316.023 629.872ZM490.657 739.527L502.299 767.772H530.573L479.015 626.549H457.393L402.509 767.772H430.783L442.425 739.527H490.657ZM484.004 717.929H450.741L465.709 666.424L484.004 717.929ZM608.743 767.772V674.731L681.923 771.095H701.881V629.872H673.607V722.913L600.427 626.539H580.469V767.762L608.743 767.772ZM818.323 694.668V716.267H848.26C847.631 733.625 833.417 748.337 816.659 747.835C790.194 748.318 777.082 722.787 776.743 699.653C777.082 676.827 790.01 650.176 816.659 649.809C830.642 650.176 842.477 659.73 848.26 671.408L871.544 659.778C861.294 638.237 840.621 626.279 816.659 626.549C775.418 626.288 749.011 660.29 748.469 699.653C749.011 738.04 774.577 772.225 814.996 772.756C858.539 772.225 878.671 737.48 878.197 697.991V694.668H818.323Z" fill="#BDBDBD"/>
</svg>
