<?xml version="1.0" encoding="UTF-8" standalone="no"?><svg width="437" height="205" viewBox="0 0 437 205" fill="none" xmlns="http://www.w3.org/2000/svg">
<path d="M96.4972 76.556H54.958V58.6929C54.958 47.4323 54.5633 40.3843 53.774 37.5489C52.9846 34.7135 51.11 33.2958 48.1499 33.2958C45.5846 33.2958 43.8414 34.511 42.9205 36.9413C41.9996 39.3717 41.5392 45.6096 41.5392 55.655V150.074C41.5392 158.904 41.9996 164.737 42.9205 167.573C43.8414 170.327 45.6832 171.704 48.4459 171.704C51.4717 171.704 53.5109 170.124 54.5633 166.965C55.6816 163.806 56.2407 157.649 56.2407 148.494V125.163H47.8539V95.2697H96.4972V200.868H70.3502L66.5021 186.772C63.6737 192.848 60.0887 197.425 55.7473 200.504C51.4717 203.501 46.4068 205 40.5525 205C33.58 205 27.035 202.934 20.9176 198.803C14.866 194.59 10.2615 189.405 7.10409 183.248C3.94671 177.091 1.97336 170.651 1.18401 163.927C0.394671 157.122 0 146.955 0 133.426V74.9763C0 56.1816 0.822232 42.5311 2.4667 34.0249C4.11116 25.5187 8.81433 17.7416 16.5762 10.6935C24.4039 3.56451 34.5009 0 46.8672 0C59.0363 0 69.1333 3.07844 77.1583 9.23533C85.1833 15.3922 90.4127 22.7238 92.8465 31.23C95.2803 39.6552 96.4972 51.9285 96.4972 68.0498V76.556Z" fill="#C9C9C9"/>
<path d="M112.679 4.13159H181.944V43.5033H154.218V80.8091H180.168V118.237H154.218V161.497H184.706V200.868H112.679V4.13159Z" fill="#C9C9C9"/>
<path d="M196.744 4.13159H227.824C247.887 4.13159 261.437 5.26576 268.475 7.53408C275.579 9.80241 280.973 13.5289 284.657 18.7137C288.34 23.8984 290.643 29.6908 291.564 36.0907C292.484 42.4096 292.945 54.8854 292.945 73.5181V142.418C292.945 160.079 292.254 171.907 290.873 177.902C289.557 183.815 287.222 188.474 283.867 191.876C280.513 195.198 276.369 197.547 271.435 198.924C266.502 200.22 259.069 200.868 249.136 200.868H196.744V4.13159ZM238.283 37.7919V167.208C244.269 167.208 247.952 165.75 249.334 162.833C250.715 159.836 251.406 151.775 251.406 138.651V62.217C251.406 53.3057 251.175 47.5943 250.715 45.083C250.255 42.5716 249.202 40.7489 247.558 39.6147C245.913 38.3995 242.822 37.7919 238.283 37.7919Z" fill="#C9C9C9"/>
<path d="M349.975 4.13159V200.868H308.436V4.13159H349.975Z" fill="#C9C9C9"/>
<path d="M366.65 4.13159H437V43.5033H408.189V80.8091H433.843V118.237H408.189V200.868H366.65V4.13159Z" fill="#C9C9C9"/>
</svg>
