<?xml version="1.0" encoding="UTF-8" standalone="no"?><svg width="961" height="281" viewBox="0 0 961 281" fill="none" xmlns="http://www.w3.org/2000/svg">
<path fill-rule="evenodd" clip-rule="evenodd" d="M235.602 0.976883C230.559 2.69905 219.116 4.97668 212.162 5.64253C187.713 7.9834 151.16 17.8415 126.24 28.8144C49.8694 62.4434 4.88153 128.714 4.84087 207.645L4.83692 215.203L3.48589 218.45C-2.98106 233.995 -0.316897 251.057 10.3713 262.548C11.8712 264.161 12.3556 265.074 13.0797 267.655C13.5649 269.383 14.7067 273.093 15.6175 275.899L17.2734 281L17.53 276.488C17.6709 274.006 18.0705 271.071 18.4179 269.965L19.0496 267.955L22.0126 267.765C32.9326 267.068 51.2659 247.771 54.9613 233.086C55.3095 231.701 55.7205 231.284 58.4241 229.573C71.9565 221.008 82.905 214.922 114.988 198.129C203.677 151.709 208.799 145.463 211.314 80.6676C211.712 70.412 211.81 68.711 212.53 59.6512C214.195 38.6819 218.475 24.0509 226.16 13.0501C229.5 8.26742 231.644 6.83084 240.737 3.28044C248.199 0.36721 247.739 0.644941 245.669 0.297286C242.287 -0.270353 238.507 -0.0150135 235.602 0.976883ZM208.388 13.2528C208.269 13.4445 205.815 14.5307 202.936 15.666C190.808 20.4479 178.795 28.0452 167.126 38.3115L160.508 44.1344L159.657 48.0627C156.929 60.6694 156.811 73.7043 159.248 93.1891C159.678 96.6193 159.963 99.4912 159.882 99.5714C159.717 99.736 157.077 89.2855 156.447 85.9708C154.267 74.5072 153.489 58.9531 154.697 51.0089C155.12 48.2296 136.652 68.5087 117.091 92.3036C108.501 102.753 104.266 123.532 107.334 140.181C107.835 142.901 107.068 141.017 106.279 137.592C104.163 128.402 105.16 112.863 108.453 103.685C108.795 102.733 109.004 101.884 108.917 101.798C108.62 101.502 96.5084 118.316 86.5024 132.914C80.5183 141.645 65.6412 163.736 64.1484 166.108C62.9032 168.087 62.7785 168.108 63.5456 166.208C63.8077 165.558 63.7647 165.559 62.756 166.217C62.1693 166.599 61.6892 166.824 61.6892 166.716C61.6892 166.414 72.2124 149.245 78.1527 139.854C84.7534 129.419 84.5106 130.101 81.1812 131.347C72.2985 134.67 58.8517 143.374 51.2619 150.714C48.1955 153.679 48.156 153.702 49.0905 151.989C53.0405 144.75 70.221 132.737 83.1292 128.187L86.2107 127.101L92.6567 117.437C100.378 105.861 107.283 96.2496 115.12 86.1672C118.833 81.3908 120.721 78.6606 120.363 78.584C116.63 77.7854 79.8815 96.5764 65.4399 106.668C61.5648 109.376 62.7169 107.985 68.0061 103.57C81.5535 92.2592 103.545 80.3859 121.46 74.7091L124.971 73.5966L130.738 66.9252C139.016 57.3488 149.108 47.0606 156.804 40.3522C158.631 38.7593 161.307 36.3956 162.75 35.0993C174.301 24.7239 193.314 15.2948 206.978 13.1652C207.521 13.0808 208.109 12.9873 208.285 12.9578C208.46 12.9283 208.507 13.0611 208.388 13.2528ZM29.0931 229.414C30.8891 230.229 31.8082 232.853 31.5922 236.549C30.8306 249.578 16.5141 263.764 12.5388 255.428C8.23818 246.411 21.3016 225.882 29.0931 229.414Z" fill="#C0C0C0"/>
<path fill-rule="evenodd" clip-rule="evenodd" d="M307.303 63.6612C261.424 71.4926 236.222 116.976 250.195 166.727C263.833 215.285 319.646 233.838 371.126 206.926C386.908 198.675 387.569 197.115 387.576 168.137L387.581 146.596L384.889 142.898C380.77 137.242 378.405 136.762 354.552 136.749C323.152 136.733 320.606 137.606 320.606 148.403C320.606 158.29 324.598 159.958 348.359 159.995L360.057 160.013V184.413L353.864 187.167C303.936 209.37 267.362 177.306 279.569 122.034C288.185 83.0215 331.693 73.4039 354.327 105.508C365.566 121.448 383.008 119.068 382.979 101.598C382.938 76.3329 344.869 57.2492 307.303 63.6612ZM592.669 63.308C546.911 70.4201 535.159 120.384 574.482 140.636C581.911 144.462 586.292 145.913 606.617 151.286C640.77 160.313 647.028 181.453 619.242 193.935C602.693 201.37 585.756 193.962 576.81 175.377C565.274 151.405 542.174 158.405 549.85 183.547C564.429 231.299 651.649 231.073 664.17 183.25C671.991 153.379 656.873 135.054 615.299 124.01C606.57 121.691 597.261 118.987 594.612 118.001C569.586 108.686 577.023 85.0277 605.022 84.8835C618.576 84.8132 623.032 87.6847 632.045 102.296C642.415 119.108 657.67 117.726 658.969 99.8561C660.697 76.0837 627.655 57.8699 592.669 63.308ZM740.474 63.6868C731.26 66.9544 727.446 75.2367 694.018 164.577C692.609 168.342 688.936 178.063 685.855 186.18C677.221 208.927 680.034 218.429 695.403 218.429C703.589 218.429 706.164 214.992 713.679 194.037L718.515 180.55H777.906L782.64 193.006C792.304 218.43 799.046 224.055 810.628 216.357C820.019 210.117 819.39 204.952 804.721 167.772C798.382 151.707 787.808 124.891 781.224 108.18C763.187 62.4108 758.501 57.2939 740.474 63.6868ZM425.787 66.0262C422.559 66.9891 419.977 69.2463 417.993 72.8444C415.417 77.514 415.717 203.697 418.316 208.788C422.072 216.142 420.897 215.99 474.633 216.039C529.976 216.091 529.789 216.13 529.789 204.281C529.789 192.289 528.572 191.959 484.25 191.959H446.299V149.06H514.219L517.646 145.936C520.88 142.987 521.073 142.501 521.073 137.286C521.073 125.985 519.365 125.566 472.677 125.415L446.299 125.329V88.8192H482.66C517.515 88.8192 519.145 88.7425 522.014 86.9791C529.993 82.074 529.21 70.8792 520.579 66.4387C517.596 64.9044 430.817 64.5265 425.787 66.0262ZM852.573 65.9157C845.277 66.5601 841.886 68.6822 839.899 73.8466C837.46 80.192 837.876 205.745 840.353 210.659C845.319 220.506 858.194 222.016 865.04 213.554L867.877 210.048L868.41 151.567L878.286 151.972C894.745 152.647 900.555 157.145 913.664 179.362C929.904 206.886 932.267 210.553 935.916 213.901C945.51 222.702 961 218.744 961 207.492C961 195.865 947.178 171.611 931.962 156.535C922.02 146.685 922.529 147.597 926.558 146.846C964.659 139.735 970.25 81.3603 934.043 68.6996C924.455 65.3471 877.28 63.7352 852.573 65.9157ZM913.75 89.8305C930.72 94.4235 933.132 118.179 917.405 125.833C912.454 128.242 872.091 131.182 869.111 129.349C868.153 128.76 868.07 89.4034 869.024 88.3975C869.997 87.3707 909.316 88.6303 913.75 89.8305ZM759.13 127.037C764.695 142.765 769.249 156.003 769.249 156.454C769.249 157.442 727.054 157.579 727.024 156.59C726.959 154.43 747.638 97.075 748.259 97.6929C748.672 98.1037 753.564 111.309 759.13 127.037Z" fill="#CBCBCB"/>
</svg>
