<?xml version="1.0" encoding="UTF-8" standalone="no"?><svg width="442" height="336" viewBox="0 0 442 336" fill="none" xmlns="http://www.w3.org/2000/svg">
<g clip-path="url(#clip0_46_6909)">
<path fill-rule="evenodd" clip-rule="evenodd" d="M1.45427 6.42514C2.40739 4.34116 5.13395 1.87631 7.15739 1.28061C7.56364 1.15952 7.88395 1.01303 8.18083 0.880218L8.71989 0.649749C11.2433 -0.248688 14.8605 1.91147 65.5949 35.1595C68.5793 40.9564 74.4543 45.0384 81.3136 45.4622L186.501 114.384H202.509C201.861 116.304 201.501 118.361 201.501 120.499C201.501 130.993 210.009 139.499 220.501 139.499C230.993 139.499 239.501 130.993 239.501 120.499C239.501 118.361 239.142 116.304 238.493 114.384H290.064L292.017 115.419C295.579 117.306 295.814 117.827 309.415 153.3L309.579 153.743C321.415 184.579 324.103 191.593 321.696 195.31C321.196 196.087 320.47 196.722 319.556 197.4L318.267 198.318L316.329 199.683L270.275 199.843C276.892 196.872 281.501 190.226 281.501 182.499C281.501 172.005 272.993 163.499 262.501 163.499C252.009 163.499 243.501 172.005 243.501 182.499C243.501 190.273 248.165 196.952 254.853 199.896L186.064 200.136L100.673 256.206C53.7121 287.044 14.634 312.548 13.8293 312.884C9.26677 314.796 2.80583 312.05 1.07927 307.468C0.094891 304.843 0.462078 8.61655 1.45427 6.42514ZM51.5011 139.499C61.9933 139.499 70.5011 130.993 70.5011 120.499C70.5011 110.005 61.9933 101.499 51.5011 101.499C41.009 101.499 32.5011 110.005 32.5011 120.499C32.5011 130.993 41.009 139.499 51.5011 139.499ZM51.5011 231.499C51.5011 241.993 42.9933 250.499 32.5011 250.499C22.009 250.499 13.5011 241.993 13.5011 231.499C13.5011 221.005 22.009 212.499 32.5011 212.499C42.9933 212.499 51.5011 221.005 51.5011 231.499ZM90.5011 201.499C100.993 201.499 109.501 192.993 109.501 182.499C109.501 172.005 100.993 163.499 90.5011 163.499C80.009 163.499 71.5011 172.005 71.5011 182.499C71.5011 192.993 80.009 201.499 90.5011 201.499ZM176.501 158.499C176.501 168.993 167.993 177.499 157.501 177.499C147.009 177.499 138.501 168.993 138.501 158.499C138.501 148.005 147.009 139.499 157.501 139.499C167.993 139.499 176.501 148.005 176.501 158.499Z" fill="#336BAD"/>
<path d="M85.5391 46.2656C77.5234 41.0137 70.4141 36.3496 64.0938 32.2129C63.7109 30.7129 63.5 29.1191 63.5 27.5C63.5 17.0059 72.0078 8.5 82.5 8.5C92.9922 8.5 101.5 17.0059 101.5 27.5C101.5 36.959 94.5859 44.8105 85.5391 46.2656Z" fill="#336BAD"/>
<path d="M238.125 114.385H202.875C205.688 107.416 212.523 102.5 220.5 102.5C228.477 102.5 235.312 107.416 238.125 114.385Z" fill="#336BAD"/>
<path d="M252.922 199.914L272.188 199.848C269.352 201.533 266.039 202.5 262.5 202.5C259.008 202.5 255.734 201.559 252.922 199.914Z" fill="#336BAD"/>
<path d="M210.5 232.5C210.5 242.994 201.992 251.5 191.5 251.5C181.008 251.5 172.5 242.994 172.5 232.5C172.5 222.006 181.008 213.5 191.5 213.5C201.992 213.5 210.5 222.006 210.5 232.5Z" fill="#336BAD"/>
<path d="M64.5 328.5C74.9922 328.5 83.5 319.994 83.5 309.5C83.5 299.006 74.9922 290.5 64.5 290.5C54.0078 290.5 45.5 299.006 45.5 309.5C45.5 319.994 54.0078 328.5 64.5 328.5Z" fill="#336BAD"/>
<path fill-rule="evenodd" clip-rule="evenodd" d="M392.766 118.988C388.832 120.605 386.213 124.97 387.194 128.276C388.301 132.008 390.72 134.237 410.955 150.168C416.253 154.339 420.583 157.819 420.578 157.902C420.573 157.985 419.364 158.992 417.893 160.141C386.821 184.402 384.117 187.418 388.144 193.329C392.174 199.245 397.418 197.338 414.503 183.741C418.578 180.498 424.455 175.847 427.562 173.405C445.643 159.195 445.886 155.837 429.724 143.463C428.266 142.347 425.316 140.091 423.168 138.45C417.52 134.135 412.39 130.136 407.003 125.847C398.001 118.68 395.935 117.685 392.766 118.988ZM347.997 119.772C345.372 120.388 342.863 123.424 342.649 126.243C342.329 130.468 345.288 133.45 366.254 150.035C371.145 153.903 373.727 156.064 374.759 157.149L375.591 158.025L374.54 159.015C373.963 159.56 372.239 160.974 370.709 162.158C342.199 184.23 340.54 186.082 343.599 192.413C345.972 197.324 350.623 197.682 357.117 193.452C360.942 190.961 378.493 177.366 386.341 170.815C399.336 159.97 400.648 155.114 392.245 148.961C386.691 144.894 384.03 142.833 379.855 139.362C359.394 122.35 353.21 118.548 347.997 119.772Z" fill="#336BAD"/>
<path fill-rule="evenodd" clip-rule="evenodd" d="M149.358 79.7455C152.942 80.5307 156.943 78.7211 157.871 75.8951C158.919 72.7044 158.298 69.9364 151.773 48.6998C150.064 43.1396 148.703 38.5446 148.747 38.4886C148.791 38.4325 150.143 38.3114 151.751 38.2193C185.702 36.2752 189.101 35.4639 189.148 29.2946C189.196 23.1198 184.54 21.8968 165.746 23.1478C161.263 23.4462 154.811 23.8585 151.408 24.0641C131.606 25.2608 129.785 27.5235 135.169 44.2364C135.654 45.7438 136.639 48.7925 137.356 51.0113C139.243 56.8454 140.916 62.2008 142.63 67.8882C145.494 77.3924 146.47 79.1132 149.358 79.7455ZM181.492 101.178C183.656 102.03 186.927 101.109 188.463 99.2145C190.765 96.3755 190.131 92.8083 183.408 70.7489C181.84 65.6034 181.069 62.8028 180.871 61.5267L180.711 60.497L181.942 60.3105C182.619 60.2078 184.537 60.0514 186.203 59.9629C217.262 58.3131 219.349 57.8148 220.288 51.8222C221.018 47.1735 217.895 44.6359 211.212 44.4462C207.276 44.3345 188.152 45.3553 179.369 46.146C164.826 47.455 161.511 50.2543 164.449 58.7449C166.39 64.3569 167.265 67.1256 168.521 71.6377C174.676 93.751 177.194 99.4852 181.492 101.178Z" fill="#336BAD"/>
<path fill-rule="evenodd" clip-rule="evenodd" d="M124.881 257.797C122.554 260.635 122.349 265.021 124.446 267.131C126.813 269.514 129.561 270.217 151.446 274.045C157.175 275.047 161.888 275.92 161.918 275.984C161.947 276.049 161.442 277.309 160.794 278.783C147.112 309.916 146.292 313.313 151.767 316.156C157.247 319.002 160.451 315.409 167.869 298.095C169.638 293.965 172.2 288.03 173.562 284.904C181.486 266.717 180.297 264.067 162.961 261.277C161.397 261.025 158.234 260.518 155.931 260.15C149.877 259.182 144.345 258.242 138.5 257.187C128.731 255.424 126.755 255.512 124.881 257.797ZM91.1956 276.699C89.4535 278.24 88.7893 281.573 89.7799 283.801C91.2643 287.141 94.7303 288.196 117.437 292.221C122.734 293.16 125.579 293.745 126.806 294.147L127.796 294.472L127.403 295.654C127.188 296.304 126.456 298.083 125.779 299.608C113.148 328.031 112.644 330.116 117.557 333.674C121.368 336.434 125.047 334.804 128.25 328.935C130.136 325.48 137.909 307.977 141.192 299.792C146.628 286.24 145.639 282.016 136.741 280.778C130.859 279.96 127.995 279.482 123.404 278.553C100.907 273.997 94.655 273.637 91.1956 276.699Z" fill="#336BAD"/>
</g>
<defs>
<clipPath id="clip0_46_6909">
<rect width="441" height="335" fill="white" transform="translate(0.5 0.5)"/>
</clipPath>
</defs>
</svg>
