<?xml version="1.0" encoding="UTF-8" standalone="no"?><svg width="1202" height="573" viewBox="0 0 1202 573" fill="none" xmlns="http://www.w3.org/2000/svg">
<path d="M505.175 282.027C505.138 265.611 499.667 249.669 489.616 236.685C479.564 223.702 465.497 214.407 449.606 210.249L520.915 0.0351562H167.419L238.917 210.915C223.467 215.398 209.89 224.772 200.228 237.627C190.566 250.483 185.341 266.125 185.338 282.203C185.338 307.069 197.779 329.116 216.818 342.606C209.351 353.214 200.725 362.991 190.941 372.278C172.532 389.518 152.12 402.782 130.059 411.565C110.164 398.138 101.526 374.443 109.32 353.214C139.541 343.927 161.74 315.462 161.74 282.241C161.707 262.593 153.882 243.76 139.981 229.868C126.079 215.975 107.234 208.155 87.5736 208.122C67.8715 208.148 48.9839 215.982 35.0523 229.904C21.1208 243.827 13.2823 262.702 13.2557 282.392C13.2557 302.614 21.5664 321.188 34.8258 334.451L31.3378 341.574C20.219 364.451 7.61446 390.311 2.80432 419.342C-6.81597 477.228 8.93661 523.952 46.9267 550.315C68.3331 565.063 91.8801 572.525 117.266 572.525C160.897 572.525 205.183 550.629 247.97 529.425C278.493 514.325 310.011 498.595 341.151 490.969C352.484 488.15 364.547 486.489 377.164 484.677C402.726 480.902 429.094 477.215 452.804 463.461C480.507 447.379 499.42 420.525 504.897 389.694C509.053 365.986 504.898 342.127 494.282 321.238C501.608 309.447 505.462 295.831 505.401 281.951L505.175 282.027ZM472.813 282.027C472.813 305.055 453.925 323.805 431.008 323.805C423.712 323.736 416.56 321.771 410.254 318.103C403.948 314.436 398.705 309.192 395.041 302.887C391.376 296.582 389.416 289.433 389.353 282.142C389.29 274.851 391.125 267.669 394.68 261.301C396.002 258.986 397.664 256.645 399.339 254.67C401.068 252.638 403.014 250.803 405.144 249.196L405.307 249.032C406.63 248.025 408.128 247.044 409.626 246.05C410.458 245.546 411.137 245.043 411.767 244.728C411.931 244.728 412.094 244.565 412.271 244.565C412.938 244.238 413.782 243.898 414.588 243.558C415.394 243.218 416.25 242.891 416.905 242.551C417.068 242.551 417.232 242.388 417.408 242.388C418.076 242.224 418.731 241.884 419.398 241.721C419.562 241.721 419.902 241.557 420.065 241.557L422.382 241.054H422.546L425.039 240.55C425.203 240.55 425.543 240.55 425.706 240.387C426.374 240.387 427.029 240.223 427.696 240.223H428.527C429.358 240.223 430.189 240.06 431.045 240.06H433.186C433.799 240.032 434.413 240.087 435.012 240.223H435.339C436.679 240.36 438.008 240.583 439.318 240.89C448.738 242.908 457.183 248.087 463.249 255.566C469.316 263.045 472.637 272.374 472.662 282.002L472.813 282.027ZM213.695 33.1936H474.639L414.751 209.745C412.258 210.249 409.778 211.066 407.284 211.884L344.249 83.5291L281.037 211.092C278.544 210.261 275.899 209.77 273.23 209.267L213.695 33.1936ZM332.312 267.606C329.258 252.3 321.407 238.364 309.898 227.816L344.236 158.516L378.902 229.3C368.614 239.581 361.273 252.681 358.163 267.593L332.312 267.606ZM249.204 241.406L251.521 240.903H252.025C252.692 240.739 253.347 240.739 254.015 240.576H254.682C255.349 240.576 255.84 240.412 256.508 240.412H262.98C263.647 240.412 264.139 240.576 264.642 240.576C264.97 240.576 265.146 240.576 265.473 240.739C266.141 240.903 266.632 240.903 267.299 241.066C267.463 241.066 267.627 241.066 267.967 241.23L270.283 241.733C271.029 241.855 271.753 242.08 272.437 242.4C272.6 242.4 272.764 242.564 273.104 242.564C273.608 242.727 274.263 242.891 274.766 243.231C274.93 243.231 275.094 243.394 275.27 243.394C275.937 243.722 276.592 243.898 277.259 244.225H277.423C278.191 244.514 278.922 244.904 279.576 245.383C280.407 245.71 281.087 246.213 281.717 246.54C281.881 246.54 281.881 246.704 282.044 246.704C282.712 247.031 283.203 247.534 283.87 247.862L284.034 248.025C285.986 249.548 287.862 251.146 289.675 252.832L289.839 252.996C291.564 254.833 293.125 256.834 294.485 258.961C298.936 265.76 301.3 273.713 301.285 281.838C301.285 304.867 282.397 323.617 259.48 323.617C248.412 323.55 237.817 319.128 229.992 311.307C222.166 303.486 217.74 292.898 217.674 281.838C217.51 262.459 230.946 246.024 249.192 241.394L249.204 241.406ZM85.9744 240.248C109.018 240.248 127.78 259.124 127.78 282.027C127.714 293.087 123.288 303.675 115.462 311.496C107.637 319.316 97.0415 323.739 85.9744 323.805C74.9073 323.739 64.3123 319.316 56.4866 311.496C48.6608 303.675 44.2351 293.087 44.169 282.027C44.2351 270.967 48.6608 260.379 56.4866 252.558C64.3123 244.737 74.9073 240.314 85.9744 240.248ZM471.806 383.994C468.028 405.21 455.058 423.784 435.793 434.883C417.711 445.328 395.498 448.637 372.077 451.959C359.309 453.784 345.861 455.772 333.042 458.918C298.54 467.374 265.36 484.086 233.187 499.866C192.049 520.252 153.228 539.505 117.341 539.505C98.4531 539.505 81.8317 534.195 65.9154 523.096C29.2349 497.752 31.0608 450.625 35.4931 424.766C39.4722 400.567 50.6035 377.853 61.206 356.133C61.8734 354.812 62.3645 353.642 63.0318 352.32C66.7591 353.642 70.587 354.648 74.4905 355.303C68.1946 390.449 86.1004 426.754 121.081 444.648L127.377 447.958L134.177 445.466C163.201 435.185 190.085 418.448 213.808 396.062C226.917 383.855 238.501 370.101 248.31 355.114C252.05 355.718 255.853 355.995 259.643 355.944C276.069 355.908 292.022 350.441 305.014 340.396C318.006 330.351 327.307 316.292 331.468 300.412H359.334C367.645 332.413 396.657 355.944 431.159 355.944C444.352 355.946 457.301 352.394 468.645 345.663C472.964 358.096 474.286 371.032 471.957 383.956L471.806 383.994ZM737.661 365.923C735.389 373.531 731.478 380.55 726.202 386.485C720.875 392.45 713.761 397.257 704.795 400.907C695.83 404.556 684.9 406.381 671.779 406.381C649.869 406.381 632.958 400.592 621.185 389.141C609.411 377.689 603.556 360.626 603.556 338.428V324.095H634.872V334.162C634.805 340.493 635.362 346.815 636.534 353.038C637.693 358.826 639.519 363.646 642.327 367.798C645.203 372.017 649.155 375.393 653.773 377.576C658.746 379.892 665.055 381.062 672.686 381.062C686.953 381.062 696.611 377.249 702.214 369.736C707.528 362.111 710.349 351.83 710.349 338.906V166.318H741.539V342.719C741.417 350.596 740.144 358.414 737.761 365.923H737.661ZM908.37 390.286C895.602 399.9 879.66 404.707 860.269 404.707C846.669 404.707 834.883 402.568 824.936 398.075C815.228 393.963 806.601 387.667 799.726 379.678C792.927 371.725 787.764 362.438 784.465 351.326C780.977 340.378 779.151 328.449 778.673 315.512C778.673 302.576 780.662 290.81 784.641 280.026C788.333 269.718 793.962 260.211 801.225 252.014C808.259 244.123 816.919 237.847 826.61 233.617C836.407 229.313 847.009 226.985 858.632 226.985C873.742 226.985 886.334 230.131 896.408 236.423C906.481 242.715 914.326 250.68 920.333 260.294C926.309 269.977 930.521 280.641 932.773 291.792C934.977 302.476 935.921 313.386 935.594 324.283H808.415C808.201 331.444 809.057 338.591 810.933 345.5C812.784 352.119 816.071 358.084 820.554 363.117C824.873 368.251 830.627 372.404 837.301 375.386C844.101 378.532 852.071 380.043 861.226 380.043C872.999 380.043 882.796 377.224 890.439 371.737C898.082 366.251 903.031 357.983 905.373 346.569H933.076C929.26 365.949 921.113 380.395 908.358 390.009L908.37 390.286ZM901.571 281.184C899.077 275.219 895.602 270.236 891.447 265.932C887.115 261.617 881.988 258.181 876.349 255.815C870.556 253.323 864.072 252.002 857.108 252.002C849.805 252.002 843.345 253.323 837.528 255.815C831.71 258.306 826.749 261.779 822.594 266.096C818.377 270.558 814.968 275.719 812.52 281.347C809.913 287.161 808.705 293.302 808.201 299.921H905.915C905.467 293.471 903.952 287.139 901.432 281.184H901.571ZM986 362.979C988.553 367.138 992.085 370.612 996.287 373.096C1000.79 375.655 1005.65 377.501 1010.72 378.57C1016.03 379.728 1021.67 380.231 1027.3 380.231C1031.91 380.212 1036.5 379.88 1041.06 379.237C1045.64 378.673 1050.11 377.444 1054.34 375.588C1058.32 373.763 1061.8 371.272 1064.41 367.786C1066.93 364.476 1068.39 359.984 1068.39 354.85C1068.39 347.551 1065.57 342.09 1060.08 338.44C1054.59 334.791 1047.8 331.645 1039.5 329.317L1012.63 323.025C1003.01 321.2 994.046 318.545 985.761 315.072C977.875 312.004 970.826 307.119 965.185 300.815C959.72 294.686 956.875 286.054 956.875 275.118C956.875 266.498 958.864 259.2 962.667 253.071C966.396 247.043 971.447 241.94 977.437 238.147C983.419 234.334 990.206 231.515 997.836 229.527C1005.22 227.702 1012.8 226.759 1020.4 226.708C1029.37 226.645 1038.31 227.476 1047.1 229.2C1055.21 230.861 1062.36 233.68 1068.67 237.82C1074.96 241.796 1079.95 247.434 1083.6 254.229C1087.38 261.188 1089.57 269.808 1090.24 280.089H1062.21C1061.7 274.615 1060.38 270.022 1057.89 266.498C1055.44 262.954 1052.27 259.962 1048.59 257.715C1044.82 255.576 1040.79 253.902 1036.32 252.908C1031.85 251.914 1027.19 251.398 1022.72 251.398C1018.5 251.398 1014.28 251.725 1010.11 252.392C1006.09 252.977 1002.18 254.151 998.504 255.878C995.168 257.416 992.221 259.682 989.878 262.509C987.738 265.328 986.566 268.801 986.566 273.117C986.566 277.924 988.229 281.901 991.704 285.072C995.016 288.218 999.511 290.861 1004.65 293.025C1009.96 295.164 1015.77 296.838 1022.28 298.336L1042.02 302.815C1048.97 304.338 1055.84 306.226 1062.6 308.453C1068.9 310.438 1074.85 313.402 1080.23 317.236C1085.32 320.801 1089.57 325.441 1092.67 330.827C1095.81 336.301 1097.48 343.096 1097.48 351.213C1097.48 361.494 1095.34 370.114 1091 376.909C1086.77 383.603 1081.03 389.221 1074.24 393.318C1067.28 397.471 1059.47 400.441 1050.85 402.102C1042.32 403.752 1033.66 404.586 1024.97 404.594C1015.88 404.619 1006.8 403.625 997.937 401.611C989.793 399.871 982.071 396.549 975.208 391.834C968.573 387.354 963.435 381.389 959.443 374.216C955.452 367.043 953.311 357.857 952.807 347.362H980.837C981.668 353.654 983.154 358.965 985.811 363.117L986 362.979ZM1201.83 231.138V255.84H1167.98V361.444C1167.98 364.753 1168.31 367.408 1168.81 369.397C1169.31 371.385 1170.47 372.882 1171.96 374.053C1173.44 375.223 1175.74 375.877 1178.43 376.192C1181.13 376.506 1184.73 376.695 1189.05 376.695H1201.81V401.397H1180.41C1173.1 401.397 1166.97 400.894 1161.82 399.887C1156.67 398.881 1152.53 397.068 1149.38 394.413C1146.23 391.758 1143.9 388.121 1142.25 383.302C1140.74 378.495 1139.94 372.19 1139.94 364.237V256.016H1110.91V231.314H1139.94V180.261H1167.97V231.15L1201.83 231.138Z" fill="#D5D5D5"/>
</svg>
