<?xml version="1.0" encoding="UTF-8" standalone="no"?><svg width="619" height="181" viewBox="0 0 619 181" fill="none" xmlns="http://www.w3.org/2000/svg">
<path fill-rule="evenodd" clip-rule="evenodd" d="M429.963 25.2635C419.266 28.4306 412.853 35.0967 409.652 46.3764C407.696 53.2681 407.699 135.076 409.655 142.014C414.492 159.165 429.93 167.468 449.339 163.356C466.579 159.704 472.965 148.897 472.991 123.332L473.002 111.285H452.153L451.923 124.03C451.595 142.243 447.202 147.594 436.475 142.852C430.436 140.181 430.733 142.697 430.733 94.174C430.733 46.2828 430.523 48.2229 435.997 45.4629C446.044 40.3968 452.042 46.7836 452.042 62.5455V72.1748H473.164L472.833 60.4768C472.029 32.0057 454.851 17.8962 429.963 25.2635ZM485.579 162.965H507.237V106.396H535.184V86.1426H507.237V45.6361H542.869V25.3829H485.579V162.965ZM552.651 162.965L569.594 162.96C617.376 162.945 619 160.684 619 94.174C619 28.0011 617.227 25.4241 571.69 25.3947L552.651 25.3829V162.965ZM591.776 46.8597C596.796 49.3662 596.665 48.0951 596.666 94.079C596.667 145.29 597.483 142.712 581.282 142.712H574.31V45.6361L581.82 45.6375C587.571 45.6382 589.904 45.9245 591.776 46.8597Z" fill="#C1C1C1"/>
<path fill-rule="evenodd" clip-rule="evenodd" d="M0 162.965H52.4002V153.886H9.78836L9.43204 25.732L0 25.3192V162.965ZM89.1621 26.6049C88.9637 27.2775 85.7827 41.8123 82.093 58.9054C76.0118 87.0818 65.2914 136.254 63.5167 144.109C58.8741 164.664 58.8077 162.965 64.249 162.965H68.3292L69.5106 157.553C70.1604 154.576 71.4194 148.997 72.3081 145.156C73.1975 141.315 74.2022 136.915 74.5418 135.379L75.1587 132.585L117.078 132.216L120.14 146.019C124.263 164.6 123.419 162.965 128.887 162.965C131.395 162.965 133.446 162.73 133.446 162.441C133.445 162.153 130.965 150.761 127.934 137.125C124.903 123.489 118.072 92.7688 112.755 68.8574L103.087 25.3828H96.3053C90.4505 25.3828 89.4744 25.5497 89.1621 26.6049ZM142.995 25.8486C142.738 26.1042 142.529 57.0902 142.529 94.7054V163.097L161.567 162.8C195.7 162.265 202.684 155.758 202.593 124.572C202.537 105.446 198.734 96.6581 188.36 91.68L184.236 89.7014L186.264 88.8173C204.881 80.6985 205.669 37.7722 187.37 28.5597C182.117 25.9156 145.185 23.6592 142.995 25.8486ZM178.301 35.251C187.491 37.2107 190.276 43.6016 189.916 61.9C189.513 82.4047 186.477 85.1864 163.663 85.963L152.31 86.3492V34.4618H163.454C169.584 34.4618 176.265 34.8173 178.301 35.251ZM106.155 82.536C111.174 104.56 115.28 122.866 115.28 123.217C115.28 123.587 107.2 123.855 96.0671 123.855C85.4997 123.855 76.8537 123.744 76.8537 123.607C76.8537 123.471 80.5978 106.579 85.1734 86.0691C89.749 65.5596 94.05 46.2646 94.7319 43.1916C95.9099 37.8762 95.9958 37.7233 96.5002 40.0489C96.7916 41.3933 101.136 60.5124 106.155 82.536ZM179.938 96.1741C190.009 99.349 192.441 104.79 192.465 124.205C192.499 149.956 189.458 153.322 165.759 153.764L152.31 154.015V94.3471L164.362 94.7054C172.545 94.9484 177.545 95.4198 179.938 96.1741Z" fill="#C6C6C6"/>
<path fill-rule="evenodd" clip-rule="evenodd" d="M293.126 1.34821C282.937 2.93076 276.086 5.15442 266.02 10.1437C259.752 13.2508 259.578 13.4541 263.575 13.0071C268.997 12.4002 277.446 16.0395 300.08 28.732C355.346 59.7222 386.515 65.2779 380.123 42.9993C378.494 37.3214 383.411 45.2363 385.683 51.9485C393.765 75.8291 374.875 84.3739 339.389 72.8889C320.442 66.7564 311.913 62.9453 282.917 47.6541C259.42 35.2626 245.392 29.9032 239.997 31.2567C233.307 32.9349 219.066 57.9169 216.252 72.9134L215.792 75.364L218.533 75.1028C222.326 74.741 227.063 76.7384 252.221 89.3031C336.551 131.42 386.215 134.999 398.688 99.8564C406.314 78.3727 391.962 40.4635 374.848 36.8843C368.961 35.6523 362.18 32.3112 351.083 25.173C307.913 -2.59768 310.824 -1.40064 293.126 1.34821ZM214.959 101.973C211.745 105.185 220.165 132.757 226.371 139.345C234.805 148.298 276.851 170.005 298.334 176.497C340.932 189.369 373.575 174.544 393.427 133.309C396.778 126.349 397.313 123.754 394.585 127.698C371.073 161.694 308.689 154.199 229.165 107.823C219.154 101.984 216.175 100.758 214.959 101.973Z" fill="#C1C1C1"/>
</svg>
