<?xml version="1.0" encoding="UTF-8" standalone="no"?><svg width="747" height="203" viewBox="0 0 747 203" fill="none" xmlns="http://www.w3.org/2000/svg">
<path fill-rule="evenodd" clip-rule="evenodd" d="M509.085 2.57916C469.476 13.7442 463.016 87.4902 500.067 105.527C512.563 111.61 538.334 110.595 551.55 103.499C557.752 100.169 558.031 99.0152 554.555 91.0452C550.346 81.3922 550.911 81.6092 539.533 85.2782C512.641 93.9492 498.347 81.6982 500.457 51.7872C502.173 27.4732 514.582 18.4262 538.068 24.3652C547.624 26.7812 547.122 27.0512 551.122 17.3512C556.351 4.67116 532.01 -3.88184 509.085 2.57916ZM589.125 2.74416C575.554 7.10716 566.946 23.3642 570.66 37.6212C573.686 49.2402 581.256 55.2342 605.656 65.3342C620.875 71.6332 624.559 82.0892 613.165 86.6482C605.748 89.6162 600.16 88.8952 576.911 81.9732C572.292 80.5972 572.071 80.8082 568.315 90.1822C564.254 100.32 566.565 102.697 584.996 107.35C643.053 122.007 669.964 68.2612 616.09 45.2482C598.016 37.5272 594.156 34.7862 594.156 29.6662C594.156 22.1392 602.997 20.4042 621.156 24.3682C635.367 27.4702 634.031 27.9722 637.3 18.3062C640.684 8.29716 640.707 8.34316 630.548 4.54816C621.869 1.30616 596.973 0.222156 589.125 2.74416ZM685.156 2.87616C646.055 17.0132 644.497 92.8722 683.011 107.321C721.371 121.712 752.13 89.5491 745.217 42.2752C740.573 10.5112 713.378 -7.32784 685.156 2.87616ZM171.823 2.93516C170.284 4.47316 171.091 85.6862 172.699 91.1012C177.014 105.63 182.165 107.691 215.124 108.08C246.083 108.445 244.156 109.162 244.156 97.2772C244.156 86.7742 245.319 87.2682 220.567 87.2682C201.198 87.2682 199.175 87.1042 197.017 85.3572L194.656 83.4462L194.071 2.26816H183.28C177.345 2.26816 172.189 2.56816 171.823 2.93516ZM286.445 4.51816C285.285 5.78516 281.892 14.6332 278.68 24.7682C275.543 34.6682 271.919 45.9182 270.628 49.7682C262.584 73.7512 253.89 102.107 253.782 104.712L253.656 107.768L264.257 108.05C276.773 108.384 276.125 108.854 279.588 96.9062C280.991 92.0662 282.394 87.6922 282.706 87.1872C283.018 86.6822 290.382 86.2682 299.069 86.2682H314.865L316.972 93.5182C318.131 97.5052 319.366 101.987 319.716 103.477C320.758 107.912 322.133 108.359 333.801 108.053L344.656 107.768L344.465 104.996C344.359 103.471 342.275 96.0462 339.831 88.4962C334.265 71.2922 322.497 34.5442 317.554 18.9312C312.218 2.07316 312.432 2.26816 299.258 2.26816C289.383 2.26816 288.336 2.45216 286.445 4.51816ZM360.464 3.46216C357.155 5.06216 357.23 3.88216 357.041 56.8222C356.838 113.645 355.648 108.437 368.744 108.056L378.656 107.768L379.656 51.0372L388.656 71.2292C399.774 96.1712 399.853 96.2682 409.052 96.2682C419.221 96.2682 421.442 92.9292 437.262 53.8552L439.656 47.9412L440.656 107.768L450.878 108.053C463.607 108.407 462.303 114.663 461.947 54.9292L461.656 6.09016L459.295 4.17916C455.596 1.18416 441.236 1.41016 437.727 4.51816C435.352 6.62116 429.305 19.7432 414.915 54.0252C412.085 60.7662 409.487 65.9412 409.142 65.5252C408.798 65.1092 407.241 61.6182 405.683 57.7682C383.091 1.93715 377.505 -4.77184 360.464 3.46216ZM710.12 24.5182C725.259 32.2802 726.404 72.9742 711.813 84.6842C700.923 93.4242 685.518 86.7742 681.435 71.5692C673.191 40.8752 689.583 13.9882 710.12 24.5182ZM303.248 44.0082C305.327 52.1262 307.506 60.3401 308.092 62.2612C308.677 64.1832 309.156 65.9832 309.157 66.2612C309.157 66.5402 304.545 66.6672 298.907 66.5432C293.269 66.4202 288.729 65.9702 288.819 65.5432C288.909 65.1172 290.802 58.1292 293.025 50.0142C295.248 41.8992 297.366 33.6662 297.731 31.7172C298.671 26.7112 299.018 27.4832 303.248 44.0082Z" fill="#C6C6C6"/>
<path fill-rule="evenodd" clip-rule="evenodd" d="M149 4.33364L149.04 95.5006L151.013 109.153L155.921 119.526L164.294 127.983L172.619 132.862L198.5 143.21L222.5 152.17L276.469 172.001H278V168.071L274.5 166.268L262.5 162.138L243.5 155.237L213.5 144.095L197.5 137.891L181.917 132.021L167.037 124.765L158.822 115.852L154.5 106.501L153.5 3.52664L150.402 2.93164L149 4.33364ZM137 14.1676V101.118L139.207 115.501L144.089 125.881L155.438 136.254L249.495 183.001H252V179.199L232.5 169.785L158.403 133.005L147.288 123.098L142.5 112.501L141.929 14.1876L139.5 13.2956L137 14.1676ZM125.688 23.6466L125 24.3336L125.062 106.501L126.967 121.178L132.248 132.946L142.5 142.62L189.5 177.589L213.702 195.001H216V191.789L211.221 188.03L188.5 171.71L139.126 134.906L132.956 125.591L129.646 115.501L128.5 23.6656L127.438 23.3116L126.375 22.9586L125.688 23.6466ZM112.836 36.8716L113.657 124.501L117.057 136.501L126.788 152.501L153.5 191.742L158.82 198.501L161.281 196.12L147.112 175.501L123.816 140.841L119.106 130.501L117 113.553V34.0006H113.937L112.836 36.8716ZM101.667 44.6676L101 45.3336V198.756L103.684 200.984L105 199.668V44.0006H102.333L101.667 44.6676ZM89.688 54.6466L89 55.3336V128.581L85.911 140.501L78.188 153.501L46.683 199.497L45.767 203.001H48.715L78.495 159.501L86.312 147.501L90.91 137.501L93.051 123.501L92.5 54.6666L90.375 53.9586L89.688 54.6466ZM77 128.638L73.97 138.84L65.5 147.944L15.029 185.501L0 196.392V200.001H0.971L38.5 172.673L66.359 151.563L76.818 141.352L80.378 130.501L81.145 65.0006H77V128.638ZM64.5 134.501L60.388 141.501L50.5 149.091L0.00600004 174.501L0 178.097L52.248 151.665L63.744 143.024L68.492 132.501L68.5 75.5326L65.11 74.8756L64.5 134.501ZM53 134.871L51.174 139.673L45.117 145.73L34.5 151.295L11.5 160.169L0 164.185V167.778L27.5 157.257L38.287 152.917L47.5 147.669L52.264 143.501L55.956 135.501L56 85.0006H53V134.871Z" fill="#B0B0B0"/>
</svg>
