<?xml version="1.0" encoding="UTF-8" standalone="no"?><svg width="2162" height="663" viewBox="0 0 2162 663" fill="none" xmlns="http://www.w3.org/2000/svg">
<path fill-rule="evenodd" clip-rule="evenodd" d="M792.651 203.587V494.299H897.633V544.337H736.637V203.587C736.989 203.587 792.651 203.587 792.651 203.587ZM1095.62 348.062V317.405H1148.82V544.337H1095.62V513.68C1088.57 524.956 1078.36 534.118 1065.32 540.46C1052.29 546.803 1038.9 550.327 1025.51 550.327C1008.25 550.327 992.399 547.156 978.308 540.813C964.568 534.822 951.886 526.013 941.669 514.737C931.453 503.813 923.35 490.775 917.714 476.68C912.077 462.232 908.907 446.728 909.259 430.871C909.259 415.014 912.077 399.861 917.714 385.414C923.35 371.319 931.453 358.281 941.669 347.357C951.886 336.081 964.568 327.272 978.308 321.281C992.752 314.938 1008.25 311.767 1025.51 311.767C1038.9 311.767 1051.94 314.938 1065.32 321.633C1078.71 328.329 1088.57 336.786 1095.62 348.062ZM1090.69 458.709C1093.86 449.899 1095.62 440.385 1095.62 430.871C1095.62 421.004 1093.86 411.842 1090.69 403.033C1087.52 394.576 1082.94 386.823 1076.95 380.128C1070.96 373.433 1063.91 368.147 1055.81 364.624C1047.71 360.747 1038.2 358.633 1028.33 358.633C1018.12 358.633 1009.31 360.747 1001.21 364.624C993.104 368.5 986.058 373.785 980.421 380.128C974.432 386.823 969.853 394.576 967.034 403.033C963.864 411.842 962.455 421.356 962.455 430.871C962.455 440.737 963.864 449.899 967.034 458.709C970.205 467.518 974.432 475.27 980.421 481.613C986.41 488.308 993.456 493.594 1001.21 497.118C1009.31 500.994 1018.47 503.108 1028.33 503.108C1038.55 503.108 1047.71 500.994 1055.81 497.118C1063.91 493.242 1070.96 487.956 1076.95 481.613C1082.94 474.918 1087.52 467.166 1090.69 458.709ZM1190.39 544.337V317.405H1334.47V369.557H1243.58V544.337H1190.39ZM1526.82 348.062V317.405H1580.02V544.337H1526.82V513.68C1519.78 524.956 1509.56 534.118 1496.53 540.46C1483.49 546.803 1470.1 550.327 1456.72 550.327C1439.45 550.327 1423.95 547.156 1409.51 540.813C1395.77 534.822 1383.09 526.013 1372.87 514.737C1362.66 503.813 1354.55 490.775 1348.92 476.68C1343.28 462.232 1340.11 446.728 1340.46 430.871C1340.46 415.014 1343.28 399.861 1348.92 385.414C1354.55 371.319 1362.3 358.281 1372.87 347.357C1383.09 336.081 1395.77 327.272 1409.51 321.281C1423.95 314.938 1439.45 311.767 1456.72 311.767C1470.1 311.767 1483.14 314.938 1496.53 321.633C1509.56 327.976 1519.78 336.786 1526.82 348.062ZM1521.89 458.709C1525.06 449.899 1526.82 440.385 1526.82 430.871C1526.82 421.004 1525.06 411.842 1521.89 403.033C1518.72 394.576 1514.14 386.823 1508.15 380.128C1502.16 373.433 1495.12 368.147 1487.01 364.624C1478.91 360.747 1469.4 358.633 1459.53 358.633C1449.32 358.633 1440.51 360.747 1432.41 364.624C1424.31 368.5 1417.26 373.785 1411.62 380.128C1405.63 386.823 1401.05 394.576 1398.24 403.033C1395.07 411.842 1393.66 421.356 1393.66 430.871C1393.66 440.737 1395.07 449.899 1398.24 458.709C1401.41 467.518 1405.63 475.27 1411.62 481.613C1417.61 488.308 1424.66 493.594 1432.41 497.118C1440.51 500.994 1449.67 503.108 1459.53 503.108C1469.75 503.108 1478.91 500.994 1487.01 497.118C1495.12 493.242 1502.16 487.956 1508.15 481.613C1514.49 474.918 1519.07 467.166 1521.89 458.709ZM1792.8 317.405H1846.7L1759.69 544.337H1693.1L1605.38 317.405H1659.28L1725.87 491.127L1792.8 317.405ZM1962.25 311.767C2034.47 311.767 2083.79 375.9 2074.63 450.604H1898.49C1898.49 470.337 1918.22 508.042 1965.07 508.042C2005.58 508.042 2032.36 472.451 2032.36 472.451L2068.29 500.289C2036.23 534.47 2010.16 550.327 1968.95 550.327C1895.67 550.327 1845.64 503.813 1845.64 430.871C1845.64 364.976 1897.08 311.767 1962.25 311.767ZM1898.49 411.138H2025.66C2025.31 406.909 2018.27 353.7 1961.55 353.7C1905.18 353.7 1898.84 406.909 1898.49 411.138ZM2108.8 544.337V203.587H2162V544.337H2108.8Z" fill="#D3D3D3"/>
<path fill-rule="evenodd" clip-rule="evenodd" d="M643.28 149.673C643.633 150.73 643.633 151.435 643.633 152.492V294.853C643.633 298.729 641.519 301.9 638.348 304.014L518.922 372.728V509.099C518.922 512.975 516.809 516.146 513.638 518.261L264.569 661.679C263.865 662.031 263.512 662.383 262.808 662.383C262.456 662.383 262.456 662.736 262.103 662.736C260.342 663.088 258.58 663.088 256.819 662.736C256.467 662.736 256.114 662.383 256.114 662.383C255.41 662.031 255.058 662.031 254.353 661.679L5.28434 518.261C2.11374 516.499 0 512.975 0 509.099V82.0161C0 80.959 -5.38076e-06 80.2542 0.352284 79.1971C0.352284 78.8447 0.704568 78.4923 0.704568 78.4923C1.05686 77.7876 1.05685 77.4352 1.40914 76.7304C1.76143 76.3781 1.76144 76.0257 2.11373 75.6733C2.46602 75.3209 2.81829 74.9685 3.17058 74.6161C3.52287 74.2638 3.87517 74.2638 4.22746 73.9114C4.57975 73.559 4.93205 73.2066 5.28434 72.8542L129.643 1.32142C132.813 -0.440473 136.688 -0.440473 139.859 1.32142L264.217 72.8542C264.569 73.2066 264.922 73.559 265.274 73.9114C265.626 74.2638 265.978 74.2638 266.331 74.6161C266.683 74.9685 267.035 75.3209 267.388 75.6733C267.74 76.0257 267.74 76.3781 268.092 76.7304C268.444 77.0828 268.445 77.7876 268.797 78.4923C268.797 78.8447 269.149 79.1971 269.149 79.5495C269.501 80.6066 269.501 81.3113 269.501 82.3685V348.767L373.427 288.862V152.492C373.427 151.435 373.427 150.73 373.779 149.673C373.779 149.32 374.131 148.968 374.131 148.616C374.484 147.911 374.484 147.558 374.836 146.854C375.188 146.501 375.188 146.149 375.54 145.797C375.893 145.444 376.245 145.092 376.597 144.739C376.95 144.387 377.302 144.387 377.654 144.035C378.007 143.682 378.359 143.33 378.711 142.978L503.069 71.4448C506.24 69.6829 510.115 69.6829 513.286 71.4448L637.644 142.978C637.996 143.33 638.348 143.682 638.701 144.035C639.053 144.387 639.405 144.387 639.758 144.739C640.11 145.092 640.462 145.444 640.814 145.797C641.167 146.149 641.167 146.501 641.519 146.854C641.871 147.206 641.871 147.911 642.224 148.616C643.28 149.32 643.28 149.32 643.28 149.673ZM622.848 288.51V170.111L518.922 229.663V348.062L622.848 288.51ZM498.489 502.756V384.357L270.206 514.737V634.193L498.489 502.756ZM21.1374 99.9874V502.756L249.421 634.193V514.737L129.995 447.08C129.642 446.728 129.29 446.375 128.938 446.375C128.586 446.023 128.233 446.023 127.881 445.671C127.529 445.318 127.176 444.966 127.176 444.614C126.824 444.261 126.472 443.909 126.472 443.556C126.12 443.204 126.12 442.852 125.767 442.147C125.767 441.794 125.415 441.442 125.415 441.09C125.415 440.737 125.415 440.033 125.063 439.68C125.063 439.328 125.063 438.975 125.063 438.623V160.244L64.8212 125.711L21.1374 99.9874ZM135.279 22.1118L31.706 82.0161L135.279 141.92L238.852 82.0161L135.279 22.1118ZM189.179 394.928L249.421 360.395V99.9874L145.496 159.539V419.947C145.848 420.299 189.179 394.928 189.179 394.928ZM508.706 92.5875L405.133 152.492L508.706 212.396L612.279 152.492C612.631 152.492 508.706 92.5875 508.706 92.5875ZM498.489 230.367L394.564 170.815V289.215L498.489 348.767C498.489 348.414 498.489 230.367 498.489 230.367ZM259.637 496.765L411.826 409.728L487.921 366.385L384.348 306.834L156.064 438.271C156.417 437.918 259.637 496.765 259.637 496.765Z" fill="#D3D3D3"/>
</svg>
