<?xml version="1.0" encoding="UTF-8" standalone="no"?><svg width="1195" height="443" viewBox="0 0 1195 443" fill="none" xmlns="http://www.w3.org/2000/svg">
<path fill-rule="evenodd" clip-rule="evenodd" d="M237.751 1.79418C236.894 2.75618 218.411 48.5992 196.678 103.667C146.388 231.09 151.554 222.04 127.25 225.301L119 226.408V232.226V238.044H156H193V232.159V226.274L187.75 225.608C167.18 222.998 165.569 215.751 178.397 183.544L186.761 162.544L234.296 162.284L281.831 162.025L290.538 184.284C295.327 196.527 300.09 208.514 301.122 210.921C305.261 220.57 300.907 224.425 284.438 225.69L276 226.339V232.192V238.044H323H370V232.193V226.341L358.687 225.784C337.702 224.751 345.55 238.893 294.445 110.018C271.004 50.9072 251.36 1.98218 250.79 1.29418C249.16 -0.674823 239.625 -0.308823 237.751 1.79418ZM0 15.2942V22.0442L8.75 22.0712C31.104 22.1402 43.385 25.0202 46.429 30.9072C48.533 34.9752 48.83 305.872 46.735 309.948C43.434 316.371 37.959 317.949 16.25 318.736L0 319.324V326.684V334.044H124.5C192.975 334.044 249 333.818 249 333.541C249 332.304 261.007 218.134 261.494 214.746L262.039 210.948L255.772 211.246L249.505 211.544L248.253 223.044C242.143 279.154 224.22 305.537 185.5 315.413C161.295 321.587 98.571 320.432 93.594 313.721L91.5 310.897V173.221C91.5 23.2502 91.162 32.1852 97 27.8812C101.131 24.8352 112.425 23.1022 132.75 22.3962L152 21.7272V15.1362V8.54418H76H0V15.2942ZM865 15.2942V22.0442L872.25 22.0612C909.227 22.1502 905.068 18.3452 961.459 103.667C1014.3 183.623 1013.43 161.696 966.555 231.121C911.976 311.96 909.004 314.687 871.565 318.273L859 319.476V326.76V334.044H869.629H880.258L879.624 338.794C869.894 411.715 845.165 427.657 743 426.871C684.299 426.419 691.5 437.232 691.5 349.544V280.544L720.5 280.663C774.63 280.886 782.248 285.842 785.262 322.794L786.425 337.044H792.213H798V273.544V210.044H792.136H786.273L785.575 220.794C783.054 259.607 776.602 264.159 723.176 264.815L690.853 265.213L691.176 202.701C691.594 122.041 682.997 131.75 753.5 132.318C844.022 133.048 859.213 143.623 868.016 212.044C869.827 226.119 869.155 225.044 876.147 225.044H882.256L881.689 221.294C881.377 219.232 878.313 194.931 874.879 167.294L868.637 117.044H757.818C669.825 117.044 647.002 116.787 647.011 115.794C647.032 113.26 638.929 17.4322 638.427 14.2912L637.908 11.0372L491.708 11.2912L345.509 11.5442L341.319 63.0442C339.015 91.3692 337.1 115.331 337.065 116.294C337.01 117.77 337.922 118.044 342.883 118.044H348.765L349.457 110.294C355.392 43.7982 366.255 29.7722 414.818 25.8982C442.73 23.6712 464.875 25.5692 469 30.5432C470.898 32.8312 471.895 299.784 470.029 306.22C467.305 315.621 458.456 318.08 424.75 318.801L401 319.31V326.427V333.544H492H583V326.294V319.044L565.25 319.026C526.473 318.987 516.209 315.954 513.976 303.87C511.911 292.7 513.167 33.9632 515.302 30.7052C520.963 22.0662 581.949 23.3502 602.5 32.5412C622.398 41.4402 628.386 56.1752 634.506 111.294L635.144 117.044H617.572H600V124.544V132.044H613.816C635.09 132.044 644.286 134.479 646.896 140.803C647.724 142.808 647.957 180.378 647.764 280.714L647.5 417.883L645.059 420.482C641.18 424.61 634.268 426.116 616.25 426.76L600 427.34V434.695V442.051L737.715 441.798L875.431 441.544L883.654 391.044C888.177 363.269 892.151 339.082 892.484 337.294L893.091 334.044H933.545H974V326.748V319.451L966.935 318.24C949.76 315.294 939.213 301.973 945.154 290.728C946.346 288.473 1013.71 188.225 1015.08 186.672C1016.1 185.507 1094 302.489 1094 305.195C1094 310.634 1081.74 317.174 1068.75 318.661L1063 319.319V326.432L1063 333.544H1129H1195V326.294V319.044H1185.07C1165.14 319.044 1153.05 315.858 1146.31 308.831C1144.08 306.501 1048.2 162.659 1040.72 150.413C1039.69 148.72 1107.58 49.8682 1114.95 42.3302C1125.11 31.9512 1146.73 23.1132 1162.11 23.0572C1164.1 23.0502 1167.81 22.7582 1170.36 22.4082L1175 21.7722V14.9082V8.04418H1117.5H1060V14.9992V21.9532L1063.75 22.5302C1080.43 25.0932 1090 33.2352 1090 44.8522C1090 48.5462 1088.57 51.1432 1077.63 67.2872C1043.28 117.993 1031.89 134.564 1031.23 134.769C1029.51 135.301 967 39.4942 967 36.3262C967 30.3322 977.743 24.4712 992.25 22.5502L997 21.9212V15.2332V8.54418H931H865V15.2942ZM255.945 96.5442L276.854 149.544L234.772 149.805C211.626 149.949 192.523 149.901 192.321 149.699C192.12 149.497 201.509 125.137 213.187 95.5662C224.864 65.9952 234.557 42.1932 234.727 42.6722C234.896 43.1522 244.444 67.3942 255.945 96.5442Z" fill="#CCCCCC"/>
</svg>
