<?xml version="1.0" encoding="UTF-8" standalone="no"?><svg width="928" height="442" viewBox="0 0 928 442" fill="none" xmlns="http://www.w3.org/2000/svg">
<path fill-rule="evenodd" clip-rule="evenodd" d="M149.495 2.83556C39.0846 24.7676 -8.01236 169.387 77.2796 224.58C112.172 247.158 143.201 242.234 172.495 209.47C212.461 164.771 232.537 170.087 302.001 243.762C343.967 288.273 362.043 268.754 350.095 191.828C330.099 63.0766 245.843 -16.3044 149.495 2.83556Z" fill="#D3D3D3"/>
<path fill-rule="evenodd" clip-rule="evenodd" d="M0.667 237.496C0.3 237.862 0 283.762 0 339.496V440.829H28V236.829H14.667C7.333 236.829 1.033 237.129 0.667 237.496ZM201.015 312.551C201.027 376.811 201.261 389.309 202.549 394.776C208.813 421.353 234.052 440.829 262.23 440.829H271V416.08L262.75 415.64C250.466 414.986 241.916 410.259 235.005 400.301C229.455 392.304 229 388.668 229 352.302C229 311.129 226.327 315.442 252.102 315.018L271 314.708V289.717L229.03 290.329L228.5 237.329L201 236.773L201.015 312.551ZM99.428 289.244C81.932 293.24 55.13 311.208 55.011 319.022C55 319.694 73.394 332.623 75.598 333.493C76.202 333.731 79.871 330.751 83.752 326.87C102.486 308.136 134.613 308.709 144.565 327.954C151.08 340.554 144.579 345.042 118.513 345.939C73.111 347.5 46.731 366.093 48.219 395.484C50.836 447.206 146.829 458.068 170.577 409.329L173.5 403.329V325.329L170.5 319.363C159.087 296.669 126.81 282.99 99.428 289.244ZM338.242 289.772C284.328 304.41 264.321 375.79 302.432 417.535C331.321 449.178 379.44 449.016 409 417.176C416.943 408.62 417.257 409.989 405.514 401.979C392.907 393.379 395.129 393.396 386.427 401.834C363.9 423.677 329.878 417.671 315.958 389.395C308.064 373.361 311.138 370.864 338.792 370.844C385.834 370.81 410.44 356.209 410.44 328.329C410.44 300.109 373.275 280.261 338.242 289.772ZM483.216 289.848C461.33 295.582 443.965 312.508 438.52 333.413C437.257 338.264 437 347.82 437 390.039V440.829H465V390.867C465 334.097 464.995 334.137 473.385 325.02C480.725 317.043 487.159 314.057 499.352 312.968L506.5 312.329L507.062 287.829L498.781 287.884C494.022 287.916 487.402 288.751 483.216 289.848ZM570.047 289.89C548.767 295.462 532.198 311.023 526.08 331.184C524.089 337.746 524 340.242 524 389.434V440.829H551.931L552.5 337.329L554.88 332.537C565.74 310.669 594.973 306.264 611.559 323.996C620.834 333.911 620.461 331.26 620.785 389.579L621.069 440.829H648.914L649.5 339.329L652.101 333.783C666.381 303.339 709.047 307.036 717.489 339.449C718.735 344.232 719 353.633 719 393.039V440.829H747.129L746.768 389.079C746.366 331.373 746.519 332.713 738.739 318.829C719.849 285.118 670.205 277.611 640.608 303.991L635 308.989L629.352 303.955C613.727 290.028 590.531 284.527 570.047 289.89ZM840.075 288.916C787.526 299.226 762.091 361.423 791.575 407.514C822.139 455.293 893.694 451.073 919.427 399.974C947.885 343.465 900.446 277.072 840.075 288.916ZM370.68 315.204C388.16 321.421 387.065 336.364 368.651 342.893C363.284 344.796 359.567 345.155 339.5 345.71C323.754 346.146 315.791 346.749 314.251 347.623L312.002 348.898L314.051 343.614C323.232 319.932 348.43 307.291 370.68 315.204ZM871.325 316.593C902.748 331.331 909.928 377.11 884.76 402.246C854.664 432.304 807.072 409.188 807.012 364.483C806.963 327.711 840.997 302.368 871.325 316.593ZM145.995 382.579C145.989 399.265 145.152 401.791 137.661 407.715C111.83 428.147 60.874 406.029 80.622 382.957C88.047 374.283 95.902 371.816 119.5 370.746C129.95 370.272 139.85 369.46 141.5 368.942C143.15 368.425 144.838 367.962 145.25 367.915C145.662 367.868 145.998 374.466 145.995 382.579Z" fill="#BEBEBE"/>
</svg>
