<?xml version="1.0" encoding="UTF-8" standalone="no"?><svg width="1090" height="168" viewBox="0 0 1090 168" fill="none" xmlns="http://www.w3.org/2000/svg">
<path fill-rule="evenodd" clip-rule="evenodd" d="M146.175 1.84824C145.212 2.52224 144.12 4.28224 143.75 5.75924C143.379 7.23524 137.296 24.6832 130.232 44.5322C123.167 64.3812 113.181 93.8002 108.041 109.908C100.207 134.458 98.5903 138.683 98.0453 136.029C97.1563 131.702 95.6053 130.925 89.1953 131.596C74.4423 133.14 58.3873 134.063 45.7823 134.09L31.8693 134.121L32.7013 75.3712C33.1593 43.0592 33.5663 14.4402 33.6053 11.7752C33.7153 4.16624 32.2413 3.46324 16.4263 3.58324C-1.95071 3.72224 -0.99871 0.0312424 1.08429 63.1212C1.43829 73.8462 1.33729 99.8412 0.85829 120.889C0.0922899 154.56 0.172291 159.437 1.52029 161.495L3.05329 163.833L43.3743 164.575C65.5503 164.983 85.4953 165.259 87.6953 165.189C129.426 163.862 124.533 165.722 128.698 149.606C130.118 144.114 131.972 137.709 132.82 135.371L134.36 131.121H159.752H185.144L186.552 133.871C187.326 135.383 188.926 140.221 190.107 144.621C195.427 164.441 195.063 164.121 212.327 164.121C232.972 164.121 233.914 173.159 204.299 87.0412C179.113 13.8012 175.911 4.75324 174.284 2.21424C173.074 0.324244 148.801 0.00823939 146.175 1.84824ZM399.294 1.28024C397.124 2.08324 397.937 0.0302429 383.134 42.1212C368.532 83.6412 345.205 155.619 345.199 159.171C345.192 163.687 346.611 164.121 361.372 164.121C377.394 164.121 376.6 164.619 380.115 152.371C381.259 148.383 383.108 141.971 384.224 138.121L386.253 131.121H411.601C441.065 131.121 437.951 129.745 442.229 144.656C443.959 150.687 446.355 157.421 447.553 159.621L449.731 163.621L463.865 163.898C479.597 164.206 481.988 163.416 480.712 158.332C480.367 156.957 469.713 125.634 457.037 88.7262C444.361 51.8182 432.665 17.7412 431.046 12.9982C426.675 0.196241 427.568 0.814239 413.281 0.710239C406.568 0.661239 400.274 0.918239 399.294 1.28024ZM534.695 1.14325C477.056 12.7122 459.216 108.554 506.635 151.892C526.666 170.199 560.367 172.848 584.515 158.015L589.334 155.054L594.769 158.164C598.891 160.522 601.191 161.202 604.288 160.978C607.32 160.759 608.618 161.126 609.333 162.402C610.17 163.899 612.096 164.121 624.259 164.121H638.224L640.066 161.092C641.079 159.426 643.155 153.239 644.678 147.342C646.202 141.446 648.078 135.384 648.847 133.871L650.246 131.121H675.198C704.504 131.121 701.277 129.506 706.171 146.621C707.901 152.671 710.101 158.971 711.06 160.621L712.803 163.621L725.749 163.909C740.814 164.245 742.967 163.879 743.725 160.856C744.188 159.011 701.956 33.5432 692.237 7.89024C689.455 0.547239 689.961 0.761239 675.472 0.822239C662.025 0.879239 660.047 1.59124 658.725 6.85624C658.368 8.27924 652.303 25.6832 645.247 45.5322C638.191 65.3812 627.305 97.5962 621.056 117.121L609.695 152.621L609.051 143.621C608.697 138.671 608.359 123.345 608.301 109.562C608.169 78.2742 609.688 80.9082 591.656 80.6972C575.416 80.5082 574.195 81.0582 574.195 88.5672C574.195 93.4172 575.901 116.386 576.702 122.315L577.201 126.009L569.948 129.56C538.958 144.735 512.269 123.481 512.21 83.5812C512.142 37.4802 548.628 17.8972 574.436 50.1822C583.828 61.9322 585.101 61.8842 595.153 49.3932C605.553 36.4702 605.107 33.0582 591.195 19.0922C576.036 3.87524 554.759 -2.88375 534.695 1.14325ZM764.695 3.15625C762.495 3.62325 758.607 4.03224 756.056 4.06324C746.76 4.17924 747.144 2.10424 748.432 45.2652C749.316 74.8462 749.274 91.1822 748.237 121.533C746.626 168.679 744.968 164.121 763.728 164.121C781.5 164.121 779.663 170.273 779.363 111.766L779.112 62.6212L811.748 111.621C829.697 138.571 845.085 161.408 845.944 162.371C848.616 165.366 871.627 164.95 873.565 161.871C875.654 158.553 876.61 8.15824 874.561 5.23324C872.804 2.72524 849.317 2.34624 845.445 4.76324C842.707 6.47224 842.575 13.6762 844.267 69.1612C844.856 88.4932 845.144 104.506 844.906 104.744C844.667 104.982 830.86 84.5772 814.224 59.3992C797.587 34.2212 782.332 11.1462 780.325 8.12124C776.309 2.06824 773.705 1.24125 764.695 3.15625ZM885.923 4.14024C884.113 5.60624 880.32 22.6842 880.224 29.8002C880.154 35.0142 897.912 36.8462 915.609 33.4492L918.524 32.8902L917.887 96.6222C917.129 172.407 915.204 164.121 933.575 164.121C953.634 164.121 951.739 169.171 950.36 119.38C949.74 96.9622 949.518 68.4482 949.867 56.0152L950.502 33.4092L966.643 33.8992C987.075 34.5192 986.199 35.1452 985.998 20.0752C985.85 9.05925 985.599 8.11724 983.395 10.3212C982.462 11.2542 982.195 11.1432 982.195 9.82124C982.195 8.88624 982.87 8.12124 983.695 8.12124C985.975 8.12124 985.486 5.35824 982.907 3.66824C980.938 2.37824 978.953 2.33024 968.657 3.32724C955.032 4.64724 915.054 4.69824 898.786 3.41724C889.459 2.68324 887.593 2.78824 885.923 4.14024ZM230.968 5.10424C228.978 6.71524 228.876 7.95124 228.41 36.2472L227.923 65.7112L232.74 77.1662C237.172 87.7072 269.17 156.704 272.023 161.871C273.732 164.967 297.749 165.376 300.482 162.356C303.558 158.957 340.222 79.9152 344.2 68.1052C346.84 60.2692 346.251 8.99924 343.547 11.2432C342.505 12.1082 342.195 11.9942 342.195 10.7432C342.195 9.85124 342.87 9.12124 343.695 9.12124C345.728 9.12124 345.59 6.78024 343.445 4.88624C340.951 2.68324 317.795 2.66725 314.287 4.86525L311.879 6.37424L312.529 33.8272L313.179 61.2802L308.61 72.4512C288.374 121.925 287.305 122.838 276.304 100.077C258.857 63.9802 259.887 68.9972 261.582 28.3522C262.704 1.47124 263.876 3.35724 246.074 3.39724C235.394 3.42124 232.665 3.72924 230.968 5.10424ZM979.195 4.62124C979.195 5.44624 978.465 6.12124 977.573 6.12124C976.244 6.12124 976.175 5.85024 977.195 4.62124C977.88 3.79624 978.61 3.12124 978.817 3.12124C979.025 3.12124 979.195 3.79624 979.195 4.62124ZM991.974 5.09924C990.079 6.63424 990.064 7.51824 991.282 46.1892C992.253 77.0272 992.267 91.4132 991.346 111.666C988.661 170.648 983.133 163.837 1034.2 164.464C1056.47 164.737 1076.27 165.251 1078.2 165.606C1085.01 166.863 1085.19 166.45 1088.78 141.118C1089.29 137.526 1089.03 136.135 1087.5 134.248L1085.58 131.881L1061.64 133.616C1020.72 136.582 1022.8 137.588 1022.36 114.655L1022.03 97.2852L1027.86 96.5552C1033.74 95.8202 1066.25 96.6602 1073.71 97.7402C1080.68 98.7492 1081.87 96.8152 1083.13 82.4392C1084.71 64.4332 1084.39 64.0072 1070.2 65.2302C1065.52 65.6332 1052.78 65.9982 1041.88 66.0412L1022.06 66.1212L1022.38 50.2022C1022.78 29.9092 1018.2 31.9522 1059.73 33.5372C1087.89 34.6112 1086.8 35.0662 1085.78 22.6782C1084.93 12.3392 1083.75 7.24324 1081.73 5.23024C1079.32 2.81824 994.943 2.69524 991.974 5.09924ZM168.475 74.1212C172.069 84.8462 175.164 94.7462 175.353 96.1212L175.695 98.6212L159.945 98.8962C140.958 99.2282 141.938 102.393 151.832 72.7092C160.767 45.9032 158.966 45.7502 168.475 74.1212ZM420.708 74.3512C424.904 86.8522 428.054 97.5402 427.707 98.1012C426.739 99.6682 396.195 99.4682 396.195 97.8942C396.195 95.2562 411.689 50.2152 412.362 50.8972C412.755 51.2952 416.511 61.8492 420.708 74.3512ZM682.008 68.8712C690.389 93.4212 691.433 96.9272 690.709 98.0992C689.764 99.6282 659.195 99.4742 659.195 97.9402C659.195 72.3392 675.917 51.0312 682.008 68.8712ZM1021.2 98.5622C1021.2 98.8052 1020.75 99.2812 1020.2 99.6212C1019.65 99.9612 1019.2 99.7622 1019.2 99.1802C1019.2 98.5982 1019.65 98.1212 1020.2 98.1212C1020.75 98.1212 1021.2 98.3192 1021.2 98.5622Z" fill="#C9C9C9"/>
</svg>
