<?xml version="1.0" encoding="UTF-8" standalone="no"?><svg width="438" height="514" viewBox="0 0 438 514" fill="none" xmlns="http://www.w3.org/2000/svg">
<g clip-path="url(#clip0_46_6921)">
<path fill-rule="evenodd" clip-rule="evenodd" d="M207.048 2.0319C167.922 9.4789 149.789 30.3429 147.878 70.1159C147.2 84.2359 147.426 90.9039 149.723 124.616C152.41 164.049 150.657 173.812 137.786 191.116C102.708 238.277 101.073 241.285 84.0023 290.116C82.0793 295.616 78.0653 305.492 75.0833 312.063C68.5083 326.548 66.8613 334.643 68.6443 343.708L69.8613 349.89L65.3653 354.503C62.8933 357.04 59.2703 361.871 57.3153 365.239C50.9453 376.208 44.9393 380.065 26.8833 384.781C3.84735 390.798 0.000342369 396.781 5.82435 417.537C8.54635 427.238 8.03235 433.541 3.30235 448.448C-4.45465 472.893 1.82135 477.966 48.7063 485.147C62.6913 487.289 66.2823 488.305 94.2063 498.021C138.772 513.528 154.352 512.477 165.206 493.235C168.904 486.678 234.311 482.552 263.206 487.053C282.974 490.132 283.298 490.244 286.073 494.98C298.837 516.76 325.843 518.805 347.206 499.608C356.744 491.037 374.898 479.328 401.486 464.599C442.062 442.121 447.137 429.062 420.358 416.039C406.813 409.452 401.926 402.146 400.71 386.661C399.866 375.92 397.345 369.033 391.96 362.755L389.077 359.394L391.083 350.755C401.561 305.631 392.695 283.821 322.331 181.612C308.64 161.726 306.371 154.386 304.715 124.616C301.979 75.4469 298.979 59.6029 288.618 39.6159C273.385 10.2299 241.401 -4.5061 207.048 2.0319ZM247.205 69.7209C262.939 77.1169 267.638 101.068 256.542 117.322C251.782 124.295 249.397 125.189 243.927 122.051C243.773 121.963 244.982 120.461 246.614 118.715C254.284 110.504 252.147 95.4599 242.565 90.2099C233.384 85.1799 223.355 96.7789 225.721 109.69C227.246 118.009 216.953 113.997 214.93 105.485C209.406 82.2389 228.597 60.9739 247.205 69.7209ZM182.34 74.5349C195.252 82.4079 198.686 104.753 188.078 111.874L182.95 115.317L183.903 111.864C186.61 102.06 177.842 88.1099 170.181 90.0329C160.254 92.5239 161.404 115.289 171.714 120.39L175.621 122.323L172.635 125.184C168.802 128.857 165.78 127.404 160.999 119.591C147.448 97.4419 163.686 63.1599 182.34 74.5349ZM222.206 125.577C259.304 139.455 258.126 143.548 210.234 167.176C185.831 179.216 158.76 151.242 178.716 134.607C199.251 117.491 200.112 117.312 222.206 125.577ZM265.318 163.116C281.683 193.189 310.044 263.108 316.832 290.116C320.635 305.243 320.519 333.077 316.577 351.718L315.604 356.319L308.405 356.22C294.725 356.032 293.809 358.217 292.967 393.052L292.412 415.987L283.303 425.096C259.546 448.853 235.092 457.627 192.706 457.604C173.112 457.593 174.091 458.015 161.993 444.375C151.552 432.605 150.641 430.69 155.456 430.631C158.386 430.595 164.554 422.815 165.231 418.301C166.602 409.154 160.874 401.932 138.224 384.25C109 361.437 103.648 354.154 102.106 335.096C100.735 318.16 104.908 299.935 114.7 280.091C118.507 272.377 124.954 256.844 129.029 245.573C137.32 222.637 140.127 216.524 145.934 208.753C154.502 197.286 160.938 179.629 161.11 167.116L161.206 160.116L167.622 166.394C189.289 187.596 195.858 187.811 229.515 168.425C257.622 152.235 259.265 151.992 265.318 163.116ZM87.3673 366.76C93.6983 371.065 99.3783 378.152 108.648 393.316C126.154 421.951 133.421 433.032 140.469 441.844C157.261 462.836 158.432 474.754 144.991 487.877C135.306 497.333 126.57 496.266 87.7063 480.876C72.4673 474.842 69.3843 474.007 47.3603 469.955C13.0733 463.647 14.0213 464.578 19.8093 442.889C23.0753 430.652 23.0213 431.962 21.1273 410.429L20.4513 402.742L23.7143 400.757C25.5093 399.666 31.0793 397.797 36.0923 396.604C58.0313 391.385 59.5393 390.396 67.3013 376.156C75.0393 361.962 78.1603 360.5 87.3673 366.76ZM317.32 372.381C317.932 372.785 318.647 376.521 318.908 380.683C320.781 410.559 363.368 412.234 378.856 383.04C382.918 375.383 386.02 379.26 387.561 393.922C388.897 406.634 392.891 414.446 400.542 419.311C424.214 434.365 424.278 435.3 402.413 446.615C371.699 462.512 364.86 466.796 351.77 478.347C316.074 509.843 296.12 496.341 305.615 447.116C310.09 423.916 310.848 415.716 310.514 394.118L310.206 374.203L312.706 372.924C315.62 371.434 315.844 371.408 317.32 372.381Z" fill="#336BAD"/>
</g>
<defs>
<clipPath id="clip0_46_6921">
<rect width="437" height="513" fill="white" transform="translate(0.5 0.5)"/>
</clipPath>
</defs>
</svg>
