<?xml version="1.0" encoding="UTF-8" standalone="no"?><svg width="1920" height="704" viewBox="0 0 1920 704" fill="none" xmlns="http://www.w3.org/2000/svg">
<path d="M1375.2 202.6C1391.3 186.1 1442.6 133.8 1489.3 86.3L1574.3 0L1655.5 0.3C1700.3 0.5 1737.1 0.9 1737.5 1.3C1737.8 1.7 1736.4 4.2 1734.3 6.8C1732.2 9.5 1685.1 57.3 1629.5 113.1C1574 169 1524.2 219 1509.5 234L1514 239.3C1516.4 242.2 1525 252 1533 261.1C1541 270.2 1568 300.8 1593 329.1C1618 357.4 1655.3 399.7 1676 423.1C1696.6 446.5 1717.4 470.1 1722.1 475.6C1726.8 481.1 1732.5 488.1 1734.9 491.1C1738 495.2 1738.8 496.8 1737.8 497.3C1737.1 497.7 1720.5 498.1 1701 498C1681.5 498 1645.9 497.6 1578.5 496.3L1575.5 492.9C1573.8 491 1541 454.2 1502.5 411C1464.1 367.9 1417.7 315.9 1399.5 295.6C1381.3 275.2 1361.8 253.3 1356.2 246.8C1350.6 240.4 1346 234.5 1346 233.8C1346 233.2 1359.1 219.1 1375.2 202.6Z" fill="#24558E"/>
<path d="M7.5998 31.6C4.5998 19 1.8998 6.7 1.4998 4.3L0.799805 0L65.8998 0.3C107.4 0.5 131.3 1 132 1.6C132.6 2.2 133.7 5.3 134.4 8.6C135.2 11.9 140.4 36.4 146 63.1C151.6 89.8 160.8 133.4 166.5 160.1C172.2 186.8 177.8 213.6 179 219.6C180.2 225.6 184.2 244.8 188 262.1C191.8 279.4 196.5 301.9 198.5 312.1C200.5 322.3 202.4 331.5 202.7 332.6C203.1 334.2 203.4 334.3 204 333.1C204.4 332.3 212.6 299.6 222.3 260.6C228.126 236.931 235.352 207.626 241.63 182.164C245.697 165.672 249.366 150.792 252 140.1C257.243 118.814 264.324 89.9332 269.647 68.2204C271.126 62.1882 272.469 56.7092 273.6 52.1C278.8 30.9 283.9 10.6 287 0.1L352.4 0.4C388.4 0.5 418.1 0.8 418.4 1.1C418.7 1.4 420.4 6.6 422 12.6C423.7 18.7 439.7 84.4 457.6 158.6C462.62 179.439 467.539 199.862 472.072 218.687L472.074 218.696L472.096 218.788C483.715 267.033 492.802 304.766 494.6 312.1C497 322.3 499.2 331.3 499.5 332.1C499.8 332.9 500.2 333.4 500.5 333.1C500.7 332.8 503.4 321.6 506.4 308.1C509.4 294.6 513.5 275.5 515.5 265.6C517.4 255.7 523.1 228.9 528 206.1C532.892 183.338 544.361 129.482 553.553 86.3181L553.6 86.1C562.8 42.9 570.7 6.2 571.1 4.6C571.7 2.3 572.7 1.4 575.2 0.8C577 0.4 604.1 0.1 635.5 0.1C666.8 0.1 694.9 0.5 703 1.6L702.4 5.1C702.135 6.7757 698.915 20.5077 695.071 36.8978C694.557 39.0918 694.031 41.3333 693.5 43.6C690.699 55.3515 686.007 74.8515 681.14 95.0795L681.134 95.1061C678.01 108.091 674.814 121.375 672 133.1C664.8 163.1 656.7 197.1 654 208.6C651.3 220.1 637.2 279.6 622.5 340.6L619.297 353.98C605.962 409.696 594.16 459.003 592.4 466.6C590.5 474.9 587.8 485.3 584 498.1L438.5 498L408.2 376.3C398.433 337.173 387.913 294.797 379.542 261.074L379.504 260.921L379.387 260.452C373.515 236.798 368.716 217.465 366 206.6C359.5 180.2 353.6 157.2 353 155.6C352.5 154 351.8 152.8 351.6 153.1C351.3 153.4 339.9 199.3 326.1 255.1C312.3 310.9 295.2 380.7 288 410.1C280.8 439.5 273.6 469 272 475.6C270.4 482.2 268.4 490 266 498.1H118L117 493.4C116.5 490.7 110.4 465 103.5 436.1C96.5998 407.2 87.9998 371 84.3998 355.6C80.7998 340.2 70.4998 296.8 61.4998 259.1C52.4998 221.4 43.6998 184.3 41.9998 176.6C40.2998 168.9 36.3998 152.5 33.3998 140.1C30.9327 130.232 26.819 112.827 23.1755 97.4113L23.1752 97.4101L23.1749 97.4087L23.174 97.4048L23.1737 97.4038L23.1731 97.4009L23.1728 97.3998C22.2391 93.4492 21.3361 89.6285 20.4998 86.1C18.8124 78.98 16.8371 70.6236 14.8875 62.3761L14.8823 62.3541C12.0966 50.5695 9.36403 39.0098 7.5998 31.6Z" fill="white"/>
<path d="M762 498.1V0.1H901V496.6L879.8 497.4C868.1 497.8 836.8 498.1 762 498.1Z" fill="white"/>
<path d="M980 101.9C980 157.8 980.4 269.9 980.8 350.9L981.5 498.2C1088 497.8 1119.2 497.2 1119.7 496.8C1120.2 496.3 1120.6 455 1120.8 405L1121 314.1L1306.5 498.1C1422.8 498.1 1458.9 497.8 1461.8 497.4C1464.7 497 1467.1 496.2 1467.1 495.6C1467.1 495.1 1462.7 489.9 1457.4 484.1C1452.1 478.3 1438.7 464.2 1427.6 452.7C1418.88 443.5 1398.77 422.664 1378.6 401.765C1373.34 396.312 1368.07 390.856 1363 385.6C1338.6 360.3 1298 318.2 1273 292.1C1247.9 266 1225.2 242.2 1222.5 239.3L1217.5 234C1224.17 227.294 1235.06 216.321 1248.85 202.436L1249.11 202.175C1272.51 178.606 1304.17 146.719 1337.6 113.1C1390.9 59.4 1437.2 12.5 1440.5 8.8C1443.8 5.1 1446.1 1.7 1445.7 1.3C1445.2 0.9 1408.2 0.5 1363.5 0.4L1282 0.1L1124.5 158.4C1123.6 133 1123.3 97.4 1123.2 62.9L1123 0.1H980V101.9Z" fill="white"/>
<path d="M1780.8 447.9C1780.4 420.3 1780 308.2 1780 198.9V0.2H1920V498.2H1781.5L1780.8 447.9Z" fill="white"/>
<path d="M1336 541.7C1326.4 546.3 1318.1 550.2 1317.6 550.3C1317.2 550.5 1317.5 552.1 1318.4 553.9C1319.3 555.7 1320.5 557.3 1321 557.6C1321.6 557.9 1329.3 555.4 1338.3 552.2L1354.5 546.2C1378.9 555.4 1386.2 558 1386.4 557.9C1386.44 557.826 1386.62 557.575 1386.91 557.196L1386.91 557.191L1386.91 557.19C1387.39 556.544 1388.15 555.531 1388.9 554.4C1390.1 552.6 1390.9 551 1390.8 550.7C1390.6 550.5 1382.3 546.5 1372.3 541.7C1362.2 537 1353.9 533.2 1353.8 533.2C1353.6 533.3 1345.7 537.1 1336 541.7Z" fill="white"/>
<path d="M1179.5 571.7C1182.8 570.8 1188.2 569.7 1191.5 569.2C1194.8 568.8 1207.9 568.3 1220.5 568.2C1233.2 568.2 1247.4 568.6 1252 569.2C1256.7 569.7 1263 570.9 1266 571.7C1269.2 572.5 1273.3 574.6 1275.8 576.6C1278.8 579.1 1280.6 581.7 1282 585.6C1283.3 589.1 1284.1 594.2 1284.5 607.6L1267.5 608.2L1266.9 601.4C1266.6 597.7 1265.4 592.8 1264.4 590.7C1263.4 588.5 1261.2 585.9 1259.5 585C1257.9 584 1253.8 582.7 1250.5 582.2C1247.2 581.7 1237.3 580.9 1228.5 580.6C1219.2 580.2 1207.4 580.4 1200.3 581C1192.1 581.8 1186.1 582.9 1182.3 584.4C1177.7 586.2 1176.2 587.4 1174.4 590.6C1173.2 592.8 1171.6 597.3 1171 600.6C1170.3 604.4 1169.9 617.7 1169.9 636.6C1170 657.6 1170.4 668.3 1171.3 672.1C1172 675.1 1173.4 678.9 1174.3 680.4C1175.3 681.9 1177.3 683.9 1178.8 684.8C1180.3 685.8 1184 687.2 1187 687.9C1190.4 688.7 1201.6 689.5 1215.5 689.8C1232.1 690.2 1241.1 690 1247.5 689.1C1253.2 688.2 1257.6 687 1259.5 685.7C1261.2 684.5 1263.3 682 1264.3 680.1C1265.2 678.2 1266.5 672.6 1267.1 667.6C1267.7 662.7 1268 656.3 1267 648.1H1216V636.1H1285V649.9C1285 657.4 1284.5 666.8 1284 670.6C1283.4 674.5 1282.2 680 1281.3 683C1280.3 686 1278.1 690.1 1276.3 692.3C1274.1 694.8 1271.3 696.8 1267.8 698C1264.9 699.1 1258.9 700.5 1254.5 701.2C1249.2 702.1 1237.7 702.6 1219.5 702.5C1198.8 702.5 1190.8 702.1 1185 700.9C1180.9 700 1175.1 698.4 1172 697.3C1168.3 695.9 1165.2 693.8 1162.5 690.9C1159.8 687.9 1157.8 684.3 1156.3 679.6C1155 675.7 1153.6 668.6 1153 663.6C1152.5 658.7 1152.1 644.7 1152.1 632.6C1152.1 620.5 1152.5 607.6 1153.1 603.9C1153.6 600.2 1154.9 594.5 1156.1 591.4C1157.2 588.2 1159.3 584 1160.9 582.1C1162.4 580.2 1165.9 577.4 1168.6 575.9C1171.3 574.4 1176.2 572.5 1179.5 571.7Z" fill="white"/>
<path d="M1634 568.8C1632.1 569 1626.7 569.9 1622 570.7C1617.4 571.6 1611.3 573.3 1608.5 574.5C1605.8 575.7 1601.6 578.5 1599.2 580.7C1596.8 582.8 1593.9 586.3 1592.9 588.4C1591.9 590.4 1590.5 596.5 1589.9 601.9C1589.2 608.1 1589 621.1 1589.3 637.6C1589.7 656 1590.3 665.7 1591.5 670.6C1592.3 674.5 1593.8 679.9 1594.7 682.6C1595.8 685.8 1598 689.2 1600.7 691.9C1604.1 695.2 1606.7 696.6 1612.8 698.5C1617 699.8 1624.6 701.4 1629.5 702C1634.5 702.6 1645.5 703.1 1654 703.1C1662.6 703.1 1674.5 702.7 1680.5 702.1C1686.6 701.5 1694.7 700.3 1698.5 699.4C1703.5 698.2 1706.5 696.9 1708.9 694.7C1710.8 693 1713.1 690 1714 688.1C1715 686.2 1716.3 682.3 1716.9 679.4C1717.5 676.5 1718 670.3 1718 665.6V657.1L1700.6 657.6C1700.4 672.9 1699.9 675.6 1698 679.6C1696.3 683.1 1694.5 685.1 1692 686.4C1690.1 687.3 1684.5 688.6 1679.5 689.2C1674.1 689.9 1662.7 690.1 1650.5 689.8C1639.5 689.5 1628.5 688.8 1626 688.2C1623.6 687.6 1620 686.1 1618 684.9C1616.1 683.6 1613.8 681 1612.8 679.1C1611.9 677.2 1610.6 671.6 1609.9 666.6C1609.1 661 1608.6 646.8 1608.6 628.6C1608.5 608.3 1608.9 598.4 1609.8 595.4C1610.5 593 1612.1 589.9 1613.4 588.4C1614.9 586.7 1617.9 585 1621.6 583.8C1625.3 582.7 1634.2 581.6 1645.5 580.9C1659.1 580.1 1666.4 580.1 1675 581C1681.9 581.7 1687.9 582.8 1689.9 583.9C1691.9 584.9 1694.2 587.3 1695.4 589.6C1696.7 592.2 1697.6 596.5 1698 601.6L1698.5 609.6L1716 610.1C1716 599.7 1715.4 593.9 1714.5 590.6C1713.7 587.3 1711.7 582.8 1710.2 580.6C1708.7 578.4 1705.4 575.5 1703 574.2C1700.5 572.9 1696.3 571.1 1693.5 570.3C1689.9 569.2 1681.7 568.8 1663 568.6C1649 568.5 1636 568.5 1634 568.8Z" fill="white"/>
<path d="M532 702.1V569.1H550V702.1H532Z" fill="white"/>
<path d="M581 702.1H599C599.1 582.3 599.2 581.6 601.1 584.1C602.1 585.5 615.3 603.3 630.4 623.6C645.5 644 664.7 669.8 673.2 681.1L688.5 701.6L718 702.1V569.1H700L699.5 689.1C683.3 667 663.4 640 644.8 614.9L611 569.1H581V702.1Z" fill="white"/>
<path d="M734 583.1V569.1H857V583.1H805L804.5 701.6L787 702.1V583.1H734Z" fill="white"/>
<path d="M866.3 635.4L866.5 701.6L969 702.1V689.1H884L884.5 639.6L966 639.1V627.1H884V582.1H969V569.1H866L866.3 635.4Z" fill="white"/>
<path d="M993.1 702.2V569.2H1011.1V688.2H1093.1V702.2H993.1Z" fill="white"/>
<path d="M1109.3 635.4L1109.6 701.7H1127.6L1128.1 569.2H1109.1L1109.3 635.4Z" fill="white"/>
<path d="M1301 702.1V569.1H1404V582.1H1319V627.1H1401V639.1L1319.5 639.6L1319 689.1H1404V702.1H1301Z" fill="white"/>
<path d="M1427.3 635.4L1427.5 701.6H1445.5L1446.5 582.7C1451.9 590.076 1461.92 603.597 1473.97 619.871L1474.07 620.004C1480.94 629.288 1488.48 639.462 1496.2 649.9L1535 702.1L1564.5 701.6L1565 569.1H1546.3C1546.2 661 1546.1 688 1546.1 688.4C1546 688.8 1538.3 678.6 1528.8 665.7C1524.23 659.537 1517.24 650.081 1509.56 639.688C1501.29 628.498 1492.23 616.221 1484.5 605.8L1457.5 569.2L1427 569.1L1427.3 635.4Z" fill="white"/>
<path d="M1739.1 702.2V569.2H1757.1V702.2H1739.1Z" fill="white"/>
<path fill-rule="evenodd" clip-rule="evenodd" d="M1803.6 634.7C1787.6 670.8 1774.5 700.7 1774.3 701.2C1774.2 701.8 1778.1 702.1 1783.6 701.9L1793.1 701.7L1805.1 674.2L1886.6 674.1C1895.7 694.7 1898.7 701 1899 701.4C1899.3 701.9 1903.7 702.1 1908.7 701.9L1917.9 701.7L1858.3 569.7L1832.6 569.2L1803.6 634.7ZM1828.2 621.7C1818.7 643.7 1811.1 661.7 1811.2 661.8C1811.4 662 1827.1 662 1846.2 661.8L1880.9 661.6C1854.7 601.9 1846.8 584 1846.3 583.2C1845.8 582.4 1839.5 595.6 1828.2 621.7Z" fill="white"/>
</svg>
