<?xml version="1.0" encoding="UTF-8" standalone="no"?><svg width="1920" height="704" viewBox="0 0 1920 704" fill="none" xmlns="http://www.w3.org/2000/svg">
<path d="M1375.2 203.5C1391.3 187 1442.6 134.7 1489.3 87.1999L1574.3 0.899902L1655.5 1.1999C1700.3 1.3999 1737.1 1.7999 1737.5 2.1999C1737.8 2.5999 1736.4 5.0999 1734.3 7.6999C1732.2 10.3999 1685.1 58.1999 1629.5 114C1574 169.9 1524.2 219.9 1509.5 234.9L1514 240.2C1516.4 243.1 1525 252.9 1533 262C1541 271.1 1568 301.7 1593 330C1618 358.3 1655.3 400.6 1676 424C1696.6 447.4 1717.4 471 1722.1 476.5C1726.8 482 1732.5 489 1734.9 492C1738 496.1 1738.8 497.7 1737.8 498.2C1737.1 498.6 1720.5 499 1701 498.9C1681.5 498.9 1645.9 498.5 1578.5 497.2L1575.5 493.8C1573.8 491.9 1541 455.1 1502.5 411.9C1464.1 368.8 1417.7 316.8 1399.5 296.5C1381.3 276.1 1361.8 254.2 1356.2 247.7C1350.6 241.3 1346 235.4 1346 234.7C1346 234.1 1359.1 220 1375.2 203.5Z" fill="#132C49"/>
<path d="M7.5998 32.4999C4.5998 19.8999 1.8998 7.5999 1.4998 5.1999L0.799805 0.899902L65.8998 1.1999C107.4 1.3999 131.3 1.8999 132 2.4999C132.6 3.0999 133.7 6.1999 134.4 9.4999C135.2 12.7999 140.4 37.2999 146 63.9999C151.6 90.6999 160.8 134.3 166.5 161C172.2 187.7 177.8 214.5 179 220.5C180.2 226.5 184.2 245.7 188 263C191.8 280.3 196.5 302.8 198.5 313C200.5 323.2 202.4 332.4 202.7 333.5C203.1 335.1 203.4 335.2 204 334C204.4 333.2 212.6 300.5 222.3 261.5C228.126 237.831 235.352 208.526 241.63 183.064C245.697 166.572 249.366 151.692 252 141C257.243 119.714 264.324 90.8331 269.647 69.1203C271.126 63.0881 272.469 57.6091 273.6 52.9999C278.8 31.7999 283.9 11.4999 287 0.999902L352.4 1.2999C388.4 1.3999 418.1 1.6999 418.4 1.9999C418.7 2.2999 420.4 7.4999 422 13.4999C423.7 19.5999 439.7 85.2999 457.6 159.5C462.62 180.339 467.539 200.762 472.072 219.587L472.074 219.596L472.096 219.688C483.715 267.933 492.802 305.666 494.6 313C497 323.2 499.2 332.2 499.5 333C499.8 333.8 500.2 334.3 500.5 334C500.7 333.7 503.4 322.5 506.4 309C509.4 295.5 513.5 276.4 515.5 266.5C517.4 256.6 523.1 229.8 528 207C532.892 184.238 544.361 130.381 553.553 87.218L553.6 86.9999C562.8 43.7999 570.7 7.0999 571.1 5.4999C571.7 3.1999 572.7 2.2999 575.2 1.6999C577 1.2999 604.1 0.999902 635.5 0.999902C666.8 0.999902 694.9 1.3999 703 2.4999L702.4 5.9999C702.135 7.6756 698.915 21.4076 695.071 37.7977C694.557 39.9917 694.031 42.2332 693.5 44.4999C690.699 56.2514 686.007 75.7514 681.14 95.9794L681.134 96.006C678.01 108.991 674.814 122.274 672 134C664.8 164 656.7 198 654 209.5C651.3 221 637.2 280.5 622.5 341.5L619.297 354.879C605.962 410.596 594.16 459.903 592.4 467.5C590.5 475.8 587.8 486.2 584 499L438.5 498.9L408.2 377.2C398.433 338.073 387.913 295.697 379.542 261.974L379.504 261.821L379.387 261.351C373.515 237.697 368.716 218.365 366 207.5C359.5 181.1 353.6 158.1 353 156.5C352.5 154.9 351.8 153.7 351.6 154C351.3 154.3 339.9 200.2 326.1 256C312.3 311.8 295.2 381.6 288 411C280.8 440.4 273.6 469.9 272 476.5C270.4 483.1 268.4 490.9 266 499H118L117 494.3C116.5 491.6 110.4 465.9 103.5 437C96.5998 408.1 87.9998 371.9 84.3998 356.5C80.7998 341.1 70.4998 297.7 61.4998 260C52.4998 222.3 43.6998 185.2 41.9998 177.5C40.2998 169.8 36.3998 153.4 33.3998 141C30.9327 131.132 26.819 113.727 23.1755 98.3112L23.1752 98.31L23.1749 98.3086L23.174 98.3047L23.1737 98.3037L23.1731 98.3008L23.1728 98.2997C22.2391 94.3491 21.3361 90.5285 20.4998 86.9999C18.8124 79.88 16.8371 71.5235 14.8875 63.276L14.8823 63.254C12.0966 51.4694 9.36403 39.9097 7.5998 32.4999Z" fill="#B2B2B2"/>
<path d="M762 499V0.999902H901V497.5L879.8 498.3C868.1 498.7 836.8 499 762 499Z" fill="#B2B2B2"/>
<path d="M980 102.8C980 158.7 980.4 270.8 980.8 351.8L981.5 499.1C1088 498.7 1119.2 498.1 1119.7 497.7C1120.2 497.2 1120.6 455.9 1120.8 405.9L1121 315L1306.5 499C1422.8 499 1458.9 498.7 1461.8 498.3C1464.7 497.9 1467.1 497.1 1467.1 496.5C1467.1 496 1462.7 490.8 1457.4 485C1452.1 479.2 1438.7 465.1 1427.6 453.6C1418.88 444.4 1398.77 423.564 1378.6 402.665C1373.34 397.212 1368.07 391.755 1363 386.5C1338.6 361.2 1298 319.1 1273 293C1247.9 266.9 1225.2 243.1 1222.5 240.2L1217.5 234.9C1224.17 228.194 1235.06 217.221 1248.85 203.336L1249.11 203.075C1272.51 179.506 1304.17 147.619 1337.6 114C1390.9 60.2999 1437.2 13.3999 1440.5 9.6999C1443.8 5.9999 1446.1 2.5999 1445.7 2.1999C1445.2 1.7999 1408.2 1.3999 1363.5 1.2999L1282 0.999902L1124.5 159.3C1123.6 133.9 1123.3 98.2999 1123.2 63.7999L1123 0.999902H980V102.8Z" fill="#B2B2B2"/>
<path d="M1780.8 448.8C1780.4 421.2 1780 309.1 1780 199.8V1.0999H1920V499.1H1781.5L1780.8 448.8Z" fill="#B2B2B2"/>
<path d="M1336 542.6C1326.4 547.2 1318.1 551.1 1317.6 551.2C1317.2 551.4 1317.5 553 1318.4 554.8C1319.3 556.6 1320.5 558.2 1321 558.5C1321.6 558.8 1329.3 556.3 1338.3 553.1L1354.5 547.1C1378.9 556.3 1386.2 558.9 1386.4 558.8C1386.44 558.726 1386.62 558.475 1386.91 558.096L1386.91 558.091L1386.91 558.09C1387.39 557.444 1388.15 556.431 1388.9 555.3C1390.1 553.5 1390.9 551.9 1390.8 551.6C1390.6 551.4 1382.3 547.4 1372.3 542.6C1362.2 537.9 1353.9 534.1 1353.8 534.1C1353.6 534.2 1345.7 538 1336 542.6Z" fill="#B2B2B2"/>
<path d="M1179.5 572.6C1182.8 571.7 1188.2 570.6 1191.5 570.1C1194.8 569.7 1207.9 569.2 1220.5 569.1C1233.2 569.1 1247.4 569.5 1252 570.1C1256.7 570.6 1263 571.8 1266 572.6C1269.2 573.4 1273.3 575.5 1275.8 577.5C1278.8 580 1280.6 582.6 1282 586.5C1283.3 590 1284.1 595.1 1284.5 608.5L1267.5 609.1L1266.9 602.3C1266.6 598.6 1265.4 593.7 1264.4 591.6C1263.4 589.4 1261.2 586.8 1259.5 585.9C1257.9 584.9 1253.8 583.6 1250.5 583.1C1247.2 582.6 1237.3 581.8 1228.5 581.5C1219.2 581.1 1207.4 581.3 1200.3 581.9C1192.1 582.7 1186.1 583.8 1182.3 585.3C1177.7 587.1 1176.2 588.3 1174.4 591.5C1173.2 593.7 1171.6 598.2 1171 601.5C1170.3 605.3 1169.9 618.6 1169.9 637.5C1170 658.5 1170.4 669.2 1171.3 673C1172 676 1173.4 679.8 1174.3 681.3C1175.3 682.8 1177.3 684.8 1178.8 685.7C1180.3 686.7 1184 688.1 1187 688.8C1190.4 689.6 1201.6 690.4 1215.5 690.7C1232.1 691.1 1241.1 690.9 1247.5 690C1253.2 689.1 1257.6 687.9 1259.5 686.6C1261.2 685.4 1263.3 682.9 1264.3 681C1265.2 679.1 1266.5 673.5 1267.1 668.5C1267.7 663.6 1268 657.2 1267 649H1216V637H1285V650.8C1285 658.3 1284.5 667.7 1284 671.5C1283.4 675.4 1282.2 680.9 1281.3 683.9C1280.3 686.9 1278.1 691 1276.3 693.2C1274.1 695.7 1271.3 697.7 1267.8 698.9C1264.9 700 1258.9 701.4 1254.5 702.1C1249.2 703 1237.7 703.5 1219.5 703.4C1198.8 703.4 1190.8 703 1185 701.8C1180.9 700.9 1175.1 699.3 1172 698.2C1168.3 696.8 1165.2 694.7 1162.5 691.8C1159.8 688.8 1157.8 685.2 1156.3 680.5C1155 676.6 1153.6 669.5 1153 664.5C1152.5 659.6 1152.1 645.6 1152.1 633.5C1152.1 621.4 1152.5 608.5 1153.1 604.8C1153.6 601.1 1154.9 595.4 1156.1 592.3C1157.2 589.1 1159.3 584.9 1160.9 583C1162.4 581.1 1165.9 578.3 1168.6 576.8C1171.3 575.3 1176.2 573.4 1179.5 572.6Z" fill="#B2B2B2"/>
<path d="M1634 569.7C1632.1 569.9 1626.7 570.8 1622 571.6C1617.4 572.5 1611.3 574.2 1608.5 575.4C1605.8 576.6 1601.6 579.4 1599.2 581.6C1596.8 583.7 1593.9 587.2 1592.9 589.3C1591.9 591.3 1590.5 597.4 1589.9 602.8C1589.2 609 1589 622 1589.3 638.5C1589.7 656.9 1590.3 666.6 1591.5 671.5C1592.3 675.4 1593.8 680.8 1594.7 683.5C1595.8 686.7 1598 690.1 1600.7 692.8C1604.1 696.1 1606.7 697.5 1612.8 699.4C1617 700.7 1624.6 702.3 1629.5 702.9C1634.5 703.5 1645.5 704 1654 704C1662.6 704 1674.5 703.6 1680.5 703C1686.6 702.4 1694.7 701.2 1698.5 700.3C1703.5 699.1 1706.5 697.8 1708.9 695.6C1710.8 693.9 1713.1 690.9 1714 689C1715 687.1 1716.3 683.2 1716.9 680.3C1717.5 677.4 1718 671.2 1718 666.5V658L1700.6 658.5C1700.4 673.8 1699.9 676.5 1698 680.5C1696.3 684 1694.5 686 1692 687.3C1690.1 688.2 1684.5 689.5 1679.5 690.1C1674.1 690.8 1662.7 691 1650.5 690.7C1639.5 690.4 1628.5 689.7 1626 689.1C1623.6 688.5 1620 687 1618 685.8C1616.1 684.5 1613.8 681.9 1612.8 680C1611.9 678.1 1610.6 672.5 1609.9 667.5C1609.1 661.9 1608.6 647.7 1608.6 629.5C1608.5 609.2 1608.9 599.3 1609.8 596.3C1610.5 593.9 1612.1 590.8 1613.4 589.3C1614.9 587.6 1617.9 585.9 1621.6 584.7C1625.3 583.6 1634.2 582.5 1645.5 581.8C1659.1 581 1666.4 581 1675 581.9C1681.9 582.6 1687.9 583.7 1689.9 584.8C1691.9 585.8 1694.2 588.2 1695.4 590.5C1696.7 593.1 1697.6 597.4 1698 602.5L1698.5 610.5L1716 611C1716 600.6 1715.4 594.8 1714.5 591.5C1713.7 588.2 1711.7 583.7 1710.2 581.5C1708.7 579.3 1705.4 576.4 1703 575.1C1700.5 573.8 1696.3 572 1693.5 571.2C1689.9 570.1 1681.7 569.7 1663 569.5C1649 569.4 1636 569.4 1634 569.7Z" fill="#B2B2B2"/>
<path d="M532 703V570H550V703H532Z" fill="#B2B2B2"/>
<path d="M581 703H599C599.1 583.2 599.2 582.5 601.1 585C602.1 586.4 615.3 604.2 630.4 624.5C645.5 644.9 664.7 670.7 673.2 682L688.5 702.5L718 703V570H700L699.5 690C683.3 667.9 663.4 640.9 644.8 615.8L611 570H581V703Z" fill="#B2B2B2"/>
<path d="M734 584V570H857V584H805L804.5 702.5L787 703V584H734Z" fill="#B2B2B2"/>
<path d="M866.3 636.3L866.5 702.5L969 703V690H884L884.5 640.5L966 640V628H884V583H969V570H866L866.3 636.3Z" fill="#B2B2B2"/>
<path d="M993.1 703.1V570.1H1011.1V689.1H1093.1V703.1H993.1Z" fill="#B2B2B2"/>
<path d="M1109.3 636.3L1109.6 702.6H1127.6L1128.1 570.1H1109.1L1109.3 636.3Z" fill="#B2B2B2"/>
<path d="M1301 703V570H1404V583H1319V628H1401V640L1319.5 640.5L1319 690H1404V703H1301Z" fill="#B2B2B2"/>
<path d="M1427.3 636.3L1427.5 702.5H1445.5L1446.5 583.6C1451.9 590.976 1461.92 604.497 1473.97 620.77L1474.07 620.904C1480.94 630.188 1488.48 640.362 1496.2 650.8L1535 703L1564.5 702.5L1565 570H1546.3C1546.2 661.9 1546.1 688.9 1546.1 689.3C1546 689.7 1538.3 679.5 1528.8 666.6C1524.23 660.436 1517.24 650.981 1509.56 640.588C1501.29 629.398 1492.23 617.121 1484.5 606.7L1457.5 570.1L1427 570L1427.3 636.3Z" fill="#B2B2B2"/>
<path d="M1739.1 703.1V570.1H1757.1V703.1H1739.1Z" fill="#B2B2B2"/>
<path fill-rule="evenodd" clip-rule="evenodd" d="M1803.6 635.6C1787.6 671.7 1774.5 701.6 1774.3 702.1C1774.2 702.7 1778.1 703 1783.6 702.8L1793.1 702.6L1805.1 675.1L1886.6 675C1895.7 695.6 1898.7 701.9 1899 702.3C1899.3 702.8 1903.7 703 1908.7 702.8L1917.9 702.6L1858.3 570.6L1832.6 570.1L1803.6 635.6ZM1828.2 622.6C1818.7 644.6 1811.1 662.6 1811.2 662.7C1811.4 662.9 1827.1 662.9 1846.2 662.7L1880.9 662.5C1854.7 602.8 1846.8 584.9 1846.3 584.1C1845.8 583.3 1839.5 596.5 1828.2 622.6Z" fill="#B2B2B2"/>
</svg>
