<?xml version="1.0" encoding="UTF-8" standalone="no"?><svg width="677" height="248" viewBox="0 0 677 248" fill="none" xmlns="http://www.w3.org/2000/svg">
<path d="M297.429 0.0676358C295.403 0.148165 284.427 0.436626 273.037 0.708261C152.723 3.58326 91.7503 6.57845 67.2151 10.8224C29.0926 17.4162 -1.1971 36.7035 0.036378 53.6025C1.24106 70.153 24.7779 101.648 56.5458 129.22C81.8345 151.165 88.8226 154.458 143.254 170.088C193.25 184.444 198.688 187.076 205.46 200.182C210.269 209.494 214.359 225.568 214.359 235.176C214.359 235.304 214.359 235.422 214.325 235.53C213.96 236.764 209.449 236.764 153.611 236.764C101.815 236.764 94.1836 236.764 93.0605 239.473C92.9645 239.699 92.9165 239.944 92.8925 240.208C92.8637 240.493 92.8637 240.802 92.8637 241.135C92.8637 241.699 92.8637 242.189 93.0269 242.617C94.1356 245.506 102.746 245.506 169.488 245.506L188.11 245.524C231.675 245.593 243.602 245.611 246.069 240.784C246.712 239.526 246.707 237.939 246.458 235.938C246.343 235.047 246.184 234.075 246.007 233.012L245.949 232.688C245.771 231.582 245.57 230.384 245.402 229.083C239.762 186.092 229.693 177.129 165.807 158.248C128.831 147.321 101.92 137.657 103.778 135.97C104.714 135.119 110.396 134.024 119.002 132.851L112.071 124.569C109.36 125.023 106.83 125.485 104.498 125.951C102.16 126.419 100.02 126.891 98.1 127.366C92.4894 128.753 85.0021 127.207 88.3762 125.359C89.7921 124.583 92.5374 123.748 96.3386 122.883C97.7784 122.556 99.3719 122.224 101.105 121.89C103.408 121.444 105.952 120.993 108.702 120.542L101.959 112.485C91.4095 114.657 80.5578 117.171 79.5259 117.81C79.3531 117.919 78.3116 117.09 77.2125 115.971C76.411 115.155 75.9359 114.593 75.7583 114.229C75.6239 113.947 75.6671 113.785 75.8687 113.717C78.1484 112.947 81.4457 112.018 85.3621 111.018C89.1729 110.044 93.5693 109.002 98.1816 107.975L91.3039 99.7539C85.8421 101.072 80.5434 102.488 75.3743 104.008C70.2628 105.511 68.8134 105.937 67.8487 105.432C67.4695 105.232 67.1672 104.887 66.7448 104.407C65.0314 102.457 64.945 102.135 66.0537 101.821C66.5 101.696 69.9653 100.622 73.7617 99.4318C78.0572 98.0869 82.7512 96.766 87.7331 95.4919L81.0233 87.4751L77.7885 88.3681C76.3102 88.7852 74.8512 89.2083 73.4113 89.6374C71.2035 90.2972 69.0486 90.9715 66.9416 91.6614C59.5551 94.0797 59.1664 94.1578 58.5664 93.3525C49.8025 81.6301 39.4212 55.0508 40.6402 47.4823C42.1761 37.9763 52.5766 31.2143 73.3057 26.2419C91.1935 21.9498 95.9306 21.5736 196.178 16.4847C223.862 15.0797 431.162 14.2371 457.348 15.4222C496.277 17.1854 524.551 24.3849 534.875 35.1614C536.487 36.8453 568.26 38.4186 568.26 36.814C568.26 32.3032 540.01 14.9979 528.453 12.4282C507.45 7.75994 457.852 4.01595 385.557 1.64095C354.394 0.616915 305.593 -0.253278 297.429 0.0676358Z" fill="#D1D1D1"/>
<path d="M134.84 130.949L129.897 131.498L122.736 122.94C127.3 122.303 132.196 121.687 137.365 121.095L142.486 130.151C139.851 130.415 137.298 130.682 134.84 130.949Z" fill="#D1D1D1"/>
<path d="M152.536 129.187C157.94 128.69 163.537 128.208 169.186 127.756L165.504 118.359C159.236 118.874 153.16 119.429 147.348 120.02L152.536 129.187Z" fill="#D1D1D1"/>
<path d="M198.002 125.743C191.782 126.109 185.307 126.54 178.799 127.018L175.113 117.611C181.76 117.123 188.571 116.683 195.468 116.298L198.002 125.743Z" fill="#D1D1D1"/>
<path d="M207.404 125.234C216.797 124.77 225.277 124.497 231.992 124.493C242.8 124.487 244.274 123.905 244.274 119.634C244.274 115.141 240.175 114.446 218.361 115.241C213.859 115.404 209.357 115.594 204.875 115.809L207.404 125.234Z" fill="#D1D1D1"/>
<path d="M203.593 111.026C213.471 110.515 222.681 110.225 230.557 110.225C241.538 110.224 242.431 110.048 243.559 107.675C244.735 105.199 244.188 103.054 242.013 101.631C239.806 100.183 222.691 100.389 201.059 101.577L203.593 111.026Z" fill="#D1D1D1"/>
<path d="M191.671 102.137C184.539 102.594 177.1 103.137 169.685 103.748L173.342 113.086C180.373 112.505 187.385 111.991 194.196 111.564L191.671 102.137Z" fill="#D1D1D1"/>
<path d="M190.073 96.1938C182.538 96.6818 174.868 97.2599 167.395 97.9054L163.748 88.5893C171.317 87.9174 179.241 87.3249 187.558 86.8068L190.073 96.1938Z" fill="#D1D1D1"/>
<path d="M199.466 95.6301C211.44 94.9691 222.686 94.5785 231.771 94.5688C242.724 94.5568 244.274 93.9859 244.274 89.9631C244.274 85.1085 240.286 84.4282 217.118 85.3309C210.149 85.6025 203.43 85.9114 196.951 86.2611L199.466 95.6301Z" fill="#D1D1D1"/>
<path d="M186.137 81.5208C177.815 82.0664 169.478 82.6999 161.703 83.3813L158.06 74.0797C166.359 73.2383 174.878 72.5292 183.575 71.9595L186.137 81.5208Z" fill="#D1D1D1"/>
<path d="M195.525 80.9438C207.802 80.2395 219.556 79.7672 228.877 79.6626C243.184 79.5015 243.52 79.4138 244.077 75.6878C244.855 70.5148 243.055 70.0412 223.794 70.3441C213.336 70.5087 203.041 70.8645 192.967 71.4018L195.525 80.9438Z" fill="#D1D1D1"/>
<path d="M136.645 101.107C143.086 100.29 150.276 99.5039 157.835 98.7768L154.197 89.4991C149.114 90.0172 144.195 90.5761 139.419 91.1758C136.774 91.5087 134.173 91.8537 131.61 92.2131L136.645 101.107Z" fill="#D1D1D1"/>
<path d="M152.085 105.332C154.725 105.072 157.403 104.82 160.105 104.576L163.767 113.919C157.384 114.5 151.063 115.129 144.953 115.79L139.765 106.623C143.729 106.178 147.857 105.747 152.085 105.332Z" fill="#D1D1D1"/>
<path d="M123.854 78.5015C131.807 77.2311 140.057 76.1001 148.562 75.1121L152.152 84.2732C145.399 84.945 139.357 85.6434 134.514 86.3357C132.599 86.6097 130.689 86.8958 128.774 87.1926L123.854 78.5015Z" fill="#D1D1D1"/>
<path d="M134.999 116.919L129.844 107.808C126.815 108.195 123.936 108.588 121.248 108.986C119.443 109.253 117.725 109.521 116.103 109.791L114.586 110.05L112.292 110.461L119.381 118.929C124.248 118.247 129.494 117.572 134.999 116.919Z" fill="#D1D1D1"/>
<path d="M114.188 80.1398L119.088 88.7996C111.764 90.0917 104.57 91.5352 97.7449 93.0821L90.9487 84.9583C94.6252 84.0833 98.4024 83.2443 102.276 82.4414C106.154 81.6374 110.128 80.8693 114.188 80.1398Z" fill="#D1D1D1"/>
<path d="M121.853 93.6806L126.825 102.468L124.353 102.856C121.805 103.27 119.064 103.752 116.218 104.28C113.67 104.755 111.039 105.267 108.395 105.804L101.416 97.4643C107.949 96.0809 114.74 94.8224 121.853 93.6806Z" fill="#D1D1D1"/>
<path fill-rule="evenodd" clip-rule="evenodd" d="M254.736 46.554C254.516 46.7735 254.336 91.1784 254.336 145.231V243.509H351.459V213.516H293.305V46.1538H274.22C263.723 46.1538 254.955 46.3338 254.736 46.554ZM548.798 98.321C542.735 99.9658 538.419 102.584 532.964 107.925L528.318 112.475V101.324L489.649 101.641L489.344 243.509H528.318L528.328 196.27C528.34 145.044 528.389 144.179 531.644 137.522C536.948 126.675 549.862 124.373 557.64 132.888C564.131 139.995 564.279 141.447 564.285 198.069L564.29 243.509H602.659L602.669 196.27C602.681 145.363 602.726 144.524 605.858 137.68C611.926 124.417 629.082 124.357 635.265 137.578C637.978 143.376 638.031 144.479 638.031 195.249V243.509H677V197.083C677 147.829 676.748 141.967 674.251 133.269C662.371 91.8724 616.372 84.1078 597.935 120.387C596.324 123.558 596.651 123.677 593.895 118.911C584.633 102.891 564.999 93.9264 548.798 98.321ZM404.526 98.7373C369.877 106.165 353.811 139.236 359.177 192.086C366.1 260.261 457.736 268.741 475.405 202.842C477.275 195.865 478.182 160.224 476.756 149.711C471.932 114.127 439.5 91.2402 404.526 98.7373ZM426.756 129.388C444.304 138.506 444.117 207.089 426.52 215.735C406.961 225.346 397.676 211.415 397.651 172.425C397.626 134.055 407.536 119.403 426.756 129.388Z" fill="#C8C8C8"/>
</svg>
