<?xml version="1.0" encoding="UTF-8" standalone="no"?><svg width="201" height="322" viewBox="0 0 201 322" fill="none" xmlns="http://www.w3.org/2000/svg">
<g clip-path="url(#clip0_46_6923)">
<path fill-rule="evenodd" clip-rule="evenodd" d="M35.7731 4.793C35.4611 7.131 34.9491 14.893 34.6361 22.043C34.3231 29.193 33.8211 37.815 33.5201 41.203L32.9731 47.362L43.7931 47.703C96.7141 49.367 94.0521 120.001 40.9831 122.281L29.3521 122.781L28.7331 127.302C28.3921 129.788 28.1131 133.334 28.1131 135.183V138.543H42.1131H56.1131V148.043V157.543H41.7441H27.3751L26.7551 161.293C26.4141 163.356 26.1301 167.18 26.1241 169.793L26.1131 174.543H101.113H176.113L176.102 169.793C176.096 167.18 175.812 163.356 175.471 161.293L174.851 157.543H160.482H146.113V148.043V138.543H160.113H174.113V135.183C174.113 133.334 173.834 129.788 173.493 127.302L172.874 122.781L161.243 122.281C108.2 120.002 105.538 49.366 158.433 47.703L169.253 47.362L168.706 41.203C168.405 37.815 167.903 29.193 167.59 22.043C167.277 14.893 166.765 7.131 166.453 4.793L165.886 0.542999H151.647H137.409L133.011 8.511C127.791 17.969 128.044 17.969 122.727 8.512L118.528 1.043L99.3461 0.770996L80.1651 0.5L75.5141 8.504C70.1401 17.753 70.5161 17.77 64.9671 8.017L60.7151 0.542999H48.5281H36.3401L35.7731 4.793ZM108.192 62.583C116.174 66.655 116.106 66.266 116.106 107.543C116.106 142.204 116.005 144.207 114.118 147.302C108.229 156.961 93.9971 156.961 88.1081 147.302C85.0601 142.303 85.0301 72.831 88.0741 67.839C92.1221 61.2 100.957 58.892 108.192 62.583ZM19.9111 67.867C-0.378878 77.154 7.64411 101.867 31.3951 103.24C55.9961 104.661 69.2651 92.041 60.1751 75.867C55.5481 67.635 31.0531 62.767 19.9111 67.867ZM150.613 67.966C133.685 75.553 137.215 99.187 155.798 102.68C184.378 108.05 204.448 89.235 188.299 72.211C182.984 66.608 159.536 63.967 150.613 67.966ZM22.9731 194.924C-9.34688 201.877 -5.73688 272.543 26.9391 272.543H31.8741L32.2841 263.188C32.9801 247.274 34.5151 246.272 57.4951 246.727L73.4011 247.043L75.8561 250.094L78.3101 253.146L81.6121 249.844L84.9131 246.543H101.113H117.313L120.614 249.844L123.916 253.146L126.37 250.094L128.825 247.043L144.731 246.727C167.711 246.272 169.246 247.274 169.942 263.188L170.352 272.543H175.287C192.813 272.543 200.093 261.096 200.093 233.543C200.093 204.887 191.823 193.543 170.929 193.543C170.48 193.543 170.11 197.031 170.107 201.293C170.095 219.228 168.472 220.543 146.346 220.543H129.849L126.613 217.112L123.377 213.681L122.135 216.001C118.514 222.767 83.7121 222.767 80.0911 216.001L78.8491 213.681L75.6131 217.112L72.3771 220.543H55.8801C33.7541 220.543 32.1311 219.228 32.1191 201.293C32.1121 192.512 32.6011 192.853 22.9731 194.924ZM18.6711 303.543C18.3131 309.868 17.7801 316.281 17.4871 317.793L16.9541 320.543H101.113H185.272L184.75 317.793C184.462 316.281 183.939 309.868 183.587 303.543L182.947 292.043H101.134H19.3221L18.6711 303.543Z" fill="#336BAD"/>
</g>
<defs>
<clipPath id="clip0_46_6923">
<rect width="200" height="321" fill="white" transform="translate(0.5 0.5)"/>
</clipPath>
</defs>
</svg>
