<?xml version="1.0" encoding="UTF-8" standalone="no"?><svg width="308" height="92" viewBox="0 0 308 92" fill="none" xmlns="http://www.w3.org/2000/svg">
<path fill-rule="evenodd" clip-rule="evenodd" d="M131 6.29989C134 4.49989 139 2.39989 142 1.59989C145 0.799885 150.2 0.0998853 153.5 0.0998853C156.8 -0.000114652 162.1 0.699885 165.2 1.49989C168.4 2.29989 173.4 4.19989 176.2 5.69989C179.1 7.09989 183.9 10.7999 186.9 13.8999C190.3 17.3999 193.7 22.2999 195.9 26.9999C199.4 34.2999 199.5 34.8999 199.5 45.9999C199.5 57.2999 199.4 57.5999 195.6 65.4999C192.9 71.0999 190.1 75.0999 186.1 78.8999C182.7 82.2999 177.6 85.6999 173 87.8999C165.7 91.3999 165.1 91.4999 154 91.4999C142.9 91.4999 142.3 91.3999 135 87.8999C130.3 85.6999 125.4 82.2999 121.9 78.8999C118.8 75.8999 115.1 71.0999 113.7 68.1999C112.2 65.3999 110.3 60.3999 109.5 57.2999C108.7 54.0999 108 48.9999 108 45.9999C108 42.9999 108.7 37.7999 109.6 34.4999C110.4 31.1999 112.4 26.2999 114 23.4999C115.5 20.7999 118.8 16.4999 121.1 13.9999C123.5 11.4999 128 7.99989 131 6.29989ZM147 14.4001C144 15.0001 139.9 16.5001 138 17.7001C136.1 18.8001 132.3 22.2001 129.7 25.1001C126.8 28.4001 124.3 32.5001 123.3 35.5001C122.4 38.3001 121.7 43.2001 121.7 46.5001C121.8 50.0001 122.7 54.8001 123.9 58.0001C125.1 61.3001 127.8 65.4001 130.5 68.3001C133 70.9001 137.6 74.2001 140.8 75.7001C145.3 77.8001 148 78.4001 154 78.4001C160.4 78.4001 162.5 78.0001 168.3 75.2001C172.767 73.0667 176.134 70.5667 178.4 67.7001C180.3 65.4001 182.9 61.2001 184.1 58.5001C185.8 54.8001 186.3 51.6001 186.4 46.0001C186.4 40.1001 185.8 37.3001 183.9 33.0001C182.5 30.0001 179.4 25.5001 177 23.1001C174.5 20.7001 170.3 17.7001 167.5 16.5001C164.8 15.2001 160.3 14.0001 157.5 13.7001C154.8 13.4001 150 13.7001 147 14.4001Z" fill="#426CAD"/>
<path d="M24.0004 5.49989C27.0004 3.99989 31.5004 2.09989 34.0004 1.39989C36.7004 0.599885 42.3004 0.199885 48.0004 0.299885C56.5004 0.599885 58.3004 0.999885 65.0004 4.19989C69.1004 6.09989 74.5004 9.49989 77.0004 11.6999C79.5004 13.8999 82.9004 17.8999 84.7004 20.5999C86.4004 23.2999 88.8004 28.2999 89.9004 31.7999C91.3004 35.9999 92.0004 40.5999 92.0004 45.9999C92.0004 50.8999 91.3004 56.2999 90.2004 59.7999C89.2004 62.8999 87.0004 67.7999 85.3004 70.4999C83.6004 73.2999 80.2004 77.2999 77.8004 79.5999C75.5004 81.7999 71.5004 84.7999 69.0004 86.1999C66.5004 87.6999 62.0004 89.4999 59.0004 90.3999C56.0004 91.2999 50.0004 91.9999 45.7004 91.9999C40.5004 91.9999 35.9004 91.2999 31.7004 89.8999C28.3004 88.6999 23.1004 86.1999 20.1004 84.0999C17.1004 82.0999 13.1004 78.6999 11.2004 76.4999C9.30043 74.2999 6.20043 69.2999 4.30043 65.4999C1.50043 59.7999 0.800428 56.8999 0.300428 49.9999C-0.0995719 44.5999 0.200428 39.4999 1.00043 35.9999C1.70043 32.9999 3.60043 27.7999 5.30043 24.4999C7.00043 21.1999 10.6004 16.1999 13.4004 13.3999C16.2004 10.5999 21.0004 7.09989 24.0004 5.49989Z" fill="#426CAD"/>
<path fill-rule="evenodd" clip-rule="evenodd" d="M250 1.59989C247 2.39989 242 4.49989 239 6.29989C236 7.99989 231.5 11.4999 229.1 13.9999C226.8 16.4999 223.5 20.6999 222 23.4999C220.4 26.1999 218.4 31.1999 217.6 34.4999C216.7 37.7999 216 42.9999 216 45.9999C216 48.9999 216.7 54.0999 217.5 57.1999C218.3 60.3999 220.2 65.3999 221.7 68.1999C223.1 71.0999 226.8 75.8999 229.9 78.8999C233.4 82.2999 238.3 85.6999 243 87.8999C250.3 91.3999 250.9 91.4999 262 91.4999C273.1 91.4999 273.7 91.3999 281 87.8999C285.6 85.6999 290.7 82.2999 294.1 78.8999C298.1 75.0999 300.9 71.0999 303.6 65.4999C307.4 57.5999 307.5 57.2999 307.5 45.9999C307.5 34.8999 307.4 34.2999 303.9 26.9999C301.7 22.2999 298.3 17.3999 294.9 13.8999C291.9 10.7999 287.1 7.09989 284.2 5.69989C281.4 4.19989 276.4 2.29989 273.2 1.49989C270.1 0.699885 264.8 -0.000114652 261.5 0.0998853C258.2 0.0998853 253 0.799885 250 1.59989ZM255 14.4001C252 15.0001 247.9 16.5001 246 17.7001C244.1 18.8001 240.3 22.2001 237.7 25.1001C234.8 28.4001 232.3 32.5001 231.3 35.5001C230.4 38.2001 229.7 43.2001 229.7 46.5001C229.8 50.0001 230.7 54.8001 231.9 58.0001C233.1 61.3001 235.8 65.4001 238.5 68.2001C241 70.9001 245.6 74.2001 248.8 75.7001C253.3 77.8001 256 78.4001 262 78.4001C268.4 78.4001 270.5 78.0001 276.3 75.2001C280.767 73.0667 284.134 70.5667 286.4 67.7001C288.3 65.4001 290.9 61.2001 292.1 58.5001C293.8 54.8001 294.3 51.6001 294.4 46.0001C294.4 40.1001 293.8 37.3001 291.9 33.0001C290.5 30.0001 287.4 25.5001 285 23.1001C282.5 20.7001 278.3 17.7001 275.5 16.5001C272.8 15.2001 268.3 14.0001 265.5 13.7001C262.8 13.4001 258 13.7001 255 14.4001Z" fill="#426CAD"/>
</svg>
