<?xml version="1.0" encoding="UTF-8" standalone="no"?><svg width="308" height="92" viewBox="0 0 308 92" fill="none" xmlns="http://www.w3.org/2000/svg">
<path fill-rule="evenodd" clip-rule="evenodd" d="M131 6.20955C134 4.40955 139 2.30955 142 1.50955C145 0.709553 150.2 0.00955332 153.5 0.00955332C156.8 -0.0904467 162.1 0.609553 165.2 1.40955C168.4 2.20955 173.4 4.10955 176.2 5.60955C179.1 7.00955 183.9 10.7096 186.9 13.8096C190.3 17.3096 193.7 22.2096 195.9 26.9096C199.4 34.2096 199.5 34.8096 199.5 45.9096C199.5 57.2096 199.4 57.5096 195.6 65.4096C192.9 71.0096 190.1 75.0096 186.1 78.8096C182.7 82.2096 177.6 85.6096 173 87.8096C165.7 91.3096 165.1 91.4096 154 91.4096C142.9 91.4096 142.3 91.3096 135 87.8096C130.3 85.6096 125.4 82.2096 121.9 78.8096C118.8 75.8096 115.1 71.0096 113.7 68.1096C112.2 65.3095 110.3 60.3096 109.5 57.2096C108.7 54.0096 108 48.9096 108 45.9096C108 42.9096 108.7 37.7096 109.6 34.4096C110.4 31.1096 112.4 26.2096 114 23.4096C115.5 20.7096 118.8 16.4096 121.1 13.9096C123.5 11.4096 128 7.90955 131 6.20955ZM147 14.3097C144 14.9097 139.9 16.4097 138 17.6097C136.1 18.7097 132.3 22.1097 129.7 25.0097C126.8 28.3097 124.3 32.4097 123.3 35.4097C122.4 38.1097 121.7 43.1097 121.7 46.4097C121.8 49.9097 122.7 54.7097 123.9 57.9097C125.1 61.2097 127.8 65.3097 130.5 68.1097C133 70.8097 137.6 74.1097 140.8 75.6097C145.3 77.7097 148 78.3097 154 78.3097C160.4 78.3097 162.5 77.9097 168.3 75.1097C172.767 72.9764 176.134 70.4764 178.4 67.6097C180.3 65.3097 182.9 61.1097 184.1 58.4097C185.8 54.7097 186.3 51.5097 186.4 45.9097C186.4 40.0097 185.8 37.2097 183.9 32.9097C182.5 29.9097 179.4 25.4097 177 23.0097C174.5 20.6097 170.3 17.6097 167.5 16.4097C164.8 15.1097 160.3 13.9097 157.5 13.6097C154.8 13.3097 150 13.6097 147 14.3097Z" fill="#426CAD"/>
<path fill-rule="evenodd" clip-rule="evenodd" d="M24.0004 5.40955C27.0004 3.90955 31.5004 2.00955 34.0004 1.30955C36.7004 0.509553 42.3004 0.109553 48.0004 0.209553C56.5004 0.509553 58.3004 0.909553 65.0004 4.10955C69.1004 6.00955 74.5004 9.40955 77.0004 11.6096C79.5004 13.8096 82.9004 17.8096 84.7004 20.5096C86.4004 23.2096 88.8004 28.2096 89.9004 31.7096C91.3004 35.9096 92.0004 40.5096 92.0004 45.9096C92.0004 50.8096 91.3004 56.2096 90.2004 59.7096C89.2004 62.8096 87.0004 67.7096 85.3004 70.4096C83.6004 73.2096 80.2004 77.2095 77.8004 79.5096C75.5004 81.7095 71.5004 84.7095 69.0004 86.1096C66.5004 87.6096 62.0004 89.4096 59.0004 90.3096C56.0004 91.2096 50.0004 91.9096 45.7004 91.9096C40.5004 91.9096 35.9004 91.2096 31.7004 89.8096C28.3004 88.6096 23.1004 86.1096 20.1004 84.0096C17.1004 82.0096 13.1004 78.6096 11.2004 76.4096C9.30043 74.2096 6.20043 69.2096 4.30043 65.4096C1.50043 59.7096 0.800428 56.8096 0.300428 49.9096C-0.0995719 44.5096 0.200428 39.4096 1.00043 35.9096C1.70043 32.9096 3.60043 27.7096 5.30043 24.4096C7.00043 21.1096 10.6004 16.1096 13.4004 13.3096C16.2004 10.5096 21.0004 7.00955 24.0004 5.40955ZM39.0002 14.3097C36.0002 14.9097 31.9002 16.4097 30.0002 17.6097C28.1002 18.7097 24.3002 22.1097 21.7002 25.0097C18.8002 28.3097 16.3002 32.4097 15.3002 35.4097C14.4002 38.2097 13.7002 43.1097 13.7002 46.4097C13.8002 49.9097 14.7002 54.7097 15.9002 57.9097C17.1002 61.2097 19.8002 65.3097 22.5002 68.2097C25.0002 70.8097 29.6002 74.1097 32.8002 75.6097C37.3002 77.7097 40.0002 78.3097 46.0002 78.3097C52.4002 78.3097 54.5002 77.9097 60.3002 75.1097C64.7669 72.9764 68.1335 70.4764 70.4002 67.6097C72.3002 65.3097 74.9002 61.1097 76.1002 58.4097C77.8002 54.7097 78.3002 51.5097 78.4002 45.9097C78.4002 40.0097 77.8002 37.2097 75.9002 32.9097C74.5002 29.9097 71.4002 25.4097 69.0002 23.0097C66.5002 20.6097 62.3002 17.6097 59.5002 16.4097C56.8002 15.1097 52.3002 13.9097 49.5002 13.6097C46.8002 13.3097 42.0002 13.6097 39.0002 14.3097Z" fill="#426CAD"/>
<path d="M250 1.50955C247 2.30955 242 4.40955 239 6.20955C236 7.90955 231.5 11.4096 229.1 13.9096C226.8 16.4096 223.5 20.6096 222 23.4096C220.4 26.1096 218.4 31.1096 217.6 34.4096C216.7 37.7096 216 42.9096 216 45.9096C216 48.9096 216.7 54.0096 217.5 57.1096C218.3 60.3096 220.2 65.3095 221.7 68.1096C223.1 71.0096 226.8 75.8096 229.9 78.8096C233.4 82.2096 238.3 85.6096 243 87.8096C250.3 91.3096 250.9 91.4096 262 91.4096C273.1 91.4096 273.7 91.3096 281 87.8096C285.6 85.6096 290.7 82.2096 294.1 78.8096C298.1 75.0096 300.9 71.0096 303.6 65.4096C307.4 57.5096 307.5 57.2096 307.5 45.9096C307.5 34.8096 307.4 34.2096 303.9 26.9096C301.7 22.2096 298.3 17.3096 294.9 13.8096C291.9 10.7096 287.1 7.00955 284.2 5.60955C281.4 4.10955 276.4 2.20955 273.2 1.40955C270.1 0.609553 264.8 -0.0904467 261.5 0.00955332C258.2 0.00955332 253 0.709553 250 1.50955Z" fill="#426CAD"/>
</svg>
