<?xml version="1.0" encoding="UTF-8" standalone="no"?><svg width="640" height="136" viewBox="0 0 640 136" fill="none" xmlns="http://www.w3.org/2000/svg">
<path fill-rule="evenodd" clip-rule="evenodd" d="M8.2191 1.72357C6.5121 2.46471 4.0371 4.57943 2.7191 6.42282L0.323101 9.77444L0.0491006 65.935C-0.281899 133.582 0.6391 137.463 16.3241 134.529C27.3531 132.465 27.8231 130.5 27.8231 86.4089V48.73L70.5731 91.2448C120.519 140.915 122.28 141.979 131.56 128.081L133.823 124.691V67.6298V10.5685L131.553 7.17892C125.343 -2.09389 112.595 -1.47244 107.575 8.349C106.002 11.4253 105.826 15.534 105.825 49.1719L105.823 86.5734L63.5731 44.5375C15.1041 -3.68591 17.1081 -2.13578 8.2191 1.72357ZM165.58 34.3979L146.838 68.4687L165.495 101.216L184.153 133.964H223.011H261.869L279.346 98.9485C288.958 79.6906 296.823 63.2877 296.823 62.4986C296.823 59.8054 214.837 60.9974 211.145 63.7445C204.848 68.4278 202.642 77.7066 206.575 82.9605C211.272 89.2358 212.365 89.533 232.793 90.0737L251.624 90.5724L247.973 98.0537L244.323 105.535H222.446H200.57L190.221 87.5799C177.782 65.9979 177.784 70.4547 190.208 48.1784L200.501 29.7246L223.991 29.4572L247.48 29.1909L252.593 40.1804L257.705 51.1709H271.764C279.497 51.1709 285.821 50.8338 285.819 50.4228C285.814 49.4103 269.667 10.9774 266.75 5.03628L264.424 0.29813L224.374 0.313092L184.323 0.328054L165.58 34.3979ZM318.823 2.08966C311.737 5.952 310.858 9.18791 310.839 31.4702L310.823 51.1709H324.823H338.823L338.819 30.9714C338.816 12.7091 338.629 10.4657 336.867 7.58392C332.88 1.06122 325.071 -1.31683 318.823 2.08966ZM365.175 1.3515C354.823 4.46172 354.614 5.91609 355.01 72.1186L355.323 124.488L357.589 128.123C361.232 133.966 368.085 136.31 374.508 133.909C376.056 133.331 396.111 114.148 419.073 91.2817L460.823 49.7066V85.8303C460.823 116.744 461.056 122.534 462.437 125.977C466.701 136.606 480.991 137.852 487.057 128.123L489.323 124.488L489.628 71.1211C490.007 4.73503 489.935 4.28017 478.667 1.25373C471.399 -0.698386 470.908 -0.295381 426.323 44.1894L384.323 86.0956L383.823 48.2552C383.344 12.0049 383.236 10.3001 381.261 7.66271C376.804 1.71159 371.241 -0.470948 365.175 1.3515ZM514.823 1.41634C498.099 8.04876 501.175 17.137 529.802 45.6667L551.804 67.5929L529.406 90.0557C502.819 116.719 500.688 120.983 509.408 130.063C518.48 139.508 522.453 137.58 549.851 110.436L572.378 88.1166L593.851 109.567C621.163 136.852 625.336 139.019 634.456 130.662C644.346 121.6 642.226 117.12 615.24 90.0557L592.842 67.5929L614.844 45.6667C641.894 18.7081 644.321 13.8383 635.089 5.05225C625.932 -3.66196 623.754 -2.59165 595.968 24.2891L572.337 47.15L564.33 39.4413C559.926 35.2009 549.573 25.13 541.323 17.0612C524.261 0.373934 521.524 -1.24202 514.823 1.41634ZM311.49 61.8114C310.348 62.9495 310.718 121.588 311.887 124.672C316.119 135.846 330.534 137.63 336.663 127.739C338.757 124.358 338.823 123.291 338.823 92.6991V61.146H325.49C318.156 61.146 311.856 61.4453 311.49 61.8114Z" fill="#CCCCCC"/>
</svg>
