<?xml version="1.0" encoding="UTF-8" standalone="no"?><svg width="1246" height="373" viewBox="0 0 1246 373" fill="none" xmlns="http://www.w3.org/2000/svg">
<path d="M1079.57 373C1074.6 373 1069.6 371.758 1065.05 369.274L1019.4 342.306C1012.75 338.58 1016.09 337.338 1018.16 336.51C1027.3 333.198 1028.96 332.784 1038.93 326.959C1039.76 326.545 1041.41 326.545 1042.24 327.373L1077.53 348.131C1078.78 348.959 1080.43 348.959 1081.67 348.131L1218.64 269.297C1219.88 268.469 1220.71 267.227 1220.71 265.571V107.902C1220.71 106.246 1219.88 105.004 1218.64 104.176L1082.09 25.3418C1080.85 24.5138 1079.19 24.5138 1077.95 25.3418L941.398 104.176C940.156 105.004 939.327 106.246 939.327 107.902V265.571C939.327 267.227 940.156 268.469 941.398 269.297L978.76 290.883C999.112 301.262 1011.54 289.227 1011.54 277.192V120.765C1011.54 118.695 1013.19 117.039 1015.68 117.039H1033.1C1035.17 117.039 1036.83 118.695 1036.83 120.765V276.778C1036.83 303.746 1021.89 319.507 996.154 319.507C988.255 319.507 982.043 319.507 964.62 310.784L928.915 290.026C920.188 285.058 914.39 275.507 914.39 265.128V107.459C914.39 97.0794 919.774 87.5577 928.915 82.5603L1065.88 3.72586C1074.6 -1.24195 1086.23 -1.24195 1094.51 3.72586L1231.48 82.5603C1240.2 87.5281 1246 97.0794 1246 107.459V265.128C1246 275.507 1240.62 285.028 1231.48 290.026L1094.51 368.86C1089.54 371.344 1084.57 373 1079.57 373Z" fill="#CDCDCD"/>
<path d="M1122.46 264.551C1063.03 264.551 1050.65 236.993 1050.65 213.602C1050.65 211.519 1052.29 209.853 1054.76 209.853H1072.5C1074.56 209.853 1076.21 211.103 1076.21 213.186C1078.68 231.131 1086.95 240.326 1122.87 240.326C1151.35 240.326 1163.74 233.631 1163.74 218.185C1163.74 209.406 1160.44 202.74 1115.84 198.157C1078.68 194.408 1055.56 186.045 1055.56 155.988C1055.56 128.014 1078.68 111.736 1117.49 111.736C1161.24 111.736 1182.71 127.181 1185.18 159.767C1185.18 161.017 1184.77 161.851 1183.95 162.684C1183.12 163.517 1182.3 163.934 1181.06 163.934H1163.32C1161.68 163.934 1160.03 162.684 1159.62 161.017C1155.5 141.823 1145.17 135.96 1117.11 135.96C1085.74 135.96 1082.01 146.822 1082.01 155.155C1082.01 165.184 1086.13 168.1 1128.67 173.933C1170.36 179.349 1190.18 187.295 1190.18 217.352C1190.16 247.409 1165.38 264.551 1122.46 264.551Z" fill="#CDCDCD"/>
<path d="M180.12 172.221C180.12 168.77 178.281 165.533 175.277 163.693L94.8864 117.355C93.5075 116.665 91.8987 116.205 90.5033 115.975H89.584C87.9752 115.975 86.5962 116.435 85.2008 117.355L4.84282 163.693C1.85505 165.533 0 168.77 0 172.221L0.229829 297.184C0.229829 299.024 1.14914 300.635 2.52812 301.341C3.90709 302.261 5.97555 302.261 7.37094 301.341L55.044 273.9C58.0318 272.06 59.8868 268.823 59.8868 265.372V207.04C59.8868 203.589 61.7254 200.352 64.7296 198.512L85.0038 186.746C86.6126 185.826 88.2214 185.366 89.8466 185.366C91.4718 185.366 93.294 185.826 94.6894 186.746L114.964 198.512C117.951 200.352 119.806 203.359 119.806 207.04V265.372C119.806 268.823 121.645 272.06 124.649 273.9L172.552 301.341C174.161 302.261 176 302.261 177.395 301.341C178.774 300.421 179.693 298.811 179.693 297.184L180.12 172.221ZM559.961 237.241C559.961 238.161 559.502 238.851 558.812 239.312L531.167 255.217C530.478 255.678 529.558 255.678 528.639 255.217L500.994 239.312C500.304 238.851 499.845 238.161 499.845 237.241V205.199C499.845 204.279 500.304 203.589 500.994 203.129L528.639 187.223C529.328 186.763 530.248 186.763 531.167 187.223L558.812 203.129C559.502 203.589 559.961 204.279 559.961 205.199V237.241ZM567.562 0.690132C565.953 -0.230044 564.115 -0.230044 562.719 0.690132C561.324 1.61031 560.421 3.22061 560.421 4.84735V128.66C560.421 129.811 559.731 130.961 558.812 131.651C557.663 132.341 556.514 132.341 555.365 131.651L535.091 120.116C532.103 118.275 528.409 118.275 525.421 120.116L444.801 166.683C441.813 168.524 439.958 171.531 439.958 174.981V268.133C439.958 271.583 441.796 274.82 444.801 276.661L525.421 323.228C528.409 325.069 532.103 325.069 535.091 323.228L615.711 276.661C618.699 274.82 620.554 271.813 620.554 268.133V35.969C620.554 32.5184 618.715 29.2813 615.481 27.441L567.562 0.690132ZM835.674 204.509C838.661 202.669 840.516 199.662 840.516 196.211V173.618C840.516 170.167 838.678 166.93 835.674 165.089L755.743 118.522C752.755 116.682 749.061 116.682 746.073 118.522L665.453 165.089C662.465 166.93 660.61 169.937 660.61 173.618V266.539C660.61 269.99 662.448 273.227 665.453 275.067L745.384 320.714C748.372 322.325 751.835 322.325 754.823 320.714L803.202 293.733C804.811 292.813 805.73 291.203 805.73 289.576C805.73 287.736 804.811 286.125 803.202 285.419L722.122 238.851C720.513 237.931 719.594 236.321 719.594 234.694V205.413C719.594 203.573 720.513 201.962 722.122 201.256L747.222 186.73C748.831 185.81 750.67 185.81 752.065 186.73L777.166 201.256C778.775 202.176 779.694 203.786 779.694 205.413V228.467C779.694 230.307 780.613 231.917 782.222 232.624C783.831 233.544 785.669 233.544 787.065 232.624L835.674 204.509Z" fill="#C6C6C6"/>
<path d="M749.537 200.122C749.997 199.892 750.916 199.892 751.376 200.122L766.807 209.11C767.497 209.34 767.726 210.03 767.726 210.72V228.467C767.726 229.157 767.267 229.847 766.807 230.077L751.376 239.065C750.686 239.295 749.997 239.295 749.537 239.065L734.106 230.077C733.416 229.847 733.187 229.157 733.187 228.467V210.72C733.187 210.03 733.416 209.34 734.106 209.11L749.537 200.122Z" fill="#CDCDCD"/>
<path fill-rule="evenodd" clip-rule="evenodd" d="M307.805 118.899C305.903 119.478 228.779 164.25 226.838 165.902C222.914 169.243 223.264 164.071 223.274 218.568C223.283 271.71 223.087 267.765 225.865 270.461C226.898 271.464 301.149 314.707 306.625 317.494C311.602 320.029 308.508 321.492 355.095 294.566C394.914 271.553 396.577 270.511 397.949 267.742C398.989 265.643 399.318 173.881 398.298 170.368C397.348 167.094 396.077 166.16 379.928 156.874C371.729 152.16 354.002 141.925 340.534 134.131C310.926 116.996 312.166 117.573 307.805 118.899Z" fill="#A9A9A9"/>
</svg>
