<?xml version="1.0" encoding="UTF-8" standalone="no"?><svg width="1876" height="512" viewBox="0 0 1876 512" fill="none" xmlns="http://www.w3.org/2000/svg">
<path d="M134.387 0.0091892C39.9854 -1.06391 0 91.9892 0 205.612C0 319.234 39.6847 411.214 134.387 411.214C228.789 411.214 268.473 319.234 268.473 205.612C268.473 91.9892 228.789 1.21154 134.387 0.0091892ZM134.387 36.681C188.202 36.681 217.965 93.1915 217.965 205.612C217.965 318.332 186.999 374.542 134.387 374.542C81.7746 374.542 50.5078 320.436 50.5078 205.612C50.5078 90.7868 80.542 36.681 134.387 36.681Z" fill="#D5D5D5"/>
<path d="M441.042 106.417C425.559 106.862 410.376 113.601 396.848 121.447C387.858 126.737 374.029 142.969 374.029 142.969V110.205H330.135V506.981H374.029V409.29C374.029 409.29 415.818 411.316 435.36 404.962C454.631 398.709 473.241 387.618 487.07 372.799C502.373 356.206 511.903 334.323 518.036 312.681C525.011 288.544 525.101 262.783 524.53 237.534C523.965 213.006 523.815 187.336 514.85 164.491C508.296 147.748 497.953 131.426 483.883 120.305C472.7 111.648 458.299 105.666 444.199 105.275C443.167 105.248 442.13 105.245 441.102 105.275L441.042 106.417ZM429.858 143.991C430.685 143.997 431.469 144.006 432.299 144.085C441.89 145.005 450.187 152.321 457.012 159.114C466.242 168.312 473.517 180.035 477.396 192.479C483.078 210.605 480.612 230.354 480.582 249.291C480.552 267.206 481.09 285.361 477.396 303.096C473.998 319.147 469.789 335.86 460.199 349.086C451.871 360.659 440.387 371.209 426.828 375.958C416.696 379.535 405.181 377.822 394.659 375.958C387.443 374.687 373.975 368.444 373.975 368.444V173.963C373.975 173.963 387.023 162.15 394.659 157.912C405.602 151.81 417.417 143.754 429.834 143.814L429.858 143.991Z" fill="#D5D5D5"/>
<path d="M672.536 105.215C654.859 105.768 636.76 112.279 622.329 122.409C607.928 132.539 597.376 148.259 590.16 164.19C581.742 182.797 580.42 203.868 578.315 224.308C576.003 246.762 575.913 269.396 577.563 291.94C579.016 311.749 579.632 332.219 586.853 350.856C592.024 364.082 600.292 376.436 610.544 386.325C620.525 395.914 632.641 404.18 646.02 407.937C665.652 413.438 686.907 411.274 707.05 407.937C722.353 405.397 737.114 399.761 751.244 392.908C757.017 390.052 767.299 382.207 767.299 382.207L755.544 357.499C755.544 357.499 731.252 370.244 717.963 372.528C700.676 375.495 681.586 376.977 665.351 370.367C651.972 364.926 641.029 353.414 633.182 341.33C625.726 329.968 622.479 316.141 620.315 302.855C618.192 289.779 620.315 263.177 620.315 263.177H766.427C766.427 263.177 768.366 204.262 761.075 176.307C756.506 158.633 750.974 139.034 737.385 127.011C721.3 112.582 697.7 105.789 676.354 105.489C675.179 105.472 673.964 105.452 672.777 105.489L672.536 105.215ZM676.294 136.176C681.976 136.025 687.839 137.456 692.83 140.113C700.075 143.991 705.697 150.784 710.297 157.578C716.791 167.166 721.18 178.198 724.006 189.44C727.434 202.996 727.764 231.222 727.764 231.222H618.331C618.331 231.222 619.293 208.858 621.427 197.856C623.096 189.29 624.975 180.542 628.943 172.787C633.693 163.439 639.706 154.301 647.914 147.808C655.279 141.977 664.389 137.378 673.739 136.356C674.542 136.268 675.368 136.284 676.18 136.262L676.294 136.176Z" fill="#D5D5D5"/>
<path d="M837.889 109.123V402.797H880.881V175.853C880.881 175.853 895.312 163.048 903.279 157.638C911.427 152.107 919.514 145.554 929.104 143.209C936.981 141.292 945.88 140.973 953.396 143.97C959.048 146.224 963.077 151.515 967.075 156.114C970.713 160.322 974.14 164.861 976.275 170.001C980.093 179.229 982.919 192.064 982.258 199.398V402.897H1026.15V186.473C1026.49 181.453 1021.7 162.636 1017.04 151.605C1013.22 142.467 1008.32 133.57 1001.8 126.115C997.14 120.795 991.367 116.286 985.144 112.889C978.109 109.072 970.322 106.246 962.355 105.284C953.035 104.157 943.355 105.167 934.275 107.563C926.729 109.556 919.724 113.424 913.02 117.422C906.496 121.33 900.874 126.53 894.801 131.099C890.021 134.676 880.49 141.86 880.49 141.86L880.759 109.096L837.889 109.123Z" fill="#D5D5D5"/>
<path d="M1093.44 4.21741H1172.8V391.976C1173.12 400.062 1169.23 421.223 1164.21 434.96C1160.15 446.082 1153.89 456.422 1147.04 466.222C1141.21 474.428 1134.02 481.612 1126.9 488.766C1118.99 496.701 1101.94 511.31 1101.94 511.31L1058.95 475.84C1058.95 475.84 1071.28 461.382 1076.12 453.296C1081.86 443.768 1087.24 433.728 1090.07 422.937C1092.24 414.701 1092.21 397.447 1092.21 397.447L1093.44 4.21741Z" fill="#BDBDBD"/>
<path d="M1373.03 2.1133L1253.68 3.14732V405.936H1379.35C1379.35 405.936 1414.22 402.208 1429.85 395.235C1448.82 386.818 1466.23 373.893 1480.36 358.563C1497.53 340.077 1511.63 317.983 1520.05 294.237C1531.23 263.276 1533.12 229.31 1533.94 196.546C1534.62 169.252 1533.71 141.238 1526.42 115.086C1520.92 95.1874 1512.29 75.7093 1499.63 59.177C1488.75 45.1395 1474.38 33.3264 1458.75 24.9099C1439.68 14.4795 1417.56 10.2713 1396.51 5.55203C1388.76 3.83266 1372.94 2.3658 1372.94 2.3658L1373.03 2.1133ZM1375.19 68.5433C1375.19 68.5433 1396.84 76.2083 1406.16 82.5507C1415.18 88.6226 1423.57 96.1974 1429.85 105.095C1437.49 115.976 1442.6 128.751 1445.91 141.767C1451.02 161.605 1451.05 182.346 1451.26 202.786C1451.48 224.308 1452.13 246.371 1447.02 267.112C1444.05 279.256 1438.81 290.918 1431.99 301.379C1425.34 311.569 1417.4 321.488 1407.27 328.251C1396.81 335.225 1371.8 341.117 1371.8 341.117H1330.91V69.6855L1375.19 68.5433Z" fill="#BDBDBD"/>
<path d="M1595.51 2.71447H1673.97V174.952L1778 2.71447H1869.39L1738.31 186.674L1875.71 405.803H1776.79L1673.67 226.653V405.803H1595.21L1595.51 2.71447Z" fill="#BDBDBD"/>
</svg>
