<?xml version="1.0" encoding="UTF-8" standalone="no"?><svg width="405" height="395" viewBox="0 0 405 395" fill="none" xmlns="http://www.w3.org/2000/svg">
<path fill-rule="evenodd" clip-rule="evenodd" d="M29.0274 309.768C-9.02305 322.119 -9.90342 381.707 27.7962 393.071C60.4042 402.9 89.4463 369.8 78.5134 335.267C71.9075 314.4 49.8208 303.019 29.0274 309.768ZM373.556 308.538C348.005 312.356 338.348 334.243 355.581 349.275C359.139 352.379 361.147 353.506 373.977 359.604C399.34 371.659 383.249 387.675 354.57 378.921C349.093 377.25 345.567 382.513 346.25 391.343C346.273 391.643 347.979 392.278 350.04 392.754C404.314 405.276 427.238 362.322 377.525 341.255C353.462 331.057 366.035 316.221 392.51 323.574C395.905 324.517 397.39 324.673 397.575 324.104C398.453 321.419 399.923 311.251 399.491 310.855C398.041 309.528 378.573 307.789 373.556 308.538ZM263.62 309.917C221.066 318.406 217.916 382.896 259.586 392.548C269.801 394.914 282.825 394.443 295.297 391.258L298.722 390.383L299.098 351.231H289.833C281.292 351.231 280.607 351.328 281.063 352.469C281.697 354.054 282.94 379.649 282.409 380.178C276.887 385.68 256.606 376.699 251.497 366.488C237.613 338.74 258.913 316.443 290.67 325.481C291.912 325.834 294.736 311.91 293.628 310.89C291.431 308.868 272.036 308.238 263.62 309.917ZM102.811 309.994L94.6924 310.261V392.243L112.342 392.244L111.937 361.131H117.7C142.683 361.131 158.477 345.253 153.629 325.011C150.555 312.179 139.11 308.797 102.811 309.994ZM158.576 314.285C158.572 316.522 158.371 319.547 158.13 321.008L157.692 323.666L182.357 322.734L182.824 335.653C183.257 347.615 183.062 363.492 182.231 383.935L181.894 392.243H200.078L199.317 322.725L223.535 323.545V310.22H158.584L158.576 314.285ZM314.254 392.243H331.903V310.22H314.254V392.243ZM131.05 323.891C135.627 326.097 137.404 329.136 137.404 334.754C137.404 344.339 130.829 349.11 117.618 349.11H112.207L111.748 340.094C111.496 335.136 111.287 329.107 111.286 326.696L111.283 322.314L114.989 322.037C121.429 321.554 127.705 322.279 131.05 323.891ZM48.0975 323.911C71.2876 334.795 65.4781 380.12 40.8816 380.207C19.659 380.282 9.71731 346.235 25.7566 328.413C31.2329 322.329 40.6733 320.426 48.0975 323.911Z" fill="#BABABA"/>
<path fill-rule="evenodd" clip-rule="evenodd" d="M197.061 0.865529C193.35 2.18002 189.251 6.63616 188.218 10.4764C184.026 26.0686 204.895 35.5954 214.101 22.2913C221.869 11.0647 210.087 -3.7497 197.061 0.865529ZM146.136 27.1604C138.621 28.6361 134.112 40.8767 138.395 48.1768C147.39 63.5066 170.747 51.865 163.905 35.4624C161.056 28.6326 154.424 25.5341 146.136 27.1604ZM248.515 27.439C242.818 29.0943 238.089 38.0836 239.721 44.1562C244.327 61.2878 268.889 57.7756 267.894 40.1279C267.34 30.3084 258.519 24.5335 248.515 27.439ZM195.823 35.1718C168.268 42.1565 168.141 81.2831 195.649 88.6433C222.019 95.698 240.982 62.4941 221.846 42.7731C215.621 36.359 204.247 33.0364 195.823 35.1718ZM125.639 55.7915C118.47 57.6802 117.637 68.3375 124.407 71.5555C127.435 72.9945 131.21 72.6416 133.329 70.7212C140.509 64.2137 134.912 53.3485 125.639 55.7915ZM273.895 55.7498C266.706 57.7784 265.774 68.281 272.5 71.4778C278.507 74.333 284.974 70.4673 284.945 64.0398C284.919 58.1405 279.591 54.1425 273.895 55.7498ZM150.466 72.3383C150.078 72.4373 148.55 72.7208 147.07 72.9697C131.157 75.6404 134.425 100.918 150.685 100.918C168.31 100.918 170.535 76.8001 153.29 72.6664C152.125 72.3871 150.854 72.24 150.466 72.3383ZM98.5585 74.2248C91.7217 77.6882 88.861 86.3883 92.3528 93.0987C99.6238 107.073 120.607 101.516 119.58 85.8884C118.894 75.4651 108.02 69.4314 98.5585 74.2248ZM247.892 73.8091C234.223 81.0264 238.68 100.918 253.967 100.918C269.206 100.918 273.444 79.615 259.377 73.7284C256.04 72.3319 250.617 72.3701 247.892 73.8091ZM293.075 73.6386C287.539 76.1206 283.81 83.3252 284.918 89.3942C287.726 104.779 309.7 105.023 313.101 89.7082C315.553 78.6619 303.48 68.9739 293.075 73.6386ZM198.913 95.9716C193.487 97.2501 188.85 102.702 188.382 108.354C186.807 127.386 214.161 130.187 216.296 111.212C217.346 101.884 208.125 93.8001 198.913 95.9716ZM168.654 103.115C164.443 105.816 163.903 111.464 167.452 115.688C173.456 122.834 184.917 114.962 180.889 106.46C178.685 101.807 173.081 100.275 168.654 103.115ZM226.656 102.958C220.232 106.881 222.717 117.359 230.308 118.355C233.88 118.824 237.554 116.454 238.95 112.781C241.73 105.464 233.422 98.8255 226.656 102.958ZM116.498 112.817C87.7858 122.947 94.96 165.971 125.362 165.971C161.037 165.971 162.187 112.823 126.535 111.739C121.753 111.593 119.184 111.869 116.498 112.817ZM270.13 112.818C257.764 117.424 251.254 127.29 251.919 140.416C253.639 174.363 304.386 174.416 306.006 140.474C306.952 120.671 288.086 106.128 270.13 112.818ZM72.6375 125.425C66.458 127.616 62.1325 135.899 63.872 142.208C68.5421 159.149 93.0708 155.434 92.062 137.939C91.4901 128.017 82.2029 122.034 72.6375 125.425ZM168.992 125.262C154.001 130.62 157.163 152.83 172.923 152.877C178.324 152.892 182.14 151.071 184.9 147.158C192.716 136.081 181.585 120.762 168.992 125.262ZM226.366 125.183C220.064 127.192 215.594 135.201 217.078 141.82C220.267 156.031 240.219 157.341 244.735 143.636C248.497 132.22 237.847 121.521 226.366 125.183ZM320.538 125.945C307.315 132.112 311.166 152.038 325.786 153.097C342.272 154.292 347.199 130.842 331.619 125.337C327.383 123.84 324.741 123.985 320.538 125.945ZM196.284 133.02C189.347 139.969 198.126 151.422 206.564 146.429C214.215 141.903 211.212 130.616 202.356 130.616C199.122 130.616 198.399 130.902 196.284 133.02ZM198.988 153.936C182.882 157.761 185.791 181.876 202.356 181.847C218.375 181.817 221.733 158.873 206.385 154.308C202.472 153.144 202.35 153.138 198.988 153.936ZM169.007 160.714C163.008 163.973 164.141 173.48 170.789 175.675C178.102 178.09 184.679 169.881 180.508 163.543C177.978 159.7 173.087 158.497 169.007 160.714ZM226.656 160.94C220.731 164.559 222.181 173.941 228.955 175.814C235.847 177.721 241.797 170.81 238.768 164.417C236.617 159.878 231.025 158.272 226.656 160.94ZM98.5542 178.168C91.7986 181.586 88.9006 190.407 92.3528 197.042C99.6238 211.017 120.607 205.459 119.58 189.832C118.894 179.407 108.025 173.378 98.5542 178.168ZM144.818 177.582C139.669 179.891 136.699 184.884 136.699 191.233C136.699 208.134 161.712 210.116 164.819 193.46C166.922 182.188 155.236 172.911 144.818 177.582ZM247.892 177.524C233.855 183.934 238.389 204.845 253.819 204.858C268.262 204.869 273.31 187.305 261.419 178.413C258.993 176.599 251.059 176.078 247.892 177.524ZM293.428 177.368C288.372 179.377 284.815 184.953 284.815 190.871C284.815 207.957 309.387 210.372 313.101 193.652C315.498 182.856 303.86 173.224 293.428 177.368ZM197.767 188.645C178.648 191.392 168.607 214.173 179.329 230.475C191.386 248.804 218.361 246.665 227.377 226.665C236.239 207.006 219.508 185.521 197.767 188.645ZM124.131 206.044C121.353 207.415 119.756 210.211 119.756 213.7C119.756 222.261 130.319 225.478 135.087 218.368C140.023 211.009 132.108 202.106 124.131 206.044ZM272.388 206.044C265.64 209.375 267.145 220.345 274.607 222.22C277.415 222.926 279.966 222.021 282.597 219.386C289.384 212.588 281.089 201.749 272.388 206.044ZM147.853 222.573C143.941 223.23 139.911 226.24 138.197 229.786C130.749 245.195 150.205 258.807 161.426 246.038C170.554 235.653 161.65 220.259 147.853 222.573ZM246.583 224.195C235.643 230.829 237.753 246.931 250.03 250.506C265.853 255.113 275.396 232.169 261.023 224.077C257.119 221.88 250.311 221.936 246.583 224.195ZM198.659 249.406C182.603 254.248 185.667 277.692 202.356 277.692C218.401 277.692 221.95 254.992 206.717 249.794C203.216 248.599 201.593 248.521 198.659 249.406Z" fill="#C6C6C6"/>
</svg>
