<?xml version="1.0" encoding="UTF-8" standalone="no"?><svg width="1791" height="542" viewBox="0 0 1791 542" fill="none" xmlns="http://www.w3.org/2000/svg">
<path d="M725.961 380.845C717.414 380.845 709.664 379.903 702.711 378.02C695.758 376.137 689.493 373.638 683.916 370.524C678.339 367.409 673.414 363.752 669.141 359.551C664.867 355.35 661.065 350.931 657.734 346.296H655.125C655.56 351.221 655.995 355.929 656.43 360.42C656.719 364.186 657.008 368.061 657.298 372.045C657.588 376.028 657.734 379.179 657.734 381.497V483.403H618.188V137.92H650.345L655.995 170.078H657.734C661.065 165.008 664.831 160.264 669.031 155.846C673.233 151.428 678.122 147.589 683.698 144.33C689.276 141.071 695.541 138.463 702.494 136.508C709.447 134.552 717.269 133.574 725.961 133.574C739.577 133.574 751.962 136.181 763.116 141.396C774.27 146.611 783.795 154.398 791.689 164.755C799.584 175.112 805.704 187.968 810.049 203.323C814.395 218.678 816.568 236.495 816.568 256.775C816.568 277.2 814.395 295.126 810.049 310.553C805.704 325.98 799.584 338.909 791.689 349.338C783.795 359.768 774.27 367.627 763.116 372.914C751.962 378.201 739.577 380.845 725.961 380.845ZM718.355 166.384C707.346 166.384 698.039 168.05 690.435 171.382C682.829 174.713 676.673 179.783 671.966 186.592C667.258 193.4 663.781 201.874 661.536 212.014C659.29 222.154 658.023 234.105 657.734 247.866V256.775C657.734 271.406 658.711 284.407 660.667 295.778C662.622 307.149 665.953 316.709 670.661 324.459C675.369 332.209 681.634 338.076 689.456 342.059C697.279 346.043 707.057 348.035 718.791 348.035C738.346 348.035 752.723 340.14 761.922 324.351C771.12 308.561 775.719 285.891 775.719 256.34C775.719 226.21 771.12 203.685 761.922 188.765C752.723 173.844 738.201 166.384 718.355 166.384Z" fill="#D2D2D2"/>
<path d="M843.294 137.92H884.361L931.078 271.116C933.106 276.91 935.17 282.994 937.271 289.368C939.371 295.741 941.327 302.115 943.137 308.489C944.948 314.862 946.505 321.019 947.808 326.958C949.112 332.897 950.054 338.402 950.633 343.472H951.938C952.661 339.851 953.82 334.925 955.413 328.696C957.007 322.467 958.781 315.84 960.737 308.815C962.693 301.789 964.721 294.872 966.822 288.064C968.922 281.256 970.768 275.462 972.361 270.681L1015.6 137.92H1056.45L962.15 407.571C958.094 419.304 953.712 429.843 949.004 439.186C944.296 448.529 938.828 456.46 932.599 462.978C926.37 469.497 919.054 474.531 910.652 478.08C902.251 481.629 892.256 483.403 880.667 483.403C873.135 483.403 866.616 483.005 861.111 482.208C855.607 481.411 850.9 480.578 846.989 479.709V448.203C850.031 448.928 853.869 449.543 858.505 450.05C863.14 450.557 867.992 450.811 873.062 450.811C880.016 450.811 886.028 449.978 891.098 448.312C896.168 446.646 900.586 444.22 904.352 441.033C908.118 437.846 911.341 433.934 914.021 429.299C916.701 424.664 919.127 419.376 921.299 413.437L933.685 378.672L843.294 137.92Z" fill="#D2D2D2"/>
<path d="M1168.57 348.469C1171.18 348.469 1174.11 348.324 1177.37 348.035C1180.63 347.745 1183.78 347.383 1186.82 346.948C1189.86 346.513 1192.65 346.006 1195.19 345.427C1197.72 344.848 1199.64 344.341 1200.95 343.906V373.892C1199.06 374.761 1196.67 375.63 1193.77 376.499C1190.88 377.368 1187.69 378.129 1184.21 378.78C1180.74 379.432 1177.12 379.939 1173.35 380.301C1169.58 380.664 1165.89 380.845 1162.27 380.845C1153.29 380.845 1144.96 379.686 1137.28 377.368C1129.6 375.051 1122.98 371.067 1117.4 365.417C1111.82 359.768 1107.44 352.127 1104.25 342.494C1101.07 332.861 1099.47 320.729 1099.47 306.099V167.688H1065.79V150.088L1099.47 133.14L1116.42 83.1641H1139.24V137.92H1199.21V167.688H1139.24V306.099C1139.24 320.15 1141.52 330.724 1146.08 337.822C1150.64 344.92 1158.14 348.469 1168.57 348.469Z" fill="#D9D9D9"/>
<path d="M1341.53 380.845C1325.59 380.845 1311.04 378.165 1297.85 372.805C1284.67 367.446 1273.34 359.623 1263.85 349.338C1254.36 339.053 1247.01 326.306 1241.79 311.096C1236.58 295.886 1233.97 278.503 1233.97 258.948C1233.97 239.247 1236.36 221.647 1241.14 206.147C1245.92 190.648 1252.66 177.502 1261.35 166.71C1270.04 155.918 1280.44 147.697 1292.53 142.048C1304.63 136.399 1317.99 133.574 1332.62 133.574C1346.96 133.574 1359.85 136.145 1371.3 141.288C1382.74 146.43 1392.45 153.673 1400.41 163.016C1408.38 172.359 1414.5 183.586 1418.77 196.696C1423.05 209.805 1425.18 224.327 1425.18 240.261V264.814H1274.82C1275.55 292.771 1281.45 313.341 1292.53 326.523C1303.61 339.705 1320.09 346.296 1341.96 346.296C1349.35 346.296 1356.2 345.934 1362.5 345.21C1368.8 344.486 1374.88 343.436 1380.75 342.059C1386.62 340.683 1392.3 338.945 1397.81 336.844C1403.31 334.744 1408.89 332.39 1414.54 329.783V364.983C1408.74 367.735 1403.06 370.125 1397.48 372.153C1391.9 374.181 1386.18 375.847 1380.31 377.151C1374.45 378.454 1368.36 379.396 1362.06 379.976C1355.76 380.555 1348.92 380.845 1341.53 380.845ZM1331.75 166.384C1315.24 166.384 1302.16 172.033 1292.53 183.332C1282.9 194.631 1277.28 211.073 1275.69 232.656H1382.6C1382.6 222.806 1381.62 213.789 1379.66 205.604C1377.71 197.42 1374.66 190.431 1370.54 184.636C1366.41 178.842 1361.16 174.352 1354.78 171.165C1348.41 167.978 1340.73 166.384 1331.75 166.384Z" fill="#D9D9D9"/>
<path d="M1628.13 311.096C1628.13 322.685 1626.03 332.825 1621.83 341.516C1617.63 350.207 1611.58 357.486 1603.68 363.353C1595.79 369.22 1586.26 373.602 1575.11 376.499C1563.96 379.396 1551.43 380.845 1537.52 380.845C1521.73 380.845 1508.19 379.577 1496.89 377.042C1485.59 374.507 1475.67 370.777 1467.12 365.852V329.783C1471.61 332.1 1476.61 334.382 1482.11 336.627C1487.62 338.872 1493.41 340.864 1499.5 342.603C1505.58 344.341 1511.84 345.753 1518.29 346.84C1524.74 347.926 1531.15 348.469 1537.52 348.469C1546.94 348.469 1554.94 347.672 1561.53 346.079C1568.12 344.486 1573.48 342.204 1577.61 339.235C1581.74 336.265 1584.74 332.643 1586.63 328.37C1588.51 324.097 1589.45 319.353 1589.45 314.138C1589.45 309.647 1588.73 305.591 1587.28 301.97C1585.83 298.349 1583.19 294.764 1579.35 291.215C1575.51 287.666 1570.26 284.08 1563.59 280.459C1556.93 276.838 1548.38 272.782 1537.95 268.291C1527.52 263.8 1518.15 259.382 1509.82 255.037C1501.49 250.691 1494.43 245.838 1488.63 240.478C1482.84 235.119 1478.38 228.926 1475.27 221.901C1472.15 214.875 1470.6 206.509 1470.6 196.804C1470.6 186.664 1472.59 177.647 1476.57 169.752C1480.55 161.857 1486.17 155.23 1493.41 149.871C1500.65 144.511 1509.35 140.455 1519.49 137.703C1529.63 134.95 1540.92 133.574 1553.38 133.574C1567.43 133.574 1580.29 135.095 1591.95 138.137C1603.61 141.179 1614.66 145.163 1625.09 150.088L1611.4 182.029C1601.98 177.828 1592.31 174.171 1582.39 171.056C1572.47 167.941 1562.36 166.384 1552.08 166.384C1537.3 166.384 1526.37 168.81 1519.27 173.663C1512.17 178.516 1508.62 185.433 1508.62 194.414C1508.62 199.484 1509.45 203.902 1511.12 207.668C1512.79 211.435 1515.65 214.984 1519.7 218.315C1523.76 221.647 1529.19 225.015 1536 228.419C1542.81 231.823 1551.28 235.626 1561.42 239.827C1571.85 244.172 1581.16 248.518 1589.34 252.864C1597.53 257.209 1604.52 262.098 1610.31 267.53C1616.1 272.963 1620.52 279.155 1623.56 286.108C1626.61 293.061 1628.13 301.391 1628.13 311.096Z" fill="#D9D9D9"/>
<path d="M1758.28 348.469C1760.89 348.469 1763.82 348.324 1767.08 348.035C1770.34 347.745 1773.49 347.383 1776.53 346.948C1779.58 346.513 1782.36 346.006 1784.9 345.427C1787.43 344.848 1789.35 344.341 1790.66 343.906V373.892C1788.77 374.761 1786.38 375.63 1783.49 376.499C1780.59 377.368 1777.4 378.129 1773.93 378.78C1770.45 379.432 1766.83 379.939 1763.06 380.301C1759.3 380.664 1755.6 380.845 1751.98 380.845C1743 380.845 1734.67 379.686 1726.99 377.368C1719.32 375.051 1712.69 371.067 1707.11 365.417C1701.53 359.768 1697.15 352.127 1693.97 342.494C1690.78 332.861 1689.18 320.729 1689.18 306.099V167.688H1655.51V150.088L1689.18 133.14L1706.13 83.1641H1728.95V137.92H1788.92V167.688H1728.95V306.099C1728.95 320.15 1731.23 330.724 1735.79 337.822C1740.36 344.92 1747.85 348.469 1758.28 348.469Z" fill="#D9D9D9"/>
<path d="M21.125 42.75H452.165C463.832 42.75 473.29 52.208 473.29 63.875C473.29 75.542 463.832 85 452.165 85H21.125C9.458 85 0 75.542 0 63.875C0 52.208 9.458 42.75 21.125 42.75Z" fill="#D2D2D2"/>
<path d="M24.882 0H111.549V20H24.882V0Z" fill="#D9D9D9"/>
<path d="M138.216 0H224.882V20H138.216V0Z" fill="#D5D5D5"/>
<path d="M250.049 0H336.716V20H250.049V0Z" fill="#CCCCCC"/>
<path d="M361.41 0H448.077V20H361.41V0Z" fill="#B9B9B9"/>
<path d="M361.41 107H448.077V253.5H361.41V107Z" fill="#B9B9B9"/>
<path d="M250.049 107H336.877V345H250.049V107Z" fill="#CCCCCC"/>
<path d="M138.216 107H224.877V463.5H138.216V107Z" fill="#D5D5D5"/>
<path d="M24.882 107H111.549V541.5H24.882V107Z" fill="#D9D9D9"/>
</svg>
