<?xml version="1.0" encoding="UTF-8" standalone="no"?><svg width="512" height="376" viewBox="0 0 512 376" fill="none" xmlns="http://www.w3.org/2000/svg">
<path fill-rule="evenodd" clip-rule="evenodd" d="M70.3723 0.15625H512V304.685L440.641 375.845H0V70.4066L70.3723 0.15625ZM135.614 79.2059C152.381 68.1126 173.116 65.3088 192.831 65.4861C211.605 65.7188 231.309 69.0103 246.868 80.2144C258.172 88.1604 265.52 100.428 270.418 113.118C278.342 133.952 280.669 156.449 280.935 178.592C280.968 200.889 279.96 223.674 272.579 244.919C267.636 259.37 258.228 272.203 245.815 281.113C254.748 295.587 263.857 309.949 272.79 324.423C261.563 329.598 250.37 334.807 239.133 339.96C229.569 324.179 220.049 308.365 210.452 292.606C197.475 294.734 184.198 294.567 171.154 293.127C155.528 291.254 139.603 286.488 127.546 275.971C118.281 267.948 112.463 256.721 108.484 245.307C101.968 226.001 100.217 205.455 99.9176 185.197C99.7624 163.298 101.159 141.056 107.764 120.044C112.873 104.241 121.328 88.4707 135.614 79.2059ZM325.94 230.745V155.385H301.382V125.12H325.94V78.4967H360.45V125.12H406.275L405.455 155.385H360.45V231.786C360.105 265.636 373.376 259.875 404.635 258.218L406.275 286.023C355.851 293.482 324.336 296.745 325.94 230.745ZM139.758 217.446C135.348 190.671 134.284 162.966 140.312 136.346C145.554 79.6841 246.732 76.4635 241.626 160.904C242.89 179.766 242.712 198.806 240.108 217.557C240.041 278.563 139.691 278.453 139.758 217.446Z" fill="#CCCCCC"/>
</svg>
