<?xml version="1.0" encoding="UTF-8" standalone="no"?><svg width="725" height="423" viewBox="0 0 725 423" fill="none" xmlns="http://www.w3.org/2000/svg">
<path fill-rule="evenodd" clip-rule="evenodd" d="M405.461 383.9C396.025 386.759 390.485 396.894 392.704 407.238C396.838 426.516 423.172 427.084 428.122 408.002C431.857 393.601 418.905 379.825 405.461 383.9ZM559.202 384.403C548.487 388.223 543.518 401.055 548.649 411.655C557.189 429.296 583.623 422.643 583.525 402.878C583.459 389.45 571.188 380.129 559.202 384.403ZM286.547 402.944V421.944H297.047C305.714 421.944 307.547 421.682 307.547 420.444C307.547 419.216 305.825 418.944 298.047 418.944H288.547V401.444C288.547 390.444 288.176 383.944 287.547 383.944C286.915 383.944 286.547 390.944 286.547 402.944ZM324.215 401.788C320.548 411.603 317.547 420.153 317.547 420.788C317.547 423.605 319.499 421.518 321.144 416.944L322.942 411.944H340.649L341.95 415.194C342.666 416.982 343.558 419.307 343.932 420.361C344.374 421.607 344.954 421.937 345.588 421.303C346.775 420.116 333.592 383.976 331.965 383.957C331.37 383.95 327.882 391.974 324.215 401.788ZM358.547 422.156L366.639 421.788C379.962 421.183 385.426 411.623 377.169 403.366C374.475 400.672 374.057 399.766 375.104 398.896C381.872 393.279 375.322 383.944 364.613 383.944H358.547V422.156ZM441.991 385.229C441.04 387.708 442.022 420.948 443.047 420.953C443.607 420.955 444.175 417.431 444.337 412.951L444.628 404.944L447.837 404.95C456.316 404.964 461.547 408.506 461.547 414.232C461.547 415.796 462.013 417.946 462.582 419.01C463.656 421.017 466.547 421.698 466.547 419.944C466.547 419.394 466.155 418.944 465.676 418.944C465.197 418.944 464.513 416.747 464.157 414.062C463.713 410.713 462.687 408.357 460.892 406.562C459.452 405.122 458.792 403.944 459.425 403.944C464.634 403.944 465.866 392.063 461.147 387.344C457.419 383.616 443.212 382.048 441.991 385.229ZM484.172 401.657C480.512 411.44 477.524 420.062 477.532 420.816C477.56 423.406 480.169 420.149 481.425 415.956L482.627 411.944H491.612C501.546 411.944 500.285 411.137 503.584 419.607C504.228 421.261 504.976 421.915 505.557 421.334C506.654 420.237 493.636 384.807 491.928 384.238C491.299 384.028 487.973 391.497 484.172 401.657ZM510.047 384.944C509.659 385.572 511.862 385.944 515.965 385.944H522.501L522.774 403.694C522.943 414.679 523.428 421.444 524.047 421.444C524.666 421.444 525.151 414.679 525.32 403.694L525.593 385.944H531.57C534.888 385.944 537.547 385.499 537.547 384.944C537.547 384.327 532.4 383.944 524.106 383.944C516.224 383.944 510.409 384.358 510.047 384.944ZM596.547 402.944C596.547 422.057 598.182 430.012 598.757 413.694L599.047 405.444L603.547 405.507C612.602 405.632 616.547 408.608 616.547 415.312C616.547 418.812 617.534 420.944 619.154 420.944C620.765 420.944 621.015 419.352 619.547 418.444C618.997 418.104 618.547 416.087 618.547 413.962C618.547 411.312 617.771 409.175 616.079 407.165L613.612 404.232L615.995 401.993C624.368 394.127 617.833 383.944 604.412 383.944H596.547V402.944ZM630.547 384.752C630.547 385.196 633.472 389.575 637.047 394.482L643.547 403.405V412.674C643.547 418.187 643.952 421.944 644.547 421.944C645.14 421.944 645.547 418.266 645.547 412.909V403.874L652.047 395.018C655.622 390.147 658.547 385.663 658.547 385.053C658.547 382.483 656.514 384.434 650.802 392.486L644.743 401.027L638.577 392.486C633.035 384.808 630.547 382.412 630.547 384.752ZM371.912 388.017C377.887 392.716 374.029 399.944 365.547 399.944H360.547V385.944H364.912C367.814 385.944 370.161 386.639 371.912 388.017ZM418.649 388.202C435.744 399.562 420.878 427.782 403.122 417.678C388.794 409.524 394.311 385.944 410.547 385.944C413.761 385.944 416.328 386.66 418.649 388.202ZM459.768 388.721C465.91 394.863 460.64 402.944 450.491 402.944H444.547V385.711L451.068 386.126C456.072 386.445 458.096 387.048 459.768 388.721ZM572.625 388.217C587.888 398.503 579.632 422.809 561.998 419.501C549.335 417.125 544.986 399.208 554.808 389.874C559.617 385.303 567.248 384.593 572.625 388.217ZM611.863 387.107C621.477 392.228 616.896 402.944 605.092 402.944H598.547V385.944H604.113C607.174 385.944 610.661 386.468 611.863 387.107ZM335.398 397.47C337.03 401.856 338.679 406.232 339.063 407.194C339.691 408.769 338.995 408.944 332.087 408.944C324.586 408.944 324.428 408.893 325.117 406.694C326.712 401.603 331.79 388.853 332.099 389.163C332.282 389.346 333.767 393.084 335.398 397.47ZM496.611 401.194L499.497 408.944H492.022C487.911 408.944 484.547 408.596 484.547 408.171C484.547 407.516 485.897 403.799 490.985 390.444C491.859 388.151 491.493 387.451 496.611 401.194ZM376.092 405.398C382.348 411.653 377.505 418.944 367.092 418.944H360.547V402.944H367.092C372.709 402.944 373.986 403.291 376.092 405.398Z" fill="#BABABA"/>
<path fill-rule="evenodd" clip-rule="evenodd" d="M284.755 304.2C282.442 306.988 283.557 366.323 285.932 366.78C288.974 367.365 289.521 365.134 289.537 352.07L289.552 339.694L297.879 340.131C311.415 340.842 314.969 343.866 316.489 355.967C317.479 363.856 318.676 365.945 322.206 365.945C325.518 365.945 326.289 363.281 323.68 360.85C322.133 359.408 321.552 357.668 321.552 354.471C321.552 348.809 320.149 345.191 316.476 341.383L313.524 338.32L316.17 335.883C325.831 326.983 323.735 311.35 312.052 305.167C307.705 302.867 286.486 302.115 284.755 304.2ZM342.227 304.195C340.672 305.334 340.544 308.159 340.786 335.945L341.052 366.445H359.552C386.296 366.445 388.748 362.632 362.302 362.17L346.552 361.894V338.001L360.302 337.723C373.293 337.46 374.052 337.335 374.052 335.445C374.052 333.555 373.293 333.43 360.302 333.167L346.552 332.889V308.945H362.083C378.364 308.945 380.717 308.258 377.541 304.432C375.894 302.447 344.899 302.239 342.227 304.195ZM411.759 305.083C384.744 315.464 385.168 354.774 412.405 364.998C423.176 369.041 443.584 365.517 446.009 359.195C447.473 355.382 443.689 354.85 437.988 358.068C419.624 368.432 397.059 355.651 397.178 334.954C397.299 313.959 419.622 301.457 438.234 311.961C445.16 315.87 449.128 314.316 444.581 309.476C438.662 303.175 422.391 300.998 411.759 305.083ZM480.316 303.883C459.105 310.718 451.841 339.977 467.148 356.92C486.312 378.132 519.885 364.145 519.913 334.937C519.934 313.562 499.648 297.653 480.316 303.883ZM558.552 303.823C523.613 315.285 529.604 364.717 566.177 366.735C575.097 367.227 579.839 366.158 585.832 362.307L589.611 359.877L589.052 334.445H577.052C560.18 334.445 558.186 338.243 574.802 338.731L584.552 339.017V357.057L580.051 359.048C552.131 371.399 527.276 337.374 548.624 316.027C556.92 307.731 570.303 305.904 581.286 311.569C587.478 314.762 590.031 314.685 589.391 311.325C588.351 305.863 567.67 300.832 558.552 303.823ZM611.159 305.527C610.215 307.986 610.475 364.275 611.437 365.793C615.12 371.605 616.037 367.176 616.552 341.095L617.052 315.772L635.449 341.409C659.719 375.228 657.971 375.616 658.316 336.329C658.544 310.432 658.369 306.038 657.066 304.957C653.162 301.716 652.602 304.746 652.319 330.639L652.052 355.116L633.691 329.531C615.701 304.462 612.767 301.337 611.159 305.527ZM698.178 304.741C695.789 308.607 675.655 365.448 676.408 366.201C678.695 368.488 680.902 366.239 683.772 358.695L686.721 350.945H714.383L717.328 358.695C720.21 366.281 723.45 369.348 724.778 365.748C725.787 363.012 702.982 304.47 700.777 304.138C699.657 303.969 698.487 304.24 698.178 304.741ZM500.317 310.825C515.12 318.377 519.035 339.843 507.967 352.773C492.471 370.877 464.572 359.416 464.572 334.945C464.572 315.254 483.699 302.347 500.317 310.825ZM313.13 313.18C316.077 316.397 316.552 317.614 316.552 321.945C316.552 326.276 316.077 327.493 313.13 330.71L309.709 334.445L289.552 335.132V308.758L309.709 309.445L313.13 313.18ZM706.688 330.203L712.324 345.445L706.438 345.743C703.201 345.906 697.903 345.906 694.666 345.743L688.78 345.445L694.416 330.203C697.516 321.82 700.277 314.962 700.552 314.962C700.827 314.962 703.588 321.82 706.688 330.203Z" fill="#B7B7B7"/>
<path fill-rule="evenodd" clip-rule="evenodd" d="M149.831 25.7501C109.561 39.8821 75.988 52.1191 75.225 52.9441C73.674 54.6221 3.72603 167.77 1.09403 172.859C-0.976969 176.863 -2.23697 173.137 18.035 222.944C26.653 244.119 34.642 263.832 35.788 266.751C39.468 276.125 40.481 276.173 67.866 268.29C69.255 267.89 68.375 270.215 64.116 278.19C56.458 292.531 56.217 291.526 71.136 307.478C89.421 327.027 83.975 324.944 116.801 324.944H144.783L144.188 327.194C138.504 348.666 139.152 351.368 152.12 360.233C169.031 371.795 164.816 375.022 202.55 321.623L234.05 277.046L293.642 248.584L327.346 250.866C345.883 252.121 362.482 252.99 364.233 252.796C368.213 252.356 415.252 213.157 416.015 209.645C419.665 192.849 430.48 108.493 429.224 106.617C427.805 104.497 369.006 40.1251 361.718 32.7131L358.05 28.9831L290.754 14.4631C253.74 6.47811 223.365 -0.0308897 223.254 0.000110274C223.142 0.0301103 190.102 11.6181 149.831 25.7501ZM239.83 19.0521C242.375 19.7151 243.368 20.4311 242.869 21.2411C242.462 21.9031 240.189 25.2191 237.819 28.6121C235.449 32.0041 231.469 38.9791 228.974 44.1121C226.48 49.2441 224.659 52.5441 224.928 51.4441C225.198 50.3441 225.91 43.5941 226.511 36.4441C228.379 14.2191 227.2 15.7591 239.83 19.0521ZM211.109 38.7071C209.163 57.9471 208.773 59.9441 206.96 59.9441C200.149 59.9441 187.901 70.7271 184.54 79.6821C172.443 111.911 210.205 138.451 237.05 116.589L240.05 114.146L265.55 134.183C281.695 146.869 290.984 154.811 290.87 155.832C290.771 156.719 289.711 160.144 288.516 163.444C286.735 168.361 286.416 171.014 286.752 178.141L287.161 186.838L282.605 187.891C269.809 190.849 198.775 206.026 197.048 206.171C195.948 206.263 185.148 200.775 173.048 193.974L151.05 181.608V171.526C151.05 152.127 140.249 138.759 120.681 133.939L114.313 132.371L102.437 97.9521C95.905 79.0211 90.896 63.2051 91.306 62.8041C93.568 60.5891 212.074 20.1821 212.376 21.5231C212.555 22.3191 211.985 30.0521 211.109 38.7071ZM265.41 24.4801L272.165 26.0171L267.789 30.7301C257.632 41.6701 248.773 58.7151 246.282 72.1111L245.225 77.7961L242.291 73.3671C240.678 70.9321 237.996 67.8731 236.331 66.5701L233.304 64.2011L235.067 58.8221C239.145 46.3871 253.65 22.9441 257.267 22.9441C258.03 22.9441 261.695 23.6351 265.41 24.4801ZM290.55 29.8761C292.475 30.3831 296.673 31.3201 299.88 31.9581L305.709 33.1191L299.502 36.7811C260.727 59.6631 261.756 114.655 301.414 138.944C303.659 140.319 305.508 141.733 305.523 142.087C305.762 147.806 260.109 113.043 257.661 105.643C252.92 91.3101 257.252 66.1471 267.216 50.1361C271.112 43.8761 284.685 28.9331 286.46 28.9501C286.785 28.9531 288.625 29.3701 290.55 29.8761ZM336.484 40.0031C347.969 41.8671 351.547 44.0881 363.216 56.5991C374.752 68.9671 374.742 68.9431 368.162 69.6841C360.764 70.5181 357.085 69.2851 351.339 64.0461C319.626 35.1321 275.994 76.7571 305.229 108.036C322.568 126.587 355.244 136.57 377.401 130.086C379.794 129.386 381.896 128.956 382.072 129.132C382.977 130.038 354.094 149.132 353.029 148.331C352.38 147.843 349.907 145.977 347.534 144.183C342.337 140.255 332.184 136.944 325.335 136.944C317.017 136.944 301.453 126.985 292.285 115.796C267.648 85.7301 287.833 43.6061 329.05 39.0691C329.6 39.0091 332.945 39.4291 336.484 40.0031ZM335.182 66.4351C337.144 67.2541 341.163 70.1321 344.114 72.8281C353.013 80.9621 367.243 83.5341 377.528 78.8691L382.005 76.8381L386.219 81.6411C390.953 87.0371 390.937 87.0851 383.05 91.1751C367.263 99.3611 346.526 96.4211 333.946 84.2131C328.812 79.2301 326.873 78.5021 323.909 80.4441C319.707 83.1981 320.734 86.9751 327.347 93.0861C344.971 109.375 371.902 111.609 392.579 98.4961L398.05 95.0271L407.05 104.02L404.568 105.911C373.613 129.502 316.571 120.903 307.98 91.3511C303.388 75.5561 320.186 60.1691 335.182 66.4351ZM221.235 75.0081C231.194 78.7711 235.984 92.5521 230.276 101.022C219.929 116.376 197.55 109.814 197.55 91.4261C197.55 79.3421 209.952 70.7451 221.235 75.0081ZM89.243 106.14L99.265 135.336L95.39 137.253C85.633 142.08 76.261 154.477 74.909 164.344L74.278 168.944H47.831C33.031 168.944 21.53 168.557 21.717 168.065C22.621 165.68 77.962 76.9441 78.545 76.9441C78.917 76.9441 83.731 90.0821 89.243 106.14ZM407.576 162.527C404.84 181.731 402.347 198.898 402.034 200.676C401.418 204.184 362.962 237.965 359.631 237.925C358.761 237.915 342.975 236.818 324.55 235.487L291.05 233.068L224.011 265.035L164.098 349.79L161.247 348.117C156.364 345.252 156.311 344.926 158.633 332.286C160.506 322.093 162.82 315.362 175.255 283.944C183.201 263.869 191.958 241.708 194.716 234.697C200.788 219.262 192.935 222.77 248.014 210.888L294.69 200.818L298.912 204.71C326.171 229.836 371.602 204.201 363.307 168.375L361.902 162.307L386.97 144.703C400.758 135.021 412.154 127.214 412.294 127.355C412.434 127.495 410.311 143.322 407.576 162.527ZM120.202 149.433C134.522 153.686 141.015 171.571 132.965 184.59C120.333 205.022 89.303 195.842 89.418 171.707C89.496 155.381 104.26 144.699 120.202 149.433ZM337.139 155.443C349.433 162.648 352.731 178.898 344.201 190.237C331.038 207.735 303.313 199.636 301.736 177.832C300.359 158.805 320.809 145.873 337.139 155.443ZM78.104 189.462C89.701 212.385 120.703 217.976 139.373 200.512C145.43 194.848 142.427 194.121 164.719 206.643C187.95 219.693 187.677 211.535 166.658 264.444L148.781 309.444L94.05 309.911L75.194 289.736L83.372 273.988C97.003 247.739 94.841 245.028 66.544 252.887C56.922 255.559 48.783 257.453 48.457 257.095C48.13 256.737 41.865 241.594 34.535 223.444C27.204 205.294 20.603 188.981 19.865 187.194L18.523 183.944H75.312L78.104 189.462Z" fill="#C7C7C7"/>
</svg>
