<?xml version="1.0" encoding="UTF-8" standalone="no"?><svg width="916" height="916" viewBox="0 0 916 916" fill="none" xmlns="http://www.w3.org/2000/svg">
<path d="M151.125 223.628C186 240.339 380.719 318.808 411.234 333.339C441.75 347.87 463.547 347.87 502.781 328.253C541.289 307.91 724.383 233.074 759.258 214.91C777.422 205.464 785.414 198.199 785.414 191.66V125.542C785.414 119.003 776.695 113.191 759.258 106.652L508.594 9.29235C473.719 -3.78577 459.914 -3.05921 419.227 11.472C377.812 26.0033 184.547 102.292 150.398 115.37C133.688 121.91 124.242 128.449 124.242 134.988H123.516V201.105C123.516 208.37 133.688 215.636 151.125 223.628ZM467.906 233.074L361.102 188.753L514.406 165.503L467.906 233.074ZM699.68 127.722L608.859 163.324L599.414 166.956L509.32 131.355L609.586 91.3939L699.68 127.722ZM434.484 62.3314L419.953 34.722L465.727 52.8861L509.32 38.3549L497.695 66.6908L542.016 83.4017L484.617 89.2142L471.539 119.73L451.195 86.308L385.078 80.4955L434.484 62.3314ZM320.414 100.839C365.461 100.839 402.516 115.37 402.516 132.808C402.516 150.245 366.188 164.777 320.414 164.777C275.367 164.777 238.312 150.245 238.312 132.808C238.312 115.37 275.367 100.839 320.414 100.839ZM151.125 336.972C186 353.683 380.719 432.152 411.234 446.683C441.75 461.214 463.547 461.214 502.781 441.597C541.289 421.253 724.383 346.417 759.258 328.253C777.422 318.808 785.414 311.542 785.414 305.003V238.886C785.414 245.425 776.695 251.964 759.984 261.41C725.109 279.574 542.016 355.136 503.508 374.753C465 395.097 443.203 395.097 412.688 379.839C382.172 365.308 186.727 286.839 151.852 270.128C134.414 262.136 124.242 254.87 124.242 248.331V315.175C123.516 321.714 133.688 328.253 151.125 336.972ZM151.125 445.956C186 462.667 380.719 541.136 411.234 555.667C441.75 570.199 463.547 570.199 502.781 550.581C541.289 530.238 724.383 455.402 759.258 437.238C777.422 427.792 785.414 420.527 785.414 413.988V347.87C785.414 354.41 776.695 360.949 759.984 370.394C725.109 388.558 542.016 464.12 503.508 483.738C465 504.081 443.203 504.081 412.688 488.824C382.172 474.292 186.727 395.824 151.852 379.113C134.414 371.12 124.242 363.855 124.242 357.316V424.16C123.516 429.972 133.688 437.238 151.125 445.956ZM148.219 700.98C148.219 687.175 137.32 676.277 122.789 676.277C98.8125 675.55 77.7422 684.269 61.7578 695.167C58.125 696.62 58.125 700.98 50.8594 703.886V700.253C50.8594 686.449 39.2344 675.55 24.7031 675.55C10.8984 675.55 0 686.449 0 700.253V888.433C0 902.238 10.8984 913.863 24.7031 913.863C39.2344 913.863 50.8594 902.238 50.8594 888.433V798.339C58.125 791.8 59.5781 773.636 71.2031 758.378C77.0156 748.933 84.2812 740.941 93.7266 735.128C101.719 728.589 111.891 725.683 122.789 725.683C137.32 726.41 148.219 714.058 148.219 700.98ZM249.211 675.55C183.82 675.55 133.688 730.042 132.961 795.433C133.688 860.824 184.547 914.589 249.938 915.316C284.086 915.316 312.422 905.144 335.672 884.074C346.57 873.902 342.211 859.37 335.672 852.831C329.133 844.839 310.242 843.386 300.07 854.284C288.445 863.73 267.375 867.363 250.664 865.91C233.953 864.456 215.062 856.464 204.891 844.839C196.172 836.847 191.086 820.863 188.906 813.597H340.758C353.836 813.597 362.555 805.605 364.008 793.98C364.734 793.253 363.281 790.347 363.281 789.62V787.441C363.281 722.05 311.695 675.55 249.211 675.55ZM186 769.277C189.633 754.745 209.977 720.597 250.664 718.417C292.078 722.05 316.781 754.745 321.141 769.277H186ZM610.312 605.8C610.312 591.995 599.414 579.644 584.883 579.644C570.352 579.644 559.453 591.269 559.453 605.8V695.894C537.656 683.542 518.039 675.55 494.789 675.55C430.125 675.55 377.812 730.042 377.812 795.433C377.812 860.097 429.398 914.589 494.062 914.589C518.039 914.589 540.562 906.597 558.727 894.245C560.906 905.87 571.078 914.589 584.156 914.589C598.688 914.589 610.312 902.964 610.312 888.433V605.8ZM538.383 842.659C526.758 855.011 510.773 862.277 493.336 862.277C475.898 862.277 460.641 855.011 448.289 842.659C436.664 831.034 429.398 813.597 429.398 795.433C429.398 776.542 436.664 759.105 448.289 747.48C459.914 735.128 475.898 727.863 493.336 727.863C510.773 727.863 526.031 735.128 538.383 747.48C550.008 759.105 557.273 776.542 557.273 795.433C558 813.597 550.734 831.034 538.383 842.659ZM672.07 579.644C657.539 579.644 646.641 591.269 646.641 605.8V615.972C646.641 630.503 657.539 642.128 672.07 642.128C686.602 642.128 697.5 630.503 697.5 615.972V605.8C697.5 591.269 686.602 579.644 672.07 579.644ZM672.07 675.55C657.539 675.55 646.641 686.449 646.641 701.706V888.433C646.641 902.964 657.539 914.589 672.07 914.589C686.602 914.589 697.5 902.964 697.5 888.433V702.433C697.5 687.175 686.602 675.55 672.07 675.55ZM905.297 808.511C897.305 795.433 884.227 787.441 871.148 781.628C857.344 775.089 842.812 769.277 826.828 769.277H826.102L825.375 767.097C809.391 764.191 797.039 759.105 790.5 754.745C786.867 752.566 785.414 750.386 785.414 749.66C784.688 748.206 784.688 747.48 784.688 745.3C784.688 743.12 786.141 738.761 792.68 734.402C799.219 729.316 809.391 725.683 821.742 725.683C837 725.683 850.805 733.675 866.062 743.12C877.688 751.113 893.672 748.206 901.664 736.581C908.93 724.956 905.297 708.972 893.672 700.98C878.414 690.808 855.164 674.824 821.742 674.824C799.945 674.824 779.602 681.363 762.891 692.261C746.906 703.886 734.555 722.777 734.555 744.574C734.555 755.472 737.461 766.37 742.547 774.363C751.266 787.441 762.891 793.98 775.242 800.519C787.594 806.331 802.125 811.417 816.656 811.417H817.383C834.82 818.683 848.625 821.589 855.891 826.675C859.523 828.855 861.703 831.761 862.43 833.214C863.156 834.667 863.883 836.12 863.883 838.3C863.883 841.933 861.703 847.019 855.164 852.831C847.172 857.917 835.547 862.277 822.469 862.277C803.578 863.003 782.508 852.105 770.156 841.206C759.984 831.761 742.547 833.941 734.555 844.839C725.836 855.011 727.289 871.722 738.188 880.441C757.078 895.699 786.141 913.136 823.195 913.136C846.445 913.136 868.242 905.87 885.68 894.245C903.117 881.894 915.469 862.277 915.469 839.027C914.742 828.855 911.109 817.956 905.297 808.511Z" fill="#D5D5D5"/>
</svg>
