<?xml version="1.0" encoding="UTF-8" standalone="no"?><svg width="1873" height="526" viewBox="0 0 1873 526" fill="none" xmlns="http://www.w3.org/2000/svg">
<path fill-rule="evenodd" clip-rule="evenodd" d="M457.929 92.3543L354.778 301.475L93.3285 456.755L431.856 433.778L457.929 92.3543Z" fill="#D0D0D0"/>
<path fill-rule="evenodd" clip-rule="evenodd" d="M324.059 337.353L432.411 433.545L403.314 232.677L324.059 337.353Z" fill="#CCCCCC"/>
<path fill-rule="evenodd" clip-rule="evenodd" d="M94.461 456.318L432.804 433.545L219.639 416.808L94.461 456.318Z" fill="#CCCCCC"/>
<path fill-rule="evenodd" clip-rule="evenodd" d="M30.8322 306.933L94.7615 456.362L148.013 281.871L30.8322 306.933Z" fill="#E8E8E8"/>
<path fill-rule="evenodd" clip-rule="evenodd" d="M134.816 277.433L324.038 337.931L275.04 145.964L134.816 277.433Z" fill="#E8E8E8"/>
<path fill-rule="evenodd" clip-rule="evenodd" d="M277.351 159.742L446.812 148.668L314.262 40.3862L277.351 159.742Z" fill="#E8E8E8"/>
<path fill-rule="evenodd" clip-rule="evenodd" d="M257.682 1.20211L384.824 1.78004L306.866 44.871L257.682 1.20211Z" fill="#E8E8E8"/>
<path fill-rule="evenodd" clip-rule="evenodd" d="M6.24039 234.92L0 365.464L32.6581 305.89L6.24039 234.92Z" fill="#E8E8E8"/>
<path fill-rule="evenodd" clip-rule="evenodd" d="M4.48384 232.677L31.0633 308.086L146.557 282.169L278.414 159.601L315.625 41.3803L257.033 0L157.417 37.2885C126.033 66.4858 65.1312 124.256 62.9355 125.343C60.7629 126.453 22.7197 198.371 4.48384 232.677Z" fill="#E8E8E8"/>
<path fill-rule="evenodd" clip-rule="evenodd" d="M97.8124 97.2089C165.833 29.7522 253.522 -10.1023 287.174 23.8572C320.805 57.8168 285.14 140.346 217.119 207.78C149.099 275.213 62.4964 317.264 28.8676 283.305C-4.7843 249.368 29.7921 164.643 97.8124 97.2089Z" fill="#D3D3D3"/>
<path fill-rule="evenodd" clip-rule="evenodd" d="M94.7615 456.293L147.597 281.247L323.067 337.631C259.623 397.135 189.061 447.439 94.7615 456.293Z" fill="#D3D3D3"/>
<path fill-rule="evenodd" clip-rule="evenodd" d="M278.645 159.256L323.691 337.723C376.689 281.987 424.254 222.066 447.549 147.952L278.645 159.256Z" fill="#D3D3D3"/>
<path fill-rule="evenodd" clip-rule="evenodd" d="M447.089 148.853C465.117 94.4348 469.277 16.3672 384.267 1.87251L314.513 40.4093L447.089 148.853Z" fill="#D3D3D3"/>
<path fill-rule="evenodd" clip-rule="evenodd" d="M0 364.678C2.49616 454.492 67.2807 455.83 94.8771 456.618L31.1326 307.717L0 364.678Z" fill="#D3D3D3"/>
<path fill-rule="evenodd" clip-rule="evenodd" d="M278.897 159.534C319.621 184.57 401.696 234.85 403.36 235.775C405.947 237.231 438.746 180.455 446.188 148.368L278.897 159.534Z" fill="#D3D3D3"/>
<path fill-rule="evenodd" clip-rule="evenodd" d="M147.527 281.247L218.159 417.548C259.924 394.893 292.628 367.29 322.582 337.723L147.527 281.247Z" fill="#D3D3D3"/>
<path fill-rule="evenodd" clip-rule="evenodd" d="M30.8553 307.902L20.8475 427.095C39.7305 452.894 65.709 455.137 92.9587 453.125C73.2437 404.047 33.8599 305.913 30.8553 307.902Z" fill="#D3D3D3"/>
<path fill-rule="evenodd" clip-rule="evenodd" d="M314.1 40.7099L454.416 60.4059C446.928 28.6657 423.931 8.18358 384.732 1.78004L314.1 40.7099Z" fill="#D3D3D3"/>
<path d="M995.731 408.818H894.934C872.593 373.805 852.363 343.542 834.245 318.029C816.301 292.517 796.775 266.213 775.666 239.116H737.406V357.881C737.406 364.04 738.373 369.494 740.308 374.245C742.243 378.819 746.377 382.338 752.71 384.802C755.876 386.033 761.417 387.177 769.333 388.233C777.249 389.288 783.934 389.904 789.387 390.08V408.818H631.068V390.08C635.289 389.728 641.358 389.112 649.274 388.233C657.366 387.353 662.995 386.209 666.162 384.802C671.439 382.514 675.221 379.171 677.508 374.772C679.971 370.374 681.202 364.743 681.202 357.881V87.0971C681.202 80.9393 680.322 75.4849 678.563 70.7339C676.804 65.9837 672.67 62.3768 666.162 59.9132C661.764 58.3305 656.047 56.9225 649.01 55.6905C641.974 54.2834 635.993 53.4034 631.068 53.0512V34.3127H803.9C819.732 34.3132 834.596 35.9849 848.493 39.3273C862.39 42.4947 874.968 47.6851 886.226 54.8986C897.132 61.9369 905.84 71.1741 912.349 82.6105C918.857 93.8714 922.112 107.507 922.112 123.518C922.112 137.946 919.913 150.703 915.515 161.787C911.117 172.872 904.609 182.461 895.989 190.555C888.073 198.121 878.574 204.719 867.492 210.349C856.409 215.803 844.183 220.466 830.814 224.337C849.285 248.794 864.589 269.38 876.727 286.095C889.04 302.81 904.081 323.132 921.848 347.061C929.588 357.618 936.536 365.447 942.694 370.55C949.026 375.476 955.271 379.523 961.428 382.69C966.001 384.978 971.718 386.737 978.58 387.969C985.44 389.2 991.157 389.904 995.731 390.08V408.818ZM856.937 129.589C856.937 106.892 850.428 88.945 837.411 75.7486C824.393 62.3768 806.011 55.6908 782.263 55.6905H737.406V216.419H771.972C796.248 216.419 816.477 208.678 832.661 193.194C848.845 177.535 856.937 156.333 856.937 129.589Z" fill="#CCCCCC"/>
<path d="M1282.03 404.068L1197.32 409.874L1193.37 406.179V373.189H1191.78C1187.56 377.588 1182.81 382.338 1177.54 387.441C1172.26 392.367 1166.19 396.854 1159.33 400.901C1151.41 405.651 1143.76 409.258 1136.37 411.722C1128.98 414.185 1118.52 415.417 1104.97 415.417C1081.93 415.417 1064.34 407.939 1052.2 392.983C1040.24 377.852 1034.26 355.946 1034.26 327.266V202.695C1034.26 196.361 1033.03 191.083 1030.56 186.86C1028.28 182.461 1024.84 178.678 1020.27 175.511C1017.1 173.4 1013.15 171.904 1008.4 171.024C1003.65 169.969 998.634 169.265 993.357 168.913V151.758L1080.17 145.424L1084.13 149.119V329.906C1084.13 348.732 1088.35 362.896 1096.79 372.397C1105.24 381.898 1115.35 386.649 1127.14 386.649C1136.81 386.649 1145.43 385.153 1153 382.162C1160.56 379.171 1166.89 375.652 1171.99 371.605C1176.74 367.911 1180.88 364.04 1184.4 359.993C1188.09 355.77 1190.9 351.899 1192.84 348.38V200.848C1192.84 195.042 1191.61 189.939 1189.15 185.54C1186.68 180.966 1183.25 177.095 1178.85 173.928C1175.69 171.816 1170.94 170.585 1164.61 170.233C1158.45 169.705 1151.5 169.265 1143.76 168.913V151.758L1238.22 145.424L1242.18 149.119V355.77C1242.18 361.752 1243.41 366.855 1245.88 371.078C1248.34 375.3 1251.77 378.907 1256.17 381.898C1259.33 383.834 1263.12 385.153 1267.51 385.857C1271.91 386.385 1276.75 386.737 1282.03 386.913L1282.03 404.068Z" fill="#CCCCCC"/>
<path d="M1578.61 278.441C1578.61 317.501 1566.3 350.316 1541.67 376.884C1517.04 403.452 1488.46 416.736 1455.91 416.736C1441.66 416.736 1427.59 414.537 1413.7 410.138C1399.97 405.739 1387.04 399.845 1374.91 392.455L1355.38 422.806L1339.02 419.111C1339.9 406.091 1340.52 390.432 1340.87 372.133C1341.22 353.835 1341.4 336.152 1341.4 319.085V61.4967C1341.4 55.5148 1339.99 49.5327 1337.17 43.55C1334.53 37.5681 1331.1 33.2575 1326.88 30.6177C1323.54 28.3309 1317.91 26.6593 1310 25.6033C1302.26 24.372 1296.01 23.5803 1291.26 23.2279V6.3369L1386.78 0.266768L1390.47 4.22552V175.775L1392.32 176.303C1403.23 164.691 1415.1 155.981 1427.94 150.175C1440.96 144.369 1453.71 141.465 1466.2 141.465C1498.22 141.465 1524.96 154.134 1546.42 179.47C1567.88 204.807 1578.61 237.797 1578.61 278.441ZM1523.46 280.288C1523.46 267.268 1522.06 253.984 1519.24 240.436C1516.43 226.888 1512.03 215.1 1506.05 205.07C1500.07 194.866 1492.24 186.596 1482.56 180.262C1472.89 173.928 1461.28 170.761 1447.73 170.761C1435.42 170.761 1424.6 173.224 1415.28 178.15C1406.13 182.901 1397.86 189.411 1390.47 197.681V349.172C1391.53 353.395 1393.55 358.321 1396.54 363.952C1399.71 369.582 1403.93 374.949 1409.21 380.051C1414.49 384.978 1420.47 389.024 1427.15 392.191C1433.84 395.183 1442.02 396.678 1451.69 396.678C1473.15 396.678 1490.48 386.297 1503.67 365.535C1516.87 344.773 1523.46 316.358 1523.46 280.288Z" fill="#CCCCCC"/>
<path d="M1597.61 493.801C1597.61 485.004 1599.98 477.79 1604.73 472.16C1609.66 466.705 1615.73 463.978 1622.94 463.978C1628.57 463.978 1633.41 465.034 1637.45 467.145C1641.5 469.257 1645.11 471.984 1648.27 475.327C1650.91 477.966 1653.73 481.573 1656.72 486.148C1659.71 490.722 1662.08 494.505 1663.84 497.496C1672.64 492.746 1683.1 480.341 1695.24 460.283C1707.55 440.225 1716.44 422.63 1721.89 407.499C1705.18 365.799 1690.05 328.498 1676.51 295.596C1662.96 262.694 1648.8 228.648 1634.02 193.458C1630.68 185.364 1625.05 179.118 1617.14 174.719C1609.22 170.145 1601.3 167.242 1593.39 166.01V148.591H1712.13V167.066C1706.85 167.242 1700.52 168.385 1693.13 170.497C1685.74 172.432 1682.05 175.159 1682.05 178.678C1682.05 178.678 1682.49 179.998 1683.37 182.637C1684.42 185.277 1685.3 187.828 1686 190.291C1692.69 207.71 1702.89 232.87 1716.61 265.773C1730.33 298.499 1740.98 324.715 1748.54 344.421C1756.46 325.595 1764.64 306.153 1773.08 286.095C1781.7 265.861 1791.29 242.02 1801.84 214.572C1803.07 211.229 1804.83 206.654 1807.12 200.848C1809.41 194.866 1810.55 189.763 1810.55 185.54C1810.55 180.966 1806.5 176.743 1798.41 172.872C1790.5 168.825 1782.93 166.362 1775.72 165.482V148.591H1872.29V164.954C1867.02 165.834 1860.07 168.913 1851.45 174.192C1842.83 179.294 1836.41 186.596 1832.19 196.097C1811.25 244.659 1792.61 288.91 1776.25 328.85C1760.06 368.79 1747.75 398.174 1739.31 417C1728.22 441.633 1718.28 460.811 1709.49 474.535C1700.87 488.435 1692.43 499.344 1684.16 507.262C1676.07 514.651 1668.68 519.578 1661.99 522.041C1655.48 524.68 1648.71 526 1641.68 526C1627.95 526 1617.14 522.745 1609.22 516.235C1601.48 509.725 1597.61 502.247 1597.61 493.801Z" fill="#CCCCCC"/>
</svg>
