<?xml version="1.0" encoding="UTF-8" standalone="no"?><svg width="961" height="483" viewBox="0 0 961 483" fill="none" xmlns="http://www.w3.org/2000/svg">
<path fill-rule="evenodd" clip-rule="evenodd" d="M213.805 1.47544C96.9157 13.0804 0.804688 117.799 0.804688 233.551V240.807H24.7597H48.7137L49.2067 237.557C49.4767 235.769 49.9287 230.032 50.2107 224.807C55.0357 135.327 130.155 59.6264 222.055 51.6294L235.805 50.4334V25.6204V0.807438L226.555 0.967438C221.468 1.05544 215.73 1.28344 213.805 1.47544ZM246.805 25.6824V50.7164L250.055 51.1764C282.352 55.7474 294.402 59.0214 315.305 68.9014C377.597 98.3474 422.681 168.036 422.797 235.057L422.805 239.807H447.401H471.997L471.314 229.057C463.487 105.899 374.217 12.5214 253.555 1.27744L246.805 0.648438V25.6824ZM462.396 80.5574C531.092 184.298 527.614 316.848 453.645 414.017L447.715 421.807H684.711C855.115 421.807 923.196 421.494 927.006 420.692C940.3 417.896 951.34 409.233 957.096 397.081L960.305 390.307V249.807V109.307L957.12 102.584C953.316 94.5544 946.655 87.1324 940.004 83.5124C928.833 77.4324 945.15 77.8074 691.98 77.8074H460.575L462.396 80.5574ZM216.805 112.42C157.429 119.467 123.586 152.111 127.248 198.807C130.069 234.782 145.743 251.376 195.634 271.209C223.833 282.419 232.907 292.785 223.297 302.815C208.021 318.76 173.059 304.37 144.751 270.488C144.375 270.038 137.904 288.421 130.372 311.34C122.839 334.26 116.818 353.142 116.991 353.301C117.744 353.994 134.835 359.036 145.579 361.736C265.526 391.872 354.805 361.606 354.805 290.807C354.805 252.779 336.132 232.089 283.593 211.906C242.375 196.071 234.218 189.913 241.042 179.782C252.862 162.233 285.974 170.356 312.38 197.281L322.456 207.555L336.13 168.392C343.651 146.852 349.805 128.931 349.805 128.568C349.805 125.986 313.118 117.093 290.716 114.244C278.912 112.742 225.246 111.418 216.805 112.42ZM682.371 152.893C704.348 156.916 713.671 171.295 714.101 201.834L714.305 216.307H700.805H687.305L686.805 201.758C686.165 183.146 683.583 178.616 673.493 178.41C658.624 178.107 658.805 177.278 658.805 245.799C658.805 313.245 658.568 311.893 670.65 313.513C683.17 315.192 686.208 310.355 686.638 288.057L686.97 270.807H701.043H715.116L714.498 288.057C713.192 324.514 702.786 338.294 675.574 339.604C651.235 340.776 636.775 331.145 631.297 310.114C629.053 301.5 629.089 189.977 631.338 181.342C637.1 159.222 656.836 148.219 682.371 152.893ZM809.805 167.807V180.807H785.305H760.805V204.807V228.807H780.305H799.805V241.807V254.807H780.305H760.805V282.807V310.807H785.305H809.805V324.307V337.807H770.805H731.805V246.307V154.807H770.805H809.805V167.807ZM1.82469 257.557C2.20769 370.413 104.492 473.193 224.555 481.367L234.805 482.065V457.089V432.113L224.055 431.478C135.247 426.231 59.3717 353.218 50.3307 264.307C49.9947 261.007 49.4937 256.845 49.2177 255.057L48.7137 251.807H25.2597H1.80469L1.82469 257.557ZM422.352 256.557C410.876 351.251 343.706 422.178 257.805 430.309C254.23 430.647 250.293 431.131 249.055 431.384L246.805 431.845V456.906V481.966L253.555 481.305C371.728 469.732 462.116 378.126 470.661 261.277L471.353 251.807H447.14H422.928L422.352 256.557Z" fill="#CCCCCC"/>
</svg>
