<?xml version="1.0" encoding="UTF-8" standalone="no"?><svg width="480" height="464" viewBox="0 0 480 464" fill="none" xmlns="http://www.w3.org/2000/svg">
<g clip-path="url(#clip0_57_6868)">
<path fill-rule="evenodd" clip-rule="evenodd" d="M36.001 59.7724C9.9541 64.0517 0.000976562 81.3427 0.000976562 122.294V144.659H403.001L402.969 124.409C402.907 83.956 396.422 70.2079 373.235 61.3485L367.501 59.1591L204.501 59.0126C111.383 58.9306 39.1416 59.2567 36.001 59.7724ZM68.0323 91.1747C74.1807 94.3524 76.0323 104.087 71.5245 109.452C66.4151 115.524 58.2745 116.085 52.9229 110.735C42.7745 100.583 55.1729 84.5263 68.0323 91.1747ZM113.579 92.9091C124.54 102.956 111.946 120.411 99.2979 112.698C88.5713 106.155 93.0088 89.6591 105.501 89.6591C107.946 89.6591 109.407 89.913 110.954 90.8446C111.758 91.329 112.579 91.997 113.579 92.9091ZM156.797 92.1376C159.891 94.7431 161.555 98.1356 161.735 101.544C161.907 104.821 160.704 108.114 158.079 110.735C147.977 120.839 131.36 108.015 138.626 95.7196C142.36 89.3895 151.407 87.6083 156.797 92.1376Z" fill="#336BAD"/>
<path d="M0.000521371 274.809C-0.00729113 360.729 -0.00729132 374.235 6.32083 383.325C7.4849 384.999 8.86771 386.524 10.5005 388.323L11.438 389.35C14.0552 392.251 15.9615 394.563 18.2505 396.409C27.2661 403.681 42.149 403.677 129.688 403.653L208.001 403.645V404.001H285.368L286.501 398.001L208.001 318.001L317.001 302.501L368.001 204.001L403.001 273.647V207.001H402.79L403.024 169.659H0.000521371V274.809Z" fill="#336BAD"/>
<path d="M332.181 318.611L256 329.487L310.864 385.618L296.187 463.5L367.825 427.716L437.367 463.5L424.437 385.618L480 329.487L402.421 318.611L367.825 249.5L332.181 318.611Z" fill="#336BAD"/>
</g>
<defs>
<clipPath id="clip0_57_6868">
<rect width="480" height="464" fill="white"/>
</clipPath>
</defs>
</svg>
