<?xml version="1.0" encoding="UTF-8" standalone="no"?><svg width="2553" height="880" viewBox="0 0 2553 880" fill="none" xmlns="http://www.w3.org/2000/svg">
<path d="M225.516 806.01L41.8396 487.604C24.7691 458.08 24.7691 421.698 41.8396 392.258L225.516 73.7678C242.67 44.1603 274.217 26.0111 308.274 26.0111H675.626C709.684 26.0111 741.315 44.1603 758.385 73.7678L942.228 392.09C959.299 421.614 959.299 457.996 942.228 487.437L758.469 806.094C741.315 835.701 709.768 853.85 675.71 853.85H308.442C274.217 853.85 242.67 835.618 225.516 806.01Z" fill="#CECECE"/>
<path fill-rule="evenodd" clip-rule="evenodd" d="M520.615 378.624H520.653L390.198 248.236L564.918 378.624H684.917C689.687 378.624 693.452 374.777 693.452 370.093V299.253C693.452 252.165 655.211 213.943 608.099 213.943H381.161C315.138 213.859 261.667 267.303 261.667 333.293C261.625 346.011 266.772 357.449 275.114 365.653C276.137 366.897 277.233 368.1 278.402 369.258L436.052 526.829H269.868C265.182 526.829 261.667 530.593 261.667 535.025V609.128C261.584 654.71 298.57 691.594 344.008 691.594H569.858C638.057 691.594 693.452 636.226 693.452 568.062C693.452 554.795 687.192 542.979 677.442 535.434C677.203 535.185 676.961 534.938 676.715 534.692L520.615 378.624ZM564.92 655.799L399.319 526.831H435.971L564.92 655.799Z" fill="#F4F4F4"/>
<path fill-rule="evenodd" clip-rule="evenodd" d="M1188.03 258.229C1143.67 271.857 1115.02 317.389 1119.53 367.115C1123.65 412.567 1147.73 433.767 1222.65 457.897C1275.92 475.052 1292.3 489.985 1292.3 521.382C1292.3 585.14 1217.87 609.084 1153.79 565.94C1128.18 548.694 1121.21 548.746 1110.39 566.261C1084.45 608.265 1213.87 645.466 1277.38 614.263C1374.63 566.486 1359.83 451.258 1251.87 415.627C1183.81 393.166 1165.84 378.672 1165.84 346.243C1165.84 293.299 1238.79 272.933 1292.18 310.972C1308.38 322.509 1314.84 320.947 1323.82 303.337L1331.79 287.712L1318.1 277.258C1287.88 254.204 1229.12 245.609 1188.03 258.229ZM1514.66 257.845C1336.24 305.919 1337.49 574.848 1516.36 621.455C1654.34 657.414 1771.27 540.024 1740.8 396.127C1718.46 290.582 1618.96 229.742 1514.66 257.845ZM1813.97 623.4H2023.43V579.909H1865.43L1863.37 253.726L1813.97 251.373V623.4ZM2086.66 623.4H2138.04V255.702H2086.66V623.4ZM2236.84 623.4L2316.87 623.341C2485.11 623.218 2553 570.377 2553 439.551C2553 308.726 2485.11 255.884 2316.87 255.762L2236.84 255.702V623.4ZM1620.4 307.753C1727.6 357.112 1716.76 544.377 1604.78 577.509C1505.95 606.759 1430.25 540.459 1435.26 429.046C1439.99 324.027 1529.04 265.69 1620.4 307.753ZM2429.41 306.646C2527.32 350.517 2527.32 528.586 2429.41 572.456C2411.19 580.621 2401.42 581.878 2346.51 583.135L2284.26 584.559V294.544L2346.51 295.967C2401.42 297.225 2411.19 298.482 2429.41 306.646Z" fill="#BDBDBD"/>
</svg>
