<?xml version="1.0" encoding="UTF-8" standalone="no"?><svg width="2500" height="491" viewBox="0 0 2500 491" fill="none" xmlns="http://www.w3.org/2000/svg">
<path d="M2442.27 489.035H2414.11C2414.11 260.74 2225.51 74.7024 1994.65 74.7024V46.5093C2240.98 46.5093 2442.27 245.237 2442.27 489.035ZM2461.99 336.817C2428.2 193.07 2312.78 74.7024 2166.37 32.4127L2173.4 9.87698C2326.84 53.542 2447.9 180.38 2484.5 331.191L2461.99 336.817ZM2483.09 202.947C2447.9 126.838 2388.79 60.6059 2315.59 15.5031L2325.43 0C2401.45 46.5093 2464.81 115.554 2500 195.883L2483.09 202.947Z" fill="#E8E8E8"/>
<path d="M11.2523 424.21C23.911 431.242 50.6664 441.119 70.3578 441.119C91.4871 441.119 99.9262 434.056 99.9262 422.803C99.9262 411.52 92.8936 405.894 67.5448 397.423C21.098 381.92 4.21959 356.571 4.21959 329.785C4.21959 288.902 39.4141 256.489 95.7066 256.489C121.055 256.489 144.967 262.146 159.063 269.179L146.373 317.095C136.527 311.469 116.836 304.405 98.5197 304.405C81.6413 304.405 71.7956 311.469 71.7956 322.721C71.7956 332.598 80.2348 338.224 108.365 348.101C150.624 362.197 168.909 384.733 168.909 417.146C168.909 459.436 136.527 489.035 71.7956 489.035C42.2272 489.035 16.8784 481.971 0 473.532L11.2523 424.21ZM412.426 370.637C412.426 452.403 354.727 490.442 294.184 490.442C229.452 490.442 178.755 448.152 178.755 374.887C178.755 301.592 226.608 256.489 298.403 256.489C365.979 256.489 412.426 302.998 412.426 370.637ZM250.55 372.074C250.55 410.113 266.022 439.713 295.59 439.713C322.346 439.713 339.224 412.926 339.224 372.074C339.224 338.224 326.565 304.405 295.59 304.405C263.209 305.811 250.55 339.63 250.55 372.074ZM436.369 332.598C436.369 304.405 434.962 280.462 434.962 260.74H495.474L498.287 291.715H499.694C508.164 277.649 532.075 256.489 568.676 256.489C613.716 256.489 648.911 286.088 648.911 352.32V484.816H579.96V360.791C579.96 332.598 570.083 312.875 544.765 312.875C525.043 312.875 513.79 325.565 509.571 338.224C506.758 342.475 506.758 349.507 506.758 355.134V483.409H436.369V332.598ZM813.6 484.816L809.381 462.249H807.974C793.909 480.565 769.966 489.035 744.649 489.035C699.609 489.035 672.853 456.623 672.853 419.99C672.853 362.197 724.926 334.004 803.754 334.004V331.191C803.754 319.908 796.722 302.998 762.934 302.998C740.429 302.998 716.487 311.469 701.015 319.908L688.325 274.805C703.828 266.366 734.772 255.082 775.624 255.082C850.201 255.082 874.144 298.778 874.144 350.914V428.429C874.144 449.559 875.55 470.719 876.957 483.409H813.6V484.816ZM805.161 379.107C768.56 379.107 740.429 387.578 740.429 414.333C740.429 432.649 751.682 441.119 767.153 441.119C784.063 441.119 798.128 429.836 803.754 415.739C805.161 411.52 805.161 407.3 805.161 404.487V379.107ZM909.338 334.004C909.338 301.592 907.932 279.056 907.932 260.74H967.037L969.85 301.592H971.288C982.54 269.179 1010.7 255.082 1031.8 255.082C1038.83 255.082 1041.65 255.082 1045.87 256.489V321.314C1041.65 321.314 1034.61 319.908 1027.58 319.908C1002.23 319.908 985.353 334.004 979.727 355.134C978.321 359.384 978.321 365.011 978.321 370.637V483.409H909.338V334.004ZM1064.18 443.933C1075.43 450.996 1096.56 459.436 1117.66 459.436C1147.23 459.436 1159.89 445.339 1159.89 427.023C1159.89 407.3 1148.64 397.423 1119.07 386.14C1079.65 372.074 1059.96 349.507 1059.96 324.159C1059.96 288.902 1088.12 259.302 1135.98 259.302C1158.48 259.302 1178.2 266.366 1190.86 273.398L1181.02 302.998C1172.58 297.372 1155.67 290.308 1135.98 290.308C1112.03 290.308 1099.38 304.405 1099.38 319.908C1099.38 338.224 1112.03 346.694 1141.6 357.978C1179.61 372.074 1199.3 391.797 1199.3 424.21C1199.3 463.655 1169.77 490.442 1116.25 490.442C1092.34 490.442 1069.81 484.816 1054.34 474.939L1064.18 443.933ZM1432.97 372.074C1432.97 453.81 1376.68 489.035 1323.2 489.035C1264.07 489.035 1217.62 445.339 1217.62 374.887C1217.62 300.185 1265.47 257.895 1327.42 257.895C1389.34 257.895 1432.97 304.405 1432.97 372.074ZM1257.03 374.887C1257.03 422.803 1285.19 459.436 1324.61 459.436C1362.62 459.436 1392.15 422.803 1392.15 373.481C1392.15 335.411 1373.87 288.902 1326.02 288.902C1278.13 288.902 1257.03 332.598 1257.03 374.887ZM1649.77 424.21C1649.77 446.746 1649.77 466.468 1651.17 484.816H1615.98L1613.17 448.152H1611.76C1601.91 466.468 1577.97 489.035 1538.56 489.035C1503.36 489.035 1462.54 469.313 1462.54 391.797V262.146H1503.36V384.733C1503.36 427.023 1516.02 455.216 1552.62 455.216C1579.38 455.216 1597.69 436.9 1606.13 418.552C1608.95 412.926 1610.35 405.894 1610.35 397.423V262.146H1651.17V424.21H1649.77ZM1697.62 332.598C1697.62 307.218 1697.62 284.682 1696.21 263.553H1731.41L1732.82 307.218H1734.22C1744.07 277.649 1768.01 259.302 1794.77 259.302C1798.98 259.302 1803.2 259.302 1806.02 260.74V298.778C1801.8 297.372 1797.58 297.372 1791.95 297.372C1763.79 297.372 1744.07 318.501 1738.44 349.507C1737.03 355.134 1737.04 360.791 1737.04 367.824V486.222H1697.62V332.598ZM1981.96 476.345C1972.11 481.971 1948.2 489.035 1918.63 489.035C1852.46 489.035 1808.83 443.933 1808.83 376.294C1808.83 308.655 1855.28 259.302 1927.07 259.302C1951.02 259.302 1972.11 264.959 1983.37 270.585L1973.52 301.592C1963.67 295.965 1949.61 291.715 1927.07 291.715C1876.41 291.715 1849.65 329.785 1849.65 374.887C1849.65 425.616 1882.03 458.029 1925.67 458.029C1948.2 458.029 1963.67 452.403 1974.93 446.746L1981.96 476.345ZM2107.27 458.029C2135.4 458.029 2153.71 452.403 2167.78 446.746L2174.81 474.939C2160.74 481.971 2136.8 489.035 2101.61 489.035C2034.06 489.035 1993.24 443.933 1993.24 377.701C1993.24 311.469 2032.66 257.895 2097.39 257.895C2169.18 257.895 2188.91 321.314 2188.91 362.197C2188.91 370.637 2187.5 376.294 2187.5 380.514H2031.25C2032.66 435.493 2066.44 458.029 2107.27 458.029ZM2091.76 287.495C2050.94 287.495 2032.66 325.565 2029.84 352.32H2148.09C2148.09 326.972 2138.21 287.495 2091.76 287.495Z" fill="#D3D3D3"/>
</svg>
