<?xml version="1.0" encoding="UTF-8" standalone="no"?><svg width="1434" height="322" viewBox="0 0 1434 322" fill="none" xmlns="http://www.w3.org/2000/svg">
<path fill-rule="evenodd" clip-rule="evenodd" d="M260.994 1.12593C260.73 1.39065 258.796 1.83298 256.696 2.10842C254.596 2.38454 251.07 2.93209 248.86 3.32549C242.661 4.42929 237.507 5.28176 233.286 5.90168C231.167 6.21265 228.907 6.69719 228.262 6.97867C226.325 7.82377 226.453 311.611 228.39 311.611C229.106 311.611 229.877 311.913 230.104 312.281C230.332 312.65 231.538 312.952 232.784 312.952C234.03 312.952 235.235 313.253 235.463 313.622C235.691 313.99 237.047 314.292 238.477 314.292C239.907 314.292 241.264 314.593 241.492 314.962C241.719 315.331 243.184 315.632 244.746 315.632C246.309 315.632 247.874 315.903 248.224 316.234C248.574 316.565 250.066 317.005 251.539 317.213C253.013 317.42 256.027 317.916 258.238 318.314C283.828 322.917 326.581 323.285 336.61 318.988C338.018 318.385 340.511 317.789 344.145 317.186C345.343 316.988 346.322 316.612 346.322 316.35C346.322 316.089 347.829 315.464 349.672 314.962C351.514 314.46 353.021 313.803 353.021 313.5C353.021 313.199 353.492 312.952 354.068 312.952C355.543 312.952 363.738 308.916 363.738 308.19C363.738 307.86 364.341 307.59 365.078 307.59C365.815 307.59 366.418 307.288 366.418 306.92C366.418 306.551 366.87 306.25 367.422 306.25C367.975 306.25 368.427 305.948 368.427 305.579C368.427 305.211 368.879 304.909 369.432 304.909C369.985 304.909 370.437 304.608 370.437 304.239C370.437 303.87 370.889 303.569 371.441 303.569C371.994 303.569 372.446 303.267 372.446 302.899C372.446 302.53 372.832 302.229 373.303 302.229C373.775 302.229 374.594 301.625 375.126 300.888C375.657 300.151 376.356 299.548 376.68 299.548C377.003 299.548 378.112 298.643 379.145 297.537C380.177 296.431 381.277 295.518 381.59 295.507C381.903 295.496 382.913 294.58 383.834 293.473C384.755 292.364 386.279 290.594 387.222 289.538C388.164 288.482 389.671 286.667 390.571 285.504C391.471 284.341 392.885 282.577 393.713 281.583C394.542 280.59 395.22 279.425 395.22 278.995C395.22 278.566 395.447 278.113 395.723 277.99C396.352 277.71 398.527 274.141 399.024 272.573C399.229 271.928 399.663 271.4 399.988 271.4C400.313 271.4 400.58 270.797 400.58 270.06C400.58 269.322 400.881 268.719 401.25 268.719C401.618 268.719 401.919 268.134 401.919 267.418C401.919 266.703 402.221 265.931 402.589 265.703C402.958 265.476 403.259 264.704 403.259 263.988C403.259 263.273 403.561 262.688 403.929 262.688C404.297 262.688 404.599 261.934 404.599 261.012C404.599 260.091 404.9 259.337 405.269 259.337C405.637 259.337 405.938 258.601 405.938 257.701C405.938 256.801 406.24 255.878 406.608 255.651C406.977 255.423 407.278 254.518 407.278 253.64C407.278 252.762 407.58 251.857 407.948 251.629C408.316 251.402 408.618 250.178 408.618 248.909C408.618 247.641 408.919 246.603 409.288 246.603C409.656 246.603 409.958 245.246 409.958 243.587C409.958 241.929 410.259 240.571 410.627 240.571C410.996 240.571 411.297 238.913 411.297 236.885C411.297 234.858 411.599 233.199 411.967 233.199C412.378 233.199 412.637 229.96 412.637 224.822C412.637 219.684 412.896 216.445 413.307 216.445C413.679 216.445 413.977 214.657 413.977 212.424C413.977 210.19 413.679 208.402 413.307 208.402C412.891 208.402 412.637 204.716 412.637 198.685C412.637 192.653 412.383 188.967 411.967 188.967C411.589 188.967 411.297 187.068 411.297 184.611C411.297 182.153 411.005 180.255 410.627 180.255C410.259 180.255 409.958 179.048 409.958 177.574C409.958 176.099 409.656 174.893 409.288 174.893C408.919 174.893 408.618 173.687 408.618 172.212C408.618 170.738 408.316 169.532 407.948 169.532C407.58 169.532 407.278 168.893 407.278 168.112C407.278 166.353 404.452 157.886 403.763 157.58C403.486 157.457 403.259 156.925 403.259 156.398C403.259 155.871 402.995 154.916 402.673 154.276C402.351 153.636 401.422 151.755 400.61 150.096C398.217 145.209 396.284 141.781 395.388 140.834C394.928 140.346 394.551 139.689 394.551 139.373C394.551 139.058 394.165 138.4 393.693 137.913C393.221 137.426 391.439 135.218 389.733 133.007C385.709 127.79 379.333 121.664 373.451 117.36C370.872 115.473 368.398 113.622 367.953 113.247C367.508 112.873 366.704 112.566 366.167 112.566C365.629 112.566 365.089 112.34 364.966 112.063C364.645 111.339 359.097 108.545 357.981 108.545C357.463 108.545 357.04 108.297 357.04 107.996C357.04 107.694 355.533 107.036 353.691 106.534C351.849 106.032 350.341 105.375 350.341 105.072C350.341 104.771 349.437 104.524 348.332 104.524C347.227 104.524 346.322 104.222 346.322 103.853C346.322 103.485 345.177 103.183 343.777 103.183C342.377 103.183 340.945 102.908 340.595 102.572C338.897 100.941 307.479 100.33 299.433 101.772C297.039 102.201 293.947 102.726 292.563 102.939C291.179 103.151 289.881 103.595 289.677 103.924C289.473 104.254 288.445 104.524 287.392 104.524C286.34 104.524 285.378 104.749 285.255 105.026C285.059 105.467 282.283 106.571 274.147 109.444C272.949 109.867 271.97 110.441 271.97 110.719C271.97 110.998 271.367 111.225 270.63 111.225C269.893 111.225 269.29 111.527 269.29 111.896C269.29 112.264 268.687 112.566 267.951 112.566C267.214 112.566 266.611 112.867 266.611 113.236C266.611 113.605 266.008 113.906 265.271 113.906C263.942 113.906 263.931 113.459 263.931 57.2755C263.931 -3.24032 264.002 -1.88388 260.994 1.12593ZM1338.24 0.992579C1337.99 1.24457 1335.88 1.73313 1333.55 2.07828C1326.34 3.14856 1324.97 3.45348 1324.58 4.06939C1324.38 4.39778 1323.33 4.66586 1322.25 4.66586C1321.16 4.66586 1320.28 4.96745 1320.28 5.33605C1320.28 5.70465 1319.54 6.00623 1318.64 6.00623C1317.74 6.00623 1316.82 6.30782 1316.59 6.67642C1316.36 7.04502 1315.59 7.34661 1314.88 7.34661C1314.16 7.34661 1313.58 7.64819 1313.58 8.01679C1313.58 8.38539 1313.19 8.68698 1312.71 8.68698C1311.47 8.68698 1308.23 10.2633 1308.22 10.8651C1308.22 11.1419 1307.62 11.3677 1306.88 11.3677C1306.14 11.3677 1305.54 11.6693 1305.54 12.0379C1305.54 12.4065 1305.14 12.7081 1304.66 12.7081C1304.18 12.7081 1303.14 13.3113 1302.34 14.0485C1301.55 14.7857 1300.56 15.3888 1300.14 15.3888C1299.72 15.3888 1298.53 16.2936 1297.5 17.3994C1296.47 18.5052 1295.29 19.41 1294.88 19.41C1293.91 19.41 1281.43 31.8989 1281.43 32.8713C1281.43 33.2808 1280.52 34.4617 1279.42 35.4944C1278.31 36.5272 1277.41 37.8548 1277.41 38.4439C1277.41 39.0337 1277.1 39.5155 1276.74 39.5155C1276.37 39.5155 1276.07 39.911 1276.07 40.3942C1276.07 40.878 1275.46 41.9208 1274.73 42.7123C1273.99 43.5031 1273.39 44.6157 1273.39 45.184C1273.39 45.7523 1273.09 46.2174 1272.72 46.2174C1272.35 46.2174 1272.05 46.8206 1272.05 47.5578C1272.05 48.295 1271.75 48.8982 1271.38 48.8982C1271.01 48.8982 1270.71 49.5013 1270.71 50.2385C1270.71 50.9757 1270.47 51.5789 1270.18 51.5789C1269.9 51.5789 1269.24 53.0111 1268.73 54.7623C1268.22 56.5135 1267.58 58.398 1267.31 58.9509C1266.86 59.8805 1266.41 61.4782 1264.71 68.166C1262.43 77.1646 1262.44 95.0117 1264.71 104.021C1266.6 111.475 1267.48 114.499 1268.68 117.592C1269.51 119.724 1273.66 128.281 1274.04 128.65C1274.24 128.835 1274.85 129.886 1275.4 130.987C1276.38 132.947 1277.57 134.62 1279.25 136.384C1279.71 136.87 1280.09 137.524 1280.09 137.837C1280.09 138.151 1280.69 138.842 1281.43 139.373C1282.16 139.905 1282.76 140.659 1282.76 141.049C1282.76 141.439 1283.37 142.193 1284.1 142.724C1284.84 143.256 1285.44 143.945 1285.44 144.256C1285.44 144.971 1292.04 151.437 1292.77 151.437C1293.07 151.437 1294.47 152.492 1295.87 153.782C1297.28 155.072 1298.76 156.128 1299.16 156.128C1299.56 156.128 1300.32 156.731 1300.85 157.468C1301.38 158.206 1302.35 158.809 1303.01 158.809C1303.66 158.809 1304.2 159.11 1304.2 159.479C1304.2 159.847 1304.65 160.149 1305.2 160.149C1305.76 160.149 1306.21 160.451 1306.21 160.819C1306.21 161.188 1306.81 161.489 1307.55 161.489C1308.29 161.489 1308.89 161.791 1308.89 162.16C1308.89 162.528 1309.49 162.83 1310.23 162.83C1310.97 162.83 1311.57 163.131 1311.57 163.5C1311.57 163.869 1312.17 164.17 1312.91 164.17C1313.64 164.17 1314.25 164.472 1314.25 164.84C1314.25 165.209 1315 165.511 1315.92 165.511C1316.84 165.511 1317.6 165.812 1317.6 166.181C1317.6 166.549 1318.5 166.851 1319.61 166.851C1320.71 166.851 1321.62 167.153 1321.62 167.521C1321.62 167.89 1322.5 168.191 1323.59 168.191C1324.67 168.191 1325.74 168.493 1325.97 168.861C1326.2 169.23 1327.57 169.532 1329.02 169.532C1330.48 169.532 1331.66 169.809 1331.66 170.149C1331.66 170.489 1334 170.956 1336.85 171.19C1347.49 172.057 1365.16 171.408 1365.16 170.149C1365.16 169.809 1366.36 169.532 1367.84 169.532C1369.31 169.532 1370.51 169.23 1370.51 168.861C1370.51 168.493 1371.42 168.191 1372.53 168.191C1374.47 168.191 1375.06 167.999 1378.38 166.285C1379.2 165.859 1380.48 165.511 1381.22 165.511C1381.96 165.511 1382.57 165.209 1382.57 164.84C1382.57 164.472 1383.17 164.17 1383.91 164.17C1384.65 164.17 1385.25 163.869 1385.25 163.5C1385.25 163.131 1385.85 162.83 1386.59 162.83C1387.33 162.83 1387.93 162.528 1387.93 162.16C1387.93 161.791 1388.53 161.489 1389.27 161.489C1390.01 161.489 1390.61 161.188 1390.61 160.819C1390.61 160.451 1391.06 160.149 1391.61 160.149C1392.17 160.149 1392.62 159.847 1392.62 159.479C1392.62 159.11 1393.07 158.809 1393.62 158.809C1394.18 158.809 1394.63 158.507 1394.63 158.139C1394.63 157.77 1395.17 157.468 1395.82 157.468C1396.48 157.468 1397.45 156.865 1397.98 156.128C1398.51 155.391 1399.18 154.788 1399.46 154.788C1400.03 154.788 1402.01 153.241 1404.4 150.934C1405.25 150.105 1406.14 149.426 1406.37 149.426C1406.89 149.426 1407.55 148.732 1412.05 143.41C1414.08 141.023 1416.1 138.675 1416.54 138.192C1416.99 137.709 1417.88 136.42 1418.53 135.328C1419.17 134.236 1419.94 133.342 1420.23 133.342C1420.52 133.342 1420.75 132.738 1420.75 132.001C1420.75 131.264 1421.05 130.661 1421.42 130.661C1421.79 130.661 1422.09 130.208 1422.09 129.656C1422.09 129.103 1422.39 128.65 1422.76 128.65C1423.13 128.65 1423.43 128.047 1423.43 127.31C1423.43 126.573 1423.73 125.97 1424.1 125.97C1424.47 125.97 1424.77 125.366 1424.77 124.629C1424.77 123.892 1425.07 123.289 1425.44 123.289C1425.81 123.289 1426.11 122.686 1426.11 121.948C1426.11 121.211 1426.41 120.608 1426.78 120.608C1427.15 120.608 1427.45 120.005 1427.45 119.268C1427.45 118.53 1427.75 117.927 1428.12 117.927C1428.49 117.927 1428.79 117.023 1428.79 115.917C1428.79 114.811 1429.09 113.906 1429.46 113.906C1429.83 113.906 1430.13 113.001 1430.13 111.896C1430.13 110.79 1430.43 109.885 1430.8 109.885C1431.17 109.885 1431.47 108.528 1431.47 106.869C1431.47 105.211 1431.75 103.853 1432.08 103.853C1433.38 103.853 1434.75 78.0499 1433.52 76.8154C1433.13 76.4261 1432.81 74.3585 1432.81 72.2206C1432.81 70.076 1432.51 68.3336 1432.14 68.3336C1431.77 68.3336 1431.47 67.1272 1431.47 65.6528C1431.47 64.1784 1431.17 62.9721 1430.8 62.9721C1430.43 62.9721 1430.13 62.0673 1430.13 60.9615C1430.13 59.8557 1429.83 58.9509 1429.46 58.9509C1429.09 58.9509 1428.79 58.0462 1428.79 56.9404C1428.79 55.8346 1428.49 54.9298 1428.12 54.9298C1427.75 54.9298 1427.45 54.1759 1427.45 53.2544C1427.45 52.3329 1427.15 51.5789 1426.78 51.5789C1426.41 51.5789 1426.11 50.9757 1426.11 50.2385C1426.11 49.5013 1425.81 48.8982 1425.44 48.8982C1425.07 48.8982 1424.77 48.295 1424.77 47.5578C1424.77 46.8206 1424.47 46.2174 1424.1 46.2174C1423.73 46.2174 1423.43 45.6142 1423.43 44.877C1423.43 44.1398 1423.13 43.5367 1422.76 43.5367C1422.39 43.5367 1422.09 43.0843 1422.09 42.5314C1422.09 41.9785 1421.79 41.5261 1421.42 41.5261C1421.05 41.5261 1420.75 41.0737 1420.75 40.5208C1420.75 39.9679 1420.45 39.5155 1420.08 39.5155C1419.71 39.5155 1419.41 39.0337 1419.41 38.4439C1419.41 37.8548 1418.51 36.5272 1417.4 35.4944C1416.3 34.4617 1415.39 33.2808 1415.39 32.8706C1415.39 32.0296 1404.32 20.7503 1403.49 20.7503C1403.2 20.7503 1402.53 20.1472 1402 19.41C1401.47 18.6728 1400.65 18.0696 1400.17 18.0696C1399.7 18.0696 1399.32 17.768 1399.32 17.3994C1399.32 17.0308 1398.87 16.7292 1398.31 16.7292C1397.76 16.7292 1397.31 16.4276 1397.31 16.059C1397.31 15.6904 1396.86 15.3888 1396.3 15.3888C1395.75 15.3888 1395.3 15.0873 1395.3 14.7187C1395.3 14.3501 1394.85 14.0485 1394.29 14.0485C1393.74 14.0485 1393.29 13.7469 1393.29 13.3783C1393.29 13.0097 1392.86 12.7081 1392.34 12.7081C1391.82 12.7081 1391.29 12.4822 1391.17 12.2055C1390.8 11.3764 1382.48 7.34661 1381.14 7.34661C1380.45 7.34661 1379.89 7.04502 1379.89 6.67642C1379.89 6.30782 1379.16 6.00623 1378.26 6.00623C1377.36 6.00623 1376.44 5.70465 1376.21 5.33605C1375.98 4.96745 1374.91 4.66586 1373.82 4.66586C1372.74 4.66586 1371.85 4.39712 1371.85 4.06873C1371.85 3.74101 1370.87 3.30069 1369.68 3.09159C1368.48 2.8825 1365.84 2.37182 1363.82 1.95697C1359.57 1.08774 1338.92 0.308989 1338.24 0.992579ZM1378.55 24.1013C1378.55 24.4699 1379.61 24.7714 1380.9 24.7714C1382.19 24.7714 1383.24 25.073 1383.24 25.4416C1383.24 25.8102 1383.56 26.1118 1383.96 26.1118C1385.77 26.1118 1389.27 32.2219 1389.27 35.3859C1389.27 44.2947 1377.36 50.9054 1371.45 45.2785C1371.03 44.8737 1370.04 44.0983 1369.26 43.5561C1368.47 43.0139 1367.84 42.1849 1367.84 41.7131C1367.84 41.2419 1367.53 40.8559 1367.17 40.8559C1366.78 40.8559 1366.5 38.7281 1366.5 35.8121V30.7676L1369.49 27.7699C1371.72 25.5395 1373.01 24.7714 1374.52 24.7714C1375.63 24.7714 1376.54 24.4699 1376.54 24.1013C1376.54 23.7327 1377 23.4311 1377.55 23.4311C1378.1 23.4311 1378.55 23.7327 1378.55 24.1013ZM1359.69 37.6002C1359.81 37.9165 1360.49 38.1752 1361.19 38.1752C1362.17 38.1752 1362.48 38.651 1362.48 40.1857C1362.48 41.2915 1362.78 42.1963 1363.15 42.1963C1363.51 42.1963 1363.82 42.6721 1363.82 43.2538C1363.82 48.0899 1375.39 52.7296 1382.24 50.64C1386.38 49.3753 1397.98 71.663 1397.98 80.8861V83.0776H1389.68H1381.38L1380.99 80.8995C1380.78 79.7013 1380.41 77.5908 1380.17 76.2082C1379.94 74.8263 1379.48 73.695 1379.15 73.695C1378.82 73.695 1378.55 73.0919 1378.55 72.3547C1378.55 71.6175 1378.25 71.0143 1377.88 71.0143C1377.51 71.0143 1377.21 70.5653 1377.21 70.0164C1377.21 68.7739 1375.83 67.0186 1371.42 62.6799C1366.94 58.2647 1366.09 57.6106 1364.85 57.6106C1364.28 57.6106 1363.82 57.309 1363.82 56.9404C1363.82 56.5718 1363.21 56.2702 1362.48 56.2702C1361.74 56.2702 1361.14 56.0236 1361.14 55.7227C1361.14 52.6659 1342.06 52.3644 1336.25 55.3293C1334.36 56.293 1332.57 53.9869 1327.69 44.3221L1326.22 41.4215L1327.6 41.0603C1328.36 40.8619 1328.98 40.433 1328.98 40.1073C1328.98 39.7823 1329.72 39.5155 1330.62 39.5155C1331.52 39.5155 1332.44 39.214 1332.67 38.8454C1332.9 38.4768 1333.97 38.1752 1335.05 38.1752C1336.14 38.1752 1337.02 37.8857 1337.02 37.5318C1337.02 36.2873 1359.2 36.3543 1359.69 37.6002ZM936.197 39.9967C935.933 40.2615 933.999 40.7038 931.9 40.9792C929.8 41.2553 926.424 41.7687 924.398 42.1199C917.904 43.2478 911.443 44.2906 907.416 44.8616C905.259 45.1672 903.219 45.6933 902.881 46.0311C901.989 46.9238 902.608 253.564 903.522 260.007C905.574 274.459 906.846 279.182 911.958 291.338C912.617 292.904 913.377 294.186 913.646 294.186C913.915 294.186 914.484 294.952 914.91 295.887C915.866 297.986 916.273 298.477 921.854 304.271C924.323 306.833 926.659 308.93 927.045 308.93C927.431 308.93 927.747 309.232 927.747 309.601C927.747 309.969 928.2 310.271 928.752 310.271C929.305 310.271 929.757 310.572 929.757 310.941C929.757 311.31 930.184 311.611 930.706 311.611C931.228 311.611 931.755 311.837 931.878 312.114C932.265 312.984 939.614 316.322 944.159 317.691C945.632 318.135 947.441 318.74 948.178 319.035C955.153 321.824 987.959 322.685 995.784 320.285C996.916 319.938 998.932 319.653 1000.27 319.653C1001.6 319.653 1002.86 319.385 1003.06 319.057C1003.26 318.729 1004.41 318.292 1005.61 318.084C1010.66 317.212 1012.15 316.788 1012.15 316.227C1012.15 315.9 1013.05 315.632 1014.16 315.632C1015.26 315.632 1016.17 315.331 1016.17 314.962C1016.17 314.593 1017.07 314.292 1018.18 314.292C1019.28 314.292 1020.19 313.99 1020.19 313.622C1020.19 313.253 1021.09 312.952 1022.2 312.952C1023.3 312.952 1024.21 312.65 1024.21 312.281C1024.21 311.913 1024.75 311.611 1025.41 311.611C1026.07 311.611 1026.98 311.249 1027.42 310.807C1028.39 309.837 1028.5 304.909 1027.55 304.909C1027.19 304.909 1026.88 303.703 1026.88 302.229C1026.88 300.754 1026.58 299.548 1026.21 299.548C1025.85 299.548 1025.54 298.643 1025.54 297.537C1025.54 296.431 1025.24 295.527 1024.87 295.527C1024.51 295.527 1024.21 294.32 1024.21 292.846C1024.21 291.372 1023.9 290.165 1023.54 290.165C1023.17 290.165 1022.87 288.959 1022.87 287.484C1022.87 286.01 1022.56 284.804 1022.2 284.804C1021.83 284.804 1021.53 283.565 1021.53 282.051C1021.53 279.689 1021.36 279.368 1020.35 279.792C1019.71 280.063 1018.5 280.432 1017.67 280.612C1016.85 280.792 1016.17 281.205 1016.17 281.531C1016.17 281.856 1015.43 282.123 1014.53 282.123C1013.63 282.123 1012.71 282.425 1012.48 282.793C1012.25 283.162 1011.48 283.463 1010.77 283.463C1010.05 283.463 1009.47 283.765 1009.47 284.134C1009.47 284.502 1008.56 284.804 1007.46 284.804C1006.35 284.804 1005.45 285.105 1005.45 285.474C1005.45 285.842 1004.56 286.144 1003.48 286.144C1002.4 286.144 1001.32 286.446 1001.1 286.814C1000.87 287.183 998.908 287.484 996.741 287.484C994.574 287.484 992.615 287.786 992.387 288.155C992.139 288.557 987.593 288.825 981 288.825C974.407 288.825 969.861 288.557 969.613 288.155C969.385 287.786 967.86 287.484 966.224 287.484C964.588 287.484 963.249 287.183 963.249 286.814C963.249 286.446 962.514 286.144 961.614 286.144C960.714 286.144 959.793 285.842 959.565 285.474C959.337 285.105 958.703 284.804 958.156 284.804C957.608 284.804 956.439 284.125 955.557 283.296C954.676 282.467 953.041 281.034 951.924 280.112C950.807 279.191 949.883 278.127 949.872 277.747C949.861 277.368 949.249 276.623 948.513 276.091C947.776 275.56 947.173 274.589 947.173 273.933C947.173 273.277 946.871 272.74 946.503 272.74C946.135 272.74 945.833 272.137 945.833 271.4C945.833 270.663 945.532 270.06 945.163 270.06C944.795 270.06 944.494 269.324 944.494 268.424C944.494 267.524 944.192 266.601 943.824 266.374C943.455 266.146 943.154 265.09 943.154 264.028C943.154 262.966 942.852 261.91 942.484 261.682C942.116 261.454 941.814 259.839 941.814 258.091C941.814 256.343 941.438 254.537 940.977 254.076C940.32 253.419 940.14 240.724 940.14 195.133V137.028L980.163 136.855L1020.19 136.682V120.603V104.524H979.995H939.805V72.0196V39.5155H938.242C937.382 39.5155 936.462 39.732 936.197 39.9967ZM1322.63 47.3902C1323.36 48.7728 1324.66 50.9543 1325.51 52.2384C1326.36 53.5224 1327.51 55.5136 1328.05 56.6629L1329.04 58.7519L1324.83 63.0485C1314.51 73.5657 1312.27 88.1362 1318.94 101.409C1320.9 105.318 1327.05 112.566 1328.4 112.566C1329.71 112.566 1324.03 124.202 1321.26 127.203C1319.95 128.621 1308.96 118.251 1306.26 113.059C1305.74 112.05 1305.06 111.225 1304.76 111.225C1304.45 111.225 1304.2 110.622 1304.2 109.885C1304.2 109.148 1303.9 108.545 1303.53 108.545C1303.16 108.545 1302.86 107.96 1302.86 107.244C1302.86 106.528 1302.56 105.757 1302.19 105.529C1301.82 105.301 1301.52 104.379 1301.52 103.479C1301.52 102.579 1301.22 101.843 1300.85 101.843C1299.61 101.843 1300.14 98.1468 1301.52 97.1516C1302.26 96.6201 1302.86 95.649 1302.86 94.9929C1302.86 94.3374 1303.16 93.8006 1303.53 93.8006C1303.9 93.8006 1304.2 93.1975 1304.2 92.4603C1304.2 91.7231 1304.5 91.1199 1304.87 91.1199C1307.29 91.1199 1304.99 79.1303 1302.02 76.2746C1300.23 74.5442 1299.44 71.0143 1300.85 71.0143C1301.22 71.0143 1301.52 70.1095 1301.52 69.0037C1301.52 67.8979 1301.82 66.9932 1302.19 66.9932C1302.56 66.9932 1302.86 66.39 1302.86 65.6528C1302.86 64.9156 1303.16 64.3124 1303.53 64.3124C1303.9 64.3124 1304.2 63.7093 1304.2 62.9721C1304.2 62.2349 1304.5 61.6317 1304.87 61.6317C1305.24 61.6317 1305.54 61.1793 1305.54 60.6264C1305.54 60.0735 1305.84 59.6211 1306.21 59.6211C1306.58 59.6211 1306.88 59.2445 1306.88 58.7834C1306.88 58.323 1307.66 57.0409 1308.6 55.9351C1317.66 45.3495 1320.61 43.5507 1322.63 47.3902ZM1294.82 75.6245C1294.82 75.9482 1295.68 76.5688 1296.73 77.0031C1300.12 78.4078 1303.79 89.7795 1300.85 89.7795C1300.48 89.7795 1300.18 90.2419 1300.18 90.8069C1300.18 92.1412 1295.84 96.4814 1294.51 96.4814C1293.94 96.4814 1293.48 96.783 1293.48 97.1516C1293.48 97.5202 1291.98 97.8217 1290.13 97.8217C1288.29 97.8217 1286.78 97.5202 1286.78 97.1516C1286.78 96.783 1286.18 96.4814 1285.44 96.4814C1284.71 96.4814 1284.1 96.1798 1284.1 95.8112C1284.1 95.4426 1283.54 95.141 1282.85 95.141C1282.08 95.141 1281.26 94.3555 1280.76 93.1304C1280.3 92.0246 1279.66 91.1199 1279.33 91.1199C1279.01 91.1199 1278.75 89.0088 1278.75 86.4286C1278.75 83.7478 1279.03 81.7373 1279.42 81.7373C1279.78 81.7373 1280.09 81.2715 1280.09 80.7018C1280.09 79.6269 1282.22 77.2986 1284.48 75.9127C1285.98 74.9905 1294.82 74.7439 1294.82 75.6245ZM1386.59 89.1093C1386.59 89.5047 1388.97 89.7795 1392.38 89.7795H1398.17L1397.78 93.298C1396.83 102.059 1391.87 112.376 1384.7 120.504C1383.42 121.95 1383.11 122.01 1380.86 121.266C1375.54 119.51 1363.82 124.966 1363.82 129.197C1363.82 129.633 1363.51 129.991 1363.15 129.991C1362.78 129.991 1362.48 130.861 1362.48 131.924C1362.48 135.392 1346.45 137.738 1338.74 135.398C1337.61 135.054 1335.33 134.398 1333.67 133.941C1332.02 133.483 1330.37 132.859 1330.02 132.555C1329.67 132.251 1328.84 132.001 1328.18 132.001C1326.39 132.001 1326.7 129.533 1328.99 125.634C1330.07 123.791 1331.56 121.173 1332.3 119.816C1333.99 116.741 1334.76 116.251 1336.58 117.102C1343.7 120.418 1355.63 119.776 1363.73 115.641C1367.09 113.924 1375.87 106.009 1375.87 104.698C1375.87 104.372 1376.4 103.522 1377.05 102.807C1378.41 101.295 1379.89 97.3647 1379.89 95.261C1379.89 94.4581 1380.19 93.8006 1380.56 93.8006C1380.93 93.8006 1381.23 93.0339 1381.23 92.097C1381.23 91.1601 1381.61 89.9652 1382.07 89.4417C1383.02 88.3567 1386.59 88.0947 1386.59 89.1093ZM747.984 100.971C747.699 101.256 743.343 101.718 738.303 101.997C723.676 102.809 719.134 103.246 718.455 103.906C718.105 104.245 716.239 104.524 714.307 104.524C712.376 104.524 710.635 104.786 710.436 105.107C710.238 105.428 708.638 105.88 706.88 106.112C701.814 106.779 696.567 107.718 693.302 108.54C691.644 108.958 688.931 109.563 687.273 109.886C685.615 110.209 683.43 110.677 682.417 110.927L680.575 111.382V214.177V316.973H699.33H718.086V227.92C718.086 157.478 718.261 138.729 718.923 138.205C719.384 137.841 721.117 137.353 722.775 137.119C739.405 134.777 743.004 134.502 757.942 134.427C774.133 134.346 776.606 134.6 784.399 137.146C787.929 138.298 793.409 141.155 795.746 143.059C798.728 145.49 803.826 151.126 803.826 151.992C803.826 152.285 804.375 153.113 805.045 153.834C805.716 154.554 806.686 156.571 807.201 158.316C807.717 160.061 808.373 161.489 808.661 161.489C808.949 161.489 809.185 162.394 809.185 163.5C809.185 164.606 809.486 165.511 809.855 165.511C810.223 165.511 810.525 166.717 810.525 168.191C810.525 169.666 810.826 170.872 811.194 170.872C811.563 170.872 811.864 172.47 811.864 174.424C811.864 176.378 812.146 178.263 812.49 178.613C813.667 179.812 813.968 192.724 814.262 254.813L814.557 316.973H833.306H852.055L852.047 253.808C852.038 184.028 851.818 178.959 847.982 159.814C847.613 157.971 847.139 155.483 846.93 154.285C846.721 153.087 846.281 152.107 845.953 152.107C845.625 152.107 845.357 151.202 845.357 150.096C845.357 148.99 845.055 148.086 844.687 148.086C844.318 148.086 844.017 147.35 844.017 146.45C844.017 145.55 843.715 144.628 843.347 144.4C842.979 144.172 842.677 143.4 842.677 142.685C842.677 141.969 842.376 141.384 842.007 141.384C841.639 141.384 841.337 140.992 841.337 140.512C841.337 139.279 839.762 136.034 839.16 136.028C838.884 136.025 838.658 135.57 838.658 135.017C838.658 134.464 838.357 134.012 837.988 134.012C837.62 134.012 837.318 133.559 837.318 133.007C837.318 132.454 837.017 132.001 836.649 132.001C836.28 132.001 835.979 131.549 835.979 130.996C835.979 130.443 835.677 129.991 835.309 129.991C834.94 129.991 834.639 129.694 834.639 129.332C834.639 127.943 824.461 117.519 822.496 116.895C821.806 116.676 821.242 116.252 821.242 115.953C821.242 115.654 820.338 115.034 819.233 114.576C818.127 114.119 817.223 113.534 817.223 113.278C817.223 112.633 806.263 107.204 804.962 107.204C804.381 107.204 803.719 106.903 803.491 106.534C803.263 106.166 802.342 105.864 801.442 105.864C800.543 105.864 799.807 105.562 799.807 105.194C799.807 104.825 798.77 104.524 797.502 104.524C796.234 104.524 795.011 104.222 794.783 103.853C794.556 103.485 793.242 103.183 791.863 103.183C790.485 103.183 789.071 102.904 788.721 102.562C787.494 101.364 749.091 99.8638 747.984 100.971ZM0.294059 171.04C0.586781 237.312 0.883523 250.624 2.06848 250.624C2.41144 250.624 2.6921 252.283 2.6921 254.31C2.6921 256.338 2.99353 257.996 3.36195 257.996C3.73036 257.996 4.03179 259.353 4.03179 261.012C4.03179 262.671 4.33322 264.028 4.70164 264.028C5.07005 264.028 5.37148 265.083 5.37148 266.374C5.37148 267.664 5.67291 268.719 6.04133 268.719C6.40974 268.719 6.71117 269.624 6.71117 270.73C6.71117 271.836 7.0126 272.74 7.38101 272.74C7.74943 272.74 8.05086 273.645 8.05086 274.751C8.05086 275.857 8.35229 276.761 8.7207 276.761C9.08912 276.761 9.39055 277.365 9.39055 278.102C9.39055 278.839 9.69198 279.442 10.0604 279.442C10.4288 279.442 10.7302 280.045 10.7302 280.783C10.7302 281.52 11.0317 282.123 11.4001 282.123C11.7685 282.123 12.0699 282.726 12.0699 283.463C12.0699 284.201 12.3714 284.804 12.7398 284.804C13.1082 284.804 13.4096 285.341 13.4096 285.996C13.4096 286.652 14.0125 287.623 14.7493 288.155C15.4861 288.686 16.089 289.591 16.089 290.165C16.089 290.74 16.6919 291.644 17.4287 292.176C18.1655 292.707 18.7684 293.534 18.7684 294.011C18.7684 294.941 27.0892 303.569 27.9861 303.569C28.2795 303.569 28.9547 304.172 29.4859 304.909C30.0171 305.646 30.837 306.25 31.3085 306.25C31.7794 306.25 32.1653 306.551 32.1653 306.92C32.1653 307.288 32.6174 307.59 33.17 307.59C33.7227 307.59 34.1748 307.892 34.1748 308.26C34.1748 308.629 34.6269 308.93 35.1796 308.93C35.7322 308.93 36.1843 309.176 36.1843 309.475C36.1843 309.776 37.2393 310.435 38.5288 310.941C39.8182 311.447 40.8732 312.106 40.8732 312.407C40.8732 312.706 41.4761 312.952 42.2129 312.952C42.9498 312.952 43.5526 313.253 43.5526 313.622C43.5526 313.99 44.1374 314.292 44.8528 314.292C45.5682 314.292 46.3392 314.593 46.5669 314.962C46.7947 315.331 47.7164 315.632 48.616 315.632C49.5156 315.632 50.2511 315.934 50.2511 316.302C50.2511 316.671 50.9865 316.973 51.8861 316.973C52.7858 316.973 53.6867 317.241 53.8897 317.569C54.092 317.897 55.2401 318.336 56.4411 318.546C57.6415 318.756 60.282 319.238 62.3083 319.618C79.6626 322.87 111.958 322.299 135.991 318.315C138.386 317.918 141.702 317.438 143.359 317.248C145.017 317.058 146.977 316.634 147.713 316.306C148.45 315.977 150.334 315.54 151.9 315.335C158.988 314.407 160.481 314.116 161.077 313.553C161.427 313.222 162.841 312.952 164.219 312.952C165.598 312.952 166.911 312.65 167.139 312.281C167.367 311.913 168.439 311.611 169.523 311.611H171.493V208.474C171.493 115.045 171.393 105.299 170.433 104.93C169.85 104.707 161.41 104.524 151.678 104.524H133.982V194.664C133.982 284.357 133.975 284.804 132.642 284.804C131.905 284.804 131.302 285.105 131.302 285.474C131.302 285.857 129.293 286.144 126.613 286.144C123.934 286.144 121.924 286.432 121.924 286.814C121.924 287.216 119.258 287.484 115.265 287.484C111.549 287.484 108.424 287.781 108.193 288.155C107.939 288.565 102.603 288.825 94.4213 288.825C85.9632 288.825 81.0639 288.579 81.0639 288.155C81.0639 287.782 79.2774 287.484 77.0448 287.484C74.8123 287.484 73.0258 287.187 73.0258 286.814C73.0258 286.446 72.1215 286.144 71.0162 286.144C69.911 286.144 69.0067 285.842 69.0067 285.474C69.0067 285.105 68.1024 284.804 66.9972 284.804C65.8919 284.804 64.9876 284.502 64.9876 284.134C64.9876 283.765 64.3848 283.463 63.648 283.463C62.9111 283.463 62.3083 283.213 62.3083 282.906C62.3083 282.6 61.479 281.921 60.4662 281.398C59.4534 280.876 57.9911 279.844 57.2168 279.107C56.4431 278.37 55.0739 277.164 54.175 276.426C48.0714 271.423 41.7742 257.66 39.916 245.263C37.7926 231.096 37.5401 222.499 37.5321 164.003L37.524 104.524H18.7617H0L0.294059 171.04ZM455.073 175.061C455.243 221.139 455.583 247.108 456.056 249.954C456.453 252.35 457.107 255.969 457.51 257.996C457.912 260.024 458.413 262.665 458.623 263.866C458.833 265.068 459.272 266.217 459.6 266.419C459.928 266.622 460.196 267.528 460.196 268.433C460.196 269.338 460.497 270.677 460.866 271.409C461.234 272.141 461.837 273.34 462.205 274.071C462.574 274.804 462.875 276.01 462.875 276.752C462.875 277.495 463.177 278.102 463.545 278.102C463.914 278.102 464.215 278.705 464.215 279.442C464.215 280.179 464.516 280.783 464.885 280.783C465.253 280.783 465.555 281.386 465.555 282.123C465.555 282.86 465.856 283.463 466.224 283.463C466.593 283.463 466.894 284.066 466.894 284.804C466.894 285.541 467.196 286.144 467.564 286.144C467.933 286.144 468.234 286.596 468.234 287.149C468.234 287.702 468.535 288.155 468.904 288.155C469.272 288.155 469.574 288.607 469.574 289.16C469.574 289.713 469.875 290.165 470.244 290.165C470.612 290.165 470.913 290.632 470.913 291.203C470.913 292.312 485.971 307.59 487.064 307.59C487.422 307.59 488.363 308.193 489.153 308.93C489.944 309.668 490.987 310.271 491.47 310.271C491.953 310.271 492.348 310.572 492.348 310.941C492.348 311.31 492.951 311.611 493.688 311.611C494.425 311.611 495.028 311.913 495.028 312.281C495.028 312.65 495.631 312.952 496.367 312.952C497.104 312.952 497.707 313.253 497.707 313.622C497.707 313.99 498.292 314.292 499.007 314.292C499.723 314.292 500.494 314.593 500.721 314.962C500.949 315.331 501.871 315.632 502.771 315.632C503.67 315.632 504.406 315.934 504.406 316.302C504.406 316.671 505.141 316.973 506.041 316.973C506.94 316.973 507.841 317.241 508.044 317.569C508.247 317.897 509.395 318.336 510.596 318.546C511.796 318.756 514.437 319.247 516.463 319.636C535.563 323.311 571.248 322.124 598.184 316.918C600.21 316.526 603.45 316.049 605.385 315.857C607.319 315.665 608.901 315.265 608.901 314.967C608.901 314.67 610.182 314.264 611.748 314.063C614.712 313.685 619.966 312.691 623.136 311.909L624.978 311.455V207.989V104.524H606.964C591.155 104.524 588.9 104.654 588.543 105.584C588.319 106.167 588.136 146.607 588.136 195.451C588.136 283.695 588.127 284.262 586.797 284.609C586.06 284.802 585.457 285.227 585.457 285.552C585.457 285.877 583.347 286.144 580.768 286.144C578.189 286.144 576.079 286.426 576.079 286.771C576.079 287.989 536.156 289.36 534.979 288.183C534.595 287.799 532.834 287.484 531.065 287.484C529.297 287.484 527.85 287.183 527.85 286.814C527.85 286.446 526.795 286.144 525.506 286.144C524.216 286.144 523.161 285.842 523.161 285.474C523.161 285.105 522.408 284.804 521.487 284.804C520.566 284.804 519.812 284.502 519.812 284.134C519.812 283.765 519.42 283.463 518.941 283.463C517.709 283.463 514.465 281.887 514.459 281.285C514.456 281.008 514.155 280.783 513.791 280.783C512.659 280.783 507.461 276.122 504.741 272.667C502.368 269.653 499.047 263.625 499.047 262.332C499.047 261.79 498.745 261.347 498.377 261.347C498.009 261.347 497.707 260.442 497.707 259.337C497.707 258.231 497.439 257.326 497.11 257.326C496.55 257.326 496.172 255.781 495.266 249.782C495.057 248.398 494.617 247.098 494.287 246.895C493.957 246.691 493.688 244.75 493.688 242.582C493.688 240.414 493.387 238.454 493.018 238.226C492.579 237.954 492.348 215.193 492.348 172.125C492.348 116.09 492.208 106.298 491.391 105.481C490.61 104.699 487.167 104.524 472.624 104.524H454.813L455.073 175.061ZM1056.49 105.328C1055.88 105.942 1055.69 120.428 1055.69 166.444C1055.69 223.802 1056.08 239.568 1057.76 249.954C1058.83 256.565 1059.79 261.498 1060.37 263.358C1060.66 264.279 1061.26 266.39 1061.71 268.049C1062.17 269.708 1062.81 271.744 1063.13 272.573C1063.46 273.402 1063.98 274.76 1064.3 275.589C1064.62 276.418 1065.52 278.407 1066.31 280.008C1067.1 281.61 1067.74 283.343 1067.74 283.862C1067.74 284.38 1068.01 284.804 1068.33 284.804C1068.66 284.804 1069.3 285.708 1069.75 286.814C1070.21 287.92 1070.85 288.825 1071.18 288.825C1071.5 288.825 1071.76 289.232 1071.76 289.731C1071.76 290.229 1072.67 291.583 1073.77 292.741C1074.88 293.897 1075.78 295.154 1075.78 295.533C1075.78 296.445 1084.26 304.909 1085.18 304.909C1085.57 304.909 1086.62 305.64 1087.51 306.532C1088.41 307.426 1089.75 308.351 1090.5 308.589C1091.25 308.827 1091.86 309.302 1091.86 309.646C1091.86 309.989 1092.44 310.271 1093.14 310.271C1093.85 310.271 1094.53 310.497 1094.65 310.773C1094.97 311.497 1100.52 314.292 1101.64 314.292C1102.15 314.292 1102.58 314.518 1102.58 314.795C1102.59 315.569 1113.7 318.803 1121.33 320.253C1135.38 322.92 1167.91 322.027 1192 318.315C1194.58 317.918 1197.9 317.436 1199.37 317.244C1200.84 317.053 1202.65 316.63 1203.39 316.302C1204.13 315.975 1205.93 315.556 1207.41 315.37C1208.88 315.183 1211.74 314.695 1213.77 314.287C1215.8 313.878 1218.74 313.38 1220.3 313.18C1221.87 312.98 1223.15 312.545 1223.15 312.214C1223.15 311.883 1224.05 311.611 1225.16 311.611H1227.17V208.067V104.524H1209.47C1199.74 104.524 1191.3 104.707 1190.72 104.93C1189.76 105.298 1189.66 113.864 1189.66 195.07C1189.66 281.033 1189.61 284.804 1188.45 284.804C1187.79 284.804 1186.96 285.08 1186.61 285.418C1185.89 286.11 1180.51 286.709 1170.4 287.222C1166.62 287.414 1163.53 287.853 1163.53 288.198C1163.53 288.566 1158.01 288.825 1150.14 288.825C1141.65 288.825 1136.74 288.579 1136.74 288.155C1136.74 287.786 1135.1 287.484 1133.09 287.484C1131.09 287.484 1129.26 287.183 1129.04 286.814C1128.81 286.446 1127.74 286.144 1126.65 286.144C1125.57 286.144 1124.68 285.842 1124.68 285.474C1124.68 285.105 1123.93 284.804 1123.01 284.804C1122.09 284.804 1121.33 284.502 1121.33 284.134C1121.33 283.765 1120.73 283.463 1119.99 283.463C1119.26 283.463 1118.65 283.162 1118.65 282.793C1118.65 282.425 1118.05 282.123 1117.31 282.123C1116.58 282.123 1115.97 281.872 1115.97 281.566C1115.97 281.26 1115.15 280.581 1114.13 280.058C1111.52 278.71 1105.26 272.12 1105.26 270.722C1105.26 270.358 1104.95 270.06 1104.59 270.06C1104.22 270.06 1103.92 269.607 1103.92 269.054C1103.92 268.501 1103.62 268.049 1103.25 268.049C1102.88 268.049 1102.58 267.446 1102.58 266.709C1102.58 265.971 1102.28 265.368 1101.91 265.368C1101.54 265.368 1101.24 264.765 1101.24 264.028C1101.24 263.291 1100.94 262.688 1100.57 262.688C1100.2 262.688 1099.9 261.952 1099.9 261.052C1099.9 260.152 1099.6 259.229 1099.23 259.002C1098.86 258.774 1098.56 257.701 1098.56 256.616C1098.56 255.532 1098.26 254.645 1097.89 254.645C1097.52 254.645 1097.22 253.439 1097.22 251.965C1097.22 250.49 1096.92 249.284 1096.55 249.284C1096.18 249.284 1095.88 247.794 1095.88 245.972C1095.88 244.151 1095.58 242.475 1095.21 242.247C1094.83 242.014 1094.54 238.777 1094.54 234.835C1094.54 230.617 1094.27 227.838 1093.87 227.838C1093.43 227.838 1093.2 206.839 1093.2 166.181V104.524H1075.25C1062.18 104.524 1057.08 104.742 1056.49 105.328ZM1382.35 126.31C1389.42 129.263 1391.43 139.034 1386.08 144.4C1382.8 147.694 1381.92 148.086 1377.87 148.086C1368.76 148.086 1363.4 139.54 1367.35 131.331C1368.07 129.845 1368.82 129.032 1371.58 126.721C1373.48 125.141 1379.05 124.928 1382.35 126.31ZM322.269 134.082C329.016 134.97 334.048 136.199 336.835 137.642C337.964 138.225 339.355 138.703 339.925 138.703C340.497 138.703 340.964 138.959 340.964 139.271C340.964 139.584 342.228 140.41 343.773 141.107C345.318 141.805 347.263 143.057 348.096 143.89C348.929 144.723 349.878 145.405 350.204 145.405C350.974 145.405 357.035 151.127 357.055 151.873C357.064 152.186 358.104 153.589 359.366 154.991C360.629 156.393 361.847 158.128 362.075 158.845C362.303 159.562 362.77 160.149 363.113 160.149C363.457 160.149 363.738 160.752 363.738 161.489C363.738 162.227 364.04 162.83 364.408 162.83C364.777 162.83 365.078 163.225 365.078 163.709C365.078 164.193 365.65 165.776 366.349 167.228C379.34 194.194 374.682 250.649 358.244 265.447C357.582 266.043 357.036 266.797 357.03 267.122C357.026 267.448 355.142 269.476 352.844 271.63C346.929 277.175 345.903 278.016 343.995 278.886C343.065 279.31 342.303 279.911 342.303 280.22C342.303 280.529 341.7 280.783 340.964 280.783C340.227 280.783 339.624 281.084 339.624 281.453C339.624 281.821 339.021 282.123 338.284 282.123C337.547 282.123 336.945 282.425 336.945 282.793C336.945 283.162 336.342 283.463 335.605 283.463C334.868 283.463 334.265 283.765 334.265 284.134C334.265 284.502 333.361 284.804 332.256 284.804C331.15 284.804 330.246 285.105 330.246 285.474C330.246 285.842 329.342 286.144 328.237 286.144C327.131 286.144 326.227 286.446 326.227 286.814C326.227 287.183 324.931 287.484 323.347 287.484C321.762 287.484 320.155 287.796 319.774 288.177C318.892 289.06 285.598 288.585 279.003 287.594C274.141 286.865 268.957 285.887 265.774 285.102L263.931 284.648V217.036C263.931 163.395 264.104 149.426 264.769 149.425C265.23 149.425 266.472 148.679 267.53 147.769C268.588 146.859 270.02 145.934 270.712 145.714C271.404 145.494 271.97 145.034 271.97 144.69C271.97 144.346 272.572 144.065 273.309 144.065C274.046 144.065 274.649 143.763 274.649 143.394C274.649 143.026 275.252 142.724 275.989 142.724C276.725 142.724 277.328 142.423 277.328 142.054C277.328 141.685 277.931 141.384 278.668 141.384C279.405 141.384 280.008 141.082 280.008 140.714C280.008 140.345 280.472 140.043 281.039 140.043C281.607 140.043 283.189 139.479 284.556 138.789C292.664 134.697 310.251 132.502 322.269 134.082Z" fill="#D5D5D5"/>
</svg>
