<?xml version="1.0" encoding="UTF-8" standalone="no"?><svg width="2405" height="482" viewBox="0 0 2405 482" fill="none" xmlns="http://www.w3.org/2000/svg">
<path d="M1942.19 248.687C1945.14 245.208 1948.16 241.92 1950.86 238.379C1974.09 208.289 1974.46 174.448 1961.14 141.744C1948.46 110.547 1919.05 103.008 1887.85 102.794C1862.93 102.611 1838.01 103.408 1813.15 102.427C1798.84 101.873 1794.1 106.332 1794.23 121.07C1795.09 215.154 1795.15 309.235 1795.18 403.316C1795.18 413.902 1796.32 420.825 1809.7 420.397C1838.28 419.444 1867.02 421.441 1895.41 418.981C1939.28 415.164 1968.58 389.169 1978.14 349.571C1989.23 303.76 1978.49 273.177 1942.19 248.687ZM1856.23 187.279H1856.35C1856.35 181.741 1856.28 176.232 1856.38 170.698C1856.69 148.977 1870.47 140.549 1889.05 151.314C1904.89 160.513 1905.64 176.358 1905.64 192.514C1905.64 208.51 1900.59 221.957 1886.07 229.4C1866.65 239.337 1856.44 232.079 1856.25 209.401C1856.16 202.017 1856.23 194.662 1856.23 187.279ZM1871.09 376.704C1859.34 376.029 1855.21 372.028 1855.73 360.276C1856.57 342.002 1855.18 323.635 1856.38 305.387C1857.05 295.543 1849.52 280.558 1862.47 276.653C1878.19 271.854 1895.23 274.408 1907.54 288.834C1916.43 299.263 1917.35 312.091 1919.17 323.601C1919.87 360.278 1902.43 378.552 1871.09 376.704ZM618.906 350.595C634.972 272.424 653.874 196.417 653.838 117.608C653.835 107.316 657.126 103.699 667.87 102.557C716.612 97.3699 718.481 99.1004 711.092 148.126C698.496 231.707 681.243 314.294 661.07 396.384C656.695 414.197 651.025 420.335 632.555 420.23C569.867 419.88 569.492 420.68 555.297 359.729C536.943 280.908 520.323 201.739 506.947 121.873C504.455 106.986 506.067 102.924 521.792 102.452C570.559 100.994 570.763 100.28 578.892 147.521C589.495 209.094 599.731 270.734 610.02 332.364C611.075 338.711 611.142 345.304 618.906 350.595ZM2201.26 254.38C2191.14 204.849 2166.01 181.588 2120.35 179.742C2067.68 177.588 2035.34 200.143 2022.08 248.72C2016.94 267.457 2014.67 286.627 2015.04 306.16C2016.24 320.805 2016.15 335.663 2018.86 350.034C2028.24 399.625 2052.76 422.823 2096.29 424.855C2150.04 427.349 2184.87 404.12 2197.66 355.54C2206.47 322.281 2208.21 288.405 2201.26 254.38ZM2136.78 362.122C2133.37 374.246 2124.41 382.554 2110.29 382.397C2096.26 382.246 2088.82 373.597 2083.71 361.877C2075.25 342.585 2078.05 321.939 2076.33 301.851C2077.57 281.703 2075.1 261.056 2083.9 241.952C2089.22 230.384 2097.87 221.524 2111.28 222.073C2123.56 222.568 2131.71 231.339 2135.09 242.41C2147.21 282.039 2148.04 322.221 2136.78 362.122ZM1322.18 395.492C1315.99 399.832 1313.63 401.192 1311.61 402.948C1291.12 420.758 1268.71 432.246 1241.19 420.855C1215.23 410.093 1210.42 386.121 1207.68 361.937C1205.7 344.55 1204.63 327.072 1204.47 309.574C1204.19 276.385 1205.83 243.16 1204.75 210.012C1204.11 190.365 1209.09 183.851 1230.55 182.787C1259.05 181.371 1266.52 189.926 1264.77 217.791C1262.12 260.037 1262.62 302.63 1264.51 344.952C1265.93 376.616 1285.05 386.276 1307.62 370.555C1318.12 363.244 1316.82 353.577 1316.77 343.629C1316.5 297.528 1317.5 251.366 1315.25 205.362C1314.08 181.449 1327.21 182.598 1342.65 183.892C1357.16 185.109 1376.3 175.7 1375.31 205.43C1373.23 268.06 1374.88 330.81 1373.79 393.484C1373.63 402.582 1383.6 420.821 1361.37 419.417C1345.73 418.435 1321.92 430.844 1322.18 395.492ZM1589.98 231.396C1587.39 206.232 1571.4 188.382 1547.18 182.783C1513.07 174.847 1479.84 181.46 1448.03 196.167C1434.12 202.597 1440.15 213.121 1441.42 222.102C1442.98 233.545 1452 233.33 1460.49 230.621C1476.55 225.484 1492.98 223.331 1509.5 225.606C1532.14 228.778 1534.48 245.635 1535.09 264.588C1535.77 285.783 1520.57 278.092 1510.36 279.971C1498.67 282.096 1486.52 282.956 1475.38 286.767C1442.89 297.845 1427.32 323.134 1425.07 355.75C1423.32 381.561 1430.25 406.327 1455.69 418.696C1485.84 433.341 1512.79 424.235 1535.99 401.621C1537.22 400.39 1539 399.683 1545.59 395.592C1541.96 424.638 1560.42 419.59 1575.46 419.801C1583.89 419.923 1592.26 420.85 1591.98 407.898C1590.72 349.082 1596.07 290.099 1589.98 231.396ZM1505.28 380.489C1486.21 380.955 1483.84 367.23 1483.93 352.153C1484.11 327.019 1496.72 313.941 1520.6 314.618C1535.06 315.022 1535.06 315.022 1535.15 344.494C1538.84 365.326 1530.2 379.875 1505.28 380.489ZM2312.61 241.021C2321.08 226.891 2323.75 212.392 2327.38 198.218C2329.95 188.201 2335.38 184.013 2346.76 183.306C2397.17 180.172 2400.5 181.67 2374.7 224.915C2347.92 269.789 2345.46 309.891 2373.79 353.91C2385.99 372.856 2392.78 395.281 2404.08 420.784C2377.53 415.195 2349.47 432.386 2332.85 411.24C2318.93 393.53 2315.99 367.187 2307.41 342.401C2295.98 361.14 2292.27 380.5 2287.15 399.389C2282.68 415.898 2235.6 430.091 2223.42 418.569C2218.11 413.549 2223.06 408.606 2225.2 403.905C2238.18 375.542 2250.67 346.922 2264.44 318.947C2271.48 304.65 2272.49 292.068 2265.27 277.272C2252.81 251.738 2242.86 224.978 2230.65 199.307C2224.43 186.227 2228.43 184.23 2241.04 183.385C2290.63 180.074 2290.56 179.707 2305.88 225.677C2307.53 230.601 2310.05 235.236 2312.61 241.021ZM1117.51 152.751C1115.32 169.586 1113.32 187.481 1143.05 184.798C1157.71 183.474 1151.32 197.966 1152.53 205.913C1154 215.594 1151.04 222.725 1139.45 220.774C1118.06 217.171 1115.63 228.808 1116.07 246.275C1116.93 281.232 1115.74 316.235 1116.02 351.217C1116.15 367.628 1117.97 384.161 1141.33 380.961C1154.38 379.174 1152.93 388.882 1155.2 396.331C1157.92 405.236 1157.2 411.294 1147.75 416.617C1104.58 440.94 1059.63 416.435 1058.34 366.501C1057.3 326.02 1058.08 285.487 1057.7 244.984C1057.6 234.019 1062.34 220.7 1042.22 219.793C1033.45 219.405 1031.89 186.283 1040.29 185.586C1074.18 182.765 1063.47 153.268 1071.86 135.709C1076.68 125.624 1074.15 113.925 1092.2 112.422C1127.26 109.517 1115.46 133.521 1117.51 152.751ZM1660.62 242.413C1660.62 197.259 1661.96 152.046 1660.15 106.96C1658.93 76.5972 1679.75 88.2336 1693.49 86.6389C1708.58 84.8915 1721.45 83.761 1720.84 107.618C1718.84 186.838 1718.83 266.118 1719.08 345.37C1719.14 361.863 1711.38 383.675 1740.77 387.735C1748.9 388.861 1744.37 402.3 1745.41 410.087C1746.66 419.413 1739.18 418.987 1733.03 420.886C1685.64 435.514 1661.87 418.692 1661.6 369.596C1661.36 327.202 1661.55 284.809 1661.55 242.415L1660.62 242.413ZM949.322 222.38C960.428 208.131 968.144 197.218 976.93 187.248C985.365 177.683 997.659 178.018 1007.85 181.594C1021.31 186.32 1011.13 197.216 1010.7 205.242C1009.74 223.322 1011.75 238.925 982.777 242.178C965.027 244.176 953.887 270.47 954.16 293.928C954.578 329.897 952.892 365.926 954.368 401.837C955.5 429.317 936.279 418.703 924.276 419.391C912.348 420.071 896.402 426.641 896.877 401.954C898.116 337.409 897.249 272.822 896.634 208.252C896.492 192.93 896.387 181.42 917.781 183.223C935.144 184.691 952.587 181.823 948.401 208.191C947.905 211.269 948.759 214.566 949.322 222.38Z" fill="#D5D5D5"/>
<path d="M824.886 303.049C824.886 336.177 824.375 369.325 825.139 402.434C825.44 415.608 821.115 419.38 807.932 419.875C766.075 421.444 766.099 422.076 765.978 380.31C765.8 322.33 766.855 264.309 764.903 206.388C763.984 179.153 781.089 185.581 795.452 185.558C809.84 185.535 827.614 179.23 825.85 206.445C823.771 238.524 825.362 270.839 825.362 303.048L824.886 303.049Z" fill="#D5D5D5"/>
<path d="M794.043 148.461C769.88 149.5 761.318 135.119 761.344 113.895C761.37 91.4324 773.154 80.8278 796.037 81.0021C818.995 81.1748 830.033 92.4087 830.547 114.534C831.082 137.821 818.714 149.007 794.043 148.461Z" fill="#D5D5D5"/>
<path fill-rule="evenodd" clip-rule="evenodd" d="M197.856 3.55405C192.784 5.87699 176.182 13.086 160.965 19.5745C145.747 26.0612 128.391 33.5239 122.396 36.1559C116.401 38.7879 99.7998 45.9482 85.5042 52.0671C71.2087 58.186 53.8528 65.7024 46.9356 68.7711C40.0184 71.8398 27.5674 77.1794 19.2668 80.6395C-1.83527 89.4324 -0.65809 87.746 0.567721 107.452C8.74259 238.783 11.7677 285.282 12.6095 292.568L13.6173 301.299L90.5282 357.228L89.4835 368.479C87.0453 394.759 100.422 429.775 119.416 446.83C201.829 520.833 341.716 469.995 332.942 369.232L331.896 357.209L337.403 353.38C382.768 321.834 409.077 300.97 409.851 295.922C410.306 292.97 412.231 265.234 414.131 234.286C416.031 203.339 418.794 159.255 420.273 136.323C423.382 88.0987 423.681 89.518 409.112 83.2765C354.336 59.8069 336.269 52.0218 303.501 37.7683C204.854 -5.14146 211.877 -2.86722 197.856 3.55405ZM252.355 38.1614C272.646 46.8921 302.075 59.5264 317.754 66.2349C363.282 85.7153 372.602 89.7582 381.059 93.6903L389.024 97.3956L362.613 112.437C348.086 120.709 318.467 137.655 296.793 150.094C275.119 162.535 250.972 176.255 243.133 180.585C235.293 184.913 224.948 190.792 220.146 193.649L211.411 198.844L184.931 183.684C170.365 175.346 151.658 164.694 143.357 160.011C130.39 152.698 110.049 141.065 45.6394 104.133L33.445 97.1403L54.0238 88.2751C65.3429 83.4008 80.2639 76.9174 87.1811 73.8672C94.0983 70.8186 116.736 61.0969 137.488 52.2636C158.24 43.4304 182.764 32.8083 191.987 28.6613C212.209 19.5644 207.369 18.8035 252.355 38.1614ZM206.241 48.3097C203.935 49.3662 197.236 52.3493 191.353 54.9426L180.656 59.6557L187.58 64.6795C196.325 71.0252 196.325 71.0286 185.281 81.5868C173.275 93.0638 173.261 93.0638 200.149 81.9748C228.825 70.1484 234.062 71.2486 221.37 86.4342C212.663 96.8497 213.057 97.493 225.512 93.2015C242.948 87.1917 244.4 89.7498 234.347 108.76C230.417 116.191 227.96 122.533 228.887 122.854C229.815 123.175 236.982 127.214 244.814 131.832C262.237 142.103 258.89 142.306 280.906 129.638C291.028 123.815 307.073 114.647 316.562 109.267C326.052 103.887 333.598 99.2835 333.331 99.0382C326.679 92.8992 210.307 46.4504 206.241 48.3097ZM163.706 66.5658C161.986 67.5668 153.685 71.252 145.26 74.7557C121.995 84.4304 89.9161 98.2942 89.2521 98.961C88.9251 99.2868 107.004 109.971 129.424 122.703C151.844 135.436 179.236 151.032 190.294 157.362C201.353 163.693 211.163 168.661 212.093 168.406C241.558 160.308 251.024 146.387 233.992 136.205C214.682 124.665 215.143 125.387 220.402 114.904C226.394 102.952 226.29 102.881 210.906 108.446C191.201 115.573 187.622 112.719 198.931 98.8955C207.155 88.8428 207.299 88.8277 177.941 101.148C141.556 116.416 138.92 114.212 163.956 89.4643L181.201 72.4176L176.533 68.5897C171.343 64.3369 168.348 63.8632 163.706 66.5658ZM76.4892 145.689C101.277 159.851 139.463 181.613 161.349 194.045L201.14 216.65L201.175 313.649C201.195 366.998 200.643 410.638 199.952 410.627C199.262 410.615 189.207 403.623 177.611 395.09C140.377 367.692 68.8526 315.561 46.9356 299.848C32.7071 289.647 32.5579 289.216 30.3259 251.923C29.2762 234.37 26.9403 198.09 25.1359 171.3C20.8951 108.31 20.7291 114.4 26.6015 117.442C29.251 118.814 51.7013 131.526 76.4892 145.689ZM399.216 145.6C398.153 161.583 396.579 184.107 395.718 195.655C394.86 207.202 393.32 231.767 392.298 250.243C391.276 268.719 390.101 285.347 389.685 287.195C389.244 289.158 378.725 297.879 364.355 308.19C350.84 317.89 331.43 331.941 321.222 339.413C260.537 383.838 223.345 410.649 222.406 410.649C221.816 410.649 221.333 366.968 221.333 313.58V216.511L240.198 205.994C250.575 200.211 264.345 192.408 270.801 188.657C277.257 184.905 299.518 172.202 320.27 160.429C341.021 148.657 367.409 133.666 378.909 127.117C404.004 112.826 401.546 110.589 399.216 145.6ZM361.354 164.983C357.665 167.405 331.631 183.318 303.501 200.347C275.371 217.376 251.125 232.546 249.622 234.058C246.966 236.728 243.193 363.619 245.77 363.619C246.243 363.619 250.56 360.676 255.362 357.08C260.165 353.482 281.072 338.698 301.824 324.224C322.576 309.753 344.615 294.365 350.801 290.034C364.203 280.646 362.737 286.453 367.196 225.048C369.074 199.182 371.066 174.051 371.625 169.2C372.819 158.823 371.539 158.298 361.354 164.983ZM50.2911 166.681C50.2927 169.222 51.3811 186.039 52.7108 204.053C54.0389 222.067 55.6521 245.706 56.2927 256.583L57.4581 276.361L63.5151 281.137C66.8471 283.763 75.9878 290.413 83.8273 295.916C91.6668 301.418 114.575 317.813 134.733 332.349C154.893 346.886 171.635 358.531 171.937 358.227C172.512 357.651 169.456 235.454 168.854 234.988C143.382 215.269 50.2894 161.635 50.2911 166.681Z" fill="#BDBDBD"/>
</svg>
