<?xml version="1.0" encoding="UTF-8" standalone="no"?><svg width="1927" height="701" viewBox="0 0 1927 701" fill="none" xmlns="http://www.w3.org/2000/svg">
<path d="M697.089 103.65L368.544 691.143C361.759 703.27 344.334 703.343 337.446 691.273L2.38887 103.705C-5.11113 90.5501 6.13387 74.6176 21.0389 77.2801L349.939 136.07C352.037 136.445 354.185 136.442 356.281 136.06L678.301 77.3651C693.156 74.6576 704.459 90.4701 697.089 103.65Z" fill="#C6C6C6"/>
<path d="M506.609 0.172605L263.476 47.8126C261.533 48.1928 259.772 49.2081 258.469 50.6989C257.166 52.1896 256.396 54.0712 256.279 56.0476L241.324 308.643C240.974 314.593 246.436 319.21 252.241 317.87L319.934 302.25C326.269 300.788 331.991 306.368 330.689 312.735L310.579 411.218C309.224 417.843 315.446 423.513 321.919 421.548L363.729 408.843C370.211 406.875 376.439 412.56 375.069 419.193L343.109 573.885C341.109 583.56 353.979 588.835 359.346 580.54L362.931 575L561.049 179.62C564.366 173 558.649 165.453 551.374 166.855L481.699 180.303C475.149 181.565 469.579 175.468 471.426 169.06L516.904 11.4101C518.754 4.9901 513.164 -1.11239 506.609 0.172605Z" fill="#E8E8E8"/>
<path fill-rule="evenodd" clip-rule="evenodd" d="M1089.93 224.207C1061.18 230.778 1066.23 276.995 1095.71 276.995C1111.08 276.995 1121.13 265.249 1120.04 248.545C1118.9 231.192 1105.78 220.587 1089.93 224.207ZM1652.48 224.181C1639.98 227.073 1633.53 236.158 1633.54 250.875C1633.56 278.708 1668.96 287.708 1680.03 262.697C1689.36 241.634 1673.4 219.339 1652.48 224.181ZM750.158 237.806C750.991 240.509 851.744 522.862 868.38 569.117L870.01 573.649H913.657L973.574 405.957C1006.53 313.728 1033.83 237.339 1034.25 236.205C1034.84 234.62 1029.71 234.145 1011.96 234.145H988.899L984.664 246.094C939.403 373.754 902.818 480.541 897.925 499.273L891.736 522.957L887.97 507.513C883.312 488.407 872.429 456.157 828.807 332.206L794.587 234.969L749 234.051L750.158 237.806ZM1200.47 314.743L1164.17 330.8V351.983L1199.64 352.919L1199.66 431.558C1199.67 528.411 1201.17 538.827 1217.78 557.722C1233.76 575.913 1271.34 583.544 1304.2 575.272C1311.35 573.472 1317.47 572.001 1317.81 572.001C1318.15 572.001 1318.43 564.504 1318.43 555.342C1318.43 538.889 1318.38 538.693 1314.72 539.609C1278.59 548.631 1255.79 542.663 1246.33 521.711C1243.63 515.725 1243.32 507.93 1242.88 434.006L1242.39 352.869L1315.95 351.983V319.021L1242.54 318.134V260.515L1216.97 260.538L1200.47 314.743ZM1454.16 315.122C1383.42 321.548 1340.12 396.555 1357.09 483.272C1373.09 565.023 1456.66 601.233 1549.42 566.605L1560.12 562.61L1561.05 524.643L1547.39 529.571C1461.36 560.606 1405.13 535.984 1398.71 464.464L1397.86 454.987H1572.5L1572.48 435.622C1572.43 353.944 1527.75 308.437 1454.16 315.122ZM1824.03 315.025C1772.56 319.001 1743.12 343.594 1743.34 382.439C1743.54 418.857 1758.92 433.305 1825.74 459.843C1871.5 478.016 1884.31 488.544 1884.31 507.976C1884.31 547.392 1820.13 556.41 1750.31 526.807C1746.94 525.377 1743.76 524.206 1743.25 524.206C1742.74 524.206 1742.53 532.918 1742.78 543.565L1743.25 562.925L1752.91 566.75C1819.64 593.178 1903.95 575.313 1920.66 531.206C1938.94 482.937 1918.99 455.399 1843.89 425.273C1797.46 406.649 1790.94 402.653 1786.04 389.855C1772.3 353.921 1824.95 337.93 1888.05 358.868C1897.85 362.12 1906.08 364.497 1906.35 364.15C1908.69 361.085 1920 331.942 1919.18 331.067C1910.92 322.181 1854.52 312.671 1824.03 315.025ZM1074.26 573.649H1117.17L1116.33 319.021L1074.26 318.098V573.649ZM1636.47 473.479C1635.96 647.82 1636.8 636.452 1623.69 645.938C1614.54 652.558 1600.86 654.086 1583.27 650.452C1576.24 649 1570.2 647.812 1569.84 647.812C1569.49 647.812 1569.2 655.571 1569.2 665.053V682.295L1576.21 684.411C1599.02 691.295 1638.71 686.14 1654.55 674.234C1679.11 655.78 1679.96 648.715 1679.37 465.7L1678.91 319.021L1636.93 318.1L1636.47 473.479ZM1486.31 351.73C1508.79 357.558 1523.47 378.556 1527.09 410.077L1528.27 420.378H1398.98L1400.09 413.373C1407.71 365.227 1442.47 340.372 1486.31 351.73Z" fill="#BDBDBD"/>
</svg>
