<?xml version="1.0" encoding="UTF-8" standalone="no"?><svg width="3194" height="946" viewBox="0 0 3194 946" fill="none" xmlns="http://www.w3.org/2000/svg">
<g opacity="0.5">
<path d="M1658.46 354.9L1721.11 608.41H1736.94L1799.59 354.9H1890.47L1769.99 842.648H1679.11L1714.23 698.665H1652.26L1567.58 354.9H1658.46ZM1055.38 216.426V698.659H1031.3V669.728L1031.18 669.804C1028.24 671.602 973.14 704.863 912.189 704.863C869.496 704.863 795.827 698.659 795.827 531.255C795.827 412.762 827.507 348.008 940.414 348.008C972.77 348.008 1014.09 353.518 1031.29 356.276V216.426H1055.38ZM728.38 195.762V698.665H704.28V195.762H728.38ZM24.0941 216.426L122.555 675.238H148.707L255.425 223.317H282.963L393.125 675.238H419.282L514.294 216.426H538.399L439.25 698.659H373.162L269.2 255.694L168.675 698.659H102.582L0 216.426H24.0941ZM616.166 354.206V698.659H592.061V354.206H616.166ZM1435.42 223.317V314.25H1227.5V451.342H1394.12V541.586H1227.5V698.659H1133.86V223.317H1435.42ZM1555.19 216.426V698.659H1462.94V216.426H1555.19ZM940.425 370.053C842.662 370.053 819.938 428.614 819.938 533.319C819.938 670.416 873.643 682.818 912.194 682.818C971.401 682.818 1031.31 646.995 1031.31 646.995V378.321C1013.39 376.262 967.269 370.053 940.425 370.053ZM616.166 216.426V254.313H592.061V216.426H616.166Z" fill="#7A7A7A"/>
<path d="M2237.08 440.923C2225.14 437.341 2212.89 434.381 2200.59 431.623C2194.46 430.236 2188.25 428.931 2182.06 427.697C2175.87 426.419 2169.66 425.19 2163.46 424.066C2160.37 423.514 2157.23 422.957 2154.23 422.504L2144.85 421.259C2138.53 420.423 2132.15 419.457 2125.92 418.927C2119.62 418.343 2113.4 417.578 2107.03 417.125L2087.99 415.738C2075.24 415.099 2062.46 414.427 2049.63 414.182C2043.23 413.952 2036.82 413.881 2030.39 413.832C2023.96 413.772 2017.52 413.674 2011.07 413.756C1998.24 413.767 1985.09 413.99 1972.45 414.329L1952.91 415.175L1933.83 416.655L1914.6 418.692C1908.14 419.429 1901.76 420.33 1895.32 421.139C1882.47 422.962 1869.61 425.005 1856.76 427.304C1843.88 429.614 1830.98 432.104 1818.08 434.73C1792.14 439.94 1766.22 445.39 1740.49 451.702C1727.6 454.87 1714.76 458.239 1702.09 461.969C1695.52 463.924 1688.98 465.971 1682.56 468.183C1684.92 468.909 1687.36 469.554 1689.83 470.111C1698.81 472.153 1708.34 473.327 1718.12 474.632C1723 475.304 1727.97 475.992 1733.03 476.86L1740.37 478.231L1743.56 478.7L1746.9 479.072C1755.97 479.934 1765.46 479.672 1774.99 479.236C1794.06 478.231 1813.3 475.702 1832.77 473.769C1842.48 472.819 1852.28 471.967 1862.26 471.809C1867.36 471.738 1872.05 471.929 1876.92 471.984L1891.43 472.289C1901.12 472.535 1910.76 472.89 1920.41 473.365L1920.86 473.392C1921.63 473.18 1922.41 472.923 1923.18 472.715L1925.58 472.076L1928.19 471.438C1929.96 470.973 1931.69 470.689 1933.44 470.318C1936.9 469.679 1940.33 469.193 1943.72 468.811C1950.55 468.052 1957.27 467.681 1963.94 467.462C1977.22 467.053 1990.29 467.309 2003.29 467.637C2016.24 468.036 2029.09 468.33 2041.91 468.937C2054.7 469.592 2067.47 471.345 2080.23 472.704C2092.97 474.179 2105.75 474.763 2118.41 474.113L2132.53 473.36L2119.17 477.401C2109.95 480.18 2100.61 481.24 2091.24 482.217C2081.86 483.167 2072.46 483.724 2063.03 484.15C2044.13 484.947 2025.17 485.149 2006.13 484.893C1998.57 484.734 1991.01 484.451 1983.38 483.937C1977.22 484.03 1971.09 484.188 1965.02 484.505C1958.71 484.844 1952.48 485.319 1946.43 486.132C1943.39 486.526 1940.42 487.033 1937.54 487.618C1936.11 487.956 1934.65 488.224 1933.29 488.622L1931.2 489.185L1928.93 489.868C1922.99 491.642 1917.12 493.603 1911.97 495.94C1910.92 496.404 1909.92 496.912 1908.97 497.409C1911.07 498.288 1913.38 499.129 1915.79 499.904C1921.51 501.696 1927.62 503.186 1933.77 504.53C1939.89 505.857 1946.3 507.08 1952.36 508.074C1955.6 508.614 1958.82 509.117 1961.78 509.477C1964.75 509.903 1967.95 510.187 1971.02 510.52C1983.45 511.732 1996 512.24 2008.6 512.098C2021.15 511.94 2033.72 511.361 2046.25 510.225C2071.23 507.943 2096.13 504.339 2120.62 499.353C2132.86 496.874 2145 494.16 2157.04 491.113L2166.05 488.803L2174.92 486.4C2181.1 484.822 2186.63 483.031 2192.46 481.382C2204.1 477.783 2215.68 473.797 2227.55 470.04C2239.34 466.244 2251.39 462.793 2263.73 460.369L2264.72 458.84C2265.83 456.126 2264.28 453.324 2260.83 450.523C2258.88 449.256 2256.75 448.115 2254.51 447.115C2248.95 444.642 2243.01 442.774 2237.08 440.923Z" fill="#D9D9D9"/>
<path d="M2477.29 527.536C2482.31 530.949 2486.99 534.395 2492.37 537.846L2500.02 542.924L2507.84 547.97C2518.31 554.654 2528.97 561.07 2539.81 567.279C2561.47 579.752 2583.95 591.033 2606.94 601.087C2618.47 606.127 2630.23 610.621 2642.07 614.755C2653.98 618.867 2666.06 622.34 2678.24 625.114C2681.28 625.764 2684.38 626.523 2687.34 627.042C2690.26 627.648 2693.48 628.178 2696.71 628.696C2702.78 629.652 2709.25 630.531 2715.47 631.203C2721.73 631.874 2728 632.388 2733.98 632.481C2736.51 632.513 2738.96 632.448 2741.24 632.273C2740.49 631.498 2739.72 630.7 2738.86 629.93C2734.72 626.086 2729.77 622.367 2724.69 618.812L2722.74 617.447L2720.94 616.262C2719.77 615.465 2718.48 614.744 2717.24 613.952C2714.68 612.489 2712.02 611.091 2709.27 609.737C2703.78 607.077 2698.01 604.642 2692.13 602.332C2686.49 600.12 2680.73 598.034 2674.94 596.019C2667.52 594.092 2660.23 591.962 2653 589.717C2634.85 583.951 2616.93 577.769 2599.23 571.053C2590.42 567.672 2581.66 564.161 2573.06 560.317C2564.5 556.418 2555.97 552.464 2548.1 546.916L2536.71 538.861L2549.86 544.033C2561.66 548.653 2573.98 552.126 2586.53 554.752C2599.06 557.493 2611.73 559.858 2624.08 563.276C2636.43 566.76 2648.73 570.523 2661.15 574.253C2673.57 578.031 2686.06 581.925 2698.53 586.517C2704.79 588.833 2711.05 591.296 2717.27 594.173C2720.4 595.61 2723.48 597.15 2726.56 598.853C2728.11 599.743 2729.66 600.562 2731.19 601.556L2733.48 602.998L2735.55 604.358C2736.22 604.795 2736.88 605.286 2737.54 605.734L2737.97 605.848C2747.28 608.448 2756.54 611.156 2765.81 613.985L2779.68 618.266C2784.31 619.752 2788.82 621.062 2793.63 622.733C2803.07 626.031 2812.08 629.93 2821.02 633.906C2838.87 641.879 2856.33 650.354 2874.12 657.338C2883.02 660.756 2891.93 664.016 2900.82 666.059L2904.11 666.758L2907.28 667.32L2914.68 668.347C2919.76 669.106 2924.69 670.034 2929.53 670.93C2939.21 672.781 2948.64 674.687 2957.8 675.571C2960.31 675.833 2962.82 675.975 2965.28 676.025C2959.9 671.907 2954.35 667.904 2948.74 663.984C2937.9 656.442 2926.77 649.201 2915.53 642.124C2893.11 627.997 2870.23 614.646 2847.26 601.507C2835.85 594.938 2824.41 588.5 2812.91 582.242C2801.43 576 2789.88 570.004 2778.25 564.205C2772.4 561.409 2766.61 558.531 2760.73 555.795L2743.11 547.79L2725.48 540.363L2707.22 533.401C2695.32 529.092 2682.91 524.724 2670.73 520.655C2664.65 518.537 2658.5 516.592 2652.38 514.632C2646.26 512.644 2640.16 510.684 2634.01 508.871C2621.75 505.059 2609.43 501.668 2597.11 498.239L2578.6 493.543C2572.43 491.975 2566.29 490.73 2560.12 489.294C2554.05 487.825 2547.68 486.728 2541.42 485.526L2532.14 483.752C2529.13 483.227 2525.98 482.78 2522.88 482.332C2516.65 481.436 2510.35 480.639 2504.09 479.891C2497.82 479.104 2491.53 478.384 2485.27 477.761C2472.72 476.494 2460.18 475.446 2447.73 475.074C2441.5 474.949 2435.27 474.84 2429.24 475.435C2426.81 475.681 2424.42 476.09 2422.18 476.68C2418 478.247 2415.65 480.415 2415.85 483.342L2416.31 485.1C2427.24 491.298 2437.62 498.386 2447.59 505.704C2457.66 513.01 2467.4 520.459 2477.29 527.536Z" fill="#D9D9D9"/>
<path d="M1971.19 407.519C1915.11 408.382 1862.01 417.414 1806.59 428.669C1766.86 436.751 1695.65 452.139 1658.75 468.248C1674.31 482.479 1711.98 482.55 1733.63 486.662C1768.89 493.335 1827.34 478.575 1864.12 478.22C1889.4 477.974 1914.16 477.99 1939.03 479.372C1934.35 480.049 1929.97 480.874 1926.06 481.955C1917.53 484.33 1891.3 491.653 1892.85 500.019C1894.65 509.592 1938.77 517.461 1947.39 519.028C2014.73 531.151 2098.87 517.04 2167.63 497.944C2204.8 487.618 2227.39 474.648 2263.7 460.38C2251.37 462.804 2239.31 466.255 2227.53 470.051C2215.66 473.808 2204.08 477.788 2192.44 481.392C2186.61 483.042 2181.08 484.833 2174.9 486.411L2166.03 488.814L2157.02 491.124C2144.97 494.171 2132.84 496.885 2120.6 499.364C2096.11 504.349 2071.21 507.954 2046.22 510.236C2033.69 511.372 2021.13 511.945 2008.58 512.109C1995.98 512.251 1983.43 511.743 1971 510.531C1967.93 510.192 1964.73 509.914 1961.76 509.488C1958.8 509.133 1955.58 508.625 1952.34 508.085C1946.28 507.085 1939.87 505.868 1933.75 504.541C1927.6 503.197 1921.49 501.706 1915.77 499.915C1913.35 499.14 1911.05 498.299 1908.95 497.42C1909.89 496.923 1910.9 496.415 1911.95 495.951C1917.1 493.608 1922.97 491.653 1928.91 489.879L1931.18 489.196L1933.27 488.633C1934.63 488.24 1936.09 487.967 1937.51 487.629C1940.39 487.044 1943.36 486.537 1946.41 486.143C1952.46 485.335 1958.69 484.855 1965 484.516C1971.06 484.199 1977.2 484.041 1983.36 483.948C1990.98 484.461 1998.55 484.745 2006.11 484.904C2025.15 485.16 2044.11 484.958 2063.01 484.161C2072.44 483.735 2081.84 483.178 2091.21 482.228C2100.58 481.245 2109.93 480.186 2119.14 477.412L2132.51 473.371L2118.39 474.124C2105.73 474.774 2092.94 474.19 2080.21 472.715C2067.44 471.35 2054.67 469.597 2041.89 468.947C2029.07 468.347 2016.22 468.046 2003.26 467.648C1990.26 467.32 1977.2 467.063 1963.92 467.473C1957.25 467.697 1950.53 468.063 1943.7 468.822C1940.31 469.204 1936.87 469.69 1933.41 470.329C1931.67 470.695 1929.94 470.984 1928.17 471.448L1925.56 472.087L1923.16 472.726C1922.39 472.934 1921.61 473.185 1920.84 473.403L1920.39 473.376C1910.74 472.901 1901.1 472.546 1891.4 472.3L1876.9 471.995C1872.03 471.945 1867.34 471.754 1862.24 471.82C1852.25 471.978 1842.46 472.83 1832.75 473.78C1813.29 475.713 1794.04 478.242 1774.97 479.246C1765.44 479.689 1755.96 479.945 1746.88 479.083L1743.54 478.711L1740.35 478.242L1733 476.871C1727.94 475.997 1722.97 475.315 1718.1 474.643C1708.32 473.338 1698.79 472.158 1689.81 470.121C1687.34 469.57 1684.9 468.92 1682.54 468.194C1688.96 465.982 1695.5 463.934 1702.07 461.98C1714.73 458.25 1727.57 454.881 1740.46 451.713C1766.2 445.401 1792.12 439.951 1818.06 434.741C1830.95 432.115 1843.85 429.625 1856.73 427.315C1869.59 425.016 1882.45 422.979 1895.3 421.15C1901.74 420.341 1908.13 419.44 1914.58 418.703L1933.81 416.666L1952.89 415.186L1972.42 414.34C1985.07 414.001 1998.23 413.777 2011.05 413.767C2017.5 413.685 2023.94 413.783 2030.37 413.843C2036.8 413.892 2043.22 413.958 2049.61 414.192C2062.45 414.438 2075.22 415.11 2087.97 415.749L2107.01 417.136C2113.38 417.589 2119.6 418.354 2125.9 418.938C2132.13 419.468 2138.51 420.429 2144.83 421.27L2154.21 422.515C2157.21 422.968 2160.35 423.525 2163.44 424.076C2169.64 425.201 2175.85 426.43 2182.04 427.708C2188.23 428.942 2194.43 430.247 2200.57 431.634C2212.87 434.392 2225.11 437.352 2237.06 440.934C2242.99 442.78 2248.93 444.653 2254.47 447.132C2256.71 448.126 2258.84 449.267 2260.78 450.539C2241.91 435.282 2166 419.855 2152.42 417.638C2095.49 408.339 2028.71 406.64 1971.19 407.519Z" fill="#D5D5D5"/>
<path d="M2447.53 467.074C2460.44 466.288 2473.27 466.528 2486.1 467.091C2498.91 467.692 2511.73 468.696 2524.53 470.143C2527.75 470.504 2530.92 470.87 2534.26 471.339L2543.84 472.956C2550.14 474.037 2556.43 475.009 2562.8 476.412C2569.16 477.739 2575.62 478.935 2581.92 480.399L2600.83 484.827C2613.39 488.038 2625.96 491.249 2638.44 494.864C2644.72 496.573 2650.95 498.452 2657.18 500.33L2663.41 502.198C2667.57 503.448 2671.72 504.717 2675.85 506.064C2688.37 509.974 2700.58 513.988 2713.24 518.307L2731.66 524.937L2750.26 532.341L2768.52 540.259C2774.58 543.023 2780.51 545.917 2786.53 548.745C2798.46 554.588 2810.29 560.655 2821.96 566.919C2833.68 573.188 2845.31 579.626 2856.87 586.195C2868.48 592.699 2879.93 599.503 2891.42 606.334C2902.91 613.215 2914.37 620.221 2925.75 627.457C2937.14 634.687 2948.46 642.119 2959.62 649.96C2970.79 657.851 2981.81 666.004 2992.39 675.418L3002.47 684.445L2990.38 689.611C2984.43 692.139 2978.41 693.008 2972.75 693.237C2967.11 693.483 2961.71 693.062 2956.49 692.456C2946.02 691.173 2936.1 689.032 2926.48 686.891C2921.68 685.794 2916.93 684.729 2912.36 683.85L2905.19 682.61C2903.96 682.386 2902.47 682.059 2901.12 681.78L2897.23 680.819C2887.05 678.1 2877.56 674.403 2868.38 670.34C2850.11 662.214 2832.98 652.898 2815.73 644.292C2807.13 639.989 2798.54 635.833 2789.86 632.355C2781.13 629.013 2771.81 625.644 2762.86 622.4C2760.43 621.532 2757.98 620.729 2755.55 619.877C2757.13 621.439 2758.71 623.165 2760.25 625.294C2761.57 627.167 2763.02 629.324 2763.9 632.819C2764.28 634.638 2764.54 636.784 2763.9 639.252C2763.77 639.869 2763.57 640.426 2763.31 641.021L2762.95 641.9L2762.74 642.321L2762.35 642.965L2762.09 643.363C2761.95 643.574 2761.69 643.93 2761.54 644.139C2760.91 644.92 2760.51 645.286 2760.11 645.668C2756.69 648.628 2754.04 649.256 2751.74 649.982C2749.42 650.61 2747.39 650.922 2745.43 651.173C2741.53 651.626 2737.92 651.735 2734.38 651.724C2727.32 651.702 2720.54 651.233 2713.83 650.616C2707.07 649.971 2700.59 649.201 2693.77 648.229C2690.56 647.754 2687.36 647.274 2683.84 646.618C2680.4 646.05 2677.17 645.324 2673.85 644.658C2660.65 641.764 2647.8 637.963 2635.18 633.649C2622.65 629.346 2610.4 624.366 2598.42 619.025C2592.44 616.36 2586.53 613.554 2580.67 610.73C2574.84 607.803 2569.05 604.866 2563.37 601.791C2551.95 595.697 2540.81 589.27 2529.83 582.64C2518.9 576 2508.18 569.152 2497.64 562.048L2489.79 556.713L2488.81 556.041L2487.73 555.244L2485.84 553.868L2482.06 551.088C2477.06 547.528 2472.03 543.23 2467.11 539.167C2457.56 530.829 2448.75 521.993 2440.45 512.885C2432.17 503.787 2424.07 494.689 2416.29 485.095C2446.24 510.105 2463.59 529.551 2495.61 551.099C2554.82 590.919 2630.23 630.875 2697.93 640.633C2706.6 641.884 2750.97 648.349 2755.69 639.825C2759.8 632.382 2737.21 617.136 2729.88 612.205C2726.52 609.95 2722.6 607.771 2718.38 605.646C2742.41 612.194 2765.92 620.008 2789.82 628.227C2824.62 640.186 2875.42 672.639 2910.99 677.433C2932.83 680.382 2968.61 692.21 2987.85 683.62C2957.9 656.688 2895.2 619.582 2860.06 599.383C2811 571.195 2763.47 545.862 2710.54 527.328C2656.22 508.33 2592.33 488.852 2535.36 479.683C2521.76 477.494 2444.89 468.156 2422.16 476.674C2421.64 476.811 2421.09 476.893 2420.6 477.062C2419.3 477.515 2418.08 478.04 2417.2 478.706C2416.75 479.033 2416.43 479.394 2416.19 479.782C2416.07 479.989 2416 480.158 2415.95 480.279C2415.83 480.339 2415.85 480.945 2415.81 481.256L2411.93 481.19C2411.92 480.748 2411.81 480.595 2411.91 479.924C2411.94 479.296 2412.09 478.739 2412.27 478.269C2412.65 477.248 2413.27 476.374 2413.95 475.648C2415.31 474.217 2416.92 473.261 2418.51 472.519C2421.7 471.039 2424.95 470.198 2428.17 469.499C2434.64 468.145 2441.09 467.451 2447.53 467.074ZM1971.48 398.105C1984.85 398.012 1997.71 398.045 2010.81 398.291C2017.33 398.329 2023.83 398.547 2030.34 398.744C2036.84 398.93 2043.35 399.126 2049.83 399.487C2062.82 399.989 2075.76 400.917 2088.69 401.829L2108.03 403.61C2114.47 404.199 2120.97 405.106 2127.42 405.854C2133.92 406.537 2140.19 407.607 2146.52 408.557L2156.12 410.059C2159.44 410.659 2162.56 411.315 2165.73 411.992C2178.33 414.662 2190.8 417.753 2203.17 421.226C2215.5 424.743 2227.76 428.565 2239.77 433.398C2245.75 435.779 2251.65 438.487 2257.36 441.808C2260.21 443.489 2263.02 445.319 2265.58 447.721C2266.86 448.928 2268.08 450.343 2268.9 452.134C2269.33 453.029 2269.65 454.061 2269.67 455.132C2269.7 455.645 2269.65 456.218 2269.49 456.819C2269.38 457.496 2269.23 457.616 2269.09 458.026L2265.38 456.863C2265.43 456.552 2265.64 455.995 2265.56 455.902C2265.54 455.765 2265.53 455.574 2265.47 455.339C2265.38 454.902 2265.17 454.46 2264.84 454.001C2264.23 453.095 2263.23 452.21 2262.16 451.38C2261.75 451.069 2261.25 450.812 2260.81 450.517C2241.93 435.255 2166.02 419.833 2152.45 417.616C2095.49 408.328 2028.71 406.629 1971.19 407.509C1915.11 408.377 1862.01 417.409 1806.59 428.658C1766.86 436.74 1695.65 452.134 1658.75 468.238C1674.31 482.468 1711.98 482.539 1733.63 486.651C1768.89 493.324 1827.34 478.564 1864.12 478.209C1889.4 477.963 1914.16 477.98 1939.03 479.361C1934.35 480.038 1929.97 480.863 1926.06 481.944C1917.53 484.319 1891.3 491.642 1892.85 500.008C1894.65 509.575 1938.77 517.45 1947.39 519.017C2014.73 531.14 2098.86 517.029 2167.63 497.933C2204.8 487.607 2227.39 474.638 2263.7 460.369C2253.3 467.014 2242.75 473.081 2232.02 479.11C2221.26 485.122 2210.12 490.73 2198.42 495.623C2192.48 497.933 2186.35 500.418 2180.49 502.203L2176.02 503.656L2173.79 504.371L2172.52 504.77L2171.37 505.109L2162.24 507.691C2150.02 511.104 2137.67 514.212 2125.19 517.073C2112.69 519.891 2100.1 522.474 2087.34 524.647C2080.96 525.767 2074.55 526.733 2068.1 527.672C2061.66 528.497 2055.17 529.294 2048.64 529.922C2035.59 531.195 2022.4 532.068 2009.14 532.183C1995.82 532.309 1982.42 531.85 1968.99 530.425C1965.61 530.015 1962.33 529.676 1958.87 529.141C1955.35 528.655 1952.16 528.093 1948.95 527.53C1942.19 526.307 1935.79 524.991 1929.17 523.462C1922.6 521.933 1916.03 520.229 1909.32 518.034C1905.94 516.904 1902.58 515.67 1899 514.01C1897.22 513.152 1895.38 512.224 1893.38 510.886C1891.44 509.477 1889.12 508.052 1886.8 504.153C1886.54 503.667 1886.3 503.192 1885.95 502.258C1885.83 501.925 1885.64 501.286 1885.61 501.166L1885.53 500.887L1885.37 500.145L1885.3 499.681L1885.22 498.736C1885.17 498.086 1885.15 497.469 1885.23 496.857C1885.4 494.313 1886.33 492.352 1887.27 490.763C1889.2 487.727 1891.26 486.127 1893.09 484.751C1895.22 483.233 1897.24 482.102 1899.24 481.125C1896.66 481.163 1894.11 481.152 1891.54 481.201C1882 481.453 1872.12 481.693 1862.77 482.113C1853.44 482.665 1843.97 483.904 1834.45 485.27C1815.39 488.005 1796.19 491.418 1776.28 493.362C1766.28 494.307 1756.12 494.82 1745.61 494.187L1741.61 493.865C1740.25 493.707 1738.74 493.559 1737.47 493.368L1730.3 492.287C1725.66 491.664 1720.83 491.189 1715.93 490.703C1706.14 489.693 1696.04 488.606 1685.71 486.504C1680.55 485.444 1675.29 484.112 1670.01 482.102C1664.73 480.093 1659.29 477.379 1654.44 473.098L1644.6 464.371L1657.04 459.02C1670.05 453.444 1683.08 449.169 1696.17 445.22C1709.22 441.311 1722.31 437.827 1735.41 434.55C1748.47 431.29 1761.56 428.248 1774.64 425.36C1787.7 422.509 1800.7 419.67 1813.78 417.152C1826.82 414.586 1839.88 412.145 1852.97 409.895C1866.03 407.629 1879.17 405.63 1892.34 403.839C1898.94 403.058 1905.49 402.179 1912.09 401.469L1931.91 399.722L1951.9 398.569L1971.48 398.105Z" fill="#7A7A7A"/>
<path d="M2697.96 640.633C2706.63 641.884 2750.99 648.344 2755.72 639.825C2759.82 632.388 2737.23 617.141 2729.9 612.205C2726.54 609.949 2722.62 607.771 2718.4 605.646C2742.43 612.194 2765.94 620.008 2789.85 628.227C2824.64 640.18 2875.45 672.639 2911.01 677.433C2932.85 680.382 2968.63 692.21 2987.88 683.62C2957.93 656.688 2895.22 619.582 2860.08 599.383C2811.03 571.195 2763.49 545.857 2710.56 527.328C2656.25 508.33 2592.36 488.852 2535.38 479.683C2521.79 477.493 2444.91 468.156 2422.18 476.674C2424.42 476.09 2426.81 475.675 2429.24 475.429C2435.27 474.829 2441.51 474.943 2447.74 475.069C2460.18 475.435 2472.73 476.483 2485.28 477.756C2491.53 478.373 2497.82 479.099 2504.09 479.885C2510.36 480.633 2516.66 481.431 2522.89 482.326C2525.99 482.774 2529.14 483.222 2532.15 483.746L2541.42 485.521C2547.68 486.728 2554.04 487.825 2560.13 489.289C2566.29 490.73 2572.44 491.97 2578.6 493.537L2597.12 498.233C2609.43 501.663 2621.75 505.054 2634.01 508.866C2640.16 510.679 2646.27 512.633 2652.38 514.627C2658.5 516.582 2664.66 518.531 2670.74 520.65C2682.91 524.718 2695.33 529.087 2707.22 533.395L2725.49 540.358L2743.12 547.784L2760.74 555.79C2766.61 558.526 2772.41 561.403 2778.26 564.199C2789.88 569.999 2801.43 575.995 2812.91 582.236C2824.41 588.494 2835.86 594.932 2847.27 601.502C2870.24 614.635 2893.11 627.992 2915.54 642.119C2926.78 649.196 2937.9 656.437 2948.74 663.978C2954.35 667.899 2959.9 671.902 2965.28 676.019C2962.82 675.97 2960.32 675.828 2957.8 675.566C2948.65 674.681 2939.22 672.775 2929.54 670.924C2924.69 670.029 2919.77 669.1 2914.68 668.341L2907.28 667.315L2904.11 666.752L2900.83 666.053C2891.94 664.011 2883.02 660.751 2874.12 657.332C2856.33 650.348 2838.87 641.873 2821.02 633.9C2812.09 629.925 2803.08 626.026 2793.64 622.728C2788.83 621.051 2784.32 619.746 2779.68 618.261L2765.81 613.979C2756.55 611.145 2747.28 608.437 2737.98 605.843L2737.54 605.728C2736.88 605.281 2736.22 604.789 2735.55 604.352L2733.48 602.992L2731.2 601.551C2729.67 600.557 2728.12 599.738 2726.57 598.848C2723.49 597.144 2720.4 595.599 2717.28 594.168C2711.06 591.29 2704.79 588.822 2698.54 586.512C2686.07 581.919 2673.58 578.026 2661.16 574.247C2648.74 570.517 2636.43 566.755 2624.08 563.271C2611.74 559.853 2599.07 557.488 2586.54 554.747C2573.98 552.126 2561.67 548.647 2549.86 544.027L2536.71 538.856L2548.11 546.911C2555.97 552.464 2564.5 556.412 2573.07 560.311C2581.66 564.156 2590.42 567.667 2599.24 571.047C2616.93 577.764 2634.85 583.945 2653.01 589.712C2660.23 591.956 2667.52 594.091 2674.94 596.014C2680.74 598.029 2686.49 600.115 2692.14 602.326C2698.01 604.642 2703.78 607.072 2709.28 609.731C2712.02 611.085 2714.69 612.489 2717.24 613.947C2718.49 614.739 2719.77 615.454 2720.95 616.257L2722.74 617.442L2724.69 618.807C2729.78 622.362 2734.73 626.081 2738.87 629.925C2739.72 630.695 2740.49 631.492 2741.24 632.268C2738.97 632.442 2736.52 632.508 2733.99 632.475C2728 632.377 2721.74 631.869 2715.47 631.197C2709.25 630.526 2702.79 629.646 2696.71 628.691C2693.49 628.172 2690.27 627.648 2687.35 627.036C2684.39 626.517 2681.28 625.764 2678.24 625.109C2666.07 622.329 2653.99 618.856 2642.08 614.749C2630.23 610.616 2618.48 606.122 2606.94 601.081C2583.96 591.023 2561.47 579.746 2539.81 567.274C2528.98 561.065 2518.32 554.648 2507.85 547.964L2500.02 542.919L2492.38 537.84C2487 534.389 2482.32 530.943 2477.3 527.53C2467.41 520.448 2457.66 513.005 2447.59 505.693C2437.62 498.37 2427.24 491.282 2416.32 485.089C2446.27 510.1 2463.62 529.545 2495.64 551.094C2554.84 590.919 2630.25 630.875 2697.96 640.633Z" fill="#D5D5D5"/>
<path d="M2205.68 518.493C2204.77 540.702 2218.08 561.6 2230.69 580.052C2249.36 607.421 2239.43 642.976 2240.19 672.404C2241.36 718.214 2224.53 900.172 2263.5 943.301L2263.66 943.35C2313.22 922.545 2353.53 749.876 2369.17 707.358C2379.24 680.016 2381.16 633.835 2407.52 615.585C2427.07 602.026 2454.04 587.692 2458.77 563.009L2342.13 443.904C2342.13 443.904 2205.75 517.04 2205.68 518.493Z" fill="#C6C6C6"/>
<path d="M2440.33 563.233C2437.09 564.631 2433.87 566.094 2430.66 567.58C2434.77 564.953 2438.81 562.168 2442.63 558.973C2446.94 555.375 2438.92 551.208 2435.76 551.945C2430.25 553.212 2424.8 554.676 2419.4 556.21C2421.96 552.852 2424.19 549.21 2425.92 545.19C2427.76 540.909 2421.56 538.386 2418.31 538.922C2384.22 544.743 2360.77 567.967 2330.6 583.023C2315.81 590.4 2300.42 596.893 2284.56 601.906C2282.42 602.479 2280.34 603.102 2278.25 603.73C2274.19 604.756 2270.11 605.575 2265.93 606.078C2262.35 607.165 2259.6 605.887 2257.68 602.244C2260.56 599.296 2269.36 597.805 2272.94 596.898C2287.27 593.311 2300.73 588.467 2314.18 582.444C2326.11 577.109 2337.26 570.572 2347.62 562.763C2369.59 555.413 2390.19 544.491 2406.29 527.563C2409.73 523.97 2400.77 520.983 2398.67 521.294C2380.13 523.91 2366.11 533.417 2352.01 545.354C2347.54 549.16 2343.01 552.683 2338.4 556.014C2329.52 558.875 2320.5 561.311 2311.52 563.424C2305.51 564.849 2299.16 565.788 2292.68 566.602C2301.48 561.857 2310.19 556.876 2319.11 552.115C2343.22 539.26 2370.71 531.2 2390.51 511.76C2395.15 507.222 2385.7 504.066 2382.35 505.016C2356.93 512.164 2333.44 523.539 2309.53 534.76C2309.64 534.7 2309.74 534.651 2309.85 534.608C2330.9 524.112 2351.58 513.054 2371.88 501.406C2376.95 498.512 2368.3 494.427 2364.52 494.537C2366.42 493.581 2368.33 492.642 2370.22 491.67C2376.57 488.399 2367.39 482.659 2363.08 484.352C2340.33 493.199 2318.18 503.372 2296.61 515.014C2279.44 524.238 2257.96 541.985 2237.15 546.851C2249.03 535.476 2267.28 529.431 2281.03 521.343C2301.79 509.111 2322.41 496.77 2342.64 483.883C2346.32 481.551 2342.32 478.487 2338.49 477.346C2343.06 474.577 2347.64 471.798 2352.19 468.98C2355.98 466.638 2351.3 463.001 2347.3 462.094C2348.78 459.566 2349.24 457.169 2347.87 455.154C2346.27 452.8 2342.96 451.32 2340.24 451.899C2336.54 452.696 2333.54 454.995 2330.45 457.07C2317.46 465.715 2305.03 473.966 2290.9 480.885C2273.09 489.622 2254.57 496.928 2236.54 505.393C2231.34 506.911 2226.13 508.461 2220.9 510.132C2218.21 510.99 2218.13 512.573 2219.28 514.075C2218.07 514.73 2216.84 515.347 2215.64 516.014C2214.34 516.756 2214.18 518.651 2214.96 519.896C2217.95 524.745 2223.08 526.242 2229 525.914C2223.95 528.333 2218.88 530.709 2213.76 533.029C2208.17 535.558 2214.45 540.773 2218.29 540.795C2222.16 540.811 2225.8 540.145 2229.31 539.074C2225.71 542.176 2222.44 545.644 2219.81 549.816C2217.51 553.464 2223.57 556.046 2226.15 556.21C2228.67 556.38 2231.12 556.341 2233.54 556.134C2232.05 557.231 2230.51 558.242 2229.03 559.367C2224.19 563.031 2233.88 567.989 2237.35 566.154C2237.71 565.963 2238.06 565.767 2238.41 565.586H2238.43C2239.64 564.942 2240.84 564.265 2242.05 563.62C2241.61 564.036 2241.14 564.401 2240.7 564.816C2236.3 569.027 2244.5 572.079 2247.72 571.921C2267.54 570.971 2284.58 559.148 2301.12 549.696C2318.58 539.713 2337.48 530.73 2356.71 523.315C2342.27 531.32 2326.49 537.414 2311.91 544.797C2294.62 553.573 2278.34 563.626 2260.72 571.386C2252.91 573.15 2245.46 575.672 2238.78 579.648C2233.21 582.946 2244 587.315 2247.1 586.414C2253.8 584.492 2260.23 582.127 2266.5 579.473C2276.42 577.556 2286.96 577.038 2296.32 575.416C2301.63 574.493 2306.87 573.357 2312.11 572.205C2304.52 576.131 2296.66 579.681 2288.34 582.913C2276.34 587.56 2256.25 588.003 2246.8 597.652C2242.22 602.326 2249.03 610.146 2253.6 611.965C2254.17 612.199 2254.76 612.347 2255.34 612.538C2253.63 613.379 2251.86 614.149 2250.21 615.088C2247.09 616.852 2250.49 620.778 2252.68 621.521C2260.81 624.278 2268.7 624.497 2276.4 623.257C2270.42 625.644 2264.46 628.036 2258.46 630.406C2253.46 632.371 2257.55 636.418 2261.77 637.63C2250.92 644.232 2243.54 651.189 2250.28 655.64C2256.82 659.943 2266.14 655.694 2272.27 653.423C2278.64 651.058 2284.88 648.404 2291.12 645.728C2290.32 646.263 2289.52 646.75 2288.73 647.285C2287.29 648.251 2287.04 649.289 2287.49 650.25C2283.8 652.33 2280.1 654.411 2276.45 656.568C2274.31 657.835 2274.73 659.402 2276.2 660.718C2265.13 664.164 2254.34 668.292 2246.26 676.549C2242.62 680.268 2248.55 683.375 2251.82 683.675C2265.84 685.013 2279.91 682.594 2293.84 678.313C2291.78 681.442 2297.39 684.33 2300.08 684.532C2307.32 685.057 2314.35 684.205 2321.22 682.594C2320.08 683.162 2318.92 683.713 2317.8 684.298C2312.61 687.028 2307.19 689.272 2301.64 691.255C2285.13 695.689 2268.66 700.39 2253.01 707.32C2246.49 710.209 2255.8 716.543 2260.26 714.605C2272.38 709.291 2285.07 705.6 2297.65 701.625C2298.97 701.253 2300.27 700.86 2301.6 700.494C2285.83 708.773 2270.24 717.368 2255.78 728.027C2250.53 731.91 2260.87 735.793 2264.08 734.722C2266.56 733.881 2268.99 732.942 2271.43 732.003C2267.08 735.885 2263.08 740.161 2259.54 744.977C2256.69 748.904 2264.74 751.853 2267.31 751.219C2278.59 748.429 2289.28 744.475 2299.72 739.986C2291.59 746.998 2284.33 754.867 2278.89 764.281C2277.26 767.099 2279.85 769.021 2282.62 769.928C2280.08 771.621 2277.55 773.357 2275.03 775.121C2269.85 778.752 2280.51 783.716 2284.35 781.204C2289.26 778.004 2294.11 774.755 2298.88 771.429C2307.18 766.258 2315.87 762.059 2325.51 760.486C2321.04 767.47 2311.83 771.566 2304.89 774.657C2298.41 777.529 2307.66 783.858 2312.09 781.881C2323.08 777.005 2337.22 770.343 2339.54 757.008C2340.11 753.622 2335.39 751.749 2332.91 751.694C2329.71 751.612 2326.62 751.842 2323.6 752.224C2329.3 747.244 2334.79 741.99 2339.95 736.295C2343.39 732.483 2333.62 728.972 2330.98 730.414C2319.73 736.595 2310.47 747.795 2299.6 755.266C2316.46 736.459 2341.01 724.341 2360.71 709.859C2365.6 706.239 2355.89 701.559 2352.51 703.186C2328.9 714.545 2306.26 728.169 2281.58 737.294C2300.1 720.743 2325.3 711.601 2345.49 698.108C2349.72 695.285 2343.88 691.888 2339.76 691.315C2341.58 690.321 2343.4 689.327 2345.21 688.306H2345.22V688.295C2345.57 688.109 2345.92 687.918 2346.26 687.721C2349.18 686.072 2347.52 684.003 2344.87 682.588C2357.18 676.795 2369.46 670.067 2378.18 661.128C2382.72 656.47 2373.42 653.433 2370 654.438C2351.99 659.762 2333.87 671.175 2314.86 675.14C2333.69 661.99 2356.12 652.56 2376.7 644.079C2383.33 641.332 2373.86 635.397 2369.55 636.811C2351.22 642.911 2333.56 651.134 2315.65 658.539C2300.24 664.896 2282.97 672.748 2265.64 675.091C2282.07 665.174 2304.86 661.27 2321.39 654.182C2349.18 642.255 2376.78 630.329 2402.82 615.252C2407.1 612.778 2401.1 609.032 2397.5 608.333C2408.81 602.157 2420.11 595.965 2431.47 589.87C2437.97 586.359 2428.5 581.461 2424.35 582.613C2422.42 583.148 2420.57 583.776 2418.66 584.322C2428.13 579.479 2437.67 574.788 2447.43 570.517C2453.79 567.705 2444.68 561.382 2440.33 563.233ZM2300.02 539.451C2289.31 545.19 2278.67 552.317 2267.44 557.406C2277.77 550.602 2288.97 544.901 2300.02 539.451ZM2283.38 612.653C2279.51 614.089 2275.58 615.203 2271.67 615.787C2273.66 615.061 2275.7 614.395 2277.78 613.761C2279.64 613.466 2281.51 613.089 2283.38 612.653ZM2351.09 581.881C2370.25 569.944 2388.79 556.778 2409.89 550.061C2406.23 555.184 2401.68 559.618 2396.56 563.5C2381.2 568.923 2366.13 575.165 2351.09 581.881ZM2270.02 644.09C2274.55 641.453 2279.34 639.197 2283.98 636.937C2296.03 631.055 2308.48 626.053 2320.79 620.855C2343.57 611.238 2365.17 599.279 2387.08 588.079C2391.21 586.512 2395.3 584.896 2399.37 583.236C2380.35 593.343 2361.5 603.981 2341.98 613.27C2318.55 624.421 2294.28 634.343 2270.02 644.09ZM2363.74 615.372C2362.03 616.273 2360.32 617.18 2358.61 618.075C2358.51 618.113 2358.41 618.152 2358.3 618.184C2358.8 617.895 2359.29 617.611 2359.79 617.311C2361.1 616.672 2362.42 616.005 2363.74 615.372Z" fill="#C6C6C6"/>
<path d="M2605.03 702.313C2601.91 699.205 2597.31 694.678 2591.37 688.999C2579.68 677.428 2562.98 660.887 2543.22 640.683C2533.37 630.509 2522.53 619.626 2511.35 607.776C2499.94 596.167 2488.14 583.601 2475.79 570.725C2463.49 557.75 2450.75 544.322 2437.78 530.638C2424.77 516.964 2411.58 502.968 2398.47 488.846C2383.89 473.283 2369.39 457.644 2355.06 442.255C2364.76 436.898 2374.39 431.585 2383.81 426.386C2391.85 422.034 2399.73 417.731 2407.44 413.521C2415.22 409.354 2422.83 405.27 2430.23 401.3C2445.09 393.13 2459.04 385.054 2471.53 376.939C2484.08 368.863 2495.23 360.819 2504.49 352.896C2513.81 345.01 2521.21 337.174 2526.51 330.108C2531.82 323.003 2534.95 316.685 2536.64 312.197C2537.53 309.969 2538.01 308.205 2538.32 306.998C2538.64 305.797 2538.81 305.185 2538.81 305.185C2538.81 305.185 2538.6 305.786 2538.21 306.949C2537.8 308.123 2537.22 309.87 2536.17 311.984C2534.24 316.276 2530.7 322.261 2525.03 328.825C2519.34 335.361 2511.6 342.504 2501.95 349.597C2492.32 356.724 2480.87 363.883 2467.96 370.932C2455.03 377.928 2440.67 384.797 2425.31 391.716C2417.69 395.309 2409.71 398.749 2401.75 402.807C2393.88 406.848 2385.81 410.992 2377.65 415.175C2367.13 420.653 2356.37 426.315 2345.55 432.044C2337.15 423.044 2328.81 414.127 2320.61 405.466C2314.27 398.831 2308.01 392.295 2301.89 385.895C2295.67 379.446 2289.27 373.575 2283.26 367.7C2271 356.123 2259.68 344.934 2249.75 334.083C2239.86 323.2 2231.36 312.677 2224.61 302.793C2217.8 292.926 2212.85 283.648 2209.61 275.61C2206.39 267.539 2205.02 260.729 2204.56 256.038C2204.29 253.706 2204.3 251.855 2204.31 250.621C2204.31 249.387 2204.31 248.748 2204.31 248.748C2204.31 248.748 2204.26 249.387 2204.17 250.621C2204.08 251.861 2203.95 253.69 2204.06 256.082C2204.19 260.871 2205.09 267.872 2207.8 276.33C2210.48 284.745 2214.91 294.564 2221.13 305.07C2227.3 315.604 2235.19 326.848 2244.42 338.577C2253.58 350.34 2264.1 362.545 2275.48 375.126C2281.18 381.313 2287.03 387.664 2293 394.141C2298.92 400.644 2304.98 407.296 2311.13 414.04C2318.36 422.078 2325.76 430.291 2333.22 438.575C2314.61 448.453 2295.73 458.501 2276.81 468.45C2259.81 477.493 2242.77 486.422 2226 495.072C2220.19 498.097 2186.92 515.337 2176.97 520.502C2161.09 528.623 2145.84 536.633 2131.25 543.869C2116.81 551.399 2103.01 558.121 2090.38 564.511C2065.1 577.13 2043.91 587.309 2029.08 594.408C2021.62 597.827 2015.78 600.617 2011.81 602.523C2007.86 604.407 2005.72 605.439 2005.72 605.439C2005.72 605.439 2007.99 604.702 2012.21 603.369C2016.42 602.015 2022.6 600.038 2030.44 597.406C2038.29 594.801 2047.66 591.186 2058.49 587.227C2069.31 583.192 2081.31 578.179 2094.53 572.882C2107.59 567.241 2121.82 561.24 2136.68 554.457C2151.59 547.664 2167.22 540.281 2183.36 532.549C2190.2 529.147 2197.2 525.668 2204.21 522.179C2204.32 526.1 2204.79 530.015 2205.67 533.832C2207.78 543.323 2211.84 552.224 2216.53 560.584C2221.13 568.956 2226.85 576.83 2231.73 584.677C2236.34 592.623 2238.79 601.742 2239.82 610.883C2241.87 629.335 2238.82 647.825 2238.48 666.676C2238.49 667.194 2238.47 667.691 2238.48 668.188C2237.16 669.106 2235.98 670.04 2235.04 670.99C2233.31 672.688 2232.3 674.408 2231.99 675.675C2231.65 676.953 2231.71 677.635 2231.71 677.635C2231.71 677.635 2231.82 676.915 2232.41 675.877C2232.98 674.823 2234.2 673.507 2236.07 672.344C2236.77 671.918 2237.62 671.525 2238.47 671.126C2238.51 679.05 2238.4 686.815 2238.09 694.722L2237.1 722.752C2235.73 760.126 2234.69 797.635 2236.24 835.222C2237.06 854.018 2238.63 872.835 2241.81 891.506C2243.42 900.833 2245.51 910.121 2248.5 919.23C2251.55 928.235 2255.45 937.278 2262.02 944.721L2262.41 945.185L2263.02 945.349L2263.19 945.387L2263.9 945.573L2264.5 945.305C2273.59 941.302 2280.39 934.165 2286.25 926.771C2292.11 919.296 2297.03 911.203 2301.54 902.93C2310.52 886.34 2317.82 868.953 2324.54 851.391C2334.98 823.934 2343.81 795.932 2352.25 767.869L2352.73 767.721C2352.73 767.721 2352.67 767.339 2352.58 766.777C2354.83 759.285 2357.06 751.793 2359.28 744.3C2361.96 735.339 2364.63 726.373 2367.46 717.499C2368.84 713.043 2370.44 708.74 2371.96 704.262C2373.43 699.741 2374.64 695.192 2375.79 690.638C2376.16 689.114 2376.51 687.58 2376.87 686.056C2377.87 686.799 2378.81 687.508 2379.65 688.126C2383.42 690.894 2385.6 692.472 2385.6 692.472C2385.6 692.472 2383.59 690.692 2380.06 687.596C2379.17 686.815 2378.19 685.936 2377.12 684.975C2378.84 677.739 2380.5 670.504 2382.42 663.388C2384.83 654.438 2387.68 645.597 2391.72 637.461C2395.75 629.384 2401.17 621.996 2408.37 616.977C2415.77 611.855 2423.46 607.066 2430.81 601.693C2438.15 596.358 2445.26 590.46 2451.03 583.11C2453.71 579.702 2455.99 575.853 2457.71 571.73C2460.41 574.487 2463.17 577.3 2465.84 580.025C2478.58 592.622 2490.9 604.713 2502.78 615.995C2514.6 627.282 2526.09 637.619 2536.59 647.225C2547.33 656.568 2557.05 665.24 2565.94 672.584C2574.88 679.874 2582.54 686.345 2589.11 691.386C2595.66 696.437 2600.85 700.347 2604.41 702.99C2607.93 705.633 2609.84 707.058 2609.84 707.058C2609.84 707.058 2608.16 705.403 2605.03 702.313ZM2372.68 689.726C2371.56 694.247 2370.35 698.747 2368.93 703.11C2367.45 707.468 2365.78 711.885 2364.39 716.374C2361.49 725.291 2358.81 734.258 2356.09 743.208C2354.37 748.969 2352.61 754.703 2350.88 760.453C2350.35 759.066 2349.72 757.608 2348.87 755.981C2347.63 753.709 2346.04 751.192 2343.95 748.734C2341.99 746.146 2339.46 743.749 2336.7 741.248C2333.84 738.932 2330.7 736.535 2327.26 734.536C2323.79 732.521 2320.07 730.698 2316.16 729.289C2312.26 727.814 2308.19 726.722 2304.09 725.979C2295.86 724.412 2287.52 724.205 2279.83 724.969C2275.97 725.324 2272.28 725.969 2268.86 726.831C2265.42 727.721 2262.2 728.606 2259.37 729.867C2256.5 731.009 2253.95 732.265 2251.81 733.575C2249.66 734.848 2247.87 736.087 2246.51 737.283C2245.09 738.375 2244.12 739.407 2243.46 740.106C2242.82 740.805 2242.45 741.177 2242.45 741.177L2242.68 741.488C2242.68 741.488 2243.15 741.324 2244.04 741.002C2244.9 740.653 2246.17 740.188 2247.8 739.686C2248.61 739.407 2249.5 739.145 2250.5 738.911C2251.48 738.654 2252.51 738.315 2253.68 738.097C2255.96 737.616 2258.49 737.087 2261.34 736.732C2264.13 736.36 2267.19 736.049 2270.42 735.863C2273.67 735.749 2277.06 735.65 2280.57 735.749C2284.08 735.782 2287.73 736.06 2291.38 736.388C2295.03 736.775 2298.75 737.24 2302.41 737.889C2306.07 738.577 2309.71 739.238 2313.27 740.172C2316.81 741.018 2320.28 742.029 2323.57 743.214C2330.17 745.48 2336.01 748.724 2340.33 752.437C2344.66 756.134 2347.43 760.251 2349.05 763.167C2349.31 763.582 2349.49 763.959 2349.7 764.363C2340.94 793.174 2331.82 821.892 2321.04 849.928C2314.32 867.364 2306.95 884.614 2298.1 900.915C2293.63 909.057 2288.77 916.975 2283.08 924.161C2277.73 930.894 2271.51 937.125 2264.1 940.723C2258.79 934.231 2255.22 926.165 2252.47 917.941C2249.63 909.144 2247.6 900.046 2246.06 890.872C2242.93 872.491 2241.57 853.821 2240.65 835.184C2238.93 797.821 2239.77 760.42 2240.94 723.052L2241.79 695.001C2242.04 686.662 2241.97 678.111 2241.87 669.794C2245.18 668.636 2249.11 667.626 2253.64 666.867C2261.25 665.54 2270.29 664.584 2279.98 664.24C2284.83 664.049 2289.83 663.94 2294.9 663.94C2299.9 663.874 2305 663.814 2310.06 663.76C2312.56 663.738 2315.06 663.76 2317.37 663.918C2319.97 664.12 2322.65 664.207 2324.98 664.442C2329.79 664.764 2334.71 665.633 2339.39 666.616C2343.99 667.85 2348.49 669.275 2352.54 671.148C2356.59 673.027 2360.38 675.003 2363.74 677.117C2367.69 679.536 2371.08 681.895 2374.02 684.03C2373.59 685.914 2373.15 687.831 2372.68 689.726ZM2448.58 581.051C2443.11 588.052 2436.19 593.802 2428.95 599.061C2421.69 604.347 2414.03 609.098 2406.56 614.285C2398.82 619.67 2393.08 627.506 2388.91 635.899C2384.71 644.341 2381.81 653.346 2379.36 662.411C2377.56 669.089 2375.98 675.812 2374.4 682.528C2371.79 680.158 2368.79 677.532 2365.28 674.741C2358.93 669.608 2350.84 664.328 2341.38 659.97C2336.62 657.829 2331.67 655.776 2326.25 654.4C2323.48 653.543 2320.98 653.073 2318.38 652.565C2315.52 651.997 2312.72 651.768 2309.98 651.593C2304.48 651.276 2299.09 651.462 2293.84 652.008C2288.58 652.603 2283.46 653.412 2278.55 654.367C2268.71 656.322 2259.61 658.643 2252.08 661.466C2248.26 662.908 2244.81 664.453 2241.89 666.07C2242.23 647.836 2245.15 629.45 2243.04 610.643C2241.92 601.174 2239.38 591.601 2234.42 583.093C2229.26 574.875 2223.77 567.383 2219.19 559.094C2214.57 550.924 2210.65 542.313 2208.63 533.275C2207.66 529.108 2207.21 524.893 2207.23 520.683C2215.69 516.456 2224.23 512.153 2232.84 507.735C2249.66 499.047 2266.71 490.108 2283.72 481.038C2300.82 472.022 2317.79 462.695 2334.57 453.564C2337.29 452.063 2339.95 450.594 2342.66 449.098C2344.7 451.364 2346.7 453.586 2348.75 455.863C2355.49 463.263 2362.27 470.728 2369.1 478.198L2369.82 479.154C2371.87 481.835 2374.03 484.429 2376.12 487.066C2378.25 489.682 2380.31 492.352 2382.48 494.924L2389.09 502.531C2391.27 505.125 2393.53 507.593 2395.86 510.018L2402.77 517.335L2409.98 524.374C2412.32 526.755 2414.91 528.885 2417.38 531.151C2419.08 532.724 2420.89 534.171 2422.68 535.629C2424.16 537.201 2425.67 538.801 2427.15 540.358C2436.61 550.253 2446.01 559.847 2455.29 569.3C2453.67 573.537 2451.37 577.502 2448.58 581.051Z" fill="#7A7A7A"/>
<path d="M2347.45 762.539C2346.66 759.847 2341.17 759.328 2339.23 760.584C2334.45 763.588 2330.09 767.017 2326.06 770.763C2325.79 770.801 2325.51 770.85 2325.38 770.916C2302.95 781.215 2284.05 799.077 2263.9 813.947C2260.23 816.655 2256.43 819.02 2252.51 821.259C2263.51 814.984 2273.59 804.456 2283.66 796.319C2298.21 784.551 2312.73 772.822 2326.94 760.639C2329.54 758.389 2320.44 756.784 2318.89 757.466C2301.73 764.909 2285.12 774.362 2267.94 782.072C2282.5 769.212 2284.18 764.325 2287.28 757.532C2293.22 756.467 2298.71 755.173 2302.58 753.081C2301.1 752.508 2296.03 751.143 2291.3 749.832C2292.92 746.61 2284.8 745.96 2283.17 746.845C2272.09 752.825 2259.93 754.971 2248.84 760.972C2245.41 762.823 2253.92 765.941 2256.37 764.614C2260.07 762.616 2265.26 761.36 2270.87 760.322C2260.48 769.491 2248.37 777.84 2245.5 791.58C2244.86 794.654 2251.54 794.998 2253.07 794.523C2268.8 789.499 2283.7 781.99 2298.59 774.466C2279.08 790.515 2260.75 804.816 2241.45 821.39C2240.54 822.171 2241.45 823.459 2241.93 823.863C2250.38 830.575 2259.33 825.616 2267.38 820.418C2281.87 811.069 2294.89 799.334 2308.77 789.177C2292.51 806.269 2275.14 822.089 2257.99 838.302C2255.38 840.786 2264.54 842.168 2266.06 841.458C2275.28 837.226 2283.93 832.115 2292.26 826.425C2280.91 840.005 2268.86 852.855 2255.69 864.71C2253.12 867.009 2261.76 868.554 2262.97 868.161C2272.44 865.125 2281.58 861.341 2290.57 857.108C2278.23 869.313 2266.05 881.731 2254.7 895.154C2252.59 897.655 2261.27 900.046 2263.35 897.818C2272.68 887.847 2282.02 877.985 2291.56 868.374C2286.22 878.422 2280.77 888.475 2275.5 898.665C2269.7 904.552 2264.34 910.815 2260.05 918.334C2258.91 920.339 2261.44 921.507 2264.1 921.786C2263.66 922.725 2263.22 923.642 2262.79 924.582C2261.43 927.563 2270.15 928.126 2271.7 926.646C2284.17 914.812 2287.86 906.894 2294.18 891.347C2294.19 891.326 2294.17 891.304 2294.18 891.293C2308.07 872.344 2318.24 851.615 2328.24 829.526C2329.33 827.096 2324.73 826.173 2321.87 826.867C2325.97 817.365 2329.63 807.607 2332.68 797.51C2335.31 798.941 2338.99 798.706 2339.03 796.614C2339.22 785.119 2350.88 774.116 2347.45 762.539ZM2336.68 776.879C2335.67 776.12 2333.98 775.738 2332.41 775.661C2334.41 773.696 2336.5 771.806 2338.7 770.01C2338.31 772.298 2337.56 774.597 2336.68 776.879ZM2297.97 811.293C2297.74 811.79 2297.49 812.248 2297.25 812.74C2297.08 813.122 2297.05 813.488 2297.12 813.832C2294.44 815.885 2291.75 817.895 2289.02 819.85C2292.01 817.01 2295.01 814.171 2297.97 811.293ZM2319.75 805.068C2321.07 803.233 2318.46 802.075 2315.72 801.758C2318.66 797.925 2321.76 794.239 2325.04 790.728C2319.97 808.841 2312.89 825.824 2304.87 842.337C2295.17 847.601 2285.36 852.571 2275.3 856.885C2291.5 840.999 2306.19 823.711 2319.75 805.068Z" fill="#D9D9D9"/>
<path d="M2463.2 502.302C2465.39 501.412 2467.66 500.784 2469.91 500.292C2474.44 499.255 2479 498.774 2483.53 498.365C2488.07 497.993 2492.57 497.884 2497.07 497.764L2510.48 497.84C2514.93 497.933 2519.37 498.135 2523.67 498.13L2536.92 497.829C2545.95 497.66 2554.97 497.704 2563.93 497.769C2581.92 497.906 2599.79 498.146 2617.55 497.218C2622.01 496.956 2626.41 496.639 2630.84 496.284L2637.35 495.623L2644.1 494.766L2671.1 490.911C2689.18 488.311 2707.19 485.483 2725.17 482.321C2743.17 479.137 2761.05 475.358 2778.66 470.597C2796.29 465.791 2813.7 460.167 2830.07 452.598C2842.99 446.613 2855.3 439.312 2865.64 430.253C2864.11 430.072 2862.59 429.859 2861.05 429.728C2858.41 429.548 2855.76 429.297 2853.07 429.193C2850.4 429.089 2847.71 429.04 2845 429.068C2842.3 429.133 2839.58 429.144 2836.87 429.27C2834.14 429.379 2831.42 429.548 2828.69 429.756C2823.22 430.176 2817.72 430.755 2812.23 431.487C2806.74 432.229 2801.26 433.087 2795.77 434.07C2790.32 435.107 2784.84 436.134 2779.42 437.346C2774.01 438.586 2768.57 439.771 2763.16 441.048L2746.97 444.849C2756.41 442.283 2765.85 439.765 2775.26 436.969C2777.81 436.238 2780.36 435.468 2782.9 434.73L2795.08 430.973C2800.41 429.319 2805.79 427.681 2811.23 426.212C2813.28 425.649 2815.35 425.13 2817.41 424.606C2822.29 423.214 2827.16 421.843 2832.04 420.423C2841.58 417.627 2851.16 415.203 2860.79 412.882L2875.3 409.354C2880.03 408.202 2884.78 407.094 2889.45 405.739C2898.86 403.145 2908.15 400.115 2917.34 396.707C2926.52 393.327 2935.61 389.619 2944.62 385.638C2953.65 381.717 2962.62 377.66 2971.56 373.341L2998.44 360.366C3007.45 356.003 3016.3 351.487 3025.61 347.216C3044.05 338.648 3062.75 331.063 3080.93 322.921C3090.03 318.815 3098.98 314.506 3107.65 309.816C3111.99 307.473 3116.28 304.983 3120.42 302.46C3122.48 301.155 3124.53 299.948 3126.57 298.561L3132.76 294.395C3141.14 288.557 3149.56 282.965 3157.59 277.193C3163.02 273.283 3168.05 269.089 3172.88 264.732C3158.77 261.93 3144.44 259.899 3130.02 258.517C3112.43 256.912 3094.73 256.005 3077.01 255.869C3059.34 255.754 3041.61 256.235 3024.03 257.081C3006.36 258.004 2988.79 259.244 2971.3 260.855C2962.55 261.554 2953.85 262.662 2945.15 263.541C2936.46 264.513 2927.81 265.747 2919.16 266.829L2893.38 270.788C2884.85 272.377 2876.24 273.753 2867.8 275.484L2855.2 278.089C2851.01 278.924 2846.78 279.842 2842.53 280.89L2829.79 283.899L2823.59 285.401L2817.3 286.995C2800.52 291.266 2783.79 295.607 2767.15 300.09C2733.97 309.057 2701.13 318.739 2668.91 329.769C2652.87 335.246 2636.9 340.926 2621.09 346.905C2613.22 349.914 2605.34 352.95 2597.59 356.172C2589.73 359.192 2582.05 362.528 2574.33 365.772C2566.67 369.18 2559.15 372.287 2551.43 375.924C2543.74 379.533 2536.2 383.126 2528.41 386.659L2505.39 397.128C2497.76 400.546 2490.18 404.035 2482.68 407.656C2467.7 414.848 2452.91 422.373 2438.92 431.039C2431.96 435.429 2425.11 439.978 2418.86 445.248C2412.59 450.507 2406.83 456.251 2402.57 463.399L2402.23 463.246C2402.21 463.312 2400.6 468.287 2400.77 472.268C2400.93 476.276 2408.75 479.427 2415.58 483.287C2422.4 487.143 2456.79 510.82 2456.79 510.82L2456.72 508.56H2456.83C2456.94 507.844 2457.28 507.271 2457.71 506.747L2457.22 506.294C2458.77 504.393 2460.99 503.17 2463.2 502.302Z" fill="#D5D5D5"/>
<path d="M3024 244.227C3041.94 243.795 3059.8 243.746 3077.76 244.281C3095.75 244.866 3113.78 245.81 3131.75 247.711C3149.77 249.649 3167.73 252.5 3185.4 256.732L3193.98 258.812L3187.96 265.076C3180.79 272.552 3172.68 279.154 3164.49 285.302C3156.34 291.489 3148.04 297.18 3140.22 303.241L3134.09 307.79C3132.03 309.291 3129.79 310.771 3127.67 312.251C3123.33 315.151 3118.98 317.914 3114.55 320.557C3105.71 325.854 3096.6 330.719 3087.46 335.317C3069.23 344.584 3050.67 352.623 3032.64 361.048L3005.53 373.919C2996.44 378.195 2987.36 382.553 2978.1 386.55C2968.84 390.597 2959.5 394.517 2950.07 398.165C2940.6 401.769 2931.01 405.111 2921.32 408.087C2911.66 411.107 2901.85 413.734 2891.96 415.907C2887.04 417.059 2882.07 417.944 2877.11 418.878L2872.69 419.664C2875.03 419.948 2877.35 420.254 2879.7 420.674L2889.62 422.422L2882.84 430.072C2869.8 444.827 2853.01 455.536 2835.75 463.902C2818.4 472.191 2800.38 478.526 2782.16 483.533C2763.98 488.513 2745.66 492.461 2727.37 495.782C2709.08 499.189 2690.81 501.706 2672.62 504.147L2645.37 507.724L2638.57 508.511L2631.5 509.16C2626.88 509.499 2622.26 509.772 2617.66 509.892C2599.25 510.465 2581.13 509.783 2563.24 509.242C2554.3 508.953 2545.39 508.718 2536.54 508.674C2532.07 508.609 2527.84 508.822 2522.99 508.609C2518.38 508.385 2513.94 508.046 2509.5 507.67L2496.32 506.419C2491.97 505.95 2487.62 505.578 2483.26 505.24C2478.91 504.863 2474.58 504.666 2470.26 504.633C2466.02 504.808 2461.52 504.694 2457.9 506.916L2457.73 506.763L2457.24 506.31C2458.78 504.41 2461 503.181 2463.21 502.318C2465.4 501.428 2467.67 500.8 2469.92 500.309C2474.46 499.265 2479.01 498.785 2483.54 498.381C2488.08 498.01 2492.58 497.9 2497.08 497.78L2510.49 497.857C2514.94 497.949 2519.38 498.152 2523.68 498.146L2536.93 497.846C2545.96 497.671 2554.98 497.715 2563.94 497.786C2581.93 497.922 2599.8 498.162 2617.56 497.234C2622.02 496.972 2626.42 496.65 2630.85 496.3L2637.36 495.64L2644.11 494.782L2671.11 490.927C2689.2 488.333 2707.21 485.499 2725.18 482.337C2743.18 479.148 2761.06 475.375 2778.67 470.613C2796.3 465.807 2813.71 460.183 2830.08 452.614C2843.01 446.635 2855.31 439.328 2865.65 430.269C2864.13 430.089 2862.6 429.876 2861.06 429.745C2858.42 429.565 2855.77 429.319 2853.08 429.21C2850.41 429.106 2847.72 429.057 2845.01 429.084C2842.31 429.149 2839.59 429.16 2836.88 429.286C2834.15 429.395 2831.44 429.564 2828.7 429.772C2823.23 430.192 2817.73 430.771 2812.24 431.503C2806.75 432.246 2801.27 433.103 2795.78 434.086C2790.33 435.124 2784.85 436.15 2779.43 437.362C2774.02 438.597 2768.58 439.787 2763.17 441.065L2746.98 444.866L2754.33 443.07C2761.66 441.221 2768.97 439.231 2776.3 437.27C2776 437.341 2775.7 437.412 2775.4 437.488L2746.98 444.866L2756.42 442.303C2762.72 440.59 2769 438.85 2775.27 436.986C2777.82 436.254 2780.37 435.484 2782.92 434.747L2795.09 430.99C2800.42 429.335 2805.8 427.697 2811.24 426.228C2813.3 425.671 2815.36 425.147 2817.42 424.623C2822.3 423.23 2827.17 421.859 2832.05 420.44C2841.59 417.644 2851.18 415.219 2860.8 412.898L2875.31 409.371C2880.04 408.218 2884.79 407.115 2889.46 405.756C2898.86 403.162 2908.16 400.131 2917.35 396.724C2926.53 393.349 2935.62 389.635 2944.63 385.655C2953.66 381.734 2962.64 377.676 2971.57 373.357L2998.45 360.382C3007.47 356.014 3016.31 351.503 3025.62 347.233C3044.06 338.665 3062.76 331.08 3080.95 322.938C3090.04 318.831 3098.99 314.523 3107.66 309.832C3112 307.489 3116.29 304.999 3120.43 302.476L3124.54 299.915L3126.59 298.577L3132.77 294.411C3141.15 288.573 3149.57 282.982 3157.6 277.21C3163.03 273.3 3168.06 269.106 3172.89 264.748C3158.78 261.947 3144.45 259.91 3130.03 258.534C3112.45 256.923 3094.74 256.016 3077.02 255.885C3059.35 255.771 3041.62 256.251 3024.04 257.098C3006.37 258.02 2988.8 259.26 2971.31 260.871C2962.56 261.57 2953.87 262.673 2945.16 263.558C2936.47 264.53 2927.82 265.764 2919.17 266.845L2893.39 270.804C2884.86 272.388 2876.25 273.769 2867.81 275.5L2855.21 278.105C2851.02 278.941 2846.79 279.858 2842.54 280.906L2829.8 283.915L2823.6 285.417L2817.31 287.012C2800.53 291.282 2783.8 295.623 2767.16 300.106C2733.98 309.073 2701.14 318.749 2668.92 329.786C2652.87 335.263 2636.91 340.942 2621.1 346.921C2613.23 349.93 2605.35 352.967 2597.6 356.188C2589.74 359.208 2582.06 362.545 2574.34 365.788C2566.68 369.196 2559.16 372.303 2551.44 375.94C2543.75 379.549 2536.21 383.143 2528.42 386.676L2505.4 397.144C2497.77 400.562 2490.19 404.052 2482.7 407.672C2467.71 414.864 2452.92 422.389 2438.93 431.055C2431.97 435.446 2425.12 440 2418.87 445.264C2412.6 450.523 2406.84 456.268 2402.58 463.416L2402.24 463.263L2401.89 463.11C2403.23 459.287 2405.19 455.427 2407.47 451.866C2409.83 448.339 2412.43 444.947 2415.27 441.753C2420.98 435.386 2427.33 429.614 2434 424.279C2440.65 418.927 2447.56 413.903 2454.7 409.223C2461.81 404.532 2469.01 399.984 2476.4 395.741C2483.73 391.465 2491.18 387.326 2498.61 383.274L2521.07 371.5C2535.87 363.555 2550.93 355.801 2566.69 348.451C2582.31 341.281 2598.16 334.569 2614.23 328.459C2630.3 322.299 2646.53 316.407 2662.91 311.099C2679.3 305.622 2695.83 300.663 2712.43 295.683C2729.07 290.84 2745.74 286.116 2762.57 281.726C2779.38 277.302 2796.31 273.065 2813.31 269.21L2819.69 267.73L2823.02 266.992L2826.23 266.315L2839.02 263.64C2843.26 262.722 2847.58 261.892 2851.98 261.133L2865.1 258.774C2873.86 257.229 2882.57 256.06 2891.32 254.678L2917.67 251.331C2926.49 250.463 2935.28 249.447 2944.11 248.699C2952.97 248.033 2961.81 247.154 2970.66 246.689C2988.42 245.532 3006.2 244.762 3024 244.227ZM1596.93 0L1605.69 0.753584C1623.79 2.31536 1641.74 5.28055 1659.45 9.1413C1677.09 13.0075 1694.5 17.8075 1711.74 22.9297C1728.96 28.0901 1745.9 33.7802 1762.79 39.8689C1779.5 45.9795 1796.12 52.3304 1812.62 59.0307C1820.88 62.2744 1828.98 65.9113 1837.18 69.3242C1845.33 72.8246 1853.36 76.5761 1861.44 80.1802L1885.39 91.6805C1893.25 95.7488 1901.16 99.6205 1908.98 103.842L1920.69 110.231C1924.61 112.328 1928.46 114.485 1932.19 116.696L1946.31 124.92L1949.24 126.684L1954.82 130.091C1969.74 139.124 1984.47 148.483 1999.03 157.996C2013.6 167.476 2027.96 177.229 2042.21 187.074C2056.37 197.04 2070.51 206.968 2084.33 217.338C2098.2 227.549 2111.73 238.258 2125.04 249.18C2138.36 260.052 2151.29 271.421 2163.85 283.162C2176.48 295.104 2188.34 307.227 2199.87 319.443L2217.47 337.704C2223.27 343.902 2229.01 350.171 2234.64 356.549C2240.29 362.911 2245.69 369.496 2250.96 376.202C2256.26 382.886 2261.23 389.838 2265.85 397.018C2270.5 404.188 2274.71 411.675 2278.11 419.517C2279.8 423.438 2281.2 427.484 2282.33 431.574C2283.35 435.67 2284 439.945 2284.05 444.003L2283.79 444.025L2283.3 444.074C2281.51 435.948 2277.87 428.68 2273.57 421.701C2269.29 414.739 2264.22 408.251 2259.01 401.889C2248.47 389.248 2236.8 377.436 2224.84 365.887C2218.89 360.087 2212.79 354.375 2206.63 348.729L2188.09 331.533C2181.81 325.701 2175.81 319.924 2169.64 314.07C2163.46 308.194 2157.31 302.853 2151.11 297.201L2141.66 288.915C2138.5 286.16 2135.32 283.424 2132.07 280.748C2125.72 275.244 2119.2 269.876 2112.7 264.535C2099.58 253.881 2086.23 243.44 2072.72 233.18C2045.63 212.532 2017.52 192.972 1988.87 173.985C1974.48 164.478 1959.98 155.074 1945.42 145.726L1939.93 142.22L1934.53 138.84L1923.4 131.959C1919.69 129.616 1915.97 127.41 1912.25 125.297L1901.11 118.842C1893.65 114.534 1885.93 110.509 1878.33 106.315L1855.12 94.4164C1847.25 90.6485 1839.43 86.744 1831.5 83.0799C1823.52 79.4976 1815.61 75.7024 1807.52 72.2676C1791.44 65.2177 1775.17 58.4956 1758.7 52.041C1742.27 45.6956 1725.59 39.6396 1708.79 34.1679C1691.94 28.7017 1674.85 23.9618 1657.66 19.9317C1643.49 16.6826 1629.2 14.0778 1614.88 12.2812C1618.1 17.9604 1621.69 23.5085 1625.62 28.9584C1631.42 36.9638 1637.63 44.9311 1643.73 53.1167L1648.3 59.0198C1649.81 60.9857 1651.38 62.7823 1652.91 64.6662C1656.04 68.3741 1659.34 72.0983 1662.7 75.6805C1669.47 82.8778 1676.58 89.7802 1683.93 96.557C1698.62 110.029 1713.95 123.124 1728.76 137.087C1736.25 144.071 1743.21 151.143 1750.4 158.143L1771.81 178.943C1778.92 185.857 1786.16 192.552 1793.51 199.115C1800.79 205.734 1808.24 212.128 1815.88 218.233C1823.53 224.371 1831.38 230.182 1839.5 235.615C1843.51 238.378 1847.67 240.923 1851.78 243.517L1864.44 251.429C1872.84 256.677 1881.16 262.012 1889.34 267.67C1894.1 270.962 1898.89 274.212 1903.66 277.483C1904.85 278.253 1906.08 278.957 1907.25 279.738C1911.97 282.845 1916.55 286.1 1921.09 289.349L1931.6 296.868C1933.73 298.337 1935.85 299.839 1938 301.302C1946.05 306.916 1954.2 312.295 1962.37 317.712L1948.2 308.986C1943.46 306.064 1938.68 303.23 1933.94 300.341C1929.17 297.485 1924.3 294.777 1919.45 292.068C1914.57 289.403 1909.62 286.864 1904.65 284.423C1899.67 281.988 1894.65 279.721 1889.58 277.581C1887.06 276.511 1884.52 275.506 1881.96 274.534C1879.43 273.567 1876.85 272.694 1874.31 271.782C1871.76 270.897 1869.19 270.1 1866.62 269.352C1864.05 268.598 1861.44 267.997 1858.88 267.342C1857.38 266.971 1855.87 266.698 1854.37 266.392C1861.32 278.247 1870.7 289.065 1881.06 298.823C1894.21 311.17 1908.96 322.01 1924.15 332.134C1939.35 342.209 1955.15 351.443 1971.23 360.158C1987.27 368.819 2003.49 377.201 2019.82 385.376L2044.23 397.565L2050.36 400.508L2056.34 403.189C2060.42 404.937 2064.52 406.635 2068.65 408.279C2085.21 414.771 2102.25 420.194 2119.36 425.737C2127.89 428.489 2136.45 431.301 2144.97 434.315L2157.45 438.788C2161.53 440.147 2165.79 441.354 2170.05 442.676L2182.79 446.842C2187.02 448.377 2191.27 449.9 2195.47 451.686C2199.63 453.494 2203.8 455.41 2207.78 457.813C2209.76 458.993 2211.72 460.303 2213.51 461.848C2215.32 463.356 2217.07 465.234 2217.93 467.517L2217.32 467.795L2217.1 467.893C2214.37 464.644 2210.06 463.323 2206.09 461.821C2201.99 460.489 2197.82 459.315 2193.57 458.288C2189.34 457.234 2185.09 456.207 2180.8 455.29L2167.89 452.314C2163.58 451.282 2159.26 450.19 2154.81 448.945C2150.14 447.618 2146.19 446.083 2141.93 444.729C2133.52 441.977 2124.99 439.394 2116.44 436.838C2099.26 431.7 2081.88 426.616 2064.59 420.265C2060.25 418.698 2055.96 416.977 2051.68 415.197L2045.18 412.358L2038.97 409.458L2014.24 397.45C1997.77 389.384 1981.2 381.226 1964.94 372.227C1948.63 363.287 1932.49 353.764 1916.79 343.301C1901.11 332.8 1885.99 321.092 1872.15 307.741C1858.41 294.351 1845.85 278.891 1838.13 260.773L1834.12 251.369L1844.08 252.849C1846.42 253.188 1848.74 253.635 1851.05 254.094L1847.1 251.959C1842.69 249.513 1838.25 247.094 1833.95 244.451C1825.26 239.257 1816.78 233.671 1808.56 227.752C1800.3 221.87 1792.25 215.678 1784.4 209.272C1776.61 202.823 1768.99 196.161 1761.49 189.401C1753.96 182.673 1746.7 175.672 1739.43 168.748L1717.78 147.97C1703.33 134.274 1688.24 120.781 1673.86 106.239C1666.65 98.9925 1659.55 91.5003 1652.83 83.6751C1649.44 79.7707 1646.2 75.7679 1642.99 71.6505L1639.83 67.4761L1638.3 65.3925L1633.91 59.1399C1628.42 50.916 1622.34 42.8942 1616.55 34.4573C1610.72 26.0369 1605.1 17.2068 1600.65 7.8471L1596.93 0Z" fill="#7A7A7A"/>
<path d="M2283.32 444.074C2281.53 435.954 2277.89 428.68 2273.59 421.701C2269.31 414.739 2264.24 408.246 2259.03 401.889C2248.49 389.253 2236.83 377.436 2224.86 365.887C2218.92 360.087 2212.81 354.375 2206.65 348.729L2188.11 331.533C2181.83 325.701 2175.84 319.924 2169.66 314.07C2163.49 308.188 2157.33 302.853 2151.13 297.201C2144.83 291.691 2138.58 286.1 2132.09 280.748C2125.74 275.244 2119.23 269.87 2112.72 264.535C2099.6 253.881 2086.25 243.446 2072.74 233.18C2045.66 212.532 2017.55 192.972 1988.89 173.985C1974.5 164.478 1960 155.08 1945.44 145.726L1939.95 142.22L1934.55 138.84L1923.42 131.959C1919.71 129.616 1915.99 127.41 1912.27 125.297L1901.13 118.842C1893.67 114.534 1885.95 110.509 1878.35 106.315L1855.14 94.4164C1847.27 90.6539 1839.46 86.7495 1831.52 83.0799C1823.54 79.4976 1815.63 75.7024 1807.54 72.2676C1791.46 65.2177 1775.18 58.4956 1758.73 52.041C1742.29 45.6901 1725.62 39.6396 1708.81 34.1679C1691.97 28.7017 1674.87 23.9618 1657.68 19.9317C1643.51 16.6826 1629.22 14.0778 1614.9 12.2812C1618.12 17.9604 1621.71 23.5085 1625.64 28.9584C1631.44 36.9638 1637.65 44.9311 1643.76 53.1167L1648.32 59.0198C1649.83 60.9857 1651.4 62.7823 1652.93 64.6662C1656.06 68.3741 1659.36 72.0928 1662.73 75.6805C1669.49 82.8778 1676.6 89.7857 1683.95 96.557C1698.64 110.029 1713.98 123.124 1728.78 137.087C1736.27 144.071 1743.23 151.143 1750.42 158.143L1771.83 178.943C1778.94 185.857 1786.18 192.552 1793.53 199.115C1800.81 205.734 1808.26 212.134 1815.9 218.233C1823.55 224.371 1831.41 230.182 1839.52 235.615C1843.53 238.378 1847.7 240.923 1851.81 243.517L1864.46 251.429C1872.86 256.672 1881.18 262.012 1889.36 267.67C1894.12 270.968 1898.91 274.217 1903.68 277.483C1904.87 278.253 1906.11 278.957 1907.27 279.738C1911.99 282.845 1916.57 286.1 1921.11 289.349L1931.62 296.868C1933.75 298.337 1935.88 299.839 1938.02 301.302C1946.07 306.916 1954.22 312.295 1962.39 317.712L1948.22 308.986C1943.48 306.064 1938.7 303.23 1933.96 300.341C1929.2 297.485 1924.32 294.777 1919.47 292.068C1914.59 289.398 1909.64 286.859 1904.67 284.423C1899.69 281.988 1894.67 279.721 1889.6 277.581C1887.08 276.511 1884.54 275.506 1881.98 274.534C1879.45 273.567 1876.87 272.694 1874.33 271.782C1871.78 270.897 1869.21 270.1 1866.64 269.352C1864.07 268.598 1861.47 267.992 1858.9 267.342C1857.4 266.976 1855.89 266.698 1854.39 266.392C1861.33 278.247 1870.72 289.065 1881.08 298.823C1894.24 311.17 1908.98 322.01 1924.18 332.134C1939.37 342.214 1955.17 351.443 1971.25 360.158C1987.3 368.819 2003.51 377.207 2019.84 385.376L2044.25 397.565L2050.38 400.508L2056.36 403.189C2060.44 404.937 2064.54 406.635 2068.67 408.279C2085.23 414.771 2102.28 420.194 2119.38 425.737C2127.91 428.483 2136.48 431.301 2145 434.315L2157.48 438.788C2161.54 440.153 2165.81 441.36 2170.07 442.676L2182.82 446.842C2187.04 448.377 2191.3 449.9 2195.49 451.686C2199.65 453.494 2203.82 455.405 2207.8 457.813C2209.79 458.993 2211.74 460.303 2213.53 461.848C2215.35 463.356 2217.08 465.234 2217.96 467.517L2217.34 467.795C2217.58 468.429 2217.73 469.084 2217.59 469.794L2217.69 469.821L2216.92 471.945C2216.92 471.945 2257.02 460.336 2264.72 458.84C2272.42 457.332 2280.81 456.808 2282.24 453.062C2283.67 449.321 2283.72 444.079 2283.72 444.035L2283.83 444.025L2283.32 444.074Z" fill="#D5D5D5"/>
</g>
</svg>
